M48
;GenerationSoftware,Autodesk,EAGLE,9.6.2*%
;CreationDate,2021-01-09T05:51:07Z*%
FMAT,2
ICI,OFF
METRIC,TZ,000.000
T4C0.381
T3C1.000
T2C1.016
T1C3.302
%
G90
M71
T1
X2540Y2540
X40640Y2540
X40640Y35560
X2540Y35560
T2
X41910Y13970
X34290Y1270
X41910Y24130
X41910Y26670
X41910Y29210
X41910Y31750
X41910Y6350
X41910Y8890
X41910Y11430
T3
X12700Y1778
X17200Y5278
X7700Y10078
X12700Y36322
X8200Y32822
X17700Y28022
T4
X17526Y35560
X7231Y18285
X9642Y24000
X23871Y6985
X15113Y18603
X27852Y7837
X17656Y19211
X29845Y28892
X35415Y17910
X4826Y27432
X1270Y27940
X30739Y27953
X26035Y30480
X26035Y33020
X23495Y17262
X11906Y17680
X26035Y13017
X29715Y21590
X29715Y22860
X32385Y25717
X32258Y35560
X25425Y3901
M30