G75*
%MOIN*%
%OFA0B0*%
%FSLAX25Y25*%
%IPPOS*%
%LPD*%
%AMOC8*
5,1,8,0,0,1.08239X$1,22.5*
%
%ADD10C,0.00800*%
%ADD11R,0.00025X0.00600*%
%ADD12R,0.00025X0.00875*%
%ADD13R,0.00025X0.01100*%
%ADD14R,0.00025X0.01250*%
%ADD15R,0.00025X0.01400*%
%ADD16R,0.00025X0.01550*%
%ADD17R,0.00025X0.01700*%
%ADD18R,0.00025X0.01800*%
%ADD19R,0.00025X0.01900*%
%ADD20R,0.00025X0.02000*%
%ADD21R,0.00025X0.02100*%
%ADD22R,0.00025X0.02200*%
%ADD23R,0.00025X0.02250*%
%ADD24R,0.00025X0.02350*%
%ADD25R,0.00025X0.02450*%
%ADD26R,0.00025X0.02500*%
%ADD27R,0.00025X0.02550*%
%ADD28R,0.00025X0.02650*%
%ADD29R,0.00025X0.02700*%
%ADD30R,0.00025X0.02750*%
%ADD31R,0.00025X0.02800*%
%ADD32R,0.00025X0.02900*%
%ADD33R,0.00025X0.02950*%
%ADD34R,0.00025X0.03000*%
%ADD35R,0.00025X0.03050*%
%ADD36R,0.00025X0.03100*%
%ADD37R,0.00025X0.03150*%
%ADD38R,0.00025X0.03200*%
%ADD39R,0.00025X0.03250*%
%ADD40R,0.00025X0.03300*%
%ADD41R,0.00025X0.03350*%
%ADD42R,0.00025X0.03400*%
%ADD43R,0.00025X0.03450*%
%ADD44R,0.00025X0.03500*%
%ADD45R,0.00025X0.03550*%
%ADD46R,0.00025X0.01600*%
%ADD47R,0.00025X0.01475*%
%ADD48R,0.00025X0.01625*%
%ADD49R,0.00025X0.01500*%
%ADD50R,0.00025X0.01650*%
%ADD51R,0.00025X0.01525*%
%ADD52R,0.00025X0.01675*%
%ADD53R,0.00025X0.01575*%
%ADD54R,0.00025X0.01725*%
%ADD55R,0.00025X0.01750*%
%ADD56R,0.00025X0.01775*%
%ADD57R,0.00025X0.01825*%
%ADD58R,0.00025X0.01850*%
%ADD59R,0.00025X0.01875*%
%ADD60R,0.00025X0.01925*%
%ADD61R,0.00025X0.01950*%
%ADD62R,0.00025X0.01975*%
%ADD63R,0.00025X0.01350*%
%ADD64R,0.00025X0.00625*%
%ADD65R,0.00025X0.00550*%
%ADD66R,0.00025X0.00500*%
%ADD67R,0.00025X0.01325*%
%ADD68R,0.00025X0.00450*%
%ADD69R,0.00025X0.00400*%
%ADD70R,0.00025X0.00375*%
%ADD71R,0.00025X0.00325*%
%ADD72R,0.00025X0.00275*%
%ADD73R,0.00025X0.00250*%
%ADD74R,0.00025X0.01300*%
%ADD75R,0.00025X0.00225*%
%ADD76R,0.00025X0.00175*%
%ADD77R,0.00025X0.00150*%
%ADD78R,0.00025X0.00125*%
%ADD79R,0.00025X0.00100*%
%ADD80R,0.00025X0.01275*%
%ADD81R,0.00025X0.00075*%
%ADD82R,0.00025X0.00050*%
%ADD83R,0.00025X0.00025*%
%ADD84R,0.00025X0.01425*%
%ADD85R,0.00025X0.01450*%
%ADD86R,0.00025X0.00850*%
%ADD87R,0.00025X0.03600*%
%ADD88R,0.00025X0.01000*%
%ADD89R,0.00025X0.01025*%
%ADD90R,0.00025X0.01050*%
%ADD91R,0.00025X0.00900*%
%ADD92R,0.00025X0.00925*%
%ADD93R,0.00025X0.01125*%
%ADD94R,0.00025X0.00950*%
%ADD95R,0.00025X0.01150*%
%ADD96R,0.00025X0.00975*%
%ADD97R,0.00025X0.01175*%
%ADD98R,0.00025X0.01200*%
%ADD99R,0.00025X0.01075*%
%ADD100R,0.00025X0.01375*%
%ADD101R,0.00025X0.02125*%
%ADD102R,0.00025X0.02075*%
%ADD103R,0.00025X0.02050*%
%ADD104R,0.00025X0.02025*%
%ADD105R,0.00025X0.02150*%
%ADD106R,0.00025X0.02175*%
%ADD107R,0.00025X0.02225*%
%ADD108R,0.00025X0.02275*%
%ADD109R,0.00025X0.02300*%
%ADD110R,0.00025X0.02325*%
%ADD111R,0.00025X0.02375*%
%ADD112R,0.00025X0.02400*%
%ADD113R,0.00025X0.02425*%
%ADD114R,0.00025X0.02475*%
%ADD115R,0.00025X0.02525*%
%ADD116R,0.00025X0.02575*%
%ADD117R,0.00025X0.01225*%
%ADD118R,0.00025X0.00700*%
%ADD119R,0.00025X0.00650*%
%ADD120R,0.00025X0.00575*%
%ADD121R,0.00025X0.00350*%
%ADD122R,0.00025X0.00200*%
%ADD123R,0.00025X0.00825*%
%ADD124R,0.00025X0.00800*%
%ADD125R,0.00025X0.00775*%
%ADD126R,0.00025X0.00475*%
%ADD127R,0.00025X0.00750*%
%ADD128R,0.00025X0.02925*%
%ADD129R,0.00025X0.02875*%
%ADD130R,0.00025X0.02850*%
%ADD131R,0.00025X0.02825*%
%ADD132R,0.00025X0.00725*%
%ADD133R,0.00025X0.03650*%
%ADD134R,0.00025X0.03700*%
%ADD135R,0.00025X0.03750*%
%ADD136R,0.00025X0.03800*%
%ADD137R,0.00025X0.02675*%
%ADD138R,0.00025X0.00675*%
%ADD139R,0.00025X0.00525*%
%ADD140R,0.00025X0.00425*%
%ADD141R,0.00025X0.00300*%
%ADD142R,0.00025X0.03950*%
%ADD143R,0.00025X0.03925*%
%ADD144R,0.00025X0.03900*%
%ADD145R,0.00025X0.03875*%
%ADD146R,0.00025X0.03850*%
%ADD147R,0.00025X0.03525*%
%ADD148C,0.01000*%
%ADD149C,0.01575*%
%ADD150C,0.00600*%
%ADD151C,0.00000*%
%ADD152C,0.00500*%
%ADD153C,0.01339*%
%ADD154R,0.01500X0.02000*%
%ADD155C,0.00400*%
%ADD156C,0.00591*%
D10*
X0012250Y0015449D02*
X0029750Y0015449D01*
X0029992Y0015452D01*
X0030233Y0015461D01*
X0030474Y0015475D01*
X0030715Y0015496D01*
X0030955Y0015522D01*
X0031195Y0015554D01*
X0031434Y0015592D01*
X0031671Y0015635D01*
X0031908Y0015685D01*
X0032143Y0015740D01*
X0032377Y0015800D01*
X0032609Y0015867D01*
X0032840Y0015938D01*
X0033069Y0016016D01*
X0033296Y0016099D01*
X0033521Y0016187D01*
X0033744Y0016281D01*
X0033964Y0016380D01*
X0034182Y0016485D01*
X0034397Y0016594D01*
X0034610Y0016709D01*
X0034820Y0016829D01*
X0035026Y0016954D01*
X0035230Y0017084D01*
X0035431Y0017219D01*
X0035628Y0017359D01*
X0035822Y0017503D01*
X0036012Y0017652D01*
X0036198Y0017806D01*
X0036381Y0017964D01*
X0036560Y0018126D01*
X0036735Y0018293D01*
X0036906Y0018464D01*
X0037073Y0018639D01*
X0037235Y0018818D01*
X0037393Y0019001D01*
X0037547Y0019187D01*
X0037696Y0019377D01*
X0037840Y0019571D01*
X0037980Y0019768D01*
X0038115Y0019969D01*
X0038245Y0020173D01*
X0038370Y0020379D01*
X0038490Y0020589D01*
X0038605Y0020802D01*
X0038714Y0021017D01*
X0038819Y0021235D01*
X0038918Y0021455D01*
X0039012Y0021678D01*
X0039100Y0021903D01*
X0039183Y0022130D01*
X0039261Y0022359D01*
X0039332Y0022590D01*
X0039399Y0022822D01*
X0039459Y0023056D01*
X0039514Y0023291D01*
X0039564Y0023528D01*
X0039607Y0023765D01*
X0039645Y0024004D01*
X0039677Y0024244D01*
X0039703Y0024484D01*
X0039724Y0024725D01*
X0039738Y0024966D01*
X0039747Y0025207D01*
X0039750Y0025449D01*
X0039750Y0035449D01*
X0039753Y0035691D01*
X0039762Y0035932D01*
X0039776Y0036173D01*
X0039797Y0036414D01*
X0039823Y0036654D01*
X0039855Y0036894D01*
X0039893Y0037133D01*
X0039936Y0037370D01*
X0039986Y0037607D01*
X0040041Y0037842D01*
X0040101Y0038076D01*
X0040168Y0038308D01*
X0040239Y0038539D01*
X0040317Y0038768D01*
X0040400Y0038995D01*
X0040488Y0039220D01*
X0040582Y0039443D01*
X0040681Y0039663D01*
X0040786Y0039881D01*
X0040895Y0040096D01*
X0041010Y0040309D01*
X0041130Y0040519D01*
X0041255Y0040725D01*
X0041385Y0040929D01*
X0041520Y0041130D01*
X0041660Y0041327D01*
X0041804Y0041521D01*
X0041953Y0041711D01*
X0042107Y0041897D01*
X0042265Y0042080D01*
X0042427Y0042259D01*
X0042594Y0042434D01*
X0042765Y0042605D01*
X0042940Y0042772D01*
X0043119Y0042934D01*
X0043302Y0043092D01*
X0043488Y0043246D01*
X0043678Y0043395D01*
X0043872Y0043539D01*
X0044069Y0043679D01*
X0044270Y0043814D01*
X0044474Y0043944D01*
X0044680Y0044069D01*
X0044890Y0044189D01*
X0045103Y0044304D01*
X0045318Y0044413D01*
X0045536Y0044518D01*
X0045756Y0044617D01*
X0045979Y0044711D01*
X0046204Y0044799D01*
X0046431Y0044882D01*
X0046660Y0044960D01*
X0046891Y0045031D01*
X0047123Y0045098D01*
X0047357Y0045158D01*
X0047592Y0045213D01*
X0047829Y0045263D01*
X0048066Y0045306D01*
X0048305Y0045344D01*
X0048545Y0045376D01*
X0048785Y0045402D01*
X0049026Y0045423D01*
X0049267Y0045437D01*
X0049508Y0045446D01*
X0049750Y0045449D01*
X0079750Y0045449D01*
X0079992Y0045446D01*
X0080233Y0045437D01*
X0080474Y0045423D01*
X0080715Y0045402D01*
X0080955Y0045376D01*
X0081195Y0045344D01*
X0081434Y0045306D01*
X0081671Y0045263D01*
X0081908Y0045213D01*
X0082143Y0045158D01*
X0082377Y0045098D01*
X0082609Y0045031D01*
X0082840Y0044960D01*
X0083069Y0044882D01*
X0083296Y0044799D01*
X0083521Y0044711D01*
X0083744Y0044617D01*
X0083964Y0044518D01*
X0084182Y0044413D01*
X0084397Y0044304D01*
X0084610Y0044189D01*
X0084820Y0044069D01*
X0085026Y0043944D01*
X0085230Y0043814D01*
X0085431Y0043679D01*
X0085628Y0043539D01*
X0085822Y0043395D01*
X0086012Y0043246D01*
X0086198Y0043092D01*
X0086381Y0042934D01*
X0086560Y0042772D01*
X0086735Y0042605D01*
X0086906Y0042434D01*
X0087073Y0042259D01*
X0087235Y0042080D01*
X0087393Y0041897D01*
X0087547Y0041711D01*
X0087696Y0041521D01*
X0087840Y0041327D01*
X0087980Y0041130D01*
X0088115Y0040929D01*
X0088245Y0040725D01*
X0088370Y0040519D01*
X0088490Y0040309D01*
X0088605Y0040096D01*
X0088714Y0039881D01*
X0088819Y0039663D01*
X0088918Y0039443D01*
X0089012Y0039220D01*
X0089100Y0038995D01*
X0089183Y0038768D01*
X0089261Y0038539D01*
X0089332Y0038308D01*
X0089399Y0038076D01*
X0089459Y0037842D01*
X0089514Y0037607D01*
X0089564Y0037370D01*
X0089607Y0037133D01*
X0089645Y0036894D01*
X0089677Y0036654D01*
X0089703Y0036414D01*
X0089724Y0036173D01*
X0089738Y0035932D01*
X0089747Y0035691D01*
X0089750Y0035449D01*
X0089750Y0025449D01*
X0089753Y0025207D01*
X0089762Y0024966D01*
X0089776Y0024725D01*
X0089797Y0024484D01*
X0089823Y0024244D01*
X0089855Y0024004D01*
X0089893Y0023765D01*
X0089936Y0023528D01*
X0089986Y0023291D01*
X0090041Y0023056D01*
X0090101Y0022822D01*
X0090168Y0022590D01*
X0090239Y0022359D01*
X0090317Y0022130D01*
X0090400Y0021903D01*
X0090488Y0021678D01*
X0090582Y0021455D01*
X0090681Y0021235D01*
X0090786Y0021017D01*
X0090895Y0020802D01*
X0091010Y0020589D01*
X0091130Y0020379D01*
X0091255Y0020173D01*
X0091385Y0019969D01*
X0091520Y0019768D01*
X0091660Y0019571D01*
X0091804Y0019377D01*
X0091953Y0019187D01*
X0092107Y0019001D01*
X0092265Y0018818D01*
X0092427Y0018639D01*
X0092594Y0018464D01*
X0092765Y0018293D01*
X0092940Y0018126D01*
X0093119Y0017964D01*
X0093302Y0017806D01*
X0093488Y0017652D01*
X0093678Y0017503D01*
X0093872Y0017359D01*
X0094069Y0017219D01*
X0094270Y0017084D01*
X0094474Y0016954D01*
X0094680Y0016829D01*
X0094890Y0016709D01*
X0095103Y0016594D01*
X0095318Y0016485D01*
X0095536Y0016380D01*
X0095756Y0016281D01*
X0095979Y0016187D01*
X0096204Y0016099D01*
X0096431Y0016016D01*
X0096660Y0015938D01*
X0096891Y0015867D01*
X0097123Y0015800D01*
X0097357Y0015740D01*
X0097592Y0015685D01*
X0097829Y0015635D01*
X0098066Y0015592D01*
X0098305Y0015554D01*
X0098545Y0015522D01*
X0098785Y0015496D01*
X0099026Y0015475D01*
X0099267Y0015461D01*
X0099508Y0015452D01*
X0099750Y0015449D01*
X0157250Y0015449D01*
X0157492Y0015452D01*
X0157733Y0015461D01*
X0157974Y0015475D01*
X0158215Y0015496D01*
X0158455Y0015522D01*
X0158695Y0015554D01*
X0158934Y0015592D01*
X0159171Y0015635D01*
X0159408Y0015685D01*
X0159643Y0015740D01*
X0159877Y0015800D01*
X0160109Y0015867D01*
X0160340Y0015938D01*
X0160569Y0016016D01*
X0160796Y0016099D01*
X0161021Y0016187D01*
X0161244Y0016281D01*
X0161464Y0016380D01*
X0161682Y0016485D01*
X0161897Y0016594D01*
X0162110Y0016709D01*
X0162320Y0016829D01*
X0162526Y0016954D01*
X0162730Y0017084D01*
X0162931Y0017219D01*
X0163128Y0017359D01*
X0163322Y0017503D01*
X0163512Y0017652D01*
X0163698Y0017806D01*
X0163881Y0017964D01*
X0164060Y0018126D01*
X0164235Y0018293D01*
X0164406Y0018464D01*
X0164573Y0018639D01*
X0164735Y0018818D01*
X0164893Y0019001D01*
X0165047Y0019187D01*
X0165196Y0019377D01*
X0165340Y0019571D01*
X0165480Y0019768D01*
X0165615Y0019969D01*
X0165745Y0020173D01*
X0165870Y0020379D01*
X0165990Y0020589D01*
X0166105Y0020802D01*
X0166214Y0021017D01*
X0166319Y0021235D01*
X0166418Y0021455D01*
X0166512Y0021678D01*
X0166600Y0021903D01*
X0166683Y0022130D01*
X0166761Y0022359D01*
X0166832Y0022590D01*
X0166899Y0022822D01*
X0166959Y0023056D01*
X0167014Y0023291D01*
X0167064Y0023528D01*
X0167107Y0023765D01*
X0167145Y0024004D01*
X0167177Y0024244D01*
X0167203Y0024484D01*
X0167224Y0024725D01*
X0167238Y0024966D01*
X0167247Y0025207D01*
X0167250Y0025449D01*
X0167250Y0125449D01*
X0167247Y0125691D01*
X0167238Y0125932D01*
X0167224Y0126173D01*
X0167203Y0126414D01*
X0167177Y0126654D01*
X0167145Y0126894D01*
X0167107Y0127133D01*
X0167064Y0127370D01*
X0167014Y0127607D01*
X0166959Y0127842D01*
X0166899Y0128076D01*
X0166832Y0128308D01*
X0166761Y0128539D01*
X0166683Y0128768D01*
X0166600Y0128995D01*
X0166512Y0129220D01*
X0166418Y0129443D01*
X0166319Y0129663D01*
X0166214Y0129881D01*
X0166105Y0130096D01*
X0165990Y0130309D01*
X0165870Y0130519D01*
X0165745Y0130725D01*
X0165615Y0130929D01*
X0165480Y0131130D01*
X0165340Y0131327D01*
X0165196Y0131521D01*
X0165047Y0131711D01*
X0164893Y0131897D01*
X0164735Y0132080D01*
X0164573Y0132259D01*
X0164406Y0132434D01*
X0164235Y0132605D01*
X0164060Y0132772D01*
X0163881Y0132934D01*
X0163698Y0133092D01*
X0163512Y0133246D01*
X0163322Y0133395D01*
X0163128Y0133539D01*
X0162931Y0133679D01*
X0162730Y0133814D01*
X0162526Y0133944D01*
X0162320Y0134069D01*
X0162110Y0134189D01*
X0161897Y0134304D01*
X0161682Y0134413D01*
X0161464Y0134518D01*
X0161244Y0134617D01*
X0161021Y0134711D01*
X0160796Y0134799D01*
X0160569Y0134882D01*
X0160340Y0134960D01*
X0160109Y0135031D01*
X0159877Y0135098D01*
X0159643Y0135158D01*
X0159408Y0135213D01*
X0159171Y0135263D01*
X0158934Y0135306D01*
X0158695Y0135344D01*
X0158455Y0135376D01*
X0158215Y0135402D01*
X0157974Y0135423D01*
X0157733Y0135437D01*
X0157492Y0135446D01*
X0157250Y0135449D01*
X0099750Y0135449D01*
X0099508Y0135446D01*
X0099267Y0135437D01*
X0099026Y0135423D01*
X0098785Y0135402D01*
X0098545Y0135376D01*
X0098305Y0135344D01*
X0098066Y0135306D01*
X0097829Y0135263D01*
X0097592Y0135213D01*
X0097357Y0135158D01*
X0097123Y0135098D01*
X0096891Y0135031D01*
X0096660Y0134960D01*
X0096431Y0134882D01*
X0096204Y0134799D01*
X0095979Y0134711D01*
X0095756Y0134617D01*
X0095536Y0134518D01*
X0095318Y0134413D01*
X0095103Y0134304D01*
X0094890Y0134189D01*
X0094680Y0134069D01*
X0094474Y0133944D01*
X0094270Y0133814D01*
X0094069Y0133679D01*
X0093872Y0133539D01*
X0093678Y0133395D01*
X0093488Y0133246D01*
X0093302Y0133092D01*
X0093119Y0132934D01*
X0092940Y0132772D01*
X0092765Y0132605D01*
X0092594Y0132434D01*
X0092427Y0132259D01*
X0092265Y0132080D01*
X0092107Y0131897D01*
X0091953Y0131711D01*
X0091804Y0131521D01*
X0091660Y0131327D01*
X0091520Y0131130D01*
X0091385Y0130929D01*
X0091255Y0130725D01*
X0091130Y0130519D01*
X0091010Y0130309D01*
X0090895Y0130096D01*
X0090786Y0129881D01*
X0090681Y0129663D01*
X0090582Y0129443D01*
X0090488Y0129220D01*
X0090400Y0128995D01*
X0090317Y0128768D01*
X0090239Y0128539D01*
X0090168Y0128308D01*
X0090101Y0128076D01*
X0090041Y0127842D01*
X0089986Y0127607D01*
X0089936Y0127370D01*
X0089893Y0127133D01*
X0089855Y0126894D01*
X0089823Y0126654D01*
X0089797Y0126414D01*
X0089776Y0126173D01*
X0089762Y0125932D01*
X0089753Y0125691D01*
X0089750Y0125449D01*
X0089750Y0115449D01*
X0089747Y0115207D01*
X0089738Y0114966D01*
X0089724Y0114725D01*
X0089703Y0114484D01*
X0089677Y0114244D01*
X0089645Y0114004D01*
X0089607Y0113765D01*
X0089564Y0113528D01*
X0089514Y0113291D01*
X0089459Y0113056D01*
X0089399Y0112822D01*
X0089332Y0112590D01*
X0089261Y0112359D01*
X0089183Y0112130D01*
X0089100Y0111903D01*
X0089012Y0111678D01*
X0088918Y0111455D01*
X0088819Y0111235D01*
X0088714Y0111017D01*
X0088605Y0110802D01*
X0088490Y0110589D01*
X0088370Y0110379D01*
X0088245Y0110173D01*
X0088115Y0109969D01*
X0087980Y0109768D01*
X0087840Y0109571D01*
X0087696Y0109377D01*
X0087547Y0109187D01*
X0087393Y0109001D01*
X0087235Y0108818D01*
X0087073Y0108639D01*
X0086906Y0108464D01*
X0086735Y0108293D01*
X0086560Y0108126D01*
X0086381Y0107964D01*
X0086198Y0107806D01*
X0086012Y0107652D01*
X0085822Y0107503D01*
X0085628Y0107359D01*
X0085431Y0107219D01*
X0085230Y0107084D01*
X0085026Y0106954D01*
X0084820Y0106829D01*
X0084610Y0106709D01*
X0084397Y0106594D01*
X0084182Y0106485D01*
X0083964Y0106380D01*
X0083744Y0106281D01*
X0083521Y0106187D01*
X0083296Y0106099D01*
X0083069Y0106016D01*
X0082840Y0105938D01*
X0082609Y0105867D01*
X0082377Y0105800D01*
X0082143Y0105740D01*
X0081908Y0105685D01*
X0081671Y0105635D01*
X0081434Y0105592D01*
X0081195Y0105554D01*
X0080955Y0105522D01*
X0080715Y0105496D01*
X0080474Y0105475D01*
X0080233Y0105461D01*
X0079992Y0105452D01*
X0079750Y0105449D01*
X0049750Y0105449D01*
X0049508Y0105452D01*
X0049267Y0105461D01*
X0049026Y0105475D01*
X0048785Y0105496D01*
X0048545Y0105522D01*
X0048305Y0105554D01*
X0048066Y0105592D01*
X0047829Y0105635D01*
X0047592Y0105685D01*
X0047357Y0105740D01*
X0047123Y0105800D01*
X0046891Y0105867D01*
X0046660Y0105938D01*
X0046431Y0106016D01*
X0046204Y0106099D01*
X0045979Y0106187D01*
X0045756Y0106281D01*
X0045536Y0106380D01*
X0045318Y0106485D01*
X0045103Y0106594D01*
X0044890Y0106709D01*
X0044680Y0106829D01*
X0044474Y0106954D01*
X0044270Y0107084D01*
X0044069Y0107219D01*
X0043872Y0107359D01*
X0043678Y0107503D01*
X0043488Y0107652D01*
X0043302Y0107806D01*
X0043119Y0107964D01*
X0042940Y0108126D01*
X0042765Y0108293D01*
X0042594Y0108464D01*
X0042427Y0108639D01*
X0042265Y0108818D01*
X0042107Y0109001D01*
X0041953Y0109187D01*
X0041804Y0109377D01*
X0041660Y0109571D01*
X0041520Y0109768D01*
X0041385Y0109969D01*
X0041255Y0110173D01*
X0041130Y0110379D01*
X0041010Y0110589D01*
X0040895Y0110802D01*
X0040786Y0111017D01*
X0040681Y0111235D01*
X0040582Y0111455D01*
X0040488Y0111678D01*
X0040400Y0111903D01*
X0040317Y0112130D01*
X0040239Y0112359D01*
X0040168Y0112590D01*
X0040101Y0112822D01*
X0040041Y0113056D01*
X0039986Y0113291D01*
X0039936Y0113528D01*
X0039893Y0113765D01*
X0039855Y0114004D01*
X0039823Y0114244D01*
X0039797Y0114484D01*
X0039776Y0114725D01*
X0039762Y0114966D01*
X0039753Y0115207D01*
X0039750Y0115449D01*
X0039750Y0125449D01*
X0039747Y0125691D01*
X0039738Y0125932D01*
X0039724Y0126173D01*
X0039703Y0126414D01*
X0039677Y0126654D01*
X0039645Y0126894D01*
X0039607Y0127133D01*
X0039564Y0127370D01*
X0039514Y0127607D01*
X0039459Y0127842D01*
X0039399Y0128076D01*
X0039332Y0128308D01*
X0039261Y0128539D01*
X0039183Y0128768D01*
X0039100Y0128995D01*
X0039012Y0129220D01*
X0038918Y0129443D01*
X0038819Y0129663D01*
X0038714Y0129881D01*
X0038605Y0130096D01*
X0038490Y0130309D01*
X0038370Y0130519D01*
X0038245Y0130725D01*
X0038115Y0130929D01*
X0037980Y0131130D01*
X0037840Y0131327D01*
X0037696Y0131521D01*
X0037547Y0131711D01*
X0037393Y0131897D01*
X0037235Y0132080D01*
X0037073Y0132259D01*
X0036906Y0132434D01*
X0036735Y0132605D01*
X0036560Y0132772D01*
X0036381Y0132934D01*
X0036198Y0133092D01*
X0036012Y0133246D01*
X0035822Y0133395D01*
X0035628Y0133539D01*
X0035431Y0133679D01*
X0035230Y0133814D01*
X0035026Y0133944D01*
X0034820Y0134069D01*
X0034610Y0134189D01*
X0034397Y0134304D01*
X0034182Y0134413D01*
X0033964Y0134518D01*
X0033744Y0134617D01*
X0033521Y0134711D01*
X0033296Y0134799D01*
X0033069Y0134882D01*
X0032840Y0134960D01*
X0032609Y0135031D01*
X0032377Y0135098D01*
X0032143Y0135158D01*
X0031908Y0135213D01*
X0031671Y0135263D01*
X0031434Y0135306D01*
X0031195Y0135344D01*
X0030955Y0135376D01*
X0030715Y0135402D01*
X0030474Y0135423D01*
X0030233Y0135437D01*
X0029992Y0135446D01*
X0029750Y0135449D01*
X0012250Y0135449D01*
X0012008Y0135446D01*
X0011767Y0135437D01*
X0011526Y0135423D01*
X0011285Y0135402D01*
X0011045Y0135376D01*
X0010805Y0135344D01*
X0010566Y0135306D01*
X0010329Y0135263D01*
X0010092Y0135213D01*
X0009857Y0135158D01*
X0009623Y0135098D01*
X0009391Y0135031D01*
X0009160Y0134960D01*
X0008931Y0134882D01*
X0008704Y0134799D01*
X0008479Y0134711D01*
X0008256Y0134617D01*
X0008036Y0134518D01*
X0007818Y0134413D01*
X0007603Y0134304D01*
X0007390Y0134189D01*
X0007180Y0134069D01*
X0006974Y0133944D01*
X0006770Y0133814D01*
X0006569Y0133679D01*
X0006372Y0133539D01*
X0006178Y0133395D01*
X0005988Y0133246D01*
X0005802Y0133092D01*
X0005619Y0132934D01*
X0005440Y0132772D01*
X0005265Y0132605D01*
X0005094Y0132434D01*
X0004927Y0132259D01*
X0004765Y0132080D01*
X0004607Y0131897D01*
X0004453Y0131711D01*
X0004304Y0131521D01*
X0004160Y0131327D01*
X0004020Y0131130D01*
X0003885Y0130929D01*
X0003755Y0130725D01*
X0003630Y0130519D01*
X0003510Y0130309D01*
X0003395Y0130096D01*
X0003286Y0129881D01*
X0003181Y0129663D01*
X0003082Y0129443D01*
X0002988Y0129220D01*
X0002900Y0128995D01*
X0002817Y0128768D01*
X0002739Y0128539D01*
X0002668Y0128308D01*
X0002601Y0128076D01*
X0002541Y0127842D01*
X0002486Y0127607D01*
X0002436Y0127370D01*
X0002393Y0127133D01*
X0002355Y0126894D01*
X0002323Y0126654D01*
X0002297Y0126414D01*
X0002276Y0126173D01*
X0002262Y0125932D01*
X0002253Y0125691D01*
X0002250Y0125449D01*
X0002250Y0025449D01*
X0002253Y0025207D01*
X0002262Y0024966D01*
X0002276Y0024725D01*
X0002297Y0024484D01*
X0002323Y0024244D01*
X0002355Y0024004D01*
X0002393Y0023765D01*
X0002436Y0023528D01*
X0002486Y0023291D01*
X0002541Y0023056D01*
X0002601Y0022822D01*
X0002668Y0022590D01*
X0002739Y0022359D01*
X0002817Y0022130D01*
X0002900Y0021903D01*
X0002988Y0021678D01*
X0003082Y0021455D01*
X0003181Y0021235D01*
X0003286Y0021017D01*
X0003395Y0020802D01*
X0003510Y0020589D01*
X0003630Y0020379D01*
X0003755Y0020173D01*
X0003885Y0019969D01*
X0004020Y0019768D01*
X0004160Y0019571D01*
X0004304Y0019377D01*
X0004453Y0019187D01*
X0004607Y0019001D01*
X0004765Y0018818D01*
X0004927Y0018639D01*
X0005094Y0018464D01*
X0005265Y0018293D01*
X0005440Y0018126D01*
X0005619Y0017964D01*
X0005802Y0017806D01*
X0005988Y0017652D01*
X0006178Y0017503D01*
X0006372Y0017359D01*
X0006569Y0017219D01*
X0006770Y0017084D01*
X0006974Y0016954D01*
X0007180Y0016829D01*
X0007390Y0016709D01*
X0007603Y0016594D01*
X0007818Y0016485D01*
X0008036Y0016380D01*
X0008256Y0016281D01*
X0008479Y0016187D01*
X0008704Y0016099D01*
X0008931Y0016016D01*
X0009160Y0015938D01*
X0009391Y0015867D01*
X0009623Y0015800D01*
X0009857Y0015740D01*
X0010092Y0015685D01*
X0010329Y0015635D01*
X0010566Y0015592D01*
X0010805Y0015554D01*
X0011045Y0015522D01*
X0011285Y0015496D01*
X0011526Y0015475D01*
X0011767Y0015461D01*
X0012008Y0015452D01*
X0012250Y0015449D01*
X0148738Y0049499D02*
X0149272Y0049499D01*
X0150340Y0049499D02*
X0152475Y0049499D01*
X0152475Y0048965D02*
X0152475Y0050033D01*
X0152475Y0051421D02*
X0152475Y0052488D01*
X0152475Y0051954D02*
X0150340Y0051954D01*
X0150340Y0051421D01*
X0149272Y0051954D02*
X0148738Y0051954D01*
X0150874Y0053876D02*
X0150340Y0054410D01*
X0150340Y0056011D01*
X0152475Y0056011D02*
X0152475Y0054410D01*
X0151941Y0053876D01*
X0150874Y0053876D01*
X0150340Y0049499D02*
X0150340Y0048965D01*
X0150340Y0047417D02*
X0151941Y0047417D01*
X0152475Y0046883D01*
X0151941Y0046350D01*
X0152475Y0045816D01*
X0151941Y0045282D01*
X0150340Y0045282D01*
X0149806Y0043734D02*
X0151941Y0043734D01*
X0152475Y0043200D01*
X0152475Y0042133D01*
X0151941Y0041599D01*
X0149806Y0041599D01*
X0149272Y0042133D01*
X0149272Y0043200D01*
X0149806Y0043734D01*
X0151407Y0042666D02*
X0152475Y0043734D01*
X0152475Y0061242D02*
X0150340Y0061242D01*
X0149272Y0062310D01*
X0150340Y0063377D01*
X0152475Y0063377D01*
X0150874Y0063377D02*
X0150874Y0061242D01*
X0150874Y0064925D02*
X0150340Y0065459D01*
X0150340Y0067061D01*
X0149272Y0067061D02*
X0152475Y0067061D01*
X0152475Y0065459D01*
X0151941Y0064925D01*
X0150874Y0064925D01*
X0151941Y0068609D02*
X0151407Y0069142D01*
X0151407Y0070744D01*
X0150874Y0070744D02*
X0152475Y0070744D01*
X0152475Y0069142D01*
X0151941Y0068609D01*
X0150340Y0069142D02*
X0150340Y0070210D01*
X0150874Y0070744D01*
X0150340Y0072292D02*
X0150340Y0073893D01*
X0150874Y0074427D01*
X0151941Y0074427D01*
X0152475Y0073893D01*
X0152475Y0072292D01*
X0153543Y0072292D02*
X0150340Y0072292D01*
X0150340Y0075975D02*
X0150340Y0077042D01*
X0149806Y0076509D02*
X0151941Y0076509D01*
X0152475Y0077042D01*
X0152475Y0078430D02*
X0152475Y0079498D01*
X0152475Y0078964D02*
X0150340Y0078964D01*
X0150340Y0078430D01*
X0149272Y0078964D02*
X0148738Y0078964D01*
X0150340Y0080886D02*
X0152475Y0081953D01*
X0150340Y0083021D01*
X0150874Y0084569D02*
X0150340Y0085103D01*
X0150340Y0086170D01*
X0150874Y0086704D01*
X0151407Y0086704D01*
X0151407Y0084569D01*
X0150874Y0084569D02*
X0151941Y0084569D01*
X0152475Y0085103D01*
X0152475Y0086170D01*
X0151941Y0091935D02*
X0152475Y0092469D01*
X0152475Y0093536D01*
X0151941Y0094070D01*
X0151407Y0094070D01*
X0150874Y0093536D01*
X0150874Y0092469D01*
X0150340Y0091935D01*
X0149806Y0091935D01*
X0149272Y0092469D01*
X0149272Y0093536D01*
X0149806Y0094070D01*
X0150340Y0095618D02*
X0151941Y0095618D01*
X0152475Y0096152D01*
X0151941Y0096686D01*
X0152475Y0097220D01*
X0151941Y0097753D01*
X0150340Y0097753D01*
X0150340Y0099301D02*
X0150340Y0099835D01*
X0152475Y0099835D01*
X0152475Y0099301D02*
X0152475Y0100369D01*
X0151941Y0102291D02*
X0149806Y0102291D01*
X0150340Y0102824D02*
X0150340Y0101757D01*
X0151941Y0102291D02*
X0152475Y0102824D01*
X0151941Y0104212D02*
X0152475Y0104746D01*
X0152475Y0106347D01*
X0152475Y0107895D02*
X0149272Y0107895D01*
X0150340Y0108429D02*
X0150340Y0109497D01*
X0150874Y0110031D01*
X0152475Y0110031D01*
X0150874Y0107895D02*
X0150340Y0108429D01*
X0150340Y0106347D02*
X0150340Y0104746D01*
X0150874Y0104212D01*
X0151941Y0104212D01*
X0149272Y0099835D02*
X0148738Y0099835D01*
D11*
X0081675Y0093236D03*
X0071875Y0093161D03*
X0070025Y0093236D03*
X0070000Y0093236D03*
X0069950Y0093211D03*
X0069925Y0093211D03*
X0069875Y0093186D03*
X0069850Y0093186D03*
X0069450Y0093036D03*
X0068700Y0092761D03*
X0068900Y0091386D03*
X0068950Y0091361D03*
X0068975Y0091361D03*
X0069025Y0091336D03*
X0069100Y0091311D03*
X0070625Y0091461D03*
X0069325Y0094036D03*
X0069375Y0095061D03*
X0069400Y0095061D03*
X0069500Y0060761D03*
X0069525Y0060761D03*
X0069450Y0059736D03*
X0069975Y0058886D03*
X0070000Y0058886D03*
X0070050Y0058911D03*
X0070075Y0058911D03*
X0070125Y0058936D03*
X0070150Y0058936D03*
X0069575Y0058736D03*
X0068825Y0058461D03*
X0069025Y0057086D03*
X0069075Y0057061D03*
X0069100Y0057061D03*
X0069150Y0057036D03*
X0069225Y0057011D03*
X0070750Y0057161D03*
X0072000Y0058861D03*
X0081600Y0058886D03*
X0062125Y0058536D03*
X0051925Y0058361D03*
X0048850Y0058461D03*
D12*
X0050925Y0059774D03*
X0051900Y0058374D03*
X0062100Y0058549D03*
X0068800Y0057324D03*
X0069375Y0057124D03*
X0070600Y0058974D03*
X0071975Y0058874D03*
X0069050Y0059749D03*
X0069025Y0059749D03*
X0078600Y0058899D03*
X0080050Y0060549D03*
X0080075Y0060549D03*
X0080100Y0060549D03*
X0081575Y0058899D03*
X0069250Y0091424D03*
X0068675Y0091624D03*
X0070475Y0093274D03*
X0071850Y0093174D03*
X0068925Y0094049D03*
X0068900Y0094049D03*
X0078675Y0093249D03*
X0080125Y0094899D03*
X0080150Y0094899D03*
X0080175Y0094899D03*
X0081650Y0093249D03*
D13*
X0081625Y0093236D03*
X0080200Y0093311D03*
X0080750Y0094486D03*
X0078250Y0094561D03*
X0078225Y0094536D03*
X0077275Y0093236D03*
X0078325Y0091886D03*
X0078350Y0091861D03*
X0080600Y0091886D03*
X0071825Y0093161D03*
X0070650Y0093211D03*
X0069775Y0091511D03*
X0069750Y0091511D03*
X0069725Y0091511D03*
X0069700Y0091511D03*
X0067475Y0093161D03*
X0067600Y0058861D03*
X0069825Y0057211D03*
X0069850Y0057211D03*
X0069875Y0057211D03*
X0069900Y0057211D03*
X0070775Y0058911D03*
X0071950Y0058861D03*
X0077200Y0058886D03*
X0078150Y0060186D03*
X0078175Y0060211D03*
X0080125Y0058961D03*
X0080675Y0060136D03*
X0081550Y0058886D03*
X0080525Y0057536D03*
X0078275Y0057511D03*
X0078250Y0057536D03*
X0062075Y0058536D03*
X0057725Y0058536D03*
X0051875Y0058361D03*
X0050850Y0057011D03*
X0050825Y0057011D03*
X0047525Y0058361D03*
X0048475Y0059661D03*
X0048500Y0059686D03*
X0048550Y0059711D03*
X0048850Y0059861D03*
X0048875Y0059861D03*
X0048900Y0059861D03*
X0048950Y0059886D03*
X0050475Y0059886D03*
D14*
X0049300Y0059911D03*
X0049275Y0059911D03*
X0048325Y0059486D03*
X0047550Y0058361D03*
X0050625Y0056986D03*
X0050650Y0056986D03*
X0050675Y0056986D03*
X0051850Y0058361D03*
X0057750Y0058536D03*
X0059150Y0057086D03*
X0059175Y0057061D03*
X0059200Y0057061D03*
X0059225Y0057061D03*
X0059250Y0057061D03*
X0062050Y0058536D03*
X0067625Y0058861D03*
X0071925Y0058861D03*
X0077225Y0058886D03*
X0078050Y0060036D03*
X0078825Y0058886D03*
X0078850Y0058886D03*
X0080000Y0058936D03*
X0080725Y0060036D03*
X0081525Y0058886D03*
X0081600Y0093236D03*
X0080800Y0094386D03*
X0080075Y0093286D03*
X0078925Y0093236D03*
X0078900Y0093236D03*
X0078125Y0094386D03*
X0077300Y0093236D03*
X0071800Y0093161D03*
X0067500Y0093161D03*
D15*
X0067525Y0093161D03*
X0069350Y0091686D03*
X0069400Y0091661D03*
X0071775Y0093161D03*
X0077325Y0093236D03*
X0081575Y0093236D03*
X0081500Y0058886D03*
X0077250Y0058886D03*
X0071900Y0058861D03*
X0069525Y0057361D03*
X0069475Y0057386D03*
X0067650Y0058861D03*
X0062025Y0058536D03*
X0059075Y0057186D03*
X0057775Y0058536D03*
X0058500Y0059561D03*
X0051825Y0058361D03*
X0050475Y0056986D03*
X0048375Y0057286D03*
X0047575Y0058361D03*
X0048275Y0059361D03*
X0049525Y0059861D03*
X0049550Y0059861D03*
D16*
X0049750Y0059786D03*
X0051800Y0058361D03*
X0047600Y0058361D03*
X0057800Y0058536D03*
X0058700Y0059636D03*
X0058725Y0059636D03*
X0058925Y0057336D03*
X0061075Y0059636D03*
X0061100Y0059636D03*
X0062000Y0058536D03*
X0067675Y0058861D03*
X0071875Y0058861D03*
X0077275Y0058886D03*
X0081475Y0058886D03*
X0081550Y0093236D03*
X0077350Y0093236D03*
X0071750Y0093161D03*
X0067550Y0093161D03*
D17*
X0067575Y0093161D03*
X0071725Y0093161D03*
X0077375Y0093236D03*
X0081525Y0093236D03*
X0081450Y0058886D03*
X0077300Y0058886D03*
X0071850Y0058861D03*
X0067700Y0058861D03*
X0061975Y0058536D03*
X0061050Y0057486D03*
X0061025Y0057486D03*
X0060800Y0059711D03*
X0060775Y0059711D03*
X0059025Y0059711D03*
X0059000Y0059711D03*
X0057825Y0058536D03*
X0051775Y0058361D03*
X0050200Y0057061D03*
X0047625Y0058361D03*
X0049900Y0059711D03*
D18*
X0050000Y0059636D03*
X0051750Y0058361D03*
X0050100Y0057086D03*
X0047650Y0058361D03*
X0057850Y0058536D03*
X0059275Y0059761D03*
X0059300Y0059761D03*
X0059325Y0059761D03*
X0060475Y0059761D03*
X0060500Y0059761D03*
X0060525Y0059761D03*
X0060550Y0059761D03*
X0061950Y0058536D03*
X0060875Y0057436D03*
X0060850Y0057436D03*
X0060825Y0057436D03*
X0067725Y0058861D03*
X0071825Y0058861D03*
X0077325Y0058886D03*
X0081425Y0058886D03*
X0081500Y0093236D03*
X0077400Y0093236D03*
X0071700Y0093161D03*
X0067600Y0093161D03*
D19*
X0067625Y0093161D03*
X0071675Y0093161D03*
X0077425Y0093236D03*
X0081475Y0093236D03*
X0081400Y0058886D03*
X0077350Y0058886D03*
X0071800Y0058861D03*
X0067750Y0058861D03*
X0061925Y0058536D03*
X0060625Y0057386D03*
X0060600Y0057386D03*
X0060575Y0057386D03*
X0060550Y0057386D03*
X0057875Y0058536D03*
X0051725Y0058361D03*
X0050100Y0059586D03*
X0047675Y0058361D03*
X0050000Y0057136D03*
D20*
X0049925Y0057161D03*
X0051700Y0058361D03*
X0050225Y0059511D03*
X0047700Y0058361D03*
X0057900Y0058536D03*
X0059700Y0057336D03*
X0059725Y0057336D03*
X0059750Y0057336D03*
X0059775Y0057336D03*
X0059800Y0057336D03*
X0059825Y0057336D03*
X0059850Y0057336D03*
X0059875Y0057336D03*
X0059900Y0057336D03*
X0059925Y0057336D03*
X0059950Y0057336D03*
X0059975Y0057336D03*
X0060000Y0057336D03*
X0060025Y0057336D03*
X0060050Y0057336D03*
X0060075Y0057336D03*
X0060100Y0057336D03*
X0060125Y0057336D03*
X0060150Y0057336D03*
X0060175Y0057336D03*
X0061900Y0058536D03*
X0067775Y0058861D03*
X0071775Y0058861D03*
X0077375Y0058886D03*
X0081375Y0058886D03*
X0081450Y0093236D03*
X0077450Y0093236D03*
X0071650Y0093161D03*
X0067650Y0093161D03*
D21*
X0067675Y0093161D03*
X0071625Y0093161D03*
X0077475Y0093236D03*
X0081425Y0093236D03*
X0081350Y0058886D03*
X0077400Y0058886D03*
X0071750Y0058861D03*
X0067800Y0058861D03*
X0061875Y0058536D03*
X0057925Y0058536D03*
X0051675Y0058361D03*
X0050375Y0059411D03*
X0050350Y0059436D03*
X0047725Y0058361D03*
X0049825Y0057211D03*
D22*
X0049725Y0057261D03*
X0051650Y0058361D03*
X0047750Y0058361D03*
X0057950Y0058536D03*
X0061850Y0058536D03*
X0067825Y0058861D03*
X0071725Y0058861D03*
X0077425Y0058886D03*
X0081325Y0058886D03*
X0081400Y0093236D03*
X0077500Y0093236D03*
X0071600Y0093161D03*
X0067700Y0093161D03*
D23*
X0067725Y0093161D03*
X0071575Y0093161D03*
X0077525Y0093236D03*
X0081375Y0093236D03*
X0081300Y0058886D03*
X0077450Y0058886D03*
X0071700Y0058861D03*
X0067850Y0058861D03*
X0061825Y0058536D03*
X0057975Y0058536D03*
X0051625Y0058361D03*
X0049675Y0057286D03*
X0047775Y0058361D03*
D24*
X0047800Y0058361D03*
X0049575Y0057336D03*
X0051600Y0058361D03*
X0058000Y0058536D03*
X0061800Y0058536D03*
X0067875Y0058861D03*
X0071675Y0058861D03*
X0077475Y0058886D03*
X0081275Y0058886D03*
X0081350Y0093236D03*
X0077550Y0093236D03*
X0071550Y0093161D03*
X0067750Y0093161D03*
D25*
X0067775Y0093161D03*
X0071525Y0093161D03*
X0077575Y0093236D03*
X0081325Y0093236D03*
X0081250Y0058886D03*
X0077500Y0058886D03*
X0071650Y0058861D03*
X0067900Y0058861D03*
X0061775Y0058536D03*
X0058025Y0058536D03*
X0051575Y0058361D03*
X0049475Y0057386D03*
X0047825Y0058361D03*
D26*
X0047850Y0058361D03*
X0049375Y0057436D03*
X0049400Y0057436D03*
X0049425Y0057411D03*
X0051550Y0058361D03*
X0058050Y0058536D03*
X0061750Y0058536D03*
X0067925Y0058861D03*
X0071625Y0058861D03*
X0077525Y0058886D03*
X0081225Y0058886D03*
X0081300Y0093236D03*
X0077600Y0093236D03*
X0071500Y0093161D03*
X0067800Y0093161D03*
D27*
X0067825Y0093161D03*
X0071475Y0093161D03*
X0077625Y0093236D03*
X0081275Y0093236D03*
X0081200Y0058886D03*
X0077550Y0058886D03*
X0071600Y0058861D03*
X0067950Y0058861D03*
X0061725Y0058536D03*
X0058075Y0058536D03*
X0051525Y0058361D03*
X0049325Y0057461D03*
X0049300Y0057461D03*
X0049250Y0057486D03*
X0049225Y0057486D03*
X0047875Y0058361D03*
D28*
X0047900Y0058361D03*
X0051500Y0058361D03*
X0058100Y0058536D03*
X0061700Y0058536D03*
X0067975Y0058861D03*
X0071575Y0058861D03*
X0077575Y0058886D03*
X0081175Y0058886D03*
X0081250Y0093236D03*
X0077650Y0093236D03*
X0071450Y0093161D03*
X0067850Y0093161D03*
D29*
X0067875Y0093161D03*
X0071425Y0093161D03*
X0077675Y0093236D03*
X0081225Y0093236D03*
X0081150Y0058886D03*
X0077600Y0058886D03*
X0071550Y0058861D03*
X0068000Y0058861D03*
X0061675Y0058536D03*
X0058125Y0058536D03*
X0051475Y0058361D03*
X0047925Y0058361D03*
D30*
X0047950Y0058361D03*
X0051450Y0058361D03*
X0058150Y0058536D03*
X0061650Y0058536D03*
X0068025Y0058861D03*
X0071525Y0058861D03*
X0077625Y0058886D03*
X0081125Y0058886D03*
X0081200Y0093236D03*
X0077700Y0093236D03*
X0071400Y0093161D03*
X0067900Y0093161D03*
D31*
X0067925Y0093161D03*
X0071375Y0093161D03*
X0077725Y0093236D03*
X0081175Y0093236D03*
X0081100Y0058886D03*
X0077650Y0058886D03*
X0071500Y0058861D03*
X0068050Y0058861D03*
X0061625Y0058536D03*
X0058175Y0058536D03*
X0051425Y0058361D03*
X0047975Y0058361D03*
D32*
X0048000Y0058361D03*
X0051400Y0058361D03*
X0058200Y0058536D03*
X0061600Y0058536D03*
X0068075Y0058861D03*
X0071475Y0058861D03*
X0077675Y0058886D03*
X0079100Y0059636D03*
X0081075Y0058886D03*
X0081150Y0093236D03*
X0079175Y0093986D03*
X0077750Y0093236D03*
X0071350Y0093161D03*
X0067950Y0093161D03*
D33*
X0067975Y0093161D03*
X0071325Y0093161D03*
X0077775Y0093236D03*
X0081125Y0093236D03*
X0081050Y0058886D03*
X0077700Y0058886D03*
X0071450Y0058861D03*
X0068100Y0058861D03*
X0061575Y0058536D03*
X0058225Y0058536D03*
X0051375Y0058361D03*
X0048025Y0058361D03*
D34*
X0048050Y0058361D03*
X0051350Y0058361D03*
X0058250Y0058536D03*
X0061550Y0058536D03*
X0068125Y0058861D03*
X0071425Y0058861D03*
X0077725Y0058886D03*
X0081025Y0058886D03*
X0081100Y0093236D03*
X0077800Y0093236D03*
X0071300Y0093161D03*
X0068000Y0093161D03*
D35*
X0068025Y0093161D03*
X0071275Y0093161D03*
X0077825Y0093236D03*
X0081075Y0093236D03*
X0081000Y0058886D03*
X0077750Y0058886D03*
X0071400Y0058861D03*
X0068150Y0058861D03*
X0061525Y0058536D03*
X0058275Y0058536D03*
X0051325Y0058361D03*
X0048075Y0058361D03*
D36*
X0048100Y0058361D03*
X0051300Y0058361D03*
X0058300Y0058536D03*
X0061500Y0058536D03*
X0068175Y0058861D03*
X0071375Y0058861D03*
X0077775Y0058886D03*
X0080975Y0058886D03*
X0081050Y0093236D03*
X0077850Y0093236D03*
X0071250Y0093161D03*
X0068050Y0093161D03*
D37*
X0068075Y0093161D03*
X0071225Y0093161D03*
X0077875Y0093236D03*
X0081025Y0093236D03*
X0080950Y0058886D03*
X0077800Y0058886D03*
X0071350Y0058861D03*
X0068200Y0058861D03*
X0061475Y0058536D03*
X0058325Y0058536D03*
X0051275Y0058361D03*
X0048125Y0058361D03*
D38*
X0048150Y0058361D03*
X0051250Y0058361D03*
X0058350Y0058536D03*
X0061450Y0058536D03*
X0068225Y0058861D03*
X0071325Y0058861D03*
X0077825Y0058886D03*
X0080925Y0058886D03*
X0081000Y0093236D03*
X0077900Y0093236D03*
X0071200Y0093161D03*
X0068100Y0093161D03*
D39*
X0068125Y0093161D03*
X0071175Y0093161D03*
X0077925Y0093236D03*
X0080975Y0093236D03*
X0080900Y0058886D03*
X0077850Y0058886D03*
X0071300Y0058861D03*
X0068250Y0058861D03*
X0061425Y0058536D03*
X0058375Y0058536D03*
X0051225Y0058361D03*
X0048175Y0058361D03*
D40*
X0048200Y0058361D03*
X0051200Y0058361D03*
X0058400Y0058536D03*
X0061400Y0058536D03*
X0068275Y0058861D03*
X0071275Y0058861D03*
X0077875Y0058886D03*
X0080875Y0058886D03*
X0080950Y0093236D03*
X0077950Y0093236D03*
X0071150Y0093161D03*
X0068150Y0093161D03*
D41*
X0068175Y0093161D03*
X0068200Y0093161D03*
X0071100Y0093161D03*
X0071125Y0093161D03*
X0077975Y0093236D03*
X0078000Y0093236D03*
X0080900Y0093236D03*
X0080925Y0093236D03*
X0080850Y0058886D03*
X0080825Y0058886D03*
X0077925Y0058886D03*
X0077900Y0058886D03*
X0071250Y0058861D03*
X0071225Y0058861D03*
X0068325Y0058861D03*
X0068300Y0058861D03*
X0061375Y0058536D03*
X0061350Y0058536D03*
X0058450Y0058536D03*
X0058425Y0058536D03*
X0051175Y0058361D03*
X0051150Y0058361D03*
X0048250Y0058361D03*
X0048225Y0058361D03*
D42*
X0051125Y0058361D03*
X0058475Y0058536D03*
X0061325Y0058536D03*
X0068350Y0058861D03*
X0071200Y0058861D03*
X0077950Y0058886D03*
X0080800Y0058886D03*
X0080875Y0093236D03*
X0078025Y0093236D03*
X0071075Y0093161D03*
X0068225Y0093161D03*
D43*
X0068250Y0093161D03*
X0071050Y0093161D03*
X0078050Y0093236D03*
X0077975Y0058886D03*
X0071175Y0058861D03*
X0068375Y0058861D03*
X0061300Y0058536D03*
X0051100Y0058361D03*
D44*
X0051075Y0058361D03*
X0061275Y0058536D03*
X0068400Y0058861D03*
X0071150Y0058861D03*
X0071025Y0093161D03*
X0068275Y0093161D03*
D45*
X0068325Y0093161D03*
X0070975Y0093161D03*
X0071000Y0093161D03*
X0071100Y0058861D03*
X0071125Y0058861D03*
X0068450Y0058861D03*
X0061250Y0058536D03*
X0061225Y0058536D03*
X0051050Y0058361D03*
X0051025Y0058361D03*
D46*
X0050275Y0057036D03*
X0049800Y0059761D03*
X0058800Y0059661D03*
X0061000Y0059661D03*
X0061200Y0057536D03*
X0058850Y0057386D03*
X0058825Y0057411D03*
D47*
X0058600Y0059599D03*
X0061200Y0059599D03*
X0069975Y0057399D03*
X0078000Y0059899D03*
X0050425Y0056999D03*
X0050400Y0056999D03*
X0048325Y0057349D03*
X0049650Y0059824D03*
X0069850Y0091699D03*
X0078075Y0094249D03*
D48*
X0060975Y0059674D03*
X0060950Y0059674D03*
X0058850Y0059674D03*
X0058825Y0059674D03*
X0058500Y0057624D03*
X0058550Y0057599D03*
X0058775Y0057449D03*
X0058800Y0057424D03*
X0061150Y0057524D03*
X0061175Y0057524D03*
X0049825Y0059749D03*
X0048275Y0057474D03*
D49*
X0050375Y0057011D03*
X0049675Y0059811D03*
X0058625Y0059611D03*
X0058650Y0059611D03*
X0058975Y0057286D03*
X0059000Y0057261D03*
X0061150Y0059611D03*
X0061175Y0059611D03*
X0070000Y0057411D03*
X0070225Y0057461D03*
X0069875Y0091711D03*
X0070100Y0091761D03*
D50*
X0060925Y0059686D03*
X0060900Y0059686D03*
X0058900Y0059686D03*
X0058875Y0059686D03*
X0058525Y0057611D03*
X0058575Y0057586D03*
X0058600Y0057561D03*
X0058650Y0057536D03*
X0058675Y0057511D03*
X0058725Y0057486D03*
X0058750Y0057461D03*
X0061125Y0057511D03*
X0050250Y0057036D03*
X0049850Y0059736D03*
D51*
X0049725Y0059799D03*
X0049700Y0059799D03*
X0048300Y0057399D03*
X0050350Y0057024D03*
X0058950Y0057299D03*
X0058675Y0059624D03*
X0061125Y0059624D03*
X0070025Y0057424D03*
X0070050Y0057424D03*
X0070075Y0057449D03*
X0070100Y0057449D03*
X0070125Y0057449D03*
X0070150Y0057449D03*
X0070175Y0057449D03*
X0070200Y0057449D03*
X0069925Y0091724D03*
X0069900Y0091724D03*
X0069950Y0091749D03*
X0069975Y0091749D03*
X0070000Y0091749D03*
X0070025Y0091749D03*
X0070050Y0091749D03*
X0070075Y0091749D03*
D52*
X0060875Y0059699D03*
X0060850Y0059699D03*
X0060825Y0059699D03*
X0058975Y0059699D03*
X0058950Y0059699D03*
X0058925Y0059699D03*
X0058625Y0057549D03*
X0058700Y0057499D03*
X0061075Y0057499D03*
X0061100Y0057499D03*
X0050225Y0057049D03*
X0049875Y0059724D03*
D53*
X0049775Y0059774D03*
X0050300Y0057024D03*
X0050325Y0057024D03*
X0058875Y0057374D03*
X0058900Y0057349D03*
X0058775Y0059649D03*
X0058750Y0059649D03*
X0061025Y0059649D03*
X0061050Y0059649D03*
X0078000Y0057924D03*
X0080775Y0057949D03*
X0080850Y0092299D03*
X0078075Y0092274D03*
D54*
X0060750Y0059724D03*
X0060725Y0059724D03*
X0060700Y0059724D03*
X0059100Y0059724D03*
X0059075Y0059724D03*
X0059050Y0059724D03*
X0061000Y0057474D03*
X0050175Y0057074D03*
X0050150Y0057074D03*
X0049075Y0057099D03*
X0049925Y0059699D03*
D55*
X0049950Y0059686D03*
X0059125Y0059736D03*
X0059150Y0059736D03*
X0060650Y0059736D03*
X0060675Y0059736D03*
X0060950Y0057461D03*
X0060975Y0057461D03*
D56*
X0060925Y0057449D03*
X0060900Y0057449D03*
X0060625Y0059749D03*
X0060600Y0059749D03*
X0060575Y0059749D03*
X0059250Y0059749D03*
X0059225Y0059749D03*
X0059200Y0059749D03*
X0059175Y0059749D03*
X0049975Y0059674D03*
X0050125Y0057074D03*
D57*
X0050075Y0057099D03*
X0050025Y0059624D03*
X0059350Y0059774D03*
X0059375Y0059774D03*
X0059400Y0059774D03*
X0059425Y0059774D03*
X0059450Y0059774D03*
X0060350Y0059774D03*
X0060375Y0059774D03*
X0060400Y0059774D03*
X0060425Y0059774D03*
X0060450Y0059774D03*
X0060775Y0057424D03*
X0060800Y0057424D03*
D58*
X0060750Y0057411D03*
X0060725Y0057411D03*
X0060700Y0057411D03*
X0060325Y0059786D03*
X0060300Y0059786D03*
X0060275Y0059786D03*
X0060250Y0059786D03*
X0060225Y0059786D03*
X0060200Y0059786D03*
X0059600Y0059786D03*
X0059575Y0059786D03*
X0059550Y0059786D03*
X0059525Y0059786D03*
X0059500Y0059786D03*
X0059475Y0059786D03*
X0050050Y0059611D03*
X0050050Y0057111D03*
D59*
X0050025Y0057124D03*
X0050075Y0059599D03*
X0059625Y0059799D03*
X0059650Y0059799D03*
X0059675Y0059799D03*
X0059700Y0059799D03*
X0059725Y0059799D03*
X0059750Y0059799D03*
X0059775Y0059799D03*
X0059800Y0059799D03*
X0059825Y0059799D03*
X0059850Y0059799D03*
X0059875Y0059799D03*
X0059900Y0059799D03*
X0059925Y0059799D03*
X0059950Y0059799D03*
X0059975Y0059799D03*
X0060000Y0059799D03*
X0060025Y0059799D03*
X0060050Y0059799D03*
X0060075Y0059799D03*
X0060100Y0059799D03*
X0060125Y0059799D03*
X0060150Y0059799D03*
X0060175Y0059799D03*
X0060650Y0057399D03*
X0060675Y0057399D03*
D60*
X0060525Y0057374D03*
X0060500Y0057374D03*
X0060475Y0057374D03*
X0050150Y0059549D03*
X0050125Y0059574D03*
D61*
X0050175Y0059536D03*
X0049975Y0057136D03*
X0060350Y0057361D03*
X0060375Y0057361D03*
X0060400Y0057361D03*
X0060425Y0057361D03*
X0060450Y0057361D03*
D62*
X0060325Y0057349D03*
X0060300Y0057349D03*
X0060275Y0057349D03*
X0060250Y0057349D03*
X0060225Y0057349D03*
X0060200Y0057349D03*
X0050200Y0059524D03*
X0049950Y0057149D03*
D63*
X0050525Y0056986D03*
X0050550Y0056986D03*
X0048425Y0057211D03*
X0049450Y0059886D03*
X0049475Y0059886D03*
X0059100Y0057161D03*
X0059625Y0057011D03*
X0059650Y0057011D03*
X0059675Y0057011D03*
X0069550Y0057336D03*
X0078050Y0057786D03*
X0079750Y0058886D03*
X0079775Y0058886D03*
X0079800Y0058886D03*
X0079825Y0058886D03*
X0078025Y0059986D03*
X0069425Y0091636D03*
X0078125Y0092136D03*
X0079825Y0093236D03*
X0079850Y0093236D03*
X0079875Y0093236D03*
X0079900Y0093236D03*
X0078100Y0094336D03*
D64*
X0070650Y0091499D03*
X0070150Y0091324D03*
X0068925Y0091374D03*
X0068875Y0091399D03*
X0068850Y0091424D03*
X0069475Y0093049D03*
X0069800Y0093149D03*
X0069825Y0093174D03*
X0069900Y0093199D03*
X0069975Y0093224D03*
X0070050Y0093249D03*
X0070075Y0093249D03*
X0069300Y0094049D03*
X0069275Y0094049D03*
X0069425Y0095049D03*
X0069450Y0095049D03*
X0069475Y0095049D03*
X0069550Y0060749D03*
X0069575Y0060749D03*
X0069600Y0060749D03*
X0069425Y0059749D03*
X0069400Y0059749D03*
X0069600Y0058749D03*
X0069925Y0058849D03*
X0069950Y0058874D03*
X0070025Y0058899D03*
X0070100Y0058924D03*
X0070175Y0058949D03*
X0070200Y0058949D03*
X0070775Y0057199D03*
X0070275Y0057024D03*
X0069050Y0057074D03*
X0069000Y0057099D03*
X0068975Y0057124D03*
X0059675Y0058024D03*
X0048875Y0058474D03*
D65*
X0048800Y0058461D03*
X0047475Y0058361D03*
X0057675Y0058536D03*
X0059650Y0058061D03*
X0067550Y0058861D03*
X0068850Y0058511D03*
X0070325Y0057936D03*
X0070350Y0057936D03*
X0070700Y0057136D03*
X0070650Y0057111D03*
X0070625Y0057086D03*
X0070325Y0056986D03*
X0069450Y0060761D03*
X0069425Y0060761D03*
X0069400Y0060761D03*
X0077150Y0058886D03*
X0070200Y0091286D03*
X0070500Y0091386D03*
X0070525Y0091411D03*
X0070575Y0091436D03*
X0070225Y0092236D03*
X0070200Y0092236D03*
X0068725Y0092811D03*
X0067425Y0093161D03*
X0069275Y0095061D03*
X0069300Y0095061D03*
X0069325Y0095061D03*
X0077225Y0093236D03*
D66*
X0078575Y0093261D03*
X0070275Y0092236D03*
X0070300Y0091311D03*
X0069375Y0093061D03*
X0069350Y0093061D03*
X0068775Y0092861D03*
X0068750Y0092836D03*
X0069200Y0095061D03*
X0069325Y0060761D03*
X0069475Y0058761D03*
X0069500Y0058761D03*
X0068900Y0058561D03*
X0068875Y0058536D03*
X0070400Y0057936D03*
X0070425Y0057011D03*
X0078500Y0058911D03*
X0059625Y0058086D03*
X0048775Y0058461D03*
D67*
X0048450Y0057199D03*
X0048475Y0057174D03*
X0048500Y0057149D03*
X0048925Y0056949D03*
X0048950Y0056949D03*
X0048975Y0056924D03*
X0049000Y0056924D03*
X0049025Y0056924D03*
X0049425Y0059899D03*
X0059125Y0057124D03*
X0059475Y0057024D03*
X0059500Y0057024D03*
X0059525Y0057024D03*
X0059550Y0057024D03*
X0059575Y0057024D03*
X0059600Y0057024D03*
X0070875Y0058849D03*
X0079850Y0058899D03*
X0079875Y0058899D03*
X0080750Y0059974D03*
X0079950Y0093249D03*
X0079925Y0093249D03*
X0080825Y0094324D03*
X0070750Y0093149D03*
D68*
X0070325Y0092236D03*
X0069150Y0092211D03*
X0069275Y0093061D03*
X0069300Y0093061D03*
X0069125Y0095086D03*
X0069100Y0095086D03*
X0069225Y0060786D03*
X0069250Y0060786D03*
X0069400Y0058761D03*
X0069425Y0058761D03*
X0069275Y0057911D03*
X0070450Y0057936D03*
X0059600Y0058111D03*
X0048750Y0058461D03*
D69*
X0059575Y0058136D03*
X0069000Y0058636D03*
X0069025Y0058636D03*
X0069050Y0058661D03*
X0069250Y0058736D03*
X0069275Y0058736D03*
X0069300Y0058736D03*
X0069225Y0057911D03*
X0070475Y0057936D03*
X0069175Y0060786D03*
X0069150Y0060786D03*
X0069100Y0092211D03*
X0068900Y0092936D03*
X0068875Y0092936D03*
X0068925Y0092961D03*
X0069125Y0093036D03*
X0069150Y0093036D03*
X0069175Y0093036D03*
X0070350Y0092236D03*
X0069050Y0095086D03*
X0069025Y0095086D03*
D70*
X0069000Y0095074D03*
X0069625Y0094049D03*
X0069650Y0094049D03*
X0069675Y0094049D03*
X0069100Y0093024D03*
X0069075Y0093024D03*
X0069025Y0092999D03*
X0069000Y0092999D03*
X0068975Y0092974D03*
X0068950Y0092974D03*
X0069125Y0060774D03*
X0069750Y0059749D03*
X0069775Y0059749D03*
X0069800Y0059749D03*
X0069225Y0058724D03*
X0069200Y0058724D03*
X0069150Y0058699D03*
X0069125Y0058699D03*
X0069100Y0058674D03*
X0069075Y0058674D03*
X0059550Y0058149D03*
D71*
X0059525Y0058174D03*
X0069825Y0059749D03*
X0069850Y0059749D03*
X0069875Y0059749D03*
X0069750Y0094049D03*
X0069725Y0094049D03*
X0069700Y0094049D03*
D72*
X0069775Y0094049D03*
X0069800Y0094049D03*
X0069825Y0094049D03*
X0068850Y0095074D03*
X0069050Y0092199D03*
X0070400Y0092224D03*
X0078550Y0093274D03*
X0080375Y0093274D03*
X0068975Y0060774D03*
X0069900Y0059749D03*
X0069925Y0059749D03*
X0069950Y0059749D03*
X0070525Y0057924D03*
X0069175Y0057899D03*
X0059500Y0058199D03*
X0078475Y0058924D03*
X0080300Y0058924D03*
D73*
X0068950Y0060786D03*
X0068925Y0060786D03*
X0059475Y0058211D03*
X0068800Y0095086D03*
X0068825Y0095086D03*
D74*
X0078150Y0092086D03*
X0078975Y0093236D03*
X0079975Y0093261D03*
X0080000Y0093261D03*
X0080775Y0092111D03*
X0078950Y0094736D03*
X0078875Y0060386D03*
X0078900Y0058886D03*
X0079900Y0058911D03*
X0079925Y0058911D03*
X0080700Y0057761D03*
X0078075Y0057736D03*
X0059450Y0057036D03*
X0059425Y0057036D03*
X0059400Y0057036D03*
X0059375Y0057036D03*
X0059350Y0057036D03*
X0050600Y0056986D03*
X0050575Y0056986D03*
X0048900Y0056961D03*
X0048875Y0056961D03*
X0048850Y0056961D03*
X0048825Y0056986D03*
X0048800Y0056986D03*
X0048750Y0057011D03*
X0048600Y0057086D03*
X0048550Y0057111D03*
X0048525Y0057136D03*
X0048300Y0059436D03*
X0049400Y0059886D03*
D75*
X0059450Y0058224D03*
X0069975Y0059749D03*
X0070000Y0059749D03*
X0070025Y0059749D03*
X0069900Y0094049D03*
X0069875Y0094049D03*
X0069850Y0094049D03*
D76*
X0069925Y0094049D03*
X0069950Y0094049D03*
X0069975Y0094049D03*
X0068725Y0095074D03*
X0069775Y0092224D03*
X0068850Y0060774D03*
X0070050Y0059749D03*
X0070075Y0059749D03*
X0070100Y0059749D03*
X0069900Y0057924D03*
X0059425Y0058249D03*
D77*
X0059400Y0058261D03*
X0068800Y0060786D03*
X0068825Y0060786D03*
X0069150Y0057911D03*
X0070550Y0057936D03*
X0070425Y0092236D03*
X0069025Y0092211D03*
X0068700Y0095086D03*
X0068675Y0095086D03*
D78*
X0070000Y0094049D03*
X0070025Y0094049D03*
X0070050Y0094049D03*
X0070125Y0059749D03*
X0070150Y0059749D03*
X0070175Y0059749D03*
X0059375Y0058274D03*
D79*
X0059350Y0058286D03*
D80*
X0059325Y0057049D03*
X0059300Y0057049D03*
X0059275Y0057049D03*
X0049375Y0059899D03*
X0049350Y0059899D03*
X0049325Y0059899D03*
X0048575Y0057099D03*
X0048625Y0057074D03*
X0048650Y0057049D03*
X0048675Y0057049D03*
X0048700Y0057024D03*
X0048725Y0057024D03*
X0048775Y0056999D03*
X0069575Y0057299D03*
X0070850Y0058874D03*
X0078100Y0057699D03*
X0078875Y0058874D03*
X0079950Y0058924D03*
X0079975Y0058924D03*
X0080675Y0057724D03*
X0069450Y0091599D03*
X0070725Y0093174D03*
X0078175Y0092049D03*
X0078950Y0093224D03*
X0080025Y0093274D03*
X0080050Y0093274D03*
X0080750Y0092074D03*
D81*
X0070125Y0094049D03*
X0070100Y0094049D03*
X0070075Y0094049D03*
X0070200Y0059749D03*
X0070225Y0059749D03*
X0070250Y0059749D03*
X0059325Y0058299D03*
D82*
X0059300Y0058311D03*
D83*
X0059275Y0058324D03*
X0070275Y0059749D03*
X0070300Y0059749D03*
X0070175Y0094049D03*
X0070150Y0094049D03*
D84*
X0069800Y0091674D03*
X0069375Y0091674D03*
X0069325Y0091699D03*
X0069300Y0091699D03*
X0078100Y0092199D03*
X0078975Y0094674D03*
X0078900Y0060324D03*
X0078025Y0057849D03*
X0069925Y0057374D03*
X0069500Y0057374D03*
X0069450Y0057399D03*
X0069425Y0057399D03*
X0059050Y0057199D03*
X0058525Y0059574D03*
X0050450Y0056999D03*
X0048350Y0057324D03*
X0049575Y0059849D03*
D85*
X0049600Y0059836D03*
X0049625Y0059836D03*
X0049050Y0056986D03*
X0058550Y0059586D03*
X0058575Y0059586D03*
X0059025Y0057236D03*
X0069400Y0057411D03*
X0069950Y0057386D03*
X0080750Y0057861D03*
X0080775Y0059886D03*
X0069825Y0091686D03*
X0069275Y0091711D03*
X0080825Y0092211D03*
X0080850Y0094236D03*
D86*
X0080575Y0094711D03*
X0080550Y0094736D03*
X0080225Y0094886D03*
X0080200Y0094886D03*
X0080275Y0093286D03*
X0077250Y0093236D03*
X0070675Y0094711D03*
X0070625Y0094736D03*
X0070600Y0094736D03*
X0070550Y0094761D03*
X0070500Y0094786D03*
X0070475Y0094786D03*
X0070425Y0094811D03*
X0070400Y0094811D03*
X0070375Y0094836D03*
X0070350Y0094836D03*
X0070325Y0094836D03*
X0070300Y0094861D03*
X0070275Y0094861D03*
X0070250Y0094861D03*
X0070200Y0094886D03*
X0068950Y0094036D03*
X0070450Y0093286D03*
X0067450Y0093161D03*
X0070325Y0060586D03*
X0070375Y0060561D03*
X0070400Y0060561D03*
X0070425Y0060561D03*
X0070450Y0060536D03*
X0070475Y0060536D03*
X0070500Y0060536D03*
X0070525Y0060511D03*
X0070550Y0060511D03*
X0070600Y0060486D03*
X0070625Y0060486D03*
X0070675Y0060461D03*
X0070725Y0060436D03*
X0070750Y0060436D03*
X0070800Y0060411D03*
X0070575Y0058986D03*
X0069075Y0059736D03*
X0067575Y0058861D03*
X0057700Y0058536D03*
X0050975Y0059761D03*
X0050950Y0059761D03*
X0047500Y0058361D03*
X0077175Y0058886D03*
X0080200Y0058936D03*
X0080500Y0060361D03*
X0080475Y0060386D03*
X0080150Y0060536D03*
X0080125Y0060536D03*
D87*
X0071075Y0058861D03*
X0068475Y0058861D03*
X0051000Y0058361D03*
X0068350Y0093161D03*
X0070950Y0093161D03*
D88*
X0068725Y0094036D03*
X0078400Y0094686D03*
X0078425Y0094711D03*
X0078475Y0091761D03*
X0078525Y0091736D03*
X0078550Y0091711D03*
X0078600Y0091686D03*
X0080350Y0091711D03*
X0080400Y0091736D03*
X0078350Y0060361D03*
X0078325Y0060336D03*
X0078400Y0057411D03*
X0078450Y0057386D03*
X0078475Y0057361D03*
X0078525Y0057336D03*
X0080275Y0057361D03*
X0080325Y0057386D03*
X0068850Y0059736D03*
X0050975Y0057036D03*
X0050950Y0057036D03*
X0050725Y0059836D03*
X0050700Y0059836D03*
D89*
X0050675Y0059849D03*
X0050650Y0059849D03*
X0050625Y0059849D03*
X0050925Y0057024D03*
X0068800Y0059749D03*
X0068825Y0059749D03*
X0070725Y0058949D03*
X0078250Y0060274D03*
X0078275Y0060299D03*
X0078300Y0060324D03*
X0078825Y0060524D03*
X0078675Y0058899D03*
X0080150Y0058949D03*
X0080625Y0060199D03*
X0080375Y0057424D03*
X0080350Y0057399D03*
X0078425Y0057399D03*
X0078375Y0057424D03*
X0078350Y0057449D03*
X0078500Y0091749D03*
X0078450Y0091774D03*
X0078425Y0091799D03*
X0078750Y0093249D03*
X0078325Y0094624D03*
X0078350Y0094649D03*
X0078375Y0094674D03*
X0078900Y0094874D03*
X0080700Y0094549D03*
X0080225Y0093299D03*
X0080450Y0091774D03*
X0080425Y0091749D03*
X0070600Y0093249D03*
X0068700Y0094049D03*
X0068675Y0094049D03*
D90*
X0070625Y0093236D03*
X0078275Y0094586D03*
X0078300Y0094611D03*
X0078375Y0091836D03*
X0078400Y0091811D03*
X0080475Y0091786D03*
X0080500Y0091811D03*
X0078225Y0060261D03*
X0078200Y0060236D03*
X0078300Y0057486D03*
X0078325Y0057461D03*
X0080400Y0057436D03*
X0080425Y0057461D03*
X0070750Y0058936D03*
X0050900Y0057011D03*
X0050875Y0057011D03*
X0050600Y0059861D03*
X0050575Y0059861D03*
D91*
X0050875Y0059786D03*
X0050900Y0059786D03*
X0069000Y0059736D03*
X0070625Y0058961D03*
X0078925Y0057186D03*
X0079050Y0057161D03*
X0079075Y0057161D03*
X0079200Y0057136D03*
X0079225Y0057136D03*
X0079250Y0057136D03*
X0079275Y0057136D03*
X0079300Y0057136D03*
X0079325Y0057136D03*
X0079350Y0057136D03*
X0079375Y0057136D03*
X0079400Y0057136D03*
X0079425Y0057136D03*
X0079450Y0057136D03*
X0079475Y0057136D03*
X0079500Y0057136D03*
X0079525Y0057136D03*
X0079550Y0057136D03*
X0079675Y0057161D03*
X0079700Y0057161D03*
X0079725Y0057161D03*
X0079825Y0057186D03*
X0080550Y0060311D03*
X0080525Y0060336D03*
X0080025Y0060561D03*
X0080000Y0060561D03*
X0079975Y0060561D03*
X0079950Y0060561D03*
X0079625Y0091486D03*
X0079600Y0091486D03*
X0079575Y0091486D03*
X0079550Y0091486D03*
X0079525Y0091486D03*
X0079500Y0091486D03*
X0079475Y0091486D03*
X0079450Y0091486D03*
X0079425Y0091486D03*
X0079400Y0091486D03*
X0079375Y0091486D03*
X0079350Y0091486D03*
X0079325Y0091486D03*
X0079300Y0091486D03*
X0079275Y0091486D03*
X0079150Y0091511D03*
X0079125Y0091511D03*
X0079000Y0091536D03*
X0079750Y0091511D03*
X0079775Y0091511D03*
X0079800Y0091511D03*
X0079900Y0091536D03*
X0080625Y0094661D03*
X0080600Y0094686D03*
X0080100Y0094911D03*
X0080075Y0094911D03*
X0080050Y0094911D03*
X0080025Y0094911D03*
X0070500Y0093261D03*
X0068875Y0094036D03*
D92*
X0068850Y0094049D03*
X0068825Y0094049D03*
X0078650Y0094824D03*
X0078800Y0094874D03*
X0079900Y0094924D03*
X0079925Y0094924D03*
X0079950Y0094924D03*
X0079975Y0094924D03*
X0080000Y0094924D03*
X0080250Y0093299D03*
X0078700Y0093249D03*
X0078800Y0091599D03*
X0078850Y0091574D03*
X0078875Y0091574D03*
X0078925Y0091549D03*
X0078950Y0091549D03*
X0078975Y0091549D03*
X0079025Y0091524D03*
X0079050Y0091524D03*
X0079075Y0091524D03*
X0079100Y0091524D03*
X0079175Y0091499D03*
X0079200Y0091499D03*
X0079225Y0091499D03*
X0079250Y0091499D03*
X0079650Y0091499D03*
X0079675Y0091499D03*
X0079700Y0091499D03*
X0079725Y0091499D03*
X0079825Y0091524D03*
X0079850Y0091524D03*
X0079875Y0091524D03*
X0079925Y0091549D03*
X0079950Y0091549D03*
X0079975Y0091549D03*
X0080025Y0091574D03*
X0080050Y0091574D03*
X0080100Y0091599D03*
X0079925Y0060574D03*
X0079900Y0060574D03*
X0079875Y0060574D03*
X0079850Y0060574D03*
X0079825Y0060574D03*
X0078725Y0060524D03*
X0078575Y0060474D03*
X0078625Y0058899D03*
X0080175Y0058949D03*
X0080025Y0057249D03*
X0079975Y0057224D03*
X0079950Y0057224D03*
X0079900Y0057199D03*
X0079875Y0057199D03*
X0079850Y0057199D03*
X0079800Y0057174D03*
X0079775Y0057174D03*
X0079750Y0057174D03*
X0079650Y0057149D03*
X0079625Y0057149D03*
X0079600Y0057149D03*
X0079575Y0057149D03*
X0079175Y0057149D03*
X0079150Y0057149D03*
X0079125Y0057149D03*
X0079100Y0057149D03*
X0079025Y0057174D03*
X0079000Y0057174D03*
X0078975Y0057174D03*
X0078950Y0057174D03*
X0078900Y0057199D03*
X0078875Y0057199D03*
X0078850Y0057199D03*
X0078800Y0057224D03*
X0078775Y0057224D03*
X0078725Y0057249D03*
X0068975Y0059749D03*
X0068950Y0059749D03*
X0050850Y0059799D03*
X0050825Y0059799D03*
D93*
X0049050Y0059899D03*
X0049025Y0059899D03*
X0049000Y0059899D03*
X0048975Y0059899D03*
X0048925Y0059874D03*
X0048450Y0059624D03*
X0050800Y0056999D03*
X0069650Y0057224D03*
X0069675Y0057224D03*
X0069700Y0057224D03*
X0069725Y0057224D03*
X0069750Y0057224D03*
X0069775Y0057224D03*
X0069800Y0057224D03*
X0078225Y0057549D03*
X0078725Y0058899D03*
X0078125Y0060149D03*
X0080550Y0057574D03*
X0080625Y0091924D03*
X0078800Y0093249D03*
X0078200Y0094499D03*
X0078300Y0091899D03*
X0069675Y0091524D03*
X0069650Y0091524D03*
X0069625Y0091524D03*
X0069600Y0091524D03*
X0069575Y0091524D03*
X0069550Y0091524D03*
X0069525Y0091524D03*
D94*
X0070525Y0093261D03*
X0070550Y0093261D03*
X0068800Y0094036D03*
X0078525Y0094761D03*
X0078550Y0094786D03*
X0078575Y0094786D03*
X0078600Y0094811D03*
X0078625Y0094811D03*
X0078675Y0094836D03*
X0078700Y0094836D03*
X0078725Y0094861D03*
X0078750Y0094861D03*
X0078775Y0094861D03*
X0078825Y0094886D03*
X0078850Y0094886D03*
X0078875Y0094886D03*
X0079750Y0094936D03*
X0079775Y0094936D03*
X0079800Y0094936D03*
X0079825Y0094936D03*
X0079850Y0094936D03*
X0079875Y0094936D03*
X0080650Y0094636D03*
X0080250Y0091661D03*
X0080225Y0091636D03*
X0080200Y0091636D03*
X0080175Y0091611D03*
X0080150Y0091611D03*
X0080125Y0091611D03*
X0080075Y0091586D03*
X0080000Y0091561D03*
X0078900Y0091561D03*
X0078825Y0091586D03*
X0078775Y0091611D03*
X0078750Y0091611D03*
X0078700Y0091636D03*
X0078650Y0091661D03*
X0079675Y0060586D03*
X0079700Y0060586D03*
X0079725Y0060586D03*
X0079750Y0060586D03*
X0079775Y0060586D03*
X0079800Y0060586D03*
X0080575Y0060286D03*
X0078800Y0060536D03*
X0078775Y0060536D03*
X0078750Y0060536D03*
X0078700Y0060511D03*
X0078675Y0060511D03*
X0078650Y0060511D03*
X0078625Y0060486D03*
X0078600Y0060486D03*
X0078550Y0060461D03*
X0078525Y0060461D03*
X0078500Y0060436D03*
X0078475Y0060436D03*
X0078450Y0060411D03*
X0078575Y0057311D03*
X0078625Y0057286D03*
X0078675Y0057261D03*
X0078700Y0057261D03*
X0078750Y0057236D03*
X0078825Y0057211D03*
X0079925Y0057211D03*
X0080000Y0057236D03*
X0080050Y0057261D03*
X0080075Y0057261D03*
X0080100Y0057261D03*
X0080125Y0057286D03*
X0080150Y0057286D03*
X0080175Y0057311D03*
X0070675Y0058961D03*
X0070650Y0058961D03*
X0068925Y0059736D03*
X0050800Y0059811D03*
D95*
X0049075Y0059911D03*
X0048425Y0059611D03*
X0048400Y0059586D03*
X0050775Y0056986D03*
X0069600Y0057236D03*
X0069625Y0057236D03*
X0070800Y0058911D03*
X0078200Y0057586D03*
X0078750Y0058886D03*
X0080100Y0058961D03*
X0080700Y0060086D03*
X0078850Y0060461D03*
X0080575Y0057586D03*
X0080650Y0091936D03*
X0080175Y0093311D03*
X0080775Y0094436D03*
X0078925Y0094811D03*
X0078825Y0093236D03*
X0078275Y0091936D03*
X0070675Y0093211D03*
X0069500Y0091536D03*
X0069475Y0091536D03*
D96*
X0070575Y0093249D03*
X0068775Y0094049D03*
X0068750Y0094049D03*
X0078450Y0094724D03*
X0078475Y0094749D03*
X0078500Y0094749D03*
X0079375Y0094949D03*
X0079400Y0094949D03*
X0079425Y0094949D03*
X0079450Y0094949D03*
X0079475Y0094949D03*
X0079500Y0094949D03*
X0079525Y0094949D03*
X0079550Y0094949D03*
X0079575Y0094949D03*
X0079600Y0094949D03*
X0079625Y0094949D03*
X0079650Y0094949D03*
X0079675Y0094949D03*
X0079700Y0094949D03*
X0079725Y0094949D03*
X0080675Y0094599D03*
X0078725Y0093249D03*
X0078575Y0091699D03*
X0078625Y0091674D03*
X0078675Y0091649D03*
X0078725Y0091624D03*
X0080275Y0091674D03*
X0080300Y0091674D03*
X0080325Y0091699D03*
X0080375Y0091724D03*
X0079650Y0060599D03*
X0079625Y0060599D03*
X0079600Y0060599D03*
X0079575Y0060599D03*
X0079550Y0060599D03*
X0079525Y0060599D03*
X0079500Y0060599D03*
X0079475Y0060599D03*
X0079450Y0060599D03*
X0079425Y0060599D03*
X0079400Y0060599D03*
X0079375Y0060599D03*
X0079350Y0060599D03*
X0079325Y0060599D03*
X0079300Y0060599D03*
X0078425Y0060399D03*
X0078400Y0060399D03*
X0078375Y0060374D03*
X0078650Y0058899D03*
X0078500Y0057349D03*
X0078550Y0057324D03*
X0078600Y0057299D03*
X0078650Y0057274D03*
X0080200Y0057324D03*
X0080225Y0057324D03*
X0080250Y0057349D03*
X0080300Y0057374D03*
X0080600Y0060249D03*
X0070700Y0058949D03*
X0068900Y0059749D03*
X0068875Y0059749D03*
X0050775Y0059824D03*
X0050750Y0059824D03*
D97*
X0049125Y0059899D03*
X0049100Y0059899D03*
X0048375Y0059549D03*
X0050750Y0056999D03*
X0078175Y0057599D03*
X0080600Y0057624D03*
X0080625Y0057649D03*
X0078100Y0060124D03*
X0078250Y0091949D03*
X0080675Y0091974D03*
X0080700Y0091999D03*
X0078175Y0094474D03*
D98*
X0078150Y0094436D03*
X0078850Y0093236D03*
X0078875Y0093236D03*
X0080150Y0093311D03*
X0078225Y0091986D03*
X0070700Y0093186D03*
X0078075Y0060086D03*
X0078775Y0058886D03*
X0078800Y0058886D03*
X0080075Y0058961D03*
X0078150Y0057636D03*
X0070825Y0058886D03*
X0050725Y0056986D03*
X0050700Y0056986D03*
X0049225Y0059911D03*
X0049200Y0059911D03*
X0049175Y0059911D03*
X0049150Y0059911D03*
D99*
X0048825Y0059849D03*
X0048800Y0059849D03*
X0048775Y0059824D03*
X0048750Y0059824D03*
X0048725Y0059824D03*
X0048700Y0059799D03*
X0048675Y0059799D03*
X0048650Y0059774D03*
X0048625Y0059774D03*
X0048600Y0059749D03*
X0048575Y0059724D03*
X0048525Y0059699D03*
X0050500Y0059874D03*
X0050525Y0059874D03*
X0050550Y0059874D03*
X0078700Y0058899D03*
X0080450Y0057474D03*
X0080475Y0057499D03*
X0080500Y0057524D03*
X0080650Y0060174D03*
X0080525Y0091824D03*
X0080550Y0091849D03*
X0080575Y0091874D03*
X0078775Y0093249D03*
X0080725Y0094524D03*
D100*
X0080800Y0092149D03*
X0049500Y0059874D03*
X0048400Y0057249D03*
X0050500Y0056999D03*
X0080725Y0057799D03*
D101*
X0050450Y0059374D03*
X0050425Y0059399D03*
X0050400Y0059399D03*
X0049800Y0057224D03*
D102*
X0049850Y0057199D03*
X0050325Y0059449D03*
D103*
X0050300Y0059461D03*
X0049875Y0057186D03*
D104*
X0049900Y0057174D03*
X0050275Y0059474D03*
X0050250Y0059499D03*
D105*
X0049775Y0057236D03*
D106*
X0049750Y0057249D03*
D107*
X0049700Y0057274D03*
D108*
X0049650Y0057299D03*
D109*
X0049625Y0057311D03*
D110*
X0049600Y0057324D03*
D111*
X0049550Y0057349D03*
D112*
X0049525Y0057361D03*
D113*
X0049500Y0057374D03*
D114*
X0049450Y0057399D03*
D115*
X0049350Y0057449D03*
D116*
X0049275Y0057474D03*
X0049200Y0057499D03*
X0049175Y0057499D03*
X0049150Y0057499D03*
X0049125Y0057524D03*
X0049100Y0057524D03*
D117*
X0048350Y0059524D03*
X0049250Y0059899D03*
X0078125Y0057674D03*
X0080025Y0058949D03*
X0080050Y0058949D03*
X0080650Y0057674D03*
X0080725Y0092024D03*
X0080125Y0093299D03*
X0080100Y0093299D03*
X0078200Y0092024D03*
D118*
X0070250Y0093286D03*
X0069700Y0093086D03*
X0069675Y0093061D03*
X0069525Y0093011D03*
X0069175Y0094036D03*
X0069625Y0095011D03*
X0069650Y0095011D03*
X0069675Y0095011D03*
X0069225Y0091336D03*
X0069750Y0060711D03*
X0069775Y0060711D03*
X0069800Y0060711D03*
X0069300Y0059736D03*
X0069650Y0058711D03*
X0069800Y0058761D03*
X0069825Y0058786D03*
X0070375Y0058986D03*
X0069350Y0057036D03*
X0049075Y0058461D03*
X0049050Y0058461D03*
X0049025Y0058461D03*
X0049000Y0058461D03*
X0048975Y0058461D03*
D119*
X0048950Y0058461D03*
X0048925Y0058461D03*
X0048900Y0058461D03*
X0068950Y0057136D03*
X0069625Y0058736D03*
X0069850Y0058811D03*
X0069875Y0058836D03*
X0069900Y0058836D03*
X0070225Y0058961D03*
X0070250Y0058961D03*
X0070275Y0058961D03*
X0069375Y0059736D03*
X0069625Y0060736D03*
X0069650Y0060736D03*
X0070800Y0057211D03*
X0078525Y0058911D03*
X0080250Y0058936D03*
X0070675Y0091511D03*
X0070150Y0093261D03*
X0070125Y0093261D03*
X0070100Y0093261D03*
X0069775Y0093136D03*
X0069750Y0093136D03*
X0069725Y0093111D03*
X0069500Y0093036D03*
X0069250Y0094036D03*
X0069500Y0095036D03*
X0069525Y0095036D03*
X0068825Y0091436D03*
X0078600Y0093261D03*
X0080325Y0093286D03*
D120*
X0070600Y0091449D03*
X0070550Y0091424D03*
X0070175Y0092224D03*
X0070150Y0092224D03*
X0070125Y0092224D03*
X0069425Y0093049D03*
X0069375Y0094049D03*
X0069350Y0094049D03*
X0069350Y0095049D03*
X0069000Y0091349D03*
X0069050Y0091324D03*
X0069075Y0091324D03*
X0069125Y0091299D03*
X0069150Y0091299D03*
X0069175Y0091299D03*
X0069200Y0091299D03*
X0069475Y0060749D03*
X0069475Y0059749D03*
X0069500Y0059749D03*
X0069550Y0058749D03*
X0070250Y0057924D03*
X0070275Y0057924D03*
X0070300Y0057924D03*
X0070675Y0057124D03*
X0070725Y0057149D03*
X0069325Y0056999D03*
X0069300Y0056999D03*
X0069275Y0056999D03*
X0069250Y0056999D03*
X0069200Y0057024D03*
X0069175Y0057024D03*
X0069125Y0057049D03*
X0048825Y0058474D03*
D121*
X0048725Y0058461D03*
X0069175Y0058711D03*
X0069200Y0057911D03*
X0070500Y0057936D03*
X0069100Y0060786D03*
X0069075Y0060786D03*
X0069050Y0060786D03*
X0069075Y0092211D03*
X0069050Y0093011D03*
X0070375Y0092236D03*
X0068975Y0095086D03*
X0068950Y0095086D03*
X0068925Y0095086D03*
D122*
X0068775Y0095086D03*
X0068750Y0095086D03*
X0068875Y0060786D03*
X0068900Y0060786D03*
X0048700Y0058461D03*
D123*
X0068825Y0057274D03*
X0070250Y0057124D03*
X0070900Y0057374D03*
X0070550Y0058974D03*
X0069725Y0058674D03*
X0069125Y0059749D03*
X0069100Y0059749D03*
X0070175Y0060624D03*
X0070200Y0060624D03*
X0070250Y0060599D03*
X0070275Y0060599D03*
X0070300Y0060599D03*
X0070350Y0060574D03*
X0070575Y0060499D03*
X0070650Y0060474D03*
X0070700Y0060449D03*
X0070775Y0060424D03*
X0070825Y0060399D03*
X0070850Y0060399D03*
X0070875Y0060374D03*
X0080175Y0060524D03*
X0080200Y0060524D03*
X0080225Y0060524D03*
X0080450Y0060424D03*
X0070125Y0091424D03*
X0070775Y0091674D03*
X0070425Y0093274D03*
X0069600Y0092974D03*
X0069000Y0094049D03*
X0068975Y0094049D03*
X0070050Y0094924D03*
X0070075Y0094924D03*
X0070125Y0094899D03*
X0070150Y0094899D03*
X0070175Y0094899D03*
X0070225Y0094874D03*
X0070450Y0094799D03*
X0070525Y0094774D03*
X0070575Y0094749D03*
X0070650Y0094724D03*
X0070700Y0094699D03*
X0070725Y0094699D03*
X0070750Y0094674D03*
X0068700Y0091574D03*
X0080250Y0094874D03*
X0080275Y0094874D03*
X0080300Y0094874D03*
X0080525Y0094774D03*
D124*
X0080500Y0094786D03*
X0080475Y0094811D03*
X0080350Y0094861D03*
X0080325Y0094861D03*
X0078650Y0093261D03*
X0070400Y0093286D03*
X0069625Y0093011D03*
X0069025Y0094036D03*
X0069900Y0094961D03*
X0069925Y0094961D03*
X0069975Y0094936D03*
X0070000Y0094936D03*
X0070025Y0094936D03*
X0070100Y0094911D03*
X0070050Y0060661D03*
X0070025Y0060661D03*
X0070100Y0060636D03*
X0070125Y0060636D03*
X0070150Y0060636D03*
X0070225Y0060611D03*
X0069150Y0059736D03*
X0069750Y0058711D03*
X0070525Y0058986D03*
X0078575Y0058911D03*
X0080250Y0060511D03*
X0080275Y0060511D03*
X0080400Y0060461D03*
X0080425Y0060436D03*
D125*
X0080375Y0060474D03*
X0080350Y0060499D03*
X0080325Y0060499D03*
X0080300Y0060499D03*
X0079625Y0058549D03*
X0079600Y0058549D03*
X0079575Y0058549D03*
X0079550Y0058549D03*
X0079525Y0058549D03*
X0079500Y0058549D03*
X0079475Y0058549D03*
X0079450Y0058549D03*
X0079425Y0058549D03*
X0079400Y0058549D03*
X0079375Y0058549D03*
X0079350Y0058549D03*
X0079325Y0058549D03*
X0079300Y0058549D03*
X0070500Y0058974D03*
X0070475Y0058974D03*
X0069700Y0058699D03*
X0069200Y0059749D03*
X0069175Y0059749D03*
X0069975Y0060674D03*
X0070000Y0060674D03*
X0070075Y0060649D03*
X0069575Y0092999D03*
X0070350Y0093274D03*
X0070375Y0093274D03*
X0069075Y0094049D03*
X0069050Y0094049D03*
X0069850Y0094974D03*
X0069875Y0094974D03*
X0069950Y0094949D03*
X0079375Y0092899D03*
X0079400Y0092899D03*
X0079425Y0092899D03*
X0079450Y0092899D03*
X0079475Y0092899D03*
X0079500Y0092899D03*
X0079525Y0092899D03*
X0079550Y0092899D03*
X0079575Y0092899D03*
X0079600Y0092899D03*
X0079625Y0092899D03*
X0079650Y0092899D03*
X0079675Y0092899D03*
X0079700Y0092899D03*
X0080375Y0094849D03*
X0080400Y0094849D03*
X0080425Y0094849D03*
X0080450Y0094824D03*
D126*
X0080350Y0093274D03*
X0070300Y0092224D03*
X0069250Y0092199D03*
X0069225Y0092199D03*
X0069200Y0092199D03*
X0069175Y0092199D03*
X0068800Y0092874D03*
X0069325Y0093049D03*
X0069475Y0094049D03*
X0069500Y0094049D03*
X0069525Y0094049D03*
X0069175Y0095074D03*
X0069150Y0095074D03*
X0069275Y0060774D03*
X0069300Y0060774D03*
X0069600Y0059749D03*
X0069625Y0059749D03*
X0069650Y0059749D03*
X0069450Y0058749D03*
X0068925Y0058574D03*
X0069300Y0057899D03*
X0069325Y0057899D03*
X0069350Y0057899D03*
X0069375Y0057899D03*
X0070425Y0057924D03*
X0080275Y0058924D03*
D127*
X0080225Y0058936D03*
X0079725Y0058561D03*
X0079700Y0058561D03*
X0079675Y0058561D03*
X0079650Y0058561D03*
X0070875Y0057311D03*
X0069775Y0058736D03*
X0069675Y0058711D03*
X0070450Y0058986D03*
X0069225Y0059736D03*
X0069900Y0060686D03*
X0069925Y0060686D03*
X0069950Y0060686D03*
X0068850Y0057236D03*
X0068725Y0091536D03*
X0069550Y0093011D03*
X0069650Y0093036D03*
X0070325Y0093286D03*
X0069100Y0094036D03*
X0069775Y0094986D03*
X0069800Y0094986D03*
X0069825Y0094986D03*
X0070750Y0091611D03*
X0079725Y0092911D03*
X0079750Y0092911D03*
X0079775Y0092911D03*
X0079800Y0092911D03*
X0080300Y0093286D03*
D128*
X0079350Y0093974D03*
X0079325Y0093974D03*
X0079300Y0093974D03*
X0079275Y0093974D03*
X0079250Y0093974D03*
X0079225Y0093974D03*
X0079200Y0093974D03*
X0079175Y0059624D03*
X0079150Y0059624D03*
X0079125Y0059624D03*
X0079200Y0059624D03*
X0079225Y0059624D03*
X0079250Y0059624D03*
X0079275Y0059624D03*
D129*
X0079075Y0059624D03*
X0079050Y0059624D03*
X0079025Y0059624D03*
X0079000Y0059624D03*
X0079075Y0093974D03*
X0079100Y0093974D03*
X0079125Y0093974D03*
X0079150Y0093974D03*
D130*
X0079050Y0093986D03*
X0079025Y0093986D03*
X0078975Y0059636D03*
X0078950Y0059636D03*
D131*
X0078925Y0059624D03*
X0079000Y0093974D03*
D132*
X0078625Y0093249D03*
X0070725Y0091574D03*
X0070300Y0093274D03*
X0070275Y0093274D03*
X0069150Y0094049D03*
X0069125Y0094049D03*
X0069700Y0094999D03*
X0069725Y0094999D03*
X0069750Y0094999D03*
X0068750Y0091499D03*
X0069825Y0060699D03*
X0069850Y0060699D03*
X0069875Y0060699D03*
X0069275Y0059749D03*
X0069250Y0059749D03*
X0070400Y0058974D03*
X0070425Y0058974D03*
X0070850Y0057274D03*
X0068875Y0057199D03*
X0078550Y0058899D03*
D133*
X0071050Y0058861D03*
X0071025Y0058861D03*
X0068525Y0058861D03*
X0068500Y0058861D03*
X0068400Y0093161D03*
X0068375Y0093161D03*
X0070900Y0093161D03*
X0070925Y0093161D03*
D134*
X0070875Y0093161D03*
X0068425Y0093161D03*
X0068550Y0058861D03*
X0071000Y0058861D03*
D135*
X0070975Y0058861D03*
X0070950Y0058861D03*
X0068600Y0058861D03*
X0068575Y0058861D03*
X0068475Y0093161D03*
X0068450Y0093161D03*
X0070825Y0093161D03*
X0070850Y0093161D03*
D136*
X0070800Y0093161D03*
X0068525Y0093161D03*
X0068500Y0093161D03*
X0068625Y0058861D03*
X0068650Y0058861D03*
X0070925Y0058861D03*
D137*
X0070900Y0059424D03*
X0070775Y0093724D03*
D138*
X0070225Y0093274D03*
X0070200Y0093274D03*
X0070175Y0093274D03*
X0069225Y0094049D03*
X0069200Y0094049D03*
X0069550Y0095024D03*
X0069575Y0095024D03*
X0069600Y0095024D03*
X0068675Y0092724D03*
X0068775Y0091474D03*
X0068800Y0091449D03*
X0070700Y0091549D03*
X0069725Y0060724D03*
X0069700Y0060724D03*
X0069675Y0060724D03*
X0069350Y0059749D03*
X0069325Y0059749D03*
X0070300Y0058974D03*
X0070325Y0058974D03*
X0070350Y0058974D03*
X0068800Y0058424D03*
X0068900Y0057174D03*
X0068925Y0057149D03*
X0070825Y0057249D03*
D139*
X0070600Y0057074D03*
X0070575Y0057074D03*
X0070550Y0057049D03*
X0070525Y0057049D03*
X0070500Y0057024D03*
X0070475Y0057024D03*
X0070450Y0057024D03*
X0070400Y0056999D03*
X0070375Y0056999D03*
X0070350Y0056999D03*
X0070300Y0056974D03*
X0070375Y0057924D03*
X0069525Y0058749D03*
X0069525Y0059749D03*
X0069550Y0059749D03*
X0069575Y0059749D03*
X0069375Y0060774D03*
X0069350Y0060774D03*
X0070175Y0091274D03*
X0070225Y0091299D03*
X0070250Y0091299D03*
X0070275Y0091299D03*
X0070325Y0091324D03*
X0070350Y0091324D03*
X0070375Y0091324D03*
X0070400Y0091349D03*
X0070425Y0091349D03*
X0070450Y0091374D03*
X0070475Y0091374D03*
X0070250Y0092224D03*
X0069400Y0093049D03*
X0069400Y0094049D03*
X0069425Y0094049D03*
X0069450Y0094049D03*
X0069250Y0095074D03*
X0069225Y0095074D03*
D140*
X0069075Y0095074D03*
X0069550Y0094049D03*
X0069575Y0094049D03*
X0069600Y0094049D03*
X0069250Y0093049D03*
X0069225Y0093049D03*
X0069200Y0093049D03*
X0068850Y0092924D03*
X0068825Y0092899D03*
X0069125Y0092199D03*
X0069200Y0060774D03*
X0069675Y0059749D03*
X0069700Y0059749D03*
X0069725Y0059749D03*
X0069375Y0058749D03*
X0069350Y0058749D03*
X0069325Y0058749D03*
X0068975Y0058624D03*
X0068950Y0058599D03*
X0069250Y0057899D03*
D141*
X0069025Y0060786D03*
X0069000Y0060786D03*
X0068900Y0095086D03*
X0068875Y0095086D03*
D142*
X0068650Y0093161D03*
X0068775Y0058861D03*
D143*
X0068750Y0058874D03*
X0068625Y0093174D03*
D144*
X0068600Y0093161D03*
X0068725Y0058861D03*
D145*
X0068700Y0058874D03*
X0068575Y0093174D03*
D146*
X0068550Y0093161D03*
X0068675Y0058861D03*
D147*
X0068425Y0058874D03*
X0068300Y0093174D03*
D148*
X0020872Y0087260D02*
X0020872Y0084307D01*
X0020872Y0087260D02*
X0014376Y0087260D01*
X0004140Y0081354D02*
X0004140Y0069543D01*
X0014376Y0063638D02*
X0020872Y0063638D01*
X0020872Y0066591D01*
X0157679Y0067570D02*
X0158347Y0067570D01*
X0159681Y0067570D02*
X0162350Y0067570D01*
X0162350Y0066903D02*
X0162350Y0068237D01*
X0162350Y0069972D02*
X0159681Y0069972D01*
X0159681Y0071974D01*
X0160348Y0072641D01*
X0162350Y0072641D01*
X0161683Y0074576D02*
X0160348Y0074576D01*
X0159681Y0075243D01*
X0159681Y0077245D01*
X0163017Y0077245D01*
X0163684Y0076578D01*
X0163684Y0075910D01*
X0162350Y0075243D02*
X0162350Y0077245D01*
X0162350Y0079180D02*
X0162350Y0080514D01*
X0162350Y0079847D02*
X0158347Y0079847D01*
X0158347Y0079180D01*
X0160348Y0082249D02*
X0159681Y0082916D01*
X0159681Y0084251D01*
X0160348Y0084918D01*
X0161016Y0084918D01*
X0161016Y0082249D01*
X0161683Y0082249D02*
X0160348Y0082249D01*
X0161683Y0082249D02*
X0162350Y0082916D01*
X0162350Y0084251D01*
X0162350Y0075243D02*
X0161683Y0074576D01*
X0159681Y0067570D02*
X0159681Y0066903D01*
X0159014Y0064968D02*
X0158347Y0064301D01*
X0158347Y0062966D01*
X0159014Y0062299D01*
X0159681Y0062299D01*
X0160348Y0062966D01*
X0160348Y0064301D01*
X0161016Y0064968D01*
X0161683Y0064968D01*
X0162350Y0064301D01*
X0162350Y0062966D01*
X0161683Y0062299D01*
D149*
X0022874Y0085291D02*
X0022876Y0085338D01*
X0022882Y0085384D01*
X0022891Y0085430D01*
X0022905Y0085474D01*
X0022922Y0085518D01*
X0022943Y0085559D01*
X0022967Y0085599D01*
X0022994Y0085637D01*
X0023025Y0085672D01*
X0023058Y0085705D01*
X0023094Y0085735D01*
X0023133Y0085761D01*
X0023173Y0085785D01*
X0023215Y0085804D01*
X0023259Y0085821D01*
X0023304Y0085833D01*
X0023350Y0085842D01*
X0023396Y0085847D01*
X0023443Y0085848D01*
X0023489Y0085845D01*
X0023535Y0085838D01*
X0023581Y0085827D01*
X0023625Y0085813D01*
X0023668Y0085795D01*
X0023709Y0085773D01*
X0023749Y0085748D01*
X0023786Y0085720D01*
X0023821Y0085689D01*
X0023853Y0085655D01*
X0023882Y0085618D01*
X0023907Y0085580D01*
X0023930Y0085539D01*
X0023949Y0085496D01*
X0023964Y0085452D01*
X0023976Y0085407D01*
X0023984Y0085361D01*
X0023988Y0085314D01*
X0023988Y0085268D01*
X0023984Y0085221D01*
X0023976Y0085175D01*
X0023964Y0085130D01*
X0023949Y0085086D01*
X0023930Y0085043D01*
X0023907Y0085002D01*
X0023882Y0084964D01*
X0023853Y0084927D01*
X0023821Y0084893D01*
X0023786Y0084862D01*
X0023749Y0084834D01*
X0023710Y0084809D01*
X0023668Y0084787D01*
X0023625Y0084769D01*
X0023581Y0084755D01*
X0023535Y0084744D01*
X0023489Y0084737D01*
X0023443Y0084734D01*
X0023396Y0084735D01*
X0023350Y0084740D01*
X0023304Y0084749D01*
X0023259Y0084761D01*
X0023215Y0084778D01*
X0023173Y0084797D01*
X0023133Y0084821D01*
X0023094Y0084847D01*
X0023058Y0084877D01*
X0023025Y0084910D01*
X0022994Y0084945D01*
X0022967Y0084983D01*
X0022943Y0085023D01*
X0022922Y0085064D01*
X0022905Y0085108D01*
X0022891Y0085152D01*
X0022882Y0085198D01*
X0022876Y0085244D01*
X0022874Y0085291D01*
D150*
X0013050Y0080141D02*
X0013050Y0076805D01*
X0012216Y0074151D02*
X0008046Y0074151D01*
X0008046Y0073317D02*
X0008046Y0074985D01*
X0009714Y0076805D02*
X0008046Y0078473D01*
X0013050Y0078473D01*
X0012216Y0074151D02*
X0013050Y0073317D01*
X0013050Y0072483D01*
X0012216Y0071649D01*
X0033618Y0052628D02*
X0035286Y0052628D01*
X0034452Y0052628D02*
X0034452Y0048458D01*
X0033618Y0047624D01*
X0032784Y0047624D01*
X0031950Y0048458D01*
X0037106Y0047624D02*
X0040443Y0050960D01*
X0040443Y0051794D01*
X0039609Y0052628D01*
X0037940Y0052628D01*
X0037106Y0051794D01*
X0037106Y0047624D02*
X0040443Y0047624D01*
X0045750Y0061449D02*
X0047250Y0061449D01*
X0047750Y0061949D01*
X0061750Y0061949D01*
X0062250Y0061449D01*
X0063750Y0061449D01*
X0063810Y0061451D01*
X0063871Y0061456D01*
X0063930Y0061465D01*
X0063989Y0061478D01*
X0064048Y0061494D01*
X0064105Y0061514D01*
X0064160Y0061537D01*
X0064215Y0061564D01*
X0064267Y0061593D01*
X0064318Y0061626D01*
X0064367Y0061662D01*
X0064413Y0061700D01*
X0064457Y0061742D01*
X0064499Y0061786D01*
X0064537Y0061832D01*
X0064573Y0061881D01*
X0064606Y0061932D01*
X0064635Y0061984D01*
X0064662Y0062039D01*
X0064685Y0062094D01*
X0064705Y0062151D01*
X0064721Y0062210D01*
X0064734Y0062269D01*
X0064743Y0062328D01*
X0064748Y0062389D01*
X0064750Y0062449D01*
X0064750Y0068449D01*
X0064748Y0068509D01*
X0064743Y0068570D01*
X0064734Y0068629D01*
X0064721Y0068688D01*
X0064705Y0068747D01*
X0064685Y0068804D01*
X0064662Y0068859D01*
X0064635Y0068914D01*
X0064606Y0068966D01*
X0064573Y0069017D01*
X0064537Y0069066D01*
X0064499Y0069112D01*
X0064457Y0069156D01*
X0064413Y0069198D01*
X0064367Y0069236D01*
X0064318Y0069272D01*
X0064267Y0069305D01*
X0064215Y0069334D01*
X0064160Y0069361D01*
X0064105Y0069384D01*
X0064048Y0069404D01*
X0063989Y0069420D01*
X0063930Y0069433D01*
X0063871Y0069442D01*
X0063810Y0069447D01*
X0063750Y0069449D01*
X0062250Y0069449D01*
X0061750Y0068949D01*
X0047750Y0068949D01*
X0047250Y0069449D01*
X0045750Y0069449D01*
X0045690Y0069447D01*
X0045629Y0069442D01*
X0045570Y0069433D01*
X0045511Y0069420D01*
X0045452Y0069404D01*
X0045395Y0069384D01*
X0045340Y0069361D01*
X0045285Y0069334D01*
X0045233Y0069305D01*
X0045182Y0069272D01*
X0045133Y0069236D01*
X0045087Y0069198D01*
X0045043Y0069156D01*
X0045001Y0069112D01*
X0044963Y0069066D01*
X0044927Y0069017D01*
X0044894Y0068966D01*
X0044865Y0068914D01*
X0044838Y0068859D01*
X0044815Y0068804D01*
X0044795Y0068747D01*
X0044779Y0068688D01*
X0044766Y0068629D01*
X0044757Y0068570D01*
X0044752Y0068509D01*
X0044750Y0068449D01*
X0044750Y0062449D01*
X0044752Y0062389D01*
X0044757Y0062328D01*
X0044766Y0062269D01*
X0044779Y0062210D01*
X0044795Y0062151D01*
X0044815Y0062094D01*
X0044838Y0062039D01*
X0044865Y0061984D01*
X0044894Y0061932D01*
X0044927Y0061881D01*
X0044963Y0061832D01*
X0045001Y0061786D01*
X0045043Y0061742D01*
X0045087Y0061700D01*
X0045133Y0061662D01*
X0045182Y0061626D01*
X0045233Y0061593D01*
X0045285Y0061564D01*
X0045340Y0061537D01*
X0045395Y0061514D01*
X0045452Y0061494D01*
X0045511Y0061478D01*
X0045570Y0061465D01*
X0045629Y0061456D01*
X0045690Y0061451D01*
X0045750Y0061449D01*
X0045750Y0081449D02*
X0047250Y0081449D01*
X0047750Y0081949D01*
X0061750Y0081949D01*
X0062250Y0081449D01*
X0063750Y0081449D01*
X0063810Y0081451D01*
X0063871Y0081456D01*
X0063930Y0081465D01*
X0063989Y0081478D01*
X0064048Y0081494D01*
X0064105Y0081514D01*
X0064160Y0081537D01*
X0064215Y0081564D01*
X0064267Y0081593D01*
X0064318Y0081626D01*
X0064367Y0081662D01*
X0064413Y0081700D01*
X0064457Y0081742D01*
X0064499Y0081786D01*
X0064537Y0081832D01*
X0064573Y0081881D01*
X0064606Y0081932D01*
X0064635Y0081984D01*
X0064662Y0082039D01*
X0064685Y0082094D01*
X0064705Y0082151D01*
X0064721Y0082210D01*
X0064734Y0082269D01*
X0064743Y0082328D01*
X0064748Y0082389D01*
X0064750Y0082449D01*
X0064750Y0088449D01*
X0064748Y0088509D01*
X0064743Y0088570D01*
X0064734Y0088629D01*
X0064721Y0088688D01*
X0064705Y0088747D01*
X0064685Y0088804D01*
X0064662Y0088859D01*
X0064635Y0088914D01*
X0064606Y0088966D01*
X0064573Y0089017D01*
X0064537Y0089066D01*
X0064499Y0089112D01*
X0064457Y0089156D01*
X0064413Y0089198D01*
X0064367Y0089236D01*
X0064318Y0089272D01*
X0064267Y0089305D01*
X0064215Y0089334D01*
X0064160Y0089361D01*
X0064105Y0089384D01*
X0064048Y0089404D01*
X0063989Y0089420D01*
X0063930Y0089433D01*
X0063871Y0089442D01*
X0063810Y0089447D01*
X0063750Y0089449D01*
X0062250Y0089449D01*
X0061750Y0088949D01*
X0047750Y0088949D01*
X0047250Y0089449D01*
X0045750Y0089449D01*
X0045690Y0089447D01*
X0045629Y0089442D01*
X0045570Y0089433D01*
X0045511Y0089420D01*
X0045452Y0089404D01*
X0045395Y0089384D01*
X0045340Y0089361D01*
X0045285Y0089334D01*
X0045233Y0089305D01*
X0045182Y0089272D01*
X0045133Y0089236D01*
X0045087Y0089198D01*
X0045043Y0089156D01*
X0045001Y0089112D01*
X0044963Y0089066D01*
X0044927Y0089017D01*
X0044894Y0088966D01*
X0044865Y0088914D01*
X0044838Y0088859D01*
X0044815Y0088804D01*
X0044795Y0088747D01*
X0044779Y0088688D01*
X0044766Y0088629D01*
X0044757Y0088570D01*
X0044752Y0088509D01*
X0044750Y0088449D01*
X0044750Y0082449D01*
X0044752Y0082389D01*
X0044757Y0082328D01*
X0044766Y0082269D01*
X0044779Y0082210D01*
X0044795Y0082151D01*
X0044815Y0082094D01*
X0044838Y0082039D01*
X0044865Y0081984D01*
X0044894Y0081932D01*
X0044927Y0081881D01*
X0044963Y0081832D01*
X0045001Y0081786D01*
X0045043Y0081742D01*
X0045087Y0081700D01*
X0045133Y0081662D01*
X0045182Y0081626D01*
X0045233Y0081593D01*
X0045285Y0081564D01*
X0045340Y0081537D01*
X0045395Y0081514D01*
X0045452Y0081494D01*
X0045511Y0081478D01*
X0045570Y0081465D01*
X0045629Y0081456D01*
X0045690Y0081451D01*
X0045750Y0081449D01*
X0041209Y0099149D02*
X0039540Y0099149D01*
X0038706Y0099983D01*
X0040374Y0101651D02*
X0041209Y0101651D01*
X0042043Y0100817D01*
X0042043Y0099983D01*
X0041209Y0099149D01*
X0041209Y0101651D02*
X0042043Y0102485D01*
X0042043Y0103319D01*
X0041209Y0104153D01*
X0039540Y0104153D01*
X0038706Y0103319D01*
X0036886Y0104153D02*
X0035218Y0104153D01*
X0036052Y0104153D02*
X0036052Y0099983D01*
X0035218Y0099149D01*
X0034384Y0099149D01*
X0033550Y0099983D01*
X0115543Y0098952D02*
X0115543Y0096817D01*
X0116611Y0095749D01*
X0117679Y0095749D01*
X0118747Y0096817D01*
X0118747Y0098952D01*
X0119814Y0100020D01*
X0120882Y0100020D01*
X0121950Y0098952D01*
X0121950Y0096817D01*
X0120882Y0095749D01*
X0116611Y0100020D02*
X0115543Y0098952D01*
X0115543Y0102195D02*
X0121950Y0102195D01*
X0119814Y0104331D01*
X0121950Y0106467D01*
X0115543Y0106467D01*
X0116611Y0108642D02*
X0115543Y0109710D01*
X0115543Y0111845D01*
X0116611Y0112913D01*
X0117679Y0112913D01*
X0121950Y0108642D01*
X0121950Y0112913D01*
X0121950Y0052913D02*
X0121950Y0048642D01*
X0121950Y0050778D02*
X0115543Y0050778D01*
X0117679Y0048642D01*
X0115543Y0046467D02*
X0121950Y0046467D01*
X0119814Y0044331D01*
X0121950Y0042195D01*
X0115543Y0042195D01*
X0116611Y0040020D02*
X0115543Y0038952D01*
X0115543Y0036817D01*
X0116611Y0035749D01*
X0117679Y0035749D01*
X0118747Y0036817D01*
X0118747Y0038952D01*
X0119814Y0040020D01*
X0120882Y0040020D01*
X0121950Y0038952D01*
X0121950Y0036817D01*
X0120882Y0035749D01*
D151*
X0150750Y0025449D02*
X0150752Y0025610D01*
X0150758Y0025770D01*
X0150768Y0025931D01*
X0150782Y0026091D01*
X0150800Y0026251D01*
X0150821Y0026410D01*
X0150847Y0026569D01*
X0150877Y0026727D01*
X0150910Y0026884D01*
X0150948Y0027041D01*
X0150989Y0027196D01*
X0151034Y0027350D01*
X0151083Y0027503D01*
X0151136Y0027655D01*
X0151192Y0027806D01*
X0151253Y0027955D01*
X0151316Y0028103D01*
X0151384Y0028249D01*
X0151455Y0028393D01*
X0151529Y0028535D01*
X0151607Y0028676D01*
X0151689Y0028814D01*
X0151774Y0028951D01*
X0151862Y0029085D01*
X0151954Y0029217D01*
X0152049Y0029347D01*
X0152147Y0029475D01*
X0152248Y0029600D01*
X0152352Y0029722D01*
X0152459Y0029842D01*
X0152569Y0029959D01*
X0152682Y0030074D01*
X0152798Y0030185D01*
X0152917Y0030294D01*
X0153038Y0030399D01*
X0153162Y0030502D01*
X0153288Y0030602D01*
X0153416Y0030698D01*
X0153547Y0030791D01*
X0153681Y0030881D01*
X0153816Y0030968D01*
X0153954Y0031051D01*
X0154093Y0031131D01*
X0154235Y0031207D01*
X0154378Y0031280D01*
X0154523Y0031349D01*
X0154670Y0031415D01*
X0154818Y0031477D01*
X0154968Y0031535D01*
X0155119Y0031590D01*
X0155272Y0031641D01*
X0155426Y0031688D01*
X0155581Y0031731D01*
X0155737Y0031770D01*
X0155893Y0031806D01*
X0156051Y0031837D01*
X0156209Y0031865D01*
X0156368Y0031889D01*
X0156528Y0031909D01*
X0156688Y0031925D01*
X0156848Y0031937D01*
X0157009Y0031945D01*
X0157170Y0031949D01*
X0157330Y0031949D01*
X0157491Y0031945D01*
X0157652Y0031937D01*
X0157812Y0031925D01*
X0157972Y0031909D01*
X0158132Y0031889D01*
X0158291Y0031865D01*
X0158449Y0031837D01*
X0158607Y0031806D01*
X0158763Y0031770D01*
X0158919Y0031731D01*
X0159074Y0031688D01*
X0159228Y0031641D01*
X0159381Y0031590D01*
X0159532Y0031535D01*
X0159682Y0031477D01*
X0159830Y0031415D01*
X0159977Y0031349D01*
X0160122Y0031280D01*
X0160265Y0031207D01*
X0160407Y0031131D01*
X0160546Y0031051D01*
X0160684Y0030968D01*
X0160819Y0030881D01*
X0160953Y0030791D01*
X0161084Y0030698D01*
X0161212Y0030602D01*
X0161338Y0030502D01*
X0161462Y0030399D01*
X0161583Y0030294D01*
X0161702Y0030185D01*
X0161818Y0030074D01*
X0161931Y0029959D01*
X0162041Y0029842D01*
X0162148Y0029722D01*
X0162252Y0029600D01*
X0162353Y0029475D01*
X0162451Y0029347D01*
X0162546Y0029217D01*
X0162638Y0029085D01*
X0162726Y0028951D01*
X0162811Y0028814D01*
X0162893Y0028676D01*
X0162971Y0028535D01*
X0163045Y0028393D01*
X0163116Y0028249D01*
X0163184Y0028103D01*
X0163247Y0027955D01*
X0163308Y0027806D01*
X0163364Y0027655D01*
X0163417Y0027503D01*
X0163466Y0027350D01*
X0163511Y0027196D01*
X0163552Y0027041D01*
X0163590Y0026884D01*
X0163623Y0026727D01*
X0163653Y0026569D01*
X0163679Y0026410D01*
X0163700Y0026251D01*
X0163718Y0026091D01*
X0163732Y0025931D01*
X0163742Y0025770D01*
X0163748Y0025610D01*
X0163750Y0025449D01*
X0163748Y0025288D01*
X0163742Y0025128D01*
X0163732Y0024967D01*
X0163718Y0024807D01*
X0163700Y0024647D01*
X0163679Y0024488D01*
X0163653Y0024329D01*
X0163623Y0024171D01*
X0163590Y0024014D01*
X0163552Y0023857D01*
X0163511Y0023702D01*
X0163466Y0023548D01*
X0163417Y0023395D01*
X0163364Y0023243D01*
X0163308Y0023092D01*
X0163247Y0022943D01*
X0163184Y0022795D01*
X0163116Y0022649D01*
X0163045Y0022505D01*
X0162971Y0022363D01*
X0162893Y0022222D01*
X0162811Y0022084D01*
X0162726Y0021947D01*
X0162638Y0021813D01*
X0162546Y0021681D01*
X0162451Y0021551D01*
X0162353Y0021423D01*
X0162252Y0021298D01*
X0162148Y0021176D01*
X0162041Y0021056D01*
X0161931Y0020939D01*
X0161818Y0020824D01*
X0161702Y0020713D01*
X0161583Y0020604D01*
X0161462Y0020499D01*
X0161338Y0020396D01*
X0161212Y0020296D01*
X0161084Y0020200D01*
X0160953Y0020107D01*
X0160819Y0020017D01*
X0160684Y0019930D01*
X0160546Y0019847D01*
X0160407Y0019767D01*
X0160265Y0019691D01*
X0160122Y0019618D01*
X0159977Y0019549D01*
X0159830Y0019483D01*
X0159682Y0019421D01*
X0159532Y0019363D01*
X0159381Y0019308D01*
X0159228Y0019257D01*
X0159074Y0019210D01*
X0158919Y0019167D01*
X0158763Y0019128D01*
X0158607Y0019092D01*
X0158449Y0019061D01*
X0158291Y0019033D01*
X0158132Y0019009D01*
X0157972Y0018989D01*
X0157812Y0018973D01*
X0157652Y0018961D01*
X0157491Y0018953D01*
X0157330Y0018949D01*
X0157170Y0018949D01*
X0157009Y0018953D01*
X0156848Y0018961D01*
X0156688Y0018973D01*
X0156528Y0018989D01*
X0156368Y0019009D01*
X0156209Y0019033D01*
X0156051Y0019061D01*
X0155893Y0019092D01*
X0155737Y0019128D01*
X0155581Y0019167D01*
X0155426Y0019210D01*
X0155272Y0019257D01*
X0155119Y0019308D01*
X0154968Y0019363D01*
X0154818Y0019421D01*
X0154670Y0019483D01*
X0154523Y0019549D01*
X0154378Y0019618D01*
X0154235Y0019691D01*
X0154093Y0019767D01*
X0153954Y0019847D01*
X0153816Y0019930D01*
X0153681Y0020017D01*
X0153547Y0020107D01*
X0153416Y0020200D01*
X0153288Y0020296D01*
X0153162Y0020396D01*
X0153038Y0020499D01*
X0152917Y0020604D01*
X0152798Y0020713D01*
X0152682Y0020824D01*
X0152569Y0020939D01*
X0152459Y0021056D01*
X0152352Y0021176D01*
X0152248Y0021298D01*
X0152147Y0021423D01*
X0152049Y0021551D01*
X0151954Y0021681D01*
X0151862Y0021813D01*
X0151774Y0021947D01*
X0151689Y0022084D01*
X0151607Y0022222D01*
X0151529Y0022363D01*
X0151455Y0022505D01*
X0151384Y0022649D01*
X0151316Y0022795D01*
X0151253Y0022943D01*
X0151192Y0023092D01*
X0151136Y0023243D01*
X0151083Y0023395D01*
X0151034Y0023548D01*
X0150989Y0023702D01*
X0150948Y0023857D01*
X0150910Y0024014D01*
X0150877Y0024171D01*
X0150847Y0024329D01*
X0150821Y0024488D01*
X0150800Y0024647D01*
X0150782Y0024807D01*
X0150768Y0024967D01*
X0150758Y0025128D01*
X0150752Y0025288D01*
X0150750Y0025449D01*
X0150750Y0125449D02*
X0150752Y0125610D01*
X0150758Y0125770D01*
X0150768Y0125931D01*
X0150782Y0126091D01*
X0150800Y0126251D01*
X0150821Y0126410D01*
X0150847Y0126569D01*
X0150877Y0126727D01*
X0150910Y0126884D01*
X0150948Y0127041D01*
X0150989Y0127196D01*
X0151034Y0127350D01*
X0151083Y0127503D01*
X0151136Y0127655D01*
X0151192Y0127806D01*
X0151253Y0127955D01*
X0151316Y0128103D01*
X0151384Y0128249D01*
X0151455Y0128393D01*
X0151529Y0128535D01*
X0151607Y0128676D01*
X0151689Y0128814D01*
X0151774Y0128951D01*
X0151862Y0129085D01*
X0151954Y0129217D01*
X0152049Y0129347D01*
X0152147Y0129475D01*
X0152248Y0129600D01*
X0152352Y0129722D01*
X0152459Y0129842D01*
X0152569Y0129959D01*
X0152682Y0130074D01*
X0152798Y0130185D01*
X0152917Y0130294D01*
X0153038Y0130399D01*
X0153162Y0130502D01*
X0153288Y0130602D01*
X0153416Y0130698D01*
X0153547Y0130791D01*
X0153681Y0130881D01*
X0153816Y0130968D01*
X0153954Y0131051D01*
X0154093Y0131131D01*
X0154235Y0131207D01*
X0154378Y0131280D01*
X0154523Y0131349D01*
X0154670Y0131415D01*
X0154818Y0131477D01*
X0154968Y0131535D01*
X0155119Y0131590D01*
X0155272Y0131641D01*
X0155426Y0131688D01*
X0155581Y0131731D01*
X0155737Y0131770D01*
X0155893Y0131806D01*
X0156051Y0131837D01*
X0156209Y0131865D01*
X0156368Y0131889D01*
X0156528Y0131909D01*
X0156688Y0131925D01*
X0156848Y0131937D01*
X0157009Y0131945D01*
X0157170Y0131949D01*
X0157330Y0131949D01*
X0157491Y0131945D01*
X0157652Y0131937D01*
X0157812Y0131925D01*
X0157972Y0131909D01*
X0158132Y0131889D01*
X0158291Y0131865D01*
X0158449Y0131837D01*
X0158607Y0131806D01*
X0158763Y0131770D01*
X0158919Y0131731D01*
X0159074Y0131688D01*
X0159228Y0131641D01*
X0159381Y0131590D01*
X0159532Y0131535D01*
X0159682Y0131477D01*
X0159830Y0131415D01*
X0159977Y0131349D01*
X0160122Y0131280D01*
X0160265Y0131207D01*
X0160407Y0131131D01*
X0160546Y0131051D01*
X0160684Y0130968D01*
X0160819Y0130881D01*
X0160953Y0130791D01*
X0161084Y0130698D01*
X0161212Y0130602D01*
X0161338Y0130502D01*
X0161462Y0130399D01*
X0161583Y0130294D01*
X0161702Y0130185D01*
X0161818Y0130074D01*
X0161931Y0129959D01*
X0162041Y0129842D01*
X0162148Y0129722D01*
X0162252Y0129600D01*
X0162353Y0129475D01*
X0162451Y0129347D01*
X0162546Y0129217D01*
X0162638Y0129085D01*
X0162726Y0128951D01*
X0162811Y0128814D01*
X0162893Y0128676D01*
X0162971Y0128535D01*
X0163045Y0128393D01*
X0163116Y0128249D01*
X0163184Y0128103D01*
X0163247Y0127955D01*
X0163308Y0127806D01*
X0163364Y0127655D01*
X0163417Y0127503D01*
X0163466Y0127350D01*
X0163511Y0127196D01*
X0163552Y0127041D01*
X0163590Y0126884D01*
X0163623Y0126727D01*
X0163653Y0126569D01*
X0163679Y0126410D01*
X0163700Y0126251D01*
X0163718Y0126091D01*
X0163732Y0125931D01*
X0163742Y0125770D01*
X0163748Y0125610D01*
X0163750Y0125449D01*
X0163748Y0125288D01*
X0163742Y0125128D01*
X0163732Y0124967D01*
X0163718Y0124807D01*
X0163700Y0124647D01*
X0163679Y0124488D01*
X0163653Y0124329D01*
X0163623Y0124171D01*
X0163590Y0124014D01*
X0163552Y0123857D01*
X0163511Y0123702D01*
X0163466Y0123548D01*
X0163417Y0123395D01*
X0163364Y0123243D01*
X0163308Y0123092D01*
X0163247Y0122943D01*
X0163184Y0122795D01*
X0163116Y0122649D01*
X0163045Y0122505D01*
X0162971Y0122363D01*
X0162893Y0122222D01*
X0162811Y0122084D01*
X0162726Y0121947D01*
X0162638Y0121813D01*
X0162546Y0121681D01*
X0162451Y0121551D01*
X0162353Y0121423D01*
X0162252Y0121298D01*
X0162148Y0121176D01*
X0162041Y0121056D01*
X0161931Y0120939D01*
X0161818Y0120824D01*
X0161702Y0120713D01*
X0161583Y0120604D01*
X0161462Y0120499D01*
X0161338Y0120396D01*
X0161212Y0120296D01*
X0161084Y0120200D01*
X0160953Y0120107D01*
X0160819Y0120017D01*
X0160684Y0119930D01*
X0160546Y0119847D01*
X0160407Y0119767D01*
X0160265Y0119691D01*
X0160122Y0119618D01*
X0159977Y0119549D01*
X0159830Y0119483D01*
X0159682Y0119421D01*
X0159532Y0119363D01*
X0159381Y0119308D01*
X0159228Y0119257D01*
X0159074Y0119210D01*
X0158919Y0119167D01*
X0158763Y0119128D01*
X0158607Y0119092D01*
X0158449Y0119061D01*
X0158291Y0119033D01*
X0158132Y0119009D01*
X0157972Y0118989D01*
X0157812Y0118973D01*
X0157652Y0118961D01*
X0157491Y0118953D01*
X0157330Y0118949D01*
X0157170Y0118949D01*
X0157009Y0118953D01*
X0156848Y0118961D01*
X0156688Y0118973D01*
X0156528Y0118989D01*
X0156368Y0119009D01*
X0156209Y0119033D01*
X0156051Y0119061D01*
X0155893Y0119092D01*
X0155737Y0119128D01*
X0155581Y0119167D01*
X0155426Y0119210D01*
X0155272Y0119257D01*
X0155119Y0119308D01*
X0154968Y0119363D01*
X0154818Y0119421D01*
X0154670Y0119483D01*
X0154523Y0119549D01*
X0154378Y0119618D01*
X0154235Y0119691D01*
X0154093Y0119767D01*
X0153954Y0119847D01*
X0153816Y0119930D01*
X0153681Y0120017D01*
X0153547Y0120107D01*
X0153416Y0120200D01*
X0153288Y0120296D01*
X0153162Y0120396D01*
X0153038Y0120499D01*
X0152917Y0120604D01*
X0152798Y0120713D01*
X0152682Y0120824D01*
X0152569Y0120939D01*
X0152459Y0121056D01*
X0152352Y0121176D01*
X0152248Y0121298D01*
X0152147Y0121423D01*
X0152049Y0121551D01*
X0151954Y0121681D01*
X0151862Y0121813D01*
X0151774Y0121947D01*
X0151689Y0122084D01*
X0151607Y0122222D01*
X0151529Y0122363D01*
X0151455Y0122505D01*
X0151384Y0122649D01*
X0151316Y0122795D01*
X0151253Y0122943D01*
X0151192Y0123092D01*
X0151136Y0123243D01*
X0151083Y0123395D01*
X0151034Y0123548D01*
X0150989Y0123702D01*
X0150948Y0123857D01*
X0150910Y0124014D01*
X0150877Y0124171D01*
X0150847Y0124329D01*
X0150821Y0124488D01*
X0150800Y0124647D01*
X0150782Y0124807D01*
X0150768Y0124967D01*
X0150758Y0125128D01*
X0150752Y0125288D01*
X0150750Y0125449D01*
X0005750Y0125449D02*
X0005752Y0125610D01*
X0005758Y0125770D01*
X0005768Y0125931D01*
X0005782Y0126091D01*
X0005800Y0126251D01*
X0005821Y0126410D01*
X0005847Y0126569D01*
X0005877Y0126727D01*
X0005910Y0126884D01*
X0005948Y0127041D01*
X0005989Y0127196D01*
X0006034Y0127350D01*
X0006083Y0127503D01*
X0006136Y0127655D01*
X0006192Y0127806D01*
X0006253Y0127955D01*
X0006316Y0128103D01*
X0006384Y0128249D01*
X0006455Y0128393D01*
X0006529Y0128535D01*
X0006607Y0128676D01*
X0006689Y0128814D01*
X0006774Y0128951D01*
X0006862Y0129085D01*
X0006954Y0129217D01*
X0007049Y0129347D01*
X0007147Y0129475D01*
X0007248Y0129600D01*
X0007352Y0129722D01*
X0007459Y0129842D01*
X0007569Y0129959D01*
X0007682Y0130074D01*
X0007798Y0130185D01*
X0007917Y0130294D01*
X0008038Y0130399D01*
X0008162Y0130502D01*
X0008288Y0130602D01*
X0008416Y0130698D01*
X0008547Y0130791D01*
X0008681Y0130881D01*
X0008816Y0130968D01*
X0008954Y0131051D01*
X0009093Y0131131D01*
X0009235Y0131207D01*
X0009378Y0131280D01*
X0009523Y0131349D01*
X0009670Y0131415D01*
X0009818Y0131477D01*
X0009968Y0131535D01*
X0010119Y0131590D01*
X0010272Y0131641D01*
X0010426Y0131688D01*
X0010581Y0131731D01*
X0010737Y0131770D01*
X0010893Y0131806D01*
X0011051Y0131837D01*
X0011209Y0131865D01*
X0011368Y0131889D01*
X0011528Y0131909D01*
X0011688Y0131925D01*
X0011848Y0131937D01*
X0012009Y0131945D01*
X0012170Y0131949D01*
X0012330Y0131949D01*
X0012491Y0131945D01*
X0012652Y0131937D01*
X0012812Y0131925D01*
X0012972Y0131909D01*
X0013132Y0131889D01*
X0013291Y0131865D01*
X0013449Y0131837D01*
X0013607Y0131806D01*
X0013763Y0131770D01*
X0013919Y0131731D01*
X0014074Y0131688D01*
X0014228Y0131641D01*
X0014381Y0131590D01*
X0014532Y0131535D01*
X0014682Y0131477D01*
X0014830Y0131415D01*
X0014977Y0131349D01*
X0015122Y0131280D01*
X0015265Y0131207D01*
X0015407Y0131131D01*
X0015546Y0131051D01*
X0015684Y0130968D01*
X0015819Y0130881D01*
X0015953Y0130791D01*
X0016084Y0130698D01*
X0016212Y0130602D01*
X0016338Y0130502D01*
X0016462Y0130399D01*
X0016583Y0130294D01*
X0016702Y0130185D01*
X0016818Y0130074D01*
X0016931Y0129959D01*
X0017041Y0129842D01*
X0017148Y0129722D01*
X0017252Y0129600D01*
X0017353Y0129475D01*
X0017451Y0129347D01*
X0017546Y0129217D01*
X0017638Y0129085D01*
X0017726Y0128951D01*
X0017811Y0128814D01*
X0017893Y0128676D01*
X0017971Y0128535D01*
X0018045Y0128393D01*
X0018116Y0128249D01*
X0018184Y0128103D01*
X0018247Y0127955D01*
X0018308Y0127806D01*
X0018364Y0127655D01*
X0018417Y0127503D01*
X0018466Y0127350D01*
X0018511Y0127196D01*
X0018552Y0127041D01*
X0018590Y0126884D01*
X0018623Y0126727D01*
X0018653Y0126569D01*
X0018679Y0126410D01*
X0018700Y0126251D01*
X0018718Y0126091D01*
X0018732Y0125931D01*
X0018742Y0125770D01*
X0018748Y0125610D01*
X0018750Y0125449D01*
X0018748Y0125288D01*
X0018742Y0125128D01*
X0018732Y0124967D01*
X0018718Y0124807D01*
X0018700Y0124647D01*
X0018679Y0124488D01*
X0018653Y0124329D01*
X0018623Y0124171D01*
X0018590Y0124014D01*
X0018552Y0123857D01*
X0018511Y0123702D01*
X0018466Y0123548D01*
X0018417Y0123395D01*
X0018364Y0123243D01*
X0018308Y0123092D01*
X0018247Y0122943D01*
X0018184Y0122795D01*
X0018116Y0122649D01*
X0018045Y0122505D01*
X0017971Y0122363D01*
X0017893Y0122222D01*
X0017811Y0122084D01*
X0017726Y0121947D01*
X0017638Y0121813D01*
X0017546Y0121681D01*
X0017451Y0121551D01*
X0017353Y0121423D01*
X0017252Y0121298D01*
X0017148Y0121176D01*
X0017041Y0121056D01*
X0016931Y0120939D01*
X0016818Y0120824D01*
X0016702Y0120713D01*
X0016583Y0120604D01*
X0016462Y0120499D01*
X0016338Y0120396D01*
X0016212Y0120296D01*
X0016084Y0120200D01*
X0015953Y0120107D01*
X0015819Y0120017D01*
X0015684Y0119930D01*
X0015546Y0119847D01*
X0015407Y0119767D01*
X0015265Y0119691D01*
X0015122Y0119618D01*
X0014977Y0119549D01*
X0014830Y0119483D01*
X0014682Y0119421D01*
X0014532Y0119363D01*
X0014381Y0119308D01*
X0014228Y0119257D01*
X0014074Y0119210D01*
X0013919Y0119167D01*
X0013763Y0119128D01*
X0013607Y0119092D01*
X0013449Y0119061D01*
X0013291Y0119033D01*
X0013132Y0119009D01*
X0012972Y0118989D01*
X0012812Y0118973D01*
X0012652Y0118961D01*
X0012491Y0118953D01*
X0012330Y0118949D01*
X0012170Y0118949D01*
X0012009Y0118953D01*
X0011848Y0118961D01*
X0011688Y0118973D01*
X0011528Y0118989D01*
X0011368Y0119009D01*
X0011209Y0119033D01*
X0011051Y0119061D01*
X0010893Y0119092D01*
X0010737Y0119128D01*
X0010581Y0119167D01*
X0010426Y0119210D01*
X0010272Y0119257D01*
X0010119Y0119308D01*
X0009968Y0119363D01*
X0009818Y0119421D01*
X0009670Y0119483D01*
X0009523Y0119549D01*
X0009378Y0119618D01*
X0009235Y0119691D01*
X0009093Y0119767D01*
X0008954Y0119847D01*
X0008816Y0119930D01*
X0008681Y0120017D01*
X0008547Y0120107D01*
X0008416Y0120200D01*
X0008288Y0120296D01*
X0008162Y0120396D01*
X0008038Y0120499D01*
X0007917Y0120604D01*
X0007798Y0120713D01*
X0007682Y0120824D01*
X0007569Y0120939D01*
X0007459Y0121056D01*
X0007352Y0121176D01*
X0007248Y0121298D01*
X0007147Y0121423D01*
X0007049Y0121551D01*
X0006954Y0121681D01*
X0006862Y0121813D01*
X0006774Y0121947D01*
X0006689Y0122084D01*
X0006607Y0122222D01*
X0006529Y0122363D01*
X0006455Y0122505D01*
X0006384Y0122649D01*
X0006316Y0122795D01*
X0006253Y0122943D01*
X0006192Y0123092D01*
X0006136Y0123243D01*
X0006083Y0123395D01*
X0006034Y0123548D01*
X0005989Y0123702D01*
X0005948Y0123857D01*
X0005910Y0124014D01*
X0005877Y0124171D01*
X0005847Y0124329D01*
X0005821Y0124488D01*
X0005800Y0124647D01*
X0005782Y0124807D01*
X0005768Y0124967D01*
X0005758Y0125128D01*
X0005752Y0125288D01*
X0005750Y0125449D01*
X0005750Y0025449D02*
X0005752Y0025610D01*
X0005758Y0025770D01*
X0005768Y0025931D01*
X0005782Y0026091D01*
X0005800Y0026251D01*
X0005821Y0026410D01*
X0005847Y0026569D01*
X0005877Y0026727D01*
X0005910Y0026884D01*
X0005948Y0027041D01*
X0005989Y0027196D01*
X0006034Y0027350D01*
X0006083Y0027503D01*
X0006136Y0027655D01*
X0006192Y0027806D01*
X0006253Y0027955D01*
X0006316Y0028103D01*
X0006384Y0028249D01*
X0006455Y0028393D01*
X0006529Y0028535D01*
X0006607Y0028676D01*
X0006689Y0028814D01*
X0006774Y0028951D01*
X0006862Y0029085D01*
X0006954Y0029217D01*
X0007049Y0029347D01*
X0007147Y0029475D01*
X0007248Y0029600D01*
X0007352Y0029722D01*
X0007459Y0029842D01*
X0007569Y0029959D01*
X0007682Y0030074D01*
X0007798Y0030185D01*
X0007917Y0030294D01*
X0008038Y0030399D01*
X0008162Y0030502D01*
X0008288Y0030602D01*
X0008416Y0030698D01*
X0008547Y0030791D01*
X0008681Y0030881D01*
X0008816Y0030968D01*
X0008954Y0031051D01*
X0009093Y0031131D01*
X0009235Y0031207D01*
X0009378Y0031280D01*
X0009523Y0031349D01*
X0009670Y0031415D01*
X0009818Y0031477D01*
X0009968Y0031535D01*
X0010119Y0031590D01*
X0010272Y0031641D01*
X0010426Y0031688D01*
X0010581Y0031731D01*
X0010737Y0031770D01*
X0010893Y0031806D01*
X0011051Y0031837D01*
X0011209Y0031865D01*
X0011368Y0031889D01*
X0011528Y0031909D01*
X0011688Y0031925D01*
X0011848Y0031937D01*
X0012009Y0031945D01*
X0012170Y0031949D01*
X0012330Y0031949D01*
X0012491Y0031945D01*
X0012652Y0031937D01*
X0012812Y0031925D01*
X0012972Y0031909D01*
X0013132Y0031889D01*
X0013291Y0031865D01*
X0013449Y0031837D01*
X0013607Y0031806D01*
X0013763Y0031770D01*
X0013919Y0031731D01*
X0014074Y0031688D01*
X0014228Y0031641D01*
X0014381Y0031590D01*
X0014532Y0031535D01*
X0014682Y0031477D01*
X0014830Y0031415D01*
X0014977Y0031349D01*
X0015122Y0031280D01*
X0015265Y0031207D01*
X0015407Y0031131D01*
X0015546Y0031051D01*
X0015684Y0030968D01*
X0015819Y0030881D01*
X0015953Y0030791D01*
X0016084Y0030698D01*
X0016212Y0030602D01*
X0016338Y0030502D01*
X0016462Y0030399D01*
X0016583Y0030294D01*
X0016702Y0030185D01*
X0016818Y0030074D01*
X0016931Y0029959D01*
X0017041Y0029842D01*
X0017148Y0029722D01*
X0017252Y0029600D01*
X0017353Y0029475D01*
X0017451Y0029347D01*
X0017546Y0029217D01*
X0017638Y0029085D01*
X0017726Y0028951D01*
X0017811Y0028814D01*
X0017893Y0028676D01*
X0017971Y0028535D01*
X0018045Y0028393D01*
X0018116Y0028249D01*
X0018184Y0028103D01*
X0018247Y0027955D01*
X0018308Y0027806D01*
X0018364Y0027655D01*
X0018417Y0027503D01*
X0018466Y0027350D01*
X0018511Y0027196D01*
X0018552Y0027041D01*
X0018590Y0026884D01*
X0018623Y0026727D01*
X0018653Y0026569D01*
X0018679Y0026410D01*
X0018700Y0026251D01*
X0018718Y0026091D01*
X0018732Y0025931D01*
X0018742Y0025770D01*
X0018748Y0025610D01*
X0018750Y0025449D01*
X0018748Y0025288D01*
X0018742Y0025128D01*
X0018732Y0024967D01*
X0018718Y0024807D01*
X0018700Y0024647D01*
X0018679Y0024488D01*
X0018653Y0024329D01*
X0018623Y0024171D01*
X0018590Y0024014D01*
X0018552Y0023857D01*
X0018511Y0023702D01*
X0018466Y0023548D01*
X0018417Y0023395D01*
X0018364Y0023243D01*
X0018308Y0023092D01*
X0018247Y0022943D01*
X0018184Y0022795D01*
X0018116Y0022649D01*
X0018045Y0022505D01*
X0017971Y0022363D01*
X0017893Y0022222D01*
X0017811Y0022084D01*
X0017726Y0021947D01*
X0017638Y0021813D01*
X0017546Y0021681D01*
X0017451Y0021551D01*
X0017353Y0021423D01*
X0017252Y0021298D01*
X0017148Y0021176D01*
X0017041Y0021056D01*
X0016931Y0020939D01*
X0016818Y0020824D01*
X0016702Y0020713D01*
X0016583Y0020604D01*
X0016462Y0020499D01*
X0016338Y0020396D01*
X0016212Y0020296D01*
X0016084Y0020200D01*
X0015953Y0020107D01*
X0015819Y0020017D01*
X0015684Y0019930D01*
X0015546Y0019847D01*
X0015407Y0019767D01*
X0015265Y0019691D01*
X0015122Y0019618D01*
X0014977Y0019549D01*
X0014830Y0019483D01*
X0014682Y0019421D01*
X0014532Y0019363D01*
X0014381Y0019308D01*
X0014228Y0019257D01*
X0014074Y0019210D01*
X0013919Y0019167D01*
X0013763Y0019128D01*
X0013607Y0019092D01*
X0013449Y0019061D01*
X0013291Y0019033D01*
X0013132Y0019009D01*
X0012972Y0018989D01*
X0012812Y0018973D01*
X0012652Y0018961D01*
X0012491Y0018953D01*
X0012330Y0018949D01*
X0012170Y0018949D01*
X0012009Y0018953D01*
X0011848Y0018961D01*
X0011688Y0018973D01*
X0011528Y0018989D01*
X0011368Y0019009D01*
X0011209Y0019033D01*
X0011051Y0019061D01*
X0010893Y0019092D01*
X0010737Y0019128D01*
X0010581Y0019167D01*
X0010426Y0019210D01*
X0010272Y0019257D01*
X0010119Y0019308D01*
X0009968Y0019363D01*
X0009818Y0019421D01*
X0009670Y0019483D01*
X0009523Y0019549D01*
X0009378Y0019618D01*
X0009235Y0019691D01*
X0009093Y0019767D01*
X0008954Y0019847D01*
X0008816Y0019930D01*
X0008681Y0020017D01*
X0008547Y0020107D01*
X0008416Y0020200D01*
X0008288Y0020296D01*
X0008162Y0020396D01*
X0008038Y0020499D01*
X0007917Y0020604D01*
X0007798Y0020713D01*
X0007682Y0020824D01*
X0007569Y0020939D01*
X0007459Y0021056D01*
X0007352Y0021176D01*
X0007248Y0021298D01*
X0007147Y0021423D01*
X0007049Y0021551D01*
X0006954Y0021681D01*
X0006862Y0021813D01*
X0006774Y0021947D01*
X0006689Y0022084D01*
X0006607Y0022222D01*
X0006529Y0022363D01*
X0006455Y0022505D01*
X0006384Y0022649D01*
X0006316Y0022795D01*
X0006253Y0022943D01*
X0006192Y0023092D01*
X0006136Y0023243D01*
X0006083Y0023395D01*
X0006034Y0023548D01*
X0005989Y0023702D01*
X0005948Y0023857D01*
X0005910Y0024014D01*
X0005877Y0024171D01*
X0005847Y0024329D01*
X0005821Y0024488D01*
X0005800Y0024647D01*
X0005782Y0024807D01*
X0005768Y0024967D01*
X0005758Y0025128D01*
X0005752Y0025288D01*
X0005750Y0025449D01*
D152*
X0095825Y0015862D02*
X0095825Y0070980D01*
X0141100Y0070980D01*
X0141100Y0015862D01*
X0131061Y0015862D01*
X0107439Y0015862D02*
X0095825Y0015862D01*
X0097400Y0079917D02*
X0097400Y0135035D01*
X0107439Y0135035D01*
X0131061Y0135035D02*
X0142675Y0135035D01*
X0142675Y0079917D01*
X0097400Y0079917D01*
D153*
X0144172Y0128343D02*
X0144174Y0128394D01*
X0144180Y0128445D01*
X0144190Y0128495D01*
X0144203Y0128545D01*
X0144221Y0128593D01*
X0144241Y0128640D01*
X0144266Y0128685D01*
X0144294Y0128728D01*
X0144325Y0128769D01*
X0144359Y0128807D01*
X0144396Y0128842D01*
X0144435Y0128875D01*
X0144477Y0128905D01*
X0144521Y0128931D01*
X0144567Y0128953D01*
X0144615Y0128973D01*
X0144664Y0128988D01*
X0144714Y0129000D01*
X0144764Y0129008D01*
X0144815Y0129012D01*
X0144867Y0129012D01*
X0144918Y0129008D01*
X0144968Y0129000D01*
X0145018Y0128988D01*
X0145067Y0128973D01*
X0145115Y0128953D01*
X0145161Y0128931D01*
X0145205Y0128905D01*
X0145247Y0128875D01*
X0145286Y0128842D01*
X0145323Y0128807D01*
X0145357Y0128769D01*
X0145388Y0128728D01*
X0145416Y0128685D01*
X0145441Y0128640D01*
X0145461Y0128593D01*
X0145479Y0128545D01*
X0145492Y0128495D01*
X0145502Y0128445D01*
X0145508Y0128394D01*
X0145510Y0128343D01*
X0145508Y0128292D01*
X0145502Y0128241D01*
X0145492Y0128191D01*
X0145479Y0128141D01*
X0145461Y0128093D01*
X0145441Y0128046D01*
X0145416Y0128001D01*
X0145388Y0127958D01*
X0145357Y0127917D01*
X0145323Y0127879D01*
X0145286Y0127844D01*
X0145247Y0127811D01*
X0145205Y0127781D01*
X0145161Y0127755D01*
X0145115Y0127733D01*
X0145067Y0127713D01*
X0145018Y0127698D01*
X0144968Y0127686D01*
X0144918Y0127678D01*
X0144867Y0127674D01*
X0144815Y0127674D01*
X0144764Y0127678D01*
X0144714Y0127686D01*
X0144664Y0127698D01*
X0144615Y0127713D01*
X0144567Y0127733D01*
X0144521Y0127755D01*
X0144477Y0127781D01*
X0144435Y0127811D01*
X0144396Y0127844D01*
X0144359Y0127879D01*
X0144325Y0127917D01*
X0144294Y0127958D01*
X0144266Y0128001D01*
X0144241Y0128046D01*
X0144221Y0128093D01*
X0144203Y0128141D01*
X0144190Y0128191D01*
X0144180Y0128241D01*
X0144174Y0128292D01*
X0144172Y0128343D01*
X0092990Y0022555D02*
X0092992Y0022606D01*
X0092998Y0022657D01*
X0093008Y0022707D01*
X0093021Y0022757D01*
X0093039Y0022805D01*
X0093059Y0022852D01*
X0093084Y0022897D01*
X0093112Y0022940D01*
X0093143Y0022981D01*
X0093177Y0023019D01*
X0093214Y0023054D01*
X0093253Y0023087D01*
X0093295Y0023117D01*
X0093339Y0023143D01*
X0093385Y0023165D01*
X0093433Y0023185D01*
X0093482Y0023200D01*
X0093532Y0023212D01*
X0093582Y0023220D01*
X0093633Y0023224D01*
X0093685Y0023224D01*
X0093736Y0023220D01*
X0093786Y0023212D01*
X0093836Y0023200D01*
X0093885Y0023185D01*
X0093933Y0023165D01*
X0093979Y0023143D01*
X0094023Y0023117D01*
X0094065Y0023087D01*
X0094104Y0023054D01*
X0094141Y0023019D01*
X0094175Y0022981D01*
X0094206Y0022940D01*
X0094234Y0022897D01*
X0094259Y0022852D01*
X0094279Y0022805D01*
X0094297Y0022757D01*
X0094310Y0022707D01*
X0094320Y0022657D01*
X0094326Y0022606D01*
X0094328Y0022555D01*
X0094326Y0022504D01*
X0094320Y0022453D01*
X0094310Y0022403D01*
X0094297Y0022353D01*
X0094279Y0022305D01*
X0094259Y0022258D01*
X0094234Y0022213D01*
X0094206Y0022170D01*
X0094175Y0022129D01*
X0094141Y0022091D01*
X0094104Y0022056D01*
X0094065Y0022023D01*
X0094023Y0021993D01*
X0093979Y0021967D01*
X0093933Y0021945D01*
X0093885Y0021925D01*
X0093836Y0021910D01*
X0093786Y0021898D01*
X0093736Y0021890D01*
X0093685Y0021886D01*
X0093633Y0021886D01*
X0093582Y0021890D01*
X0093532Y0021898D01*
X0093482Y0021910D01*
X0093433Y0021925D01*
X0093385Y0021945D01*
X0093339Y0021967D01*
X0093295Y0021993D01*
X0093253Y0022023D01*
X0093214Y0022056D01*
X0093177Y0022091D01*
X0093143Y0022129D01*
X0093112Y0022170D01*
X0093084Y0022213D01*
X0093059Y0022258D01*
X0093039Y0022305D01*
X0093021Y0022353D01*
X0093008Y0022403D01*
X0092998Y0022453D01*
X0092992Y0022504D01*
X0092990Y0022555D01*
D154*
X0065500Y0065449D03*
X0065500Y0085449D03*
X0044000Y0085449D03*
X0044000Y0065449D03*
D155*
X0051650Y0064816D02*
X0053401Y0064816D01*
X0053985Y0065400D01*
X0053985Y0066568D01*
X0053401Y0067152D01*
X0051650Y0067152D01*
X0051650Y0063649D01*
X0052818Y0064816D02*
X0053985Y0063649D01*
X0055241Y0063649D02*
X0057576Y0065984D01*
X0057576Y0066568D01*
X0056993Y0067152D01*
X0055825Y0067152D01*
X0055241Y0066568D01*
X0055241Y0063649D02*
X0057576Y0063649D01*
X0057476Y0084049D02*
X0055141Y0084049D01*
X0056309Y0084049D02*
X0056309Y0087552D01*
X0055141Y0086384D01*
X0053885Y0085800D02*
X0053301Y0085216D01*
X0051550Y0085216D01*
X0051550Y0084049D02*
X0051550Y0087552D01*
X0053301Y0087552D01*
X0053885Y0086968D01*
X0053885Y0085800D01*
X0052718Y0085216D02*
X0053885Y0084049D01*
D156*
X0029970Y0109587D02*
X0028530Y0109587D01*
X0028337Y0111493D01*
X0027696Y0111698D01*
X0027098Y0112006D01*
X0025614Y0110795D01*
X0024596Y0111813D01*
X0025807Y0113297D01*
X0025499Y0113895D01*
X0025294Y0114535D01*
X0023389Y0114729D01*
X0023389Y0116169D01*
X0025294Y0116362D01*
X0025499Y0117003D01*
X0025807Y0117600D01*
X0024596Y0119085D01*
X0025614Y0120102D01*
X0027098Y0118892D01*
X0027696Y0119200D01*
X0028337Y0119405D01*
X0028530Y0121310D01*
X0029970Y0121310D01*
X0030163Y0119405D01*
X0030804Y0119200D01*
X0031402Y0118892D01*
X0032886Y0120102D01*
X0033904Y0119085D01*
X0032693Y0117600D01*
X0033001Y0117003D01*
X0030955Y0116155D01*
X0030738Y0116540D01*
X0030436Y0116862D01*
X0030066Y0117104D01*
X0029650Y0117250D01*
X0029210Y0117293D01*
X0028773Y0117231D01*
X0028363Y0117066D01*
X0028004Y0116809D01*
X0027716Y0116474D01*
X0027516Y0116080D01*
X0027416Y0115649D01*
X0027421Y0115208D01*
X0027530Y0114780D01*
X0027739Y0114390D01*
X0028033Y0114061D01*
X0028398Y0113812D01*
X0028811Y0113656D01*
X0029250Y0113603D01*
X0029681Y0113654D01*
X0030088Y0113804D01*
X0030449Y0114045D01*
X0030743Y0114364D01*
X0030955Y0114743D01*
X0033001Y0113895D01*
X0032693Y0113297D01*
X0033904Y0111813D01*
X0032886Y0110795D01*
X0031402Y0112006D01*
X0030804Y0111698D01*
X0030163Y0111493D01*
X0029970Y0109587D01*
X0029972Y0109614D02*
X0028528Y0109614D01*
X0028468Y0110204D02*
X0030032Y0110204D01*
X0030092Y0110793D02*
X0028408Y0110793D01*
X0028348Y0111382D02*
X0030152Y0111382D01*
X0031334Y0111971D02*
X0027166Y0111971D01*
X0027056Y0111971D02*
X0024725Y0111971D01*
X0025028Y0111382D02*
X0026333Y0111382D01*
X0025205Y0112560D02*
X0033295Y0112560D01*
X0033775Y0111971D02*
X0031444Y0111971D01*
X0032167Y0111382D02*
X0033472Y0111382D01*
X0032814Y0113149D02*
X0025686Y0113149D01*
X0025580Y0113738D02*
X0028594Y0113738D01*
X0027795Y0114327D02*
X0025360Y0114327D01*
X0023389Y0114916D02*
X0027496Y0114916D01*
X0027418Y0115505D02*
X0023389Y0115505D01*
X0023389Y0116094D02*
X0027524Y0116094D01*
X0027896Y0116683D02*
X0025396Y0116683D01*
X0025638Y0117272D02*
X0029062Y0117272D01*
X0029425Y0117272D02*
X0032862Y0117272D01*
X0032906Y0117861D02*
X0025594Y0117861D01*
X0025114Y0118450D02*
X0033386Y0118450D01*
X0033867Y0119039D02*
X0031582Y0119039D01*
X0031116Y0119039D02*
X0027384Y0119039D01*
X0026918Y0119039D02*
X0024633Y0119039D01*
X0025140Y0119629D02*
X0026195Y0119629D01*
X0028359Y0119629D02*
X0030141Y0119629D01*
X0030081Y0120218D02*
X0028419Y0120218D01*
X0028479Y0120807D02*
X0030021Y0120807D01*
X0032305Y0119629D02*
X0033360Y0119629D01*
X0032230Y0116683D02*
X0030604Y0116683D01*
X0030709Y0114327D02*
X0031958Y0114327D01*
X0032920Y0113738D02*
X0029908Y0113738D01*
M02*
