G75*
%MOIN*%
%OFA0B0*%
%FSLAX25Y25*%
%IPPOS*%
%LPD*%
%AMOC8*
5,1,8,0,0,1.08239X$1,22.5*
%
%ADD10C,0.00800*%
%ADD11C,0.00000*%
%ADD12C,0.13800*%
%ADD13C,0.08200*%
%ADD14C,0.06706*%
%ADD15OC8,0.05600*%
D10*
X0012250Y0015449D02*
X0029750Y0015449D01*
X0029992Y0015452D01*
X0030233Y0015461D01*
X0030474Y0015475D01*
X0030715Y0015496D01*
X0030955Y0015522D01*
X0031195Y0015554D01*
X0031434Y0015592D01*
X0031671Y0015635D01*
X0031908Y0015685D01*
X0032143Y0015740D01*
X0032377Y0015800D01*
X0032609Y0015867D01*
X0032840Y0015938D01*
X0033069Y0016016D01*
X0033296Y0016099D01*
X0033521Y0016187D01*
X0033744Y0016281D01*
X0033964Y0016380D01*
X0034182Y0016485D01*
X0034397Y0016594D01*
X0034610Y0016709D01*
X0034820Y0016829D01*
X0035026Y0016954D01*
X0035230Y0017084D01*
X0035431Y0017219D01*
X0035628Y0017359D01*
X0035822Y0017503D01*
X0036012Y0017652D01*
X0036198Y0017806D01*
X0036381Y0017964D01*
X0036560Y0018126D01*
X0036735Y0018293D01*
X0036906Y0018464D01*
X0037073Y0018639D01*
X0037235Y0018818D01*
X0037393Y0019001D01*
X0037547Y0019187D01*
X0037696Y0019377D01*
X0037840Y0019571D01*
X0037980Y0019768D01*
X0038115Y0019969D01*
X0038245Y0020173D01*
X0038370Y0020379D01*
X0038490Y0020589D01*
X0038605Y0020802D01*
X0038714Y0021017D01*
X0038819Y0021235D01*
X0038918Y0021455D01*
X0039012Y0021678D01*
X0039100Y0021903D01*
X0039183Y0022130D01*
X0039261Y0022359D01*
X0039332Y0022590D01*
X0039399Y0022822D01*
X0039459Y0023056D01*
X0039514Y0023291D01*
X0039564Y0023528D01*
X0039607Y0023765D01*
X0039645Y0024004D01*
X0039677Y0024244D01*
X0039703Y0024484D01*
X0039724Y0024725D01*
X0039738Y0024966D01*
X0039747Y0025207D01*
X0039750Y0025449D01*
X0039750Y0035449D01*
X0039753Y0035691D01*
X0039762Y0035932D01*
X0039776Y0036173D01*
X0039797Y0036414D01*
X0039823Y0036654D01*
X0039855Y0036894D01*
X0039893Y0037133D01*
X0039936Y0037370D01*
X0039986Y0037607D01*
X0040041Y0037842D01*
X0040101Y0038076D01*
X0040168Y0038308D01*
X0040239Y0038539D01*
X0040317Y0038768D01*
X0040400Y0038995D01*
X0040488Y0039220D01*
X0040582Y0039443D01*
X0040681Y0039663D01*
X0040786Y0039881D01*
X0040895Y0040096D01*
X0041010Y0040309D01*
X0041130Y0040519D01*
X0041255Y0040725D01*
X0041385Y0040929D01*
X0041520Y0041130D01*
X0041660Y0041327D01*
X0041804Y0041521D01*
X0041953Y0041711D01*
X0042107Y0041897D01*
X0042265Y0042080D01*
X0042427Y0042259D01*
X0042594Y0042434D01*
X0042765Y0042605D01*
X0042940Y0042772D01*
X0043119Y0042934D01*
X0043302Y0043092D01*
X0043488Y0043246D01*
X0043678Y0043395D01*
X0043872Y0043539D01*
X0044069Y0043679D01*
X0044270Y0043814D01*
X0044474Y0043944D01*
X0044680Y0044069D01*
X0044890Y0044189D01*
X0045103Y0044304D01*
X0045318Y0044413D01*
X0045536Y0044518D01*
X0045756Y0044617D01*
X0045979Y0044711D01*
X0046204Y0044799D01*
X0046431Y0044882D01*
X0046660Y0044960D01*
X0046891Y0045031D01*
X0047123Y0045098D01*
X0047357Y0045158D01*
X0047592Y0045213D01*
X0047829Y0045263D01*
X0048066Y0045306D01*
X0048305Y0045344D01*
X0048545Y0045376D01*
X0048785Y0045402D01*
X0049026Y0045423D01*
X0049267Y0045437D01*
X0049508Y0045446D01*
X0049750Y0045449D01*
X0079750Y0045449D01*
X0079992Y0045446D01*
X0080233Y0045437D01*
X0080474Y0045423D01*
X0080715Y0045402D01*
X0080955Y0045376D01*
X0081195Y0045344D01*
X0081434Y0045306D01*
X0081671Y0045263D01*
X0081908Y0045213D01*
X0082143Y0045158D01*
X0082377Y0045098D01*
X0082609Y0045031D01*
X0082840Y0044960D01*
X0083069Y0044882D01*
X0083296Y0044799D01*
X0083521Y0044711D01*
X0083744Y0044617D01*
X0083964Y0044518D01*
X0084182Y0044413D01*
X0084397Y0044304D01*
X0084610Y0044189D01*
X0084820Y0044069D01*
X0085026Y0043944D01*
X0085230Y0043814D01*
X0085431Y0043679D01*
X0085628Y0043539D01*
X0085822Y0043395D01*
X0086012Y0043246D01*
X0086198Y0043092D01*
X0086381Y0042934D01*
X0086560Y0042772D01*
X0086735Y0042605D01*
X0086906Y0042434D01*
X0087073Y0042259D01*
X0087235Y0042080D01*
X0087393Y0041897D01*
X0087547Y0041711D01*
X0087696Y0041521D01*
X0087840Y0041327D01*
X0087980Y0041130D01*
X0088115Y0040929D01*
X0088245Y0040725D01*
X0088370Y0040519D01*
X0088490Y0040309D01*
X0088605Y0040096D01*
X0088714Y0039881D01*
X0088819Y0039663D01*
X0088918Y0039443D01*
X0089012Y0039220D01*
X0089100Y0038995D01*
X0089183Y0038768D01*
X0089261Y0038539D01*
X0089332Y0038308D01*
X0089399Y0038076D01*
X0089459Y0037842D01*
X0089514Y0037607D01*
X0089564Y0037370D01*
X0089607Y0037133D01*
X0089645Y0036894D01*
X0089677Y0036654D01*
X0089703Y0036414D01*
X0089724Y0036173D01*
X0089738Y0035932D01*
X0089747Y0035691D01*
X0089750Y0035449D01*
X0089750Y0025449D01*
X0089753Y0025207D01*
X0089762Y0024966D01*
X0089776Y0024725D01*
X0089797Y0024484D01*
X0089823Y0024244D01*
X0089855Y0024004D01*
X0089893Y0023765D01*
X0089936Y0023528D01*
X0089986Y0023291D01*
X0090041Y0023056D01*
X0090101Y0022822D01*
X0090168Y0022590D01*
X0090239Y0022359D01*
X0090317Y0022130D01*
X0090400Y0021903D01*
X0090488Y0021678D01*
X0090582Y0021455D01*
X0090681Y0021235D01*
X0090786Y0021017D01*
X0090895Y0020802D01*
X0091010Y0020589D01*
X0091130Y0020379D01*
X0091255Y0020173D01*
X0091385Y0019969D01*
X0091520Y0019768D01*
X0091660Y0019571D01*
X0091804Y0019377D01*
X0091953Y0019187D01*
X0092107Y0019001D01*
X0092265Y0018818D01*
X0092427Y0018639D01*
X0092594Y0018464D01*
X0092765Y0018293D01*
X0092940Y0018126D01*
X0093119Y0017964D01*
X0093302Y0017806D01*
X0093488Y0017652D01*
X0093678Y0017503D01*
X0093872Y0017359D01*
X0094069Y0017219D01*
X0094270Y0017084D01*
X0094474Y0016954D01*
X0094680Y0016829D01*
X0094890Y0016709D01*
X0095103Y0016594D01*
X0095318Y0016485D01*
X0095536Y0016380D01*
X0095756Y0016281D01*
X0095979Y0016187D01*
X0096204Y0016099D01*
X0096431Y0016016D01*
X0096660Y0015938D01*
X0096891Y0015867D01*
X0097123Y0015800D01*
X0097357Y0015740D01*
X0097592Y0015685D01*
X0097829Y0015635D01*
X0098066Y0015592D01*
X0098305Y0015554D01*
X0098545Y0015522D01*
X0098785Y0015496D01*
X0099026Y0015475D01*
X0099267Y0015461D01*
X0099508Y0015452D01*
X0099750Y0015449D01*
X0157250Y0015449D01*
X0157492Y0015452D01*
X0157733Y0015461D01*
X0157974Y0015475D01*
X0158215Y0015496D01*
X0158455Y0015522D01*
X0158695Y0015554D01*
X0158934Y0015592D01*
X0159171Y0015635D01*
X0159408Y0015685D01*
X0159643Y0015740D01*
X0159877Y0015800D01*
X0160109Y0015867D01*
X0160340Y0015938D01*
X0160569Y0016016D01*
X0160796Y0016099D01*
X0161021Y0016187D01*
X0161244Y0016281D01*
X0161464Y0016380D01*
X0161682Y0016485D01*
X0161897Y0016594D01*
X0162110Y0016709D01*
X0162320Y0016829D01*
X0162526Y0016954D01*
X0162730Y0017084D01*
X0162931Y0017219D01*
X0163128Y0017359D01*
X0163322Y0017503D01*
X0163512Y0017652D01*
X0163698Y0017806D01*
X0163881Y0017964D01*
X0164060Y0018126D01*
X0164235Y0018293D01*
X0164406Y0018464D01*
X0164573Y0018639D01*
X0164735Y0018818D01*
X0164893Y0019001D01*
X0165047Y0019187D01*
X0165196Y0019377D01*
X0165340Y0019571D01*
X0165480Y0019768D01*
X0165615Y0019969D01*
X0165745Y0020173D01*
X0165870Y0020379D01*
X0165990Y0020589D01*
X0166105Y0020802D01*
X0166214Y0021017D01*
X0166319Y0021235D01*
X0166418Y0021455D01*
X0166512Y0021678D01*
X0166600Y0021903D01*
X0166683Y0022130D01*
X0166761Y0022359D01*
X0166832Y0022590D01*
X0166899Y0022822D01*
X0166959Y0023056D01*
X0167014Y0023291D01*
X0167064Y0023528D01*
X0167107Y0023765D01*
X0167145Y0024004D01*
X0167177Y0024244D01*
X0167203Y0024484D01*
X0167224Y0024725D01*
X0167238Y0024966D01*
X0167247Y0025207D01*
X0167250Y0025449D01*
X0167250Y0125449D01*
X0167247Y0125691D01*
X0167238Y0125932D01*
X0167224Y0126173D01*
X0167203Y0126414D01*
X0167177Y0126654D01*
X0167145Y0126894D01*
X0167107Y0127133D01*
X0167064Y0127370D01*
X0167014Y0127607D01*
X0166959Y0127842D01*
X0166899Y0128076D01*
X0166832Y0128308D01*
X0166761Y0128539D01*
X0166683Y0128768D01*
X0166600Y0128995D01*
X0166512Y0129220D01*
X0166418Y0129443D01*
X0166319Y0129663D01*
X0166214Y0129881D01*
X0166105Y0130096D01*
X0165990Y0130309D01*
X0165870Y0130519D01*
X0165745Y0130725D01*
X0165615Y0130929D01*
X0165480Y0131130D01*
X0165340Y0131327D01*
X0165196Y0131521D01*
X0165047Y0131711D01*
X0164893Y0131897D01*
X0164735Y0132080D01*
X0164573Y0132259D01*
X0164406Y0132434D01*
X0164235Y0132605D01*
X0164060Y0132772D01*
X0163881Y0132934D01*
X0163698Y0133092D01*
X0163512Y0133246D01*
X0163322Y0133395D01*
X0163128Y0133539D01*
X0162931Y0133679D01*
X0162730Y0133814D01*
X0162526Y0133944D01*
X0162320Y0134069D01*
X0162110Y0134189D01*
X0161897Y0134304D01*
X0161682Y0134413D01*
X0161464Y0134518D01*
X0161244Y0134617D01*
X0161021Y0134711D01*
X0160796Y0134799D01*
X0160569Y0134882D01*
X0160340Y0134960D01*
X0160109Y0135031D01*
X0159877Y0135098D01*
X0159643Y0135158D01*
X0159408Y0135213D01*
X0159171Y0135263D01*
X0158934Y0135306D01*
X0158695Y0135344D01*
X0158455Y0135376D01*
X0158215Y0135402D01*
X0157974Y0135423D01*
X0157733Y0135437D01*
X0157492Y0135446D01*
X0157250Y0135449D01*
X0099750Y0135449D01*
X0099508Y0135446D01*
X0099267Y0135437D01*
X0099026Y0135423D01*
X0098785Y0135402D01*
X0098545Y0135376D01*
X0098305Y0135344D01*
X0098066Y0135306D01*
X0097829Y0135263D01*
X0097592Y0135213D01*
X0097357Y0135158D01*
X0097123Y0135098D01*
X0096891Y0135031D01*
X0096660Y0134960D01*
X0096431Y0134882D01*
X0096204Y0134799D01*
X0095979Y0134711D01*
X0095756Y0134617D01*
X0095536Y0134518D01*
X0095318Y0134413D01*
X0095103Y0134304D01*
X0094890Y0134189D01*
X0094680Y0134069D01*
X0094474Y0133944D01*
X0094270Y0133814D01*
X0094069Y0133679D01*
X0093872Y0133539D01*
X0093678Y0133395D01*
X0093488Y0133246D01*
X0093302Y0133092D01*
X0093119Y0132934D01*
X0092940Y0132772D01*
X0092765Y0132605D01*
X0092594Y0132434D01*
X0092427Y0132259D01*
X0092265Y0132080D01*
X0092107Y0131897D01*
X0091953Y0131711D01*
X0091804Y0131521D01*
X0091660Y0131327D01*
X0091520Y0131130D01*
X0091385Y0130929D01*
X0091255Y0130725D01*
X0091130Y0130519D01*
X0091010Y0130309D01*
X0090895Y0130096D01*
X0090786Y0129881D01*
X0090681Y0129663D01*
X0090582Y0129443D01*
X0090488Y0129220D01*
X0090400Y0128995D01*
X0090317Y0128768D01*
X0090239Y0128539D01*
X0090168Y0128308D01*
X0090101Y0128076D01*
X0090041Y0127842D01*
X0089986Y0127607D01*
X0089936Y0127370D01*
X0089893Y0127133D01*
X0089855Y0126894D01*
X0089823Y0126654D01*
X0089797Y0126414D01*
X0089776Y0126173D01*
X0089762Y0125932D01*
X0089753Y0125691D01*
X0089750Y0125449D01*
X0089750Y0115449D01*
X0089747Y0115207D01*
X0089738Y0114966D01*
X0089724Y0114725D01*
X0089703Y0114484D01*
X0089677Y0114244D01*
X0089645Y0114004D01*
X0089607Y0113765D01*
X0089564Y0113528D01*
X0089514Y0113291D01*
X0089459Y0113056D01*
X0089399Y0112822D01*
X0089332Y0112590D01*
X0089261Y0112359D01*
X0089183Y0112130D01*
X0089100Y0111903D01*
X0089012Y0111678D01*
X0088918Y0111455D01*
X0088819Y0111235D01*
X0088714Y0111017D01*
X0088605Y0110802D01*
X0088490Y0110589D01*
X0088370Y0110379D01*
X0088245Y0110173D01*
X0088115Y0109969D01*
X0087980Y0109768D01*
X0087840Y0109571D01*
X0087696Y0109377D01*
X0087547Y0109187D01*
X0087393Y0109001D01*
X0087235Y0108818D01*
X0087073Y0108639D01*
X0086906Y0108464D01*
X0086735Y0108293D01*
X0086560Y0108126D01*
X0086381Y0107964D01*
X0086198Y0107806D01*
X0086012Y0107652D01*
X0085822Y0107503D01*
X0085628Y0107359D01*
X0085431Y0107219D01*
X0085230Y0107084D01*
X0085026Y0106954D01*
X0084820Y0106829D01*
X0084610Y0106709D01*
X0084397Y0106594D01*
X0084182Y0106485D01*
X0083964Y0106380D01*
X0083744Y0106281D01*
X0083521Y0106187D01*
X0083296Y0106099D01*
X0083069Y0106016D01*
X0082840Y0105938D01*
X0082609Y0105867D01*
X0082377Y0105800D01*
X0082143Y0105740D01*
X0081908Y0105685D01*
X0081671Y0105635D01*
X0081434Y0105592D01*
X0081195Y0105554D01*
X0080955Y0105522D01*
X0080715Y0105496D01*
X0080474Y0105475D01*
X0080233Y0105461D01*
X0079992Y0105452D01*
X0079750Y0105449D01*
X0049750Y0105449D01*
X0049508Y0105452D01*
X0049267Y0105461D01*
X0049026Y0105475D01*
X0048785Y0105496D01*
X0048545Y0105522D01*
X0048305Y0105554D01*
X0048066Y0105592D01*
X0047829Y0105635D01*
X0047592Y0105685D01*
X0047357Y0105740D01*
X0047123Y0105800D01*
X0046891Y0105867D01*
X0046660Y0105938D01*
X0046431Y0106016D01*
X0046204Y0106099D01*
X0045979Y0106187D01*
X0045756Y0106281D01*
X0045536Y0106380D01*
X0045318Y0106485D01*
X0045103Y0106594D01*
X0044890Y0106709D01*
X0044680Y0106829D01*
X0044474Y0106954D01*
X0044270Y0107084D01*
X0044069Y0107219D01*
X0043872Y0107359D01*
X0043678Y0107503D01*
X0043488Y0107652D01*
X0043302Y0107806D01*
X0043119Y0107964D01*
X0042940Y0108126D01*
X0042765Y0108293D01*
X0042594Y0108464D01*
X0042427Y0108639D01*
X0042265Y0108818D01*
X0042107Y0109001D01*
X0041953Y0109187D01*
X0041804Y0109377D01*
X0041660Y0109571D01*
X0041520Y0109768D01*
X0041385Y0109969D01*
X0041255Y0110173D01*
X0041130Y0110379D01*
X0041010Y0110589D01*
X0040895Y0110802D01*
X0040786Y0111017D01*
X0040681Y0111235D01*
X0040582Y0111455D01*
X0040488Y0111678D01*
X0040400Y0111903D01*
X0040317Y0112130D01*
X0040239Y0112359D01*
X0040168Y0112590D01*
X0040101Y0112822D01*
X0040041Y0113056D01*
X0039986Y0113291D01*
X0039936Y0113528D01*
X0039893Y0113765D01*
X0039855Y0114004D01*
X0039823Y0114244D01*
X0039797Y0114484D01*
X0039776Y0114725D01*
X0039762Y0114966D01*
X0039753Y0115207D01*
X0039750Y0115449D01*
X0039750Y0125449D01*
X0039747Y0125691D01*
X0039738Y0125932D01*
X0039724Y0126173D01*
X0039703Y0126414D01*
X0039677Y0126654D01*
X0039645Y0126894D01*
X0039607Y0127133D01*
X0039564Y0127370D01*
X0039514Y0127607D01*
X0039459Y0127842D01*
X0039399Y0128076D01*
X0039332Y0128308D01*
X0039261Y0128539D01*
X0039183Y0128768D01*
X0039100Y0128995D01*
X0039012Y0129220D01*
X0038918Y0129443D01*
X0038819Y0129663D01*
X0038714Y0129881D01*
X0038605Y0130096D01*
X0038490Y0130309D01*
X0038370Y0130519D01*
X0038245Y0130725D01*
X0038115Y0130929D01*
X0037980Y0131130D01*
X0037840Y0131327D01*
X0037696Y0131521D01*
X0037547Y0131711D01*
X0037393Y0131897D01*
X0037235Y0132080D01*
X0037073Y0132259D01*
X0036906Y0132434D01*
X0036735Y0132605D01*
X0036560Y0132772D01*
X0036381Y0132934D01*
X0036198Y0133092D01*
X0036012Y0133246D01*
X0035822Y0133395D01*
X0035628Y0133539D01*
X0035431Y0133679D01*
X0035230Y0133814D01*
X0035026Y0133944D01*
X0034820Y0134069D01*
X0034610Y0134189D01*
X0034397Y0134304D01*
X0034182Y0134413D01*
X0033964Y0134518D01*
X0033744Y0134617D01*
X0033521Y0134711D01*
X0033296Y0134799D01*
X0033069Y0134882D01*
X0032840Y0134960D01*
X0032609Y0135031D01*
X0032377Y0135098D01*
X0032143Y0135158D01*
X0031908Y0135213D01*
X0031671Y0135263D01*
X0031434Y0135306D01*
X0031195Y0135344D01*
X0030955Y0135376D01*
X0030715Y0135402D01*
X0030474Y0135423D01*
X0030233Y0135437D01*
X0029992Y0135446D01*
X0029750Y0135449D01*
X0012250Y0135449D01*
X0012008Y0135446D01*
X0011767Y0135437D01*
X0011526Y0135423D01*
X0011285Y0135402D01*
X0011045Y0135376D01*
X0010805Y0135344D01*
X0010566Y0135306D01*
X0010329Y0135263D01*
X0010092Y0135213D01*
X0009857Y0135158D01*
X0009623Y0135098D01*
X0009391Y0135031D01*
X0009160Y0134960D01*
X0008931Y0134882D01*
X0008704Y0134799D01*
X0008479Y0134711D01*
X0008256Y0134617D01*
X0008036Y0134518D01*
X0007818Y0134413D01*
X0007603Y0134304D01*
X0007390Y0134189D01*
X0007180Y0134069D01*
X0006974Y0133944D01*
X0006770Y0133814D01*
X0006569Y0133679D01*
X0006372Y0133539D01*
X0006178Y0133395D01*
X0005988Y0133246D01*
X0005802Y0133092D01*
X0005619Y0132934D01*
X0005440Y0132772D01*
X0005265Y0132605D01*
X0005094Y0132434D01*
X0004927Y0132259D01*
X0004765Y0132080D01*
X0004607Y0131897D01*
X0004453Y0131711D01*
X0004304Y0131521D01*
X0004160Y0131327D01*
X0004020Y0131130D01*
X0003885Y0130929D01*
X0003755Y0130725D01*
X0003630Y0130519D01*
X0003510Y0130309D01*
X0003395Y0130096D01*
X0003286Y0129881D01*
X0003181Y0129663D01*
X0003082Y0129443D01*
X0002988Y0129220D01*
X0002900Y0128995D01*
X0002817Y0128768D01*
X0002739Y0128539D01*
X0002668Y0128308D01*
X0002601Y0128076D01*
X0002541Y0127842D01*
X0002486Y0127607D01*
X0002436Y0127370D01*
X0002393Y0127133D01*
X0002355Y0126894D01*
X0002323Y0126654D01*
X0002297Y0126414D01*
X0002276Y0126173D01*
X0002262Y0125932D01*
X0002253Y0125691D01*
X0002250Y0125449D01*
X0002250Y0025449D01*
X0002253Y0025207D01*
X0002262Y0024966D01*
X0002276Y0024725D01*
X0002297Y0024484D01*
X0002323Y0024244D01*
X0002355Y0024004D01*
X0002393Y0023765D01*
X0002436Y0023528D01*
X0002486Y0023291D01*
X0002541Y0023056D01*
X0002601Y0022822D01*
X0002668Y0022590D01*
X0002739Y0022359D01*
X0002817Y0022130D01*
X0002900Y0021903D01*
X0002988Y0021678D01*
X0003082Y0021455D01*
X0003181Y0021235D01*
X0003286Y0021017D01*
X0003395Y0020802D01*
X0003510Y0020589D01*
X0003630Y0020379D01*
X0003755Y0020173D01*
X0003885Y0019969D01*
X0004020Y0019768D01*
X0004160Y0019571D01*
X0004304Y0019377D01*
X0004453Y0019187D01*
X0004607Y0019001D01*
X0004765Y0018818D01*
X0004927Y0018639D01*
X0005094Y0018464D01*
X0005265Y0018293D01*
X0005440Y0018126D01*
X0005619Y0017964D01*
X0005802Y0017806D01*
X0005988Y0017652D01*
X0006178Y0017503D01*
X0006372Y0017359D01*
X0006569Y0017219D01*
X0006770Y0017084D01*
X0006974Y0016954D01*
X0007180Y0016829D01*
X0007390Y0016709D01*
X0007603Y0016594D01*
X0007818Y0016485D01*
X0008036Y0016380D01*
X0008256Y0016281D01*
X0008479Y0016187D01*
X0008704Y0016099D01*
X0008931Y0016016D01*
X0009160Y0015938D01*
X0009391Y0015867D01*
X0009623Y0015800D01*
X0009857Y0015740D01*
X0010092Y0015685D01*
X0010329Y0015635D01*
X0010566Y0015592D01*
X0010805Y0015554D01*
X0011045Y0015522D01*
X0011285Y0015496D01*
X0011526Y0015475D01*
X0011767Y0015461D01*
X0012008Y0015452D01*
X0012250Y0015449D01*
D11*
X0005750Y0025449D02*
X0005752Y0025610D01*
X0005758Y0025770D01*
X0005768Y0025931D01*
X0005782Y0026091D01*
X0005800Y0026251D01*
X0005821Y0026410D01*
X0005847Y0026569D01*
X0005877Y0026727D01*
X0005910Y0026884D01*
X0005948Y0027041D01*
X0005989Y0027196D01*
X0006034Y0027350D01*
X0006083Y0027503D01*
X0006136Y0027655D01*
X0006192Y0027806D01*
X0006253Y0027955D01*
X0006316Y0028103D01*
X0006384Y0028249D01*
X0006455Y0028393D01*
X0006529Y0028535D01*
X0006607Y0028676D01*
X0006689Y0028814D01*
X0006774Y0028951D01*
X0006862Y0029085D01*
X0006954Y0029217D01*
X0007049Y0029347D01*
X0007147Y0029475D01*
X0007248Y0029600D01*
X0007352Y0029722D01*
X0007459Y0029842D01*
X0007569Y0029959D01*
X0007682Y0030074D01*
X0007798Y0030185D01*
X0007917Y0030294D01*
X0008038Y0030399D01*
X0008162Y0030502D01*
X0008288Y0030602D01*
X0008416Y0030698D01*
X0008547Y0030791D01*
X0008681Y0030881D01*
X0008816Y0030968D01*
X0008954Y0031051D01*
X0009093Y0031131D01*
X0009235Y0031207D01*
X0009378Y0031280D01*
X0009523Y0031349D01*
X0009670Y0031415D01*
X0009818Y0031477D01*
X0009968Y0031535D01*
X0010119Y0031590D01*
X0010272Y0031641D01*
X0010426Y0031688D01*
X0010581Y0031731D01*
X0010737Y0031770D01*
X0010893Y0031806D01*
X0011051Y0031837D01*
X0011209Y0031865D01*
X0011368Y0031889D01*
X0011528Y0031909D01*
X0011688Y0031925D01*
X0011848Y0031937D01*
X0012009Y0031945D01*
X0012170Y0031949D01*
X0012330Y0031949D01*
X0012491Y0031945D01*
X0012652Y0031937D01*
X0012812Y0031925D01*
X0012972Y0031909D01*
X0013132Y0031889D01*
X0013291Y0031865D01*
X0013449Y0031837D01*
X0013607Y0031806D01*
X0013763Y0031770D01*
X0013919Y0031731D01*
X0014074Y0031688D01*
X0014228Y0031641D01*
X0014381Y0031590D01*
X0014532Y0031535D01*
X0014682Y0031477D01*
X0014830Y0031415D01*
X0014977Y0031349D01*
X0015122Y0031280D01*
X0015265Y0031207D01*
X0015407Y0031131D01*
X0015546Y0031051D01*
X0015684Y0030968D01*
X0015819Y0030881D01*
X0015953Y0030791D01*
X0016084Y0030698D01*
X0016212Y0030602D01*
X0016338Y0030502D01*
X0016462Y0030399D01*
X0016583Y0030294D01*
X0016702Y0030185D01*
X0016818Y0030074D01*
X0016931Y0029959D01*
X0017041Y0029842D01*
X0017148Y0029722D01*
X0017252Y0029600D01*
X0017353Y0029475D01*
X0017451Y0029347D01*
X0017546Y0029217D01*
X0017638Y0029085D01*
X0017726Y0028951D01*
X0017811Y0028814D01*
X0017893Y0028676D01*
X0017971Y0028535D01*
X0018045Y0028393D01*
X0018116Y0028249D01*
X0018184Y0028103D01*
X0018247Y0027955D01*
X0018308Y0027806D01*
X0018364Y0027655D01*
X0018417Y0027503D01*
X0018466Y0027350D01*
X0018511Y0027196D01*
X0018552Y0027041D01*
X0018590Y0026884D01*
X0018623Y0026727D01*
X0018653Y0026569D01*
X0018679Y0026410D01*
X0018700Y0026251D01*
X0018718Y0026091D01*
X0018732Y0025931D01*
X0018742Y0025770D01*
X0018748Y0025610D01*
X0018750Y0025449D01*
X0018748Y0025288D01*
X0018742Y0025128D01*
X0018732Y0024967D01*
X0018718Y0024807D01*
X0018700Y0024647D01*
X0018679Y0024488D01*
X0018653Y0024329D01*
X0018623Y0024171D01*
X0018590Y0024014D01*
X0018552Y0023857D01*
X0018511Y0023702D01*
X0018466Y0023548D01*
X0018417Y0023395D01*
X0018364Y0023243D01*
X0018308Y0023092D01*
X0018247Y0022943D01*
X0018184Y0022795D01*
X0018116Y0022649D01*
X0018045Y0022505D01*
X0017971Y0022363D01*
X0017893Y0022222D01*
X0017811Y0022084D01*
X0017726Y0021947D01*
X0017638Y0021813D01*
X0017546Y0021681D01*
X0017451Y0021551D01*
X0017353Y0021423D01*
X0017252Y0021298D01*
X0017148Y0021176D01*
X0017041Y0021056D01*
X0016931Y0020939D01*
X0016818Y0020824D01*
X0016702Y0020713D01*
X0016583Y0020604D01*
X0016462Y0020499D01*
X0016338Y0020396D01*
X0016212Y0020296D01*
X0016084Y0020200D01*
X0015953Y0020107D01*
X0015819Y0020017D01*
X0015684Y0019930D01*
X0015546Y0019847D01*
X0015407Y0019767D01*
X0015265Y0019691D01*
X0015122Y0019618D01*
X0014977Y0019549D01*
X0014830Y0019483D01*
X0014682Y0019421D01*
X0014532Y0019363D01*
X0014381Y0019308D01*
X0014228Y0019257D01*
X0014074Y0019210D01*
X0013919Y0019167D01*
X0013763Y0019128D01*
X0013607Y0019092D01*
X0013449Y0019061D01*
X0013291Y0019033D01*
X0013132Y0019009D01*
X0012972Y0018989D01*
X0012812Y0018973D01*
X0012652Y0018961D01*
X0012491Y0018953D01*
X0012330Y0018949D01*
X0012170Y0018949D01*
X0012009Y0018953D01*
X0011848Y0018961D01*
X0011688Y0018973D01*
X0011528Y0018989D01*
X0011368Y0019009D01*
X0011209Y0019033D01*
X0011051Y0019061D01*
X0010893Y0019092D01*
X0010737Y0019128D01*
X0010581Y0019167D01*
X0010426Y0019210D01*
X0010272Y0019257D01*
X0010119Y0019308D01*
X0009968Y0019363D01*
X0009818Y0019421D01*
X0009670Y0019483D01*
X0009523Y0019549D01*
X0009378Y0019618D01*
X0009235Y0019691D01*
X0009093Y0019767D01*
X0008954Y0019847D01*
X0008816Y0019930D01*
X0008681Y0020017D01*
X0008547Y0020107D01*
X0008416Y0020200D01*
X0008288Y0020296D01*
X0008162Y0020396D01*
X0008038Y0020499D01*
X0007917Y0020604D01*
X0007798Y0020713D01*
X0007682Y0020824D01*
X0007569Y0020939D01*
X0007459Y0021056D01*
X0007352Y0021176D01*
X0007248Y0021298D01*
X0007147Y0021423D01*
X0007049Y0021551D01*
X0006954Y0021681D01*
X0006862Y0021813D01*
X0006774Y0021947D01*
X0006689Y0022084D01*
X0006607Y0022222D01*
X0006529Y0022363D01*
X0006455Y0022505D01*
X0006384Y0022649D01*
X0006316Y0022795D01*
X0006253Y0022943D01*
X0006192Y0023092D01*
X0006136Y0023243D01*
X0006083Y0023395D01*
X0006034Y0023548D01*
X0005989Y0023702D01*
X0005948Y0023857D01*
X0005910Y0024014D01*
X0005877Y0024171D01*
X0005847Y0024329D01*
X0005821Y0024488D01*
X0005800Y0024647D01*
X0005782Y0024807D01*
X0005768Y0024967D01*
X0005758Y0025128D01*
X0005752Y0025288D01*
X0005750Y0025449D01*
X0005750Y0125449D02*
X0005752Y0125610D01*
X0005758Y0125770D01*
X0005768Y0125931D01*
X0005782Y0126091D01*
X0005800Y0126251D01*
X0005821Y0126410D01*
X0005847Y0126569D01*
X0005877Y0126727D01*
X0005910Y0126884D01*
X0005948Y0127041D01*
X0005989Y0127196D01*
X0006034Y0127350D01*
X0006083Y0127503D01*
X0006136Y0127655D01*
X0006192Y0127806D01*
X0006253Y0127955D01*
X0006316Y0128103D01*
X0006384Y0128249D01*
X0006455Y0128393D01*
X0006529Y0128535D01*
X0006607Y0128676D01*
X0006689Y0128814D01*
X0006774Y0128951D01*
X0006862Y0129085D01*
X0006954Y0129217D01*
X0007049Y0129347D01*
X0007147Y0129475D01*
X0007248Y0129600D01*
X0007352Y0129722D01*
X0007459Y0129842D01*
X0007569Y0129959D01*
X0007682Y0130074D01*
X0007798Y0130185D01*
X0007917Y0130294D01*
X0008038Y0130399D01*
X0008162Y0130502D01*
X0008288Y0130602D01*
X0008416Y0130698D01*
X0008547Y0130791D01*
X0008681Y0130881D01*
X0008816Y0130968D01*
X0008954Y0131051D01*
X0009093Y0131131D01*
X0009235Y0131207D01*
X0009378Y0131280D01*
X0009523Y0131349D01*
X0009670Y0131415D01*
X0009818Y0131477D01*
X0009968Y0131535D01*
X0010119Y0131590D01*
X0010272Y0131641D01*
X0010426Y0131688D01*
X0010581Y0131731D01*
X0010737Y0131770D01*
X0010893Y0131806D01*
X0011051Y0131837D01*
X0011209Y0131865D01*
X0011368Y0131889D01*
X0011528Y0131909D01*
X0011688Y0131925D01*
X0011848Y0131937D01*
X0012009Y0131945D01*
X0012170Y0131949D01*
X0012330Y0131949D01*
X0012491Y0131945D01*
X0012652Y0131937D01*
X0012812Y0131925D01*
X0012972Y0131909D01*
X0013132Y0131889D01*
X0013291Y0131865D01*
X0013449Y0131837D01*
X0013607Y0131806D01*
X0013763Y0131770D01*
X0013919Y0131731D01*
X0014074Y0131688D01*
X0014228Y0131641D01*
X0014381Y0131590D01*
X0014532Y0131535D01*
X0014682Y0131477D01*
X0014830Y0131415D01*
X0014977Y0131349D01*
X0015122Y0131280D01*
X0015265Y0131207D01*
X0015407Y0131131D01*
X0015546Y0131051D01*
X0015684Y0130968D01*
X0015819Y0130881D01*
X0015953Y0130791D01*
X0016084Y0130698D01*
X0016212Y0130602D01*
X0016338Y0130502D01*
X0016462Y0130399D01*
X0016583Y0130294D01*
X0016702Y0130185D01*
X0016818Y0130074D01*
X0016931Y0129959D01*
X0017041Y0129842D01*
X0017148Y0129722D01*
X0017252Y0129600D01*
X0017353Y0129475D01*
X0017451Y0129347D01*
X0017546Y0129217D01*
X0017638Y0129085D01*
X0017726Y0128951D01*
X0017811Y0128814D01*
X0017893Y0128676D01*
X0017971Y0128535D01*
X0018045Y0128393D01*
X0018116Y0128249D01*
X0018184Y0128103D01*
X0018247Y0127955D01*
X0018308Y0127806D01*
X0018364Y0127655D01*
X0018417Y0127503D01*
X0018466Y0127350D01*
X0018511Y0127196D01*
X0018552Y0127041D01*
X0018590Y0126884D01*
X0018623Y0126727D01*
X0018653Y0126569D01*
X0018679Y0126410D01*
X0018700Y0126251D01*
X0018718Y0126091D01*
X0018732Y0125931D01*
X0018742Y0125770D01*
X0018748Y0125610D01*
X0018750Y0125449D01*
X0018748Y0125288D01*
X0018742Y0125128D01*
X0018732Y0124967D01*
X0018718Y0124807D01*
X0018700Y0124647D01*
X0018679Y0124488D01*
X0018653Y0124329D01*
X0018623Y0124171D01*
X0018590Y0124014D01*
X0018552Y0123857D01*
X0018511Y0123702D01*
X0018466Y0123548D01*
X0018417Y0123395D01*
X0018364Y0123243D01*
X0018308Y0123092D01*
X0018247Y0122943D01*
X0018184Y0122795D01*
X0018116Y0122649D01*
X0018045Y0122505D01*
X0017971Y0122363D01*
X0017893Y0122222D01*
X0017811Y0122084D01*
X0017726Y0121947D01*
X0017638Y0121813D01*
X0017546Y0121681D01*
X0017451Y0121551D01*
X0017353Y0121423D01*
X0017252Y0121298D01*
X0017148Y0121176D01*
X0017041Y0121056D01*
X0016931Y0120939D01*
X0016818Y0120824D01*
X0016702Y0120713D01*
X0016583Y0120604D01*
X0016462Y0120499D01*
X0016338Y0120396D01*
X0016212Y0120296D01*
X0016084Y0120200D01*
X0015953Y0120107D01*
X0015819Y0120017D01*
X0015684Y0119930D01*
X0015546Y0119847D01*
X0015407Y0119767D01*
X0015265Y0119691D01*
X0015122Y0119618D01*
X0014977Y0119549D01*
X0014830Y0119483D01*
X0014682Y0119421D01*
X0014532Y0119363D01*
X0014381Y0119308D01*
X0014228Y0119257D01*
X0014074Y0119210D01*
X0013919Y0119167D01*
X0013763Y0119128D01*
X0013607Y0119092D01*
X0013449Y0119061D01*
X0013291Y0119033D01*
X0013132Y0119009D01*
X0012972Y0118989D01*
X0012812Y0118973D01*
X0012652Y0118961D01*
X0012491Y0118953D01*
X0012330Y0118949D01*
X0012170Y0118949D01*
X0012009Y0118953D01*
X0011848Y0118961D01*
X0011688Y0118973D01*
X0011528Y0118989D01*
X0011368Y0119009D01*
X0011209Y0119033D01*
X0011051Y0119061D01*
X0010893Y0119092D01*
X0010737Y0119128D01*
X0010581Y0119167D01*
X0010426Y0119210D01*
X0010272Y0119257D01*
X0010119Y0119308D01*
X0009968Y0119363D01*
X0009818Y0119421D01*
X0009670Y0119483D01*
X0009523Y0119549D01*
X0009378Y0119618D01*
X0009235Y0119691D01*
X0009093Y0119767D01*
X0008954Y0119847D01*
X0008816Y0119930D01*
X0008681Y0120017D01*
X0008547Y0120107D01*
X0008416Y0120200D01*
X0008288Y0120296D01*
X0008162Y0120396D01*
X0008038Y0120499D01*
X0007917Y0120604D01*
X0007798Y0120713D01*
X0007682Y0120824D01*
X0007569Y0120939D01*
X0007459Y0121056D01*
X0007352Y0121176D01*
X0007248Y0121298D01*
X0007147Y0121423D01*
X0007049Y0121551D01*
X0006954Y0121681D01*
X0006862Y0121813D01*
X0006774Y0121947D01*
X0006689Y0122084D01*
X0006607Y0122222D01*
X0006529Y0122363D01*
X0006455Y0122505D01*
X0006384Y0122649D01*
X0006316Y0122795D01*
X0006253Y0122943D01*
X0006192Y0123092D01*
X0006136Y0123243D01*
X0006083Y0123395D01*
X0006034Y0123548D01*
X0005989Y0123702D01*
X0005948Y0123857D01*
X0005910Y0124014D01*
X0005877Y0124171D01*
X0005847Y0124329D01*
X0005821Y0124488D01*
X0005800Y0124647D01*
X0005782Y0124807D01*
X0005768Y0124967D01*
X0005758Y0125128D01*
X0005752Y0125288D01*
X0005750Y0125449D01*
X0150750Y0125449D02*
X0150752Y0125610D01*
X0150758Y0125770D01*
X0150768Y0125931D01*
X0150782Y0126091D01*
X0150800Y0126251D01*
X0150821Y0126410D01*
X0150847Y0126569D01*
X0150877Y0126727D01*
X0150910Y0126884D01*
X0150948Y0127041D01*
X0150989Y0127196D01*
X0151034Y0127350D01*
X0151083Y0127503D01*
X0151136Y0127655D01*
X0151192Y0127806D01*
X0151253Y0127955D01*
X0151316Y0128103D01*
X0151384Y0128249D01*
X0151455Y0128393D01*
X0151529Y0128535D01*
X0151607Y0128676D01*
X0151689Y0128814D01*
X0151774Y0128951D01*
X0151862Y0129085D01*
X0151954Y0129217D01*
X0152049Y0129347D01*
X0152147Y0129475D01*
X0152248Y0129600D01*
X0152352Y0129722D01*
X0152459Y0129842D01*
X0152569Y0129959D01*
X0152682Y0130074D01*
X0152798Y0130185D01*
X0152917Y0130294D01*
X0153038Y0130399D01*
X0153162Y0130502D01*
X0153288Y0130602D01*
X0153416Y0130698D01*
X0153547Y0130791D01*
X0153681Y0130881D01*
X0153816Y0130968D01*
X0153954Y0131051D01*
X0154093Y0131131D01*
X0154235Y0131207D01*
X0154378Y0131280D01*
X0154523Y0131349D01*
X0154670Y0131415D01*
X0154818Y0131477D01*
X0154968Y0131535D01*
X0155119Y0131590D01*
X0155272Y0131641D01*
X0155426Y0131688D01*
X0155581Y0131731D01*
X0155737Y0131770D01*
X0155893Y0131806D01*
X0156051Y0131837D01*
X0156209Y0131865D01*
X0156368Y0131889D01*
X0156528Y0131909D01*
X0156688Y0131925D01*
X0156848Y0131937D01*
X0157009Y0131945D01*
X0157170Y0131949D01*
X0157330Y0131949D01*
X0157491Y0131945D01*
X0157652Y0131937D01*
X0157812Y0131925D01*
X0157972Y0131909D01*
X0158132Y0131889D01*
X0158291Y0131865D01*
X0158449Y0131837D01*
X0158607Y0131806D01*
X0158763Y0131770D01*
X0158919Y0131731D01*
X0159074Y0131688D01*
X0159228Y0131641D01*
X0159381Y0131590D01*
X0159532Y0131535D01*
X0159682Y0131477D01*
X0159830Y0131415D01*
X0159977Y0131349D01*
X0160122Y0131280D01*
X0160265Y0131207D01*
X0160407Y0131131D01*
X0160546Y0131051D01*
X0160684Y0130968D01*
X0160819Y0130881D01*
X0160953Y0130791D01*
X0161084Y0130698D01*
X0161212Y0130602D01*
X0161338Y0130502D01*
X0161462Y0130399D01*
X0161583Y0130294D01*
X0161702Y0130185D01*
X0161818Y0130074D01*
X0161931Y0129959D01*
X0162041Y0129842D01*
X0162148Y0129722D01*
X0162252Y0129600D01*
X0162353Y0129475D01*
X0162451Y0129347D01*
X0162546Y0129217D01*
X0162638Y0129085D01*
X0162726Y0128951D01*
X0162811Y0128814D01*
X0162893Y0128676D01*
X0162971Y0128535D01*
X0163045Y0128393D01*
X0163116Y0128249D01*
X0163184Y0128103D01*
X0163247Y0127955D01*
X0163308Y0127806D01*
X0163364Y0127655D01*
X0163417Y0127503D01*
X0163466Y0127350D01*
X0163511Y0127196D01*
X0163552Y0127041D01*
X0163590Y0126884D01*
X0163623Y0126727D01*
X0163653Y0126569D01*
X0163679Y0126410D01*
X0163700Y0126251D01*
X0163718Y0126091D01*
X0163732Y0125931D01*
X0163742Y0125770D01*
X0163748Y0125610D01*
X0163750Y0125449D01*
X0163748Y0125288D01*
X0163742Y0125128D01*
X0163732Y0124967D01*
X0163718Y0124807D01*
X0163700Y0124647D01*
X0163679Y0124488D01*
X0163653Y0124329D01*
X0163623Y0124171D01*
X0163590Y0124014D01*
X0163552Y0123857D01*
X0163511Y0123702D01*
X0163466Y0123548D01*
X0163417Y0123395D01*
X0163364Y0123243D01*
X0163308Y0123092D01*
X0163247Y0122943D01*
X0163184Y0122795D01*
X0163116Y0122649D01*
X0163045Y0122505D01*
X0162971Y0122363D01*
X0162893Y0122222D01*
X0162811Y0122084D01*
X0162726Y0121947D01*
X0162638Y0121813D01*
X0162546Y0121681D01*
X0162451Y0121551D01*
X0162353Y0121423D01*
X0162252Y0121298D01*
X0162148Y0121176D01*
X0162041Y0121056D01*
X0161931Y0120939D01*
X0161818Y0120824D01*
X0161702Y0120713D01*
X0161583Y0120604D01*
X0161462Y0120499D01*
X0161338Y0120396D01*
X0161212Y0120296D01*
X0161084Y0120200D01*
X0160953Y0120107D01*
X0160819Y0120017D01*
X0160684Y0119930D01*
X0160546Y0119847D01*
X0160407Y0119767D01*
X0160265Y0119691D01*
X0160122Y0119618D01*
X0159977Y0119549D01*
X0159830Y0119483D01*
X0159682Y0119421D01*
X0159532Y0119363D01*
X0159381Y0119308D01*
X0159228Y0119257D01*
X0159074Y0119210D01*
X0158919Y0119167D01*
X0158763Y0119128D01*
X0158607Y0119092D01*
X0158449Y0119061D01*
X0158291Y0119033D01*
X0158132Y0119009D01*
X0157972Y0118989D01*
X0157812Y0118973D01*
X0157652Y0118961D01*
X0157491Y0118953D01*
X0157330Y0118949D01*
X0157170Y0118949D01*
X0157009Y0118953D01*
X0156848Y0118961D01*
X0156688Y0118973D01*
X0156528Y0118989D01*
X0156368Y0119009D01*
X0156209Y0119033D01*
X0156051Y0119061D01*
X0155893Y0119092D01*
X0155737Y0119128D01*
X0155581Y0119167D01*
X0155426Y0119210D01*
X0155272Y0119257D01*
X0155119Y0119308D01*
X0154968Y0119363D01*
X0154818Y0119421D01*
X0154670Y0119483D01*
X0154523Y0119549D01*
X0154378Y0119618D01*
X0154235Y0119691D01*
X0154093Y0119767D01*
X0153954Y0119847D01*
X0153816Y0119930D01*
X0153681Y0120017D01*
X0153547Y0120107D01*
X0153416Y0120200D01*
X0153288Y0120296D01*
X0153162Y0120396D01*
X0153038Y0120499D01*
X0152917Y0120604D01*
X0152798Y0120713D01*
X0152682Y0120824D01*
X0152569Y0120939D01*
X0152459Y0121056D01*
X0152352Y0121176D01*
X0152248Y0121298D01*
X0152147Y0121423D01*
X0152049Y0121551D01*
X0151954Y0121681D01*
X0151862Y0121813D01*
X0151774Y0121947D01*
X0151689Y0122084D01*
X0151607Y0122222D01*
X0151529Y0122363D01*
X0151455Y0122505D01*
X0151384Y0122649D01*
X0151316Y0122795D01*
X0151253Y0122943D01*
X0151192Y0123092D01*
X0151136Y0123243D01*
X0151083Y0123395D01*
X0151034Y0123548D01*
X0150989Y0123702D01*
X0150948Y0123857D01*
X0150910Y0124014D01*
X0150877Y0124171D01*
X0150847Y0124329D01*
X0150821Y0124488D01*
X0150800Y0124647D01*
X0150782Y0124807D01*
X0150768Y0124967D01*
X0150758Y0125128D01*
X0150752Y0125288D01*
X0150750Y0125449D01*
X0150750Y0025449D02*
X0150752Y0025610D01*
X0150758Y0025770D01*
X0150768Y0025931D01*
X0150782Y0026091D01*
X0150800Y0026251D01*
X0150821Y0026410D01*
X0150847Y0026569D01*
X0150877Y0026727D01*
X0150910Y0026884D01*
X0150948Y0027041D01*
X0150989Y0027196D01*
X0151034Y0027350D01*
X0151083Y0027503D01*
X0151136Y0027655D01*
X0151192Y0027806D01*
X0151253Y0027955D01*
X0151316Y0028103D01*
X0151384Y0028249D01*
X0151455Y0028393D01*
X0151529Y0028535D01*
X0151607Y0028676D01*
X0151689Y0028814D01*
X0151774Y0028951D01*
X0151862Y0029085D01*
X0151954Y0029217D01*
X0152049Y0029347D01*
X0152147Y0029475D01*
X0152248Y0029600D01*
X0152352Y0029722D01*
X0152459Y0029842D01*
X0152569Y0029959D01*
X0152682Y0030074D01*
X0152798Y0030185D01*
X0152917Y0030294D01*
X0153038Y0030399D01*
X0153162Y0030502D01*
X0153288Y0030602D01*
X0153416Y0030698D01*
X0153547Y0030791D01*
X0153681Y0030881D01*
X0153816Y0030968D01*
X0153954Y0031051D01*
X0154093Y0031131D01*
X0154235Y0031207D01*
X0154378Y0031280D01*
X0154523Y0031349D01*
X0154670Y0031415D01*
X0154818Y0031477D01*
X0154968Y0031535D01*
X0155119Y0031590D01*
X0155272Y0031641D01*
X0155426Y0031688D01*
X0155581Y0031731D01*
X0155737Y0031770D01*
X0155893Y0031806D01*
X0156051Y0031837D01*
X0156209Y0031865D01*
X0156368Y0031889D01*
X0156528Y0031909D01*
X0156688Y0031925D01*
X0156848Y0031937D01*
X0157009Y0031945D01*
X0157170Y0031949D01*
X0157330Y0031949D01*
X0157491Y0031945D01*
X0157652Y0031937D01*
X0157812Y0031925D01*
X0157972Y0031909D01*
X0158132Y0031889D01*
X0158291Y0031865D01*
X0158449Y0031837D01*
X0158607Y0031806D01*
X0158763Y0031770D01*
X0158919Y0031731D01*
X0159074Y0031688D01*
X0159228Y0031641D01*
X0159381Y0031590D01*
X0159532Y0031535D01*
X0159682Y0031477D01*
X0159830Y0031415D01*
X0159977Y0031349D01*
X0160122Y0031280D01*
X0160265Y0031207D01*
X0160407Y0031131D01*
X0160546Y0031051D01*
X0160684Y0030968D01*
X0160819Y0030881D01*
X0160953Y0030791D01*
X0161084Y0030698D01*
X0161212Y0030602D01*
X0161338Y0030502D01*
X0161462Y0030399D01*
X0161583Y0030294D01*
X0161702Y0030185D01*
X0161818Y0030074D01*
X0161931Y0029959D01*
X0162041Y0029842D01*
X0162148Y0029722D01*
X0162252Y0029600D01*
X0162353Y0029475D01*
X0162451Y0029347D01*
X0162546Y0029217D01*
X0162638Y0029085D01*
X0162726Y0028951D01*
X0162811Y0028814D01*
X0162893Y0028676D01*
X0162971Y0028535D01*
X0163045Y0028393D01*
X0163116Y0028249D01*
X0163184Y0028103D01*
X0163247Y0027955D01*
X0163308Y0027806D01*
X0163364Y0027655D01*
X0163417Y0027503D01*
X0163466Y0027350D01*
X0163511Y0027196D01*
X0163552Y0027041D01*
X0163590Y0026884D01*
X0163623Y0026727D01*
X0163653Y0026569D01*
X0163679Y0026410D01*
X0163700Y0026251D01*
X0163718Y0026091D01*
X0163732Y0025931D01*
X0163742Y0025770D01*
X0163748Y0025610D01*
X0163750Y0025449D01*
X0163748Y0025288D01*
X0163742Y0025128D01*
X0163732Y0024967D01*
X0163718Y0024807D01*
X0163700Y0024647D01*
X0163679Y0024488D01*
X0163653Y0024329D01*
X0163623Y0024171D01*
X0163590Y0024014D01*
X0163552Y0023857D01*
X0163511Y0023702D01*
X0163466Y0023548D01*
X0163417Y0023395D01*
X0163364Y0023243D01*
X0163308Y0023092D01*
X0163247Y0022943D01*
X0163184Y0022795D01*
X0163116Y0022649D01*
X0163045Y0022505D01*
X0162971Y0022363D01*
X0162893Y0022222D01*
X0162811Y0022084D01*
X0162726Y0021947D01*
X0162638Y0021813D01*
X0162546Y0021681D01*
X0162451Y0021551D01*
X0162353Y0021423D01*
X0162252Y0021298D01*
X0162148Y0021176D01*
X0162041Y0021056D01*
X0161931Y0020939D01*
X0161818Y0020824D01*
X0161702Y0020713D01*
X0161583Y0020604D01*
X0161462Y0020499D01*
X0161338Y0020396D01*
X0161212Y0020296D01*
X0161084Y0020200D01*
X0160953Y0020107D01*
X0160819Y0020017D01*
X0160684Y0019930D01*
X0160546Y0019847D01*
X0160407Y0019767D01*
X0160265Y0019691D01*
X0160122Y0019618D01*
X0159977Y0019549D01*
X0159830Y0019483D01*
X0159682Y0019421D01*
X0159532Y0019363D01*
X0159381Y0019308D01*
X0159228Y0019257D01*
X0159074Y0019210D01*
X0158919Y0019167D01*
X0158763Y0019128D01*
X0158607Y0019092D01*
X0158449Y0019061D01*
X0158291Y0019033D01*
X0158132Y0019009D01*
X0157972Y0018989D01*
X0157812Y0018973D01*
X0157652Y0018961D01*
X0157491Y0018953D01*
X0157330Y0018949D01*
X0157170Y0018949D01*
X0157009Y0018953D01*
X0156848Y0018961D01*
X0156688Y0018973D01*
X0156528Y0018989D01*
X0156368Y0019009D01*
X0156209Y0019033D01*
X0156051Y0019061D01*
X0155893Y0019092D01*
X0155737Y0019128D01*
X0155581Y0019167D01*
X0155426Y0019210D01*
X0155272Y0019257D01*
X0155119Y0019308D01*
X0154968Y0019363D01*
X0154818Y0019421D01*
X0154670Y0019483D01*
X0154523Y0019549D01*
X0154378Y0019618D01*
X0154235Y0019691D01*
X0154093Y0019767D01*
X0153954Y0019847D01*
X0153816Y0019930D01*
X0153681Y0020017D01*
X0153547Y0020107D01*
X0153416Y0020200D01*
X0153288Y0020296D01*
X0153162Y0020396D01*
X0153038Y0020499D01*
X0152917Y0020604D01*
X0152798Y0020713D01*
X0152682Y0020824D01*
X0152569Y0020939D01*
X0152459Y0021056D01*
X0152352Y0021176D01*
X0152248Y0021298D01*
X0152147Y0021423D01*
X0152049Y0021551D01*
X0151954Y0021681D01*
X0151862Y0021813D01*
X0151774Y0021947D01*
X0151689Y0022084D01*
X0151607Y0022222D01*
X0151529Y0022363D01*
X0151455Y0022505D01*
X0151384Y0022649D01*
X0151316Y0022795D01*
X0151253Y0022943D01*
X0151192Y0023092D01*
X0151136Y0023243D01*
X0151083Y0023395D01*
X0151034Y0023548D01*
X0150989Y0023702D01*
X0150948Y0023857D01*
X0150910Y0024014D01*
X0150877Y0024171D01*
X0150847Y0024329D01*
X0150821Y0024488D01*
X0150800Y0024647D01*
X0150782Y0024807D01*
X0150768Y0024967D01*
X0150758Y0025128D01*
X0150752Y0025288D01*
X0150750Y0025449D01*
D12*
X0157250Y0025449D03*
X0157250Y0125449D03*
X0012250Y0125449D03*
X0012250Y0025449D03*
D13*
X0049750Y0050449D03*
X0059750Y0050449D03*
X0069750Y0050449D03*
X0079750Y0050449D03*
X0079750Y0100449D03*
X0069750Y0100449D03*
X0059750Y0100449D03*
X0049750Y0100449D03*
D14*
X0099565Y0058579D02*
X0099565Y0052673D01*
X0116297Y0022949D02*
X0122203Y0022949D01*
X0136967Y0033776D02*
X0136967Y0039681D01*
X0138935Y0092319D02*
X0138935Y0098224D01*
X0122203Y0127949D02*
X0116297Y0127949D01*
X0101533Y0117122D02*
X0101533Y0111217D01*
D15*
X0069750Y0085449D03*
X0069750Y0065449D03*
X0039750Y0065449D03*
X0039750Y0085449D03*
M02*
