%
M48
M72
T01C0.01500
T02C0.03937
T03C0.04000
T04C0.13000
%
T01
X22370Y125949
X36370Y123949
X55330Y110439
X76870Y89189
X86880Y91584
X64245Y85554
X45840Y87939
X109870Y83909
X119870Y67199
X127025Y46804
X111350Y43449
X117470Y31309
X156800Y86459
X134360Y100949
X134360Y105949
X144870Y117199
X138390Y125999
X134870Y129699
X119870Y135949
X119870Y145949
X144370Y155949
X86370Y155949
T02
X49654Y145169
X67370Y158949
X87055Y126272
X47685Y55626
X85087Y36728
X67370Y22949
T03
X182370Y140949
X182370Y130949
X182370Y120949
X182370Y110949
X182370Y70949
X182370Y60949
X182370Y50949
X182370Y40949
X152370Y20949
T04
X27370Y155949
X27370Y25949
X177370Y155949
X177370Y25949
M30
