G75*
%MOIN*%
%OFA0B0*%
%FSLAX25Y25*%
%IPPOS*%
%LPD*%
%AMOC8*
5,1,8,0,0,1.08239X$1,22.5*
%
%ADD10C,0.00800*%
%ADD11C,0.00000*%
%ADD12R,0.02600X0.05000*%
%ADD13C,0.00050*%
%ADD14R,0.05000X0.02600*%
%ADD15R,0.02500X0.05000*%
%ADD16C,0.01000*%
%ADD17C,0.07400*%
%ADD18C,0.05906*%
%ADD19C,0.02900*%
%ADD20C,0.02000*%
%ADD21C,0.00700*%
D10*
X0017370Y0015949D02*
X0017370Y0165949D01*
X0187370Y0165949D01*
X0187370Y0015949D01*
X0017370Y0015949D01*
X0019370Y0030692D02*
X0019370Y0125221D01*
X0019784Y0124221D01*
X0020642Y0123363D01*
X0021763Y0122899D01*
X0022977Y0122899D01*
X0024098Y0123363D01*
X0024956Y0124221D01*
X0025420Y0125342D01*
X0025420Y0126555D01*
X0025402Y0126598D01*
X0025980Y0127176D01*
X0026307Y0126849D01*
X0030233Y0126849D01*
X0030320Y0126936D01*
X0030407Y0126849D01*
X0034333Y0126849D01*
X0034420Y0126936D01*
X0034507Y0126849D01*
X0034520Y0126849D01*
X0034520Y0126412D01*
X0033784Y0125677D01*
X0033320Y0124555D01*
X0033320Y0123342D01*
X0033784Y0122221D01*
X0034642Y0121363D01*
X0035763Y0120899D01*
X0036977Y0120899D01*
X0038098Y0121363D01*
X0038956Y0122221D01*
X0039420Y0123342D01*
X0039420Y0124555D01*
X0038956Y0125677D01*
X0038420Y0126212D01*
X0038420Y0126849D01*
X0038433Y0126849D01*
X0039370Y0127786D01*
X0039370Y0134112D01*
X0039052Y0134430D01*
X0043332Y0134430D01*
X0057330Y0120432D01*
X0057330Y0120049D01*
X0053867Y0120049D01*
X0052930Y0119112D01*
X0052930Y0112786D01*
X0053147Y0112569D01*
X0052744Y0112166D01*
X0052280Y0111045D01*
X0052280Y0109832D01*
X0052744Y0108711D01*
X0053602Y0107853D01*
X0054723Y0107389D01*
X0055937Y0107389D01*
X0057058Y0107853D01*
X0057916Y0108711D01*
X0058380Y0109832D01*
X0058380Y0111045D01*
X0058047Y0111849D01*
X0061893Y0111849D01*
X0062830Y0112786D01*
X0062830Y0114932D01*
X0069036Y0108726D01*
X0069767Y0107995D01*
X0069955Y0107917D01*
X0074270Y0103602D01*
X0074270Y0091674D01*
X0047988Y0091674D01*
X0047032Y0091278D01*
X0046656Y0090902D01*
X0046447Y0090989D01*
X0045233Y0090989D01*
X0044112Y0090524D01*
X0043254Y0089666D01*
X0042790Y0088545D01*
X0042790Y0087332D01*
X0043254Y0086211D01*
X0044112Y0085353D01*
X0045233Y0084889D01*
X0046447Y0084889D01*
X0047533Y0085339D01*
X0047887Y0085339D01*
X0048843Y0085735D01*
X0049574Y0086466D01*
X0049582Y0086474D01*
X0061325Y0086474D01*
X0061195Y0086161D01*
X0061195Y0084947D01*
X0061659Y0083826D01*
X0062517Y0082968D01*
X0063638Y0082504D01*
X0064852Y0082504D01*
X0065973Y0082968D01*
X0066608Y0083604D01*
X0106820Y0083604D01*
X0106820Y0083302D01*
X0107284Y0082181D01*
X0108142Y0081323D01*
X0109263Y0080859D01*
X0110477Y0080859D01*
X0111598Y0081323D01*
X0112456Y0082181D01*
X0112920Y0083302D01*
X0112920Y0084516D01*
X0112456Y0085637D01*
X0111598Y0086494D01*
X0110477Y0086959D01*
X0109578Y0086959D01*
X0109033Y0087504D01*
X0102603Y0087504D01*
X0126598Y0111499D01*
X0165678Y0111499D01*
X0166820Y0112641D01*
X0177698Y0123519D01*
X0177070Y0122003D01*
X0177070Y0119895D01*
X0177877Y0117947D01*
X0179368Y0116456D01*
X0180883Y0115828D01*
X0180412Y0115675D01*
X0179697Y0115311D01*
X0179048Y0114839D01*
X0178480Y0114271D01*
X0178008Y0113622D01*
X0177644Y0112907D01*
X0177396Y0112143D01*
X0177270Y0111350D01*
X0177270Y0111349D01*
X0181970Y0111349D01*
X0181970Y0110549D01*
X0177270Y0110549D01*
X0177270Y0110547D01*
X0177396Y0109755D01*
X0177644Y0108991D01*
X0178008Y0108276D01*
X0178480Y0107626D01*
X0179048Y0107059D01*
X0179697Y0106587D01*
X0180412Y0106222D01*
X0181176Y0105974D01*
X0181969Y0105849D01*
X0181970Y0105849D01*
X0181970Y0110549D01*
X0182770Y0110549D01*
X0182770Y0105849D01*
X0182772Y0105849D01*
X0183564Y0105974D01*
X0184328Y0106222D01*
X0185043Y0106587D01*
X0185370Y0106825D01*
X0185370Y0075443D01*
X0183424Y0076249D01*
X0181316Y0076249D01*
X0179368Y0075442D01*
X0177877Y0073951D01*
X0177700Y0073524D01*
X0168543Y0073524D01*
X0137209Y0104857D01*
X0137410Y0105342D01*
X0137410Y0106555D01*
X0136946Y0107677D01*
X0136088Y0108534D01*
X0134967Y0108999D01*
X0133753Y0108999D01*
X0132632Y0108534D01*
X0131774Y0107677D01*
X0131310Y0106555D01*
X0131310Y0105342D01*
X0131774Y0104221D01*
X0132547Y0103449D01*
X0131774Y0102677D01*
X0131310Y0101555D01*
X0131310Y0100342D01*
X0131774Y0099221D01*
X0132410Y0098585D01*
X0132410Y0097591D01*
X0133552Y0096449D01*
X0169235Y0060766D01*
X0170377Y0059624D01*
X0177182Y0059624D01*
X0177877Y0057947D01*
X0179368Y0056456D01*
X0180592Y0055949D01*
X0179368Y0055442D01*
X0177877Y0053951D01*
X0177070Y0052003D01*
X0177070Y0049895D01*
X0177877Y0047947D01*
X0179368Y0046456D01*
X0180883Y0045828D01*
X0180412Y0045675D01*
X0179697Y0045311D01*
X0179048Y0044839D01*
X0178480Y0044271D01*
X0178008Y0043622D01*
X0177644Y0042907D01*
X0177396Y0042143D01*
X0177270Y0041350D01*
X0177270Y0041349D01*
X0181970Y0041349D01*
X0181970Y0040549D01*
X0177270Y0040549D01*
X0177270Y0040547D01*
X0177396Y0039755D01*
X0177644Y0038991D01*
X0178008Y0038276D01*
X0178480Y0037626D01*
X0179048Y0037059D01*
X0179697Y0036587D01*
X0180412Y0036222D01*
X0181176Y0035974D01*
X0181969Y0035849D01*
X0181970Y0035849D01*
X0181970Y0040549D01*
X0182770Y0040549D01*
X0182770Y0035849D01*
X0182772Y0035849D01*
X0183564Y0035974D01*
X0184328Y0036222D01*
X0185043Y0036587D01*
X0185370Y0036825D01*
X0185370Y0030692D01*
X0184604Y0032019D01*
X0182092Y0034127D01*
X0179010Y0035249D01*
X0175730Y0035249D01*
X0172648Y0034127D01*
X0170136Y0032019D01*
X0170136Y0032019D01*
X0170136Y0032019D01*
X0168496Y0029179D01*
X0168496Y0029179D01*
X0167927Y0025949D01*
X0167927Y0025949D01*
X0168496Y0022719D01*
X0170136Y0019879D01*
X0170136Y0019879D01*
X0172436Y0017949D01*
X0156864Y0017949D01*
X0157670Y0019895D01*
X0157670Y0022003D01*
X0156863Y0023951D01*
X0155372Y0025442D01*
X0153424Y0026249D01*
X0151316Y0026249D01*
X0149368Y0025442D01*
X0147877Y0023951D01*
X0147070Y0022003D01*
X0147070Y0019895D01*
X0147876Y0017949D01*
X0032304Y0017949D01*
X0034604Y0019879D01*
X0036244Y0022719D01*
X0036814Y0025949D01*
X0036244Y0029179D01*
X0034604Y0032019D01*
X0032092Y0034127D01*
X0032092Y0034127D01*
X0029010Y0035249D01*
X0025730Y0035249D01*
X0022648Y0034127D01*
X0020136Y0032019D01*
X0020136Y0032019D01*
X0020136Y0032019D01*
X0019370Y0030692D01*
X0019370Y0031121D02*
X0019617Y0031121D01*
X0019370Y0031919D02*
X0020078Y0031919D01*
X0019370Y0032718D02*
X0020969Y0032718D01*
X0021920Y0033516D02*
X0019370Y0033516D01*
X0019370Y0034315D02*
X0023164Y0034315D01*
X0022648Y0034127D02*
X0022648Y0034127D01*
X0025357Y0035113D02*
X0019370Y0035113D01*
X0019370Y0035912D02*
X0080534Y0035912D01*
X0080534Y0036710D02*
X0019370Y0036710D01*
X0019370Y0037509D02*
X0080534Y0037509D01*
X0080534Y0038307D02*
X0019370Y0038307D01*
X0019370Y0039106D02*
X0080534Y0039106D01*
X0080534Y0039904D02*
X0019370Y0039904D01*
X0019370Y0040703D02*
X0080582Y0040703D01*
X0080534Y0040587D02*
X0080534Y0032870D01*
X0081227Y0031197D01*
X0082508Y0029916D01*
X0084181Y0029223D01*
X0085992Y0029223D01*
X0087666Y0029916D01*
X0088946Y0031197D01*
X0089639Y0032870D01*
X0089639Y0034778D01*
X0090207Y0034778D01*
X0091350Y0035921D01*
X0119578Y0064149D01*
X0120477Y0064149D01*
X0121598Y0064613D01*
X0122456Y0065471D01*
X0122920Y0066592D01*
X0122920Y0067805D01*
X0122456Y0068927D01*
X0121598Y0069784D01*
X0120477Y0070249D01*
X0119263Y0070249D01*
X0118142Y0069784D01*
X0117284Y0068927D01*
X0116820Y0067805D01*
X0116820Y0066907D01*
X0089639Y0039726D01*
X0089639Y0040587D01*
X0088946Y0042260D01*
X0087666Y0043541D01*
X0085992Y0044234D01*
X0084181Y0044234D01*
X0082508Y0043541D01*
X0081227Y0042260D01*
X0080534Y0040587D01*
X0080913Y0041501D02*
X0019370Y0041501D01*
X0019370Y0042300D02*
X0081267Y0042300D01*
X0082065Y0043098D02*
X0019370Y0043098D01*
X0019370Y0043897D02*
X0083367Y0043897D01*
X0086806Y0043897D02*
X0093810Y0043897D01*
X0093012Y0043098D02*
X0088108Y0043098D01*
X0088907Y0042300D02*
X0092213Y0042300D01*
X0091415Y0041501D02*
X0089261Y0041501D01*
X0089591Y0040703D02*
X0090616Y0040703D01*
X0089818Y0039904D02*
X0089639Y0039904D01*
X0092139Y0036710D02*
X0113270Y0036710D01*
X0113270Y0036426D02*
X0114207Y0035489D01*
X0115420Y0035489D01*
X0115420Y0033572D01*
X0114884Y0033037D01*
X0114420Y0031916D01*
X0114420Y0030702D01*
X0114884Y0029581D01*
X0115742Y0028723D01*
X0116863Y0028259D01*
X0118077Y0028259D01*
X0119198Y0028723D01*
X0120056Y0029581D01*
X0120520Y0030702D01*
X0120520Y0031916D01*
X0120056Y0033037D01*
X0119320Y0033772D01*
X0119320Y0035489D01*
X0120533Y0035489D01*
X0121470Y0036426D01*
X0121470Y0039889D01*
X0123227Y0039889D01*
X0124183Y0040285D01*
X0127666Y0043768D01*
X0128753Y0044218D01*
X0129611Y0045076D01*
X0130075Y0046197D01*
X0130075Y0047411D01*
X0129611Y0048532D01*
X0128753Y0049389D01*
X0127632Y0049854D01*
X0126418Y0049854D01*
X0125297Y0049389D01*
X0124439Y0048532D01*
X0123989Y0047445D01*
X0121633Y0045089D01*
X0120833Y0045089D01*
X0120533Y0045389D01*
X0116617Y0045389D01*
X0116353Y0045653D01*
X0115397Y0046049D01*
X0113043Y0046049D01*
X0111957Y0046499D01*
X0110743Y0046499D01*
X0109622Y0046034D01*
X0108764Y0045177D01*
X0108300Y0044055D01*
X0108300Y0042842D01*
X0108764Y0041721D01*
X0109622Y0040863D01*
X0110743Y0040399D01*
X0111957Y0040399D01*
X0113043Y0040849D01*
X0113270Y0040849D01*
X0113270Y0040526D01*
X0113357Y0040439D01*
X0113270Y0040352D01*
X0113270Y0036426D01*
X0113785Y0035912D02*
X0091341Y0035912D01*
X0090542Y0035113D02*
X0115420Y0035113D01*
X0115420Y0034315D02*
X0089639Y0034315D01*
X0089639Y0033516D02*
X0115364Y0033516D01*
X0114752Y0032718D02*
X0089576Y0032718D01*
X0089246Y0031919D02*
X0114422Y0031919D01*
X0114420Y0031121D02*
X0088870Y0031121D01*
X0088072Y0030322D02*
X0114578Y0030322D01*
X0114942Y0029524D02*
X0086718Y0029524D01*
X0083455Y0029524D02*
X0036045Y0029524D01*
X0036244Y0029179D02*
X0036244Y0029179D01*
X0036324Y0028725D02*
X0115741Y0028725D01*
X0119200Y0028725D02*
X0168416Y0028725D01*
X0168275Y0027926D02*
X0036465Y0027926D01*
X0036606Y0027128D02*
X0063194Y0027128D01*
X0063398Y0027194D02*
X0062746Y0026983D01*
X0062136Y0026672D01*
X0061582Y0026269D01*
X0061097Y0025784D01*
X0060695Y0025230D01*
X0060384Y0024620D01*
X0060172Y0023968D01*
X0060074Y0023349D01*
X0066970Y0023349D01*
X0066970Y0027302D01*
X0064075Y0027302D01*
X0063398Y0027194D01*
X0061665Y0026329D02*
X0036746Y0026329D01*
X0036814Y0025949D02*
X0036814Y0025949D01*
X0036740Y0025531D02*
X0060913Y0025531D01*
X0060441Y0024732D02*
X0036599Y0024732D01*
X0036458Y0023934D02*
X0060166Y0023934D01*
X0060074Y0022549D02*
X0060172Y0021930D01*
X0060384Y0021278D01*
X0060695Y0020667D01*
X0061097Y0020113D01*
X0061582Y0019629D01*
X0062136Y0019226D01*
X0062746Y0018915D01*
X0063398Y0018703D01*
X0064075Y0018596D01*
X0066970Y0018596D01*
X0066970Y0022549D01*
X0060074Y0022549D01*
X0060107Y0022337D02*
X0036023Y0022337D01*
X0036244Y0022719D02*
X0036244Y0022719D01*
X0036317Y0023135D02*
X0066970Y0023135D01*
X0066970Y0023349D02*
X0066970Y0022549D01*
X0067770Y0022549D01*
X0067770Y0023349D01*
X0066970Y0023349D01*
X0066970Y0023934D02*
X0067770Y0023934D01*
X0067770Y0023349D02*
X0067770Y0027302D01*
X0070665Y0027302D01*
X0071342Y0027194D01*
X0071994Y0026983D01*
X0072604Y0026672D01*
X0073159Y0026269D01*
X0073643Y0025784D01*
X0074046Y0025230D01*
X0074357Y0024620D01*
X0074568Y0023968D01*
X0074667Y0023349D01*
X0067770Y0023349D01*
X0067770Y0023135D02*
X0147539Y0023135D01*
X0147208Y0022337D02*
X0074633Y0022337D01*
X0074667Y0022549D02*
X0067770Y0022549D01*
X0067770Y0018596D01*
X0070665Y0018596D01*
X0071342Y0018703D01*
X0071994Y0018915D01*
X0072604Y0019226D01*
X0073159Y0019629D01*
X0073643Y0020113D01*
X0074046Y0020667D01*
X0074357Y0021278D01*
X0074568Y0021930D01*
X0074667Y0022549D01*
X0074441Y0021538D02*
X0147070Y0021538D01*
X0147070Y0020740D02*
X0074083Y0020740D01*
X0073471Y0019941D02*
X0147070Y0019941D01*
X0147381Y0019143D02*
X0072441Y0019143D01*
X0067770Y0019143D02*
X0066970Y0019143D01*
X0066970Y0019941D02*
X0067770Y0019941D01*
X0067770Y0020740D02*
X0066970Y0020740D01*
X0066970Y0021538D02*
X0067770Y0021538D01*
X0067770Y0022337D02*
X0066970Y0022337D01*
X0066970Y0024732D02*
X0067770Y0024732D01*
X0067770Y0025531D02*
X0066970Y0025531D01*
X0066970Y0026329D02*
X0067770Y0026329D01*
X0067770Y0027128D02*
X0066970Y0027128D01*
X0071547Y0027128D02*
X0168135Y0027128D01*
X0167994Y0026329D02*
X0073075Y0026329D01*
X0073827Y0025531D02*
X0149583Y0025531D01*
X0148658Y0024732D02*
X0074299Y0024732D01*
X0074574Y0023934D02*
X0147870Y0023934D01*
X0147712Y0018344D02*
X0032776Y0018344D01*
X0033727Y0019143D02*
X0062299Y0019143D01*
X0061269Y0019941D02*
X0034640Y0019941D01*
X0034604Y0019879D02*
X0034604Y0019879D01*
X0034604Y0019879D01*
X0035101Y0020740D02*
X0060658Y0020740D01*
X0060299Y0021538D02*
X0035562Y0021538D01*
X0035584Y0030322D02*
X0082102Y0030322D01*
X0081303Y0031121D02*
X0035123Y0031121D01*
X0034662Y0031919D02*
X0080928Y0031919D01*
X0080597Y0032718D02*
X0033772Y0032718D01*
X0034604Y0032019D02*
X0034604Y0032019D01*
X0032820Y0033516D02*
X0080534Y0033516D01*
X0080534Y0034315D02*
X0031577Y0034315D01*
X0029383Y0035113D02*
X0080534Y0035113D01*
X0092938Y0037509D02*
X0113270Y0037509D01*
X0113270Y0038307D02*
X0093736Y0038307D01*
X0094535Y0039106D02*
X0113270Y0039106D01*
X0113270Y0039904D02*
X0095333Y0039904D01*
X0096132Y0040703D02*
X0110010Y0040703D01*
X0108984Y0041501D02*
X0096930Y0041501D01*
X0097729Y0042300D02*
X0108525Y0042300D01*
X0108300Y0043098D02*
X0098527Y0043098D01*
X0099326Y0043897D02*
X0108300Y0043897D01*
X0108565Y0044695D02*
X0100124Y0044695D01*
X0100923Y0045494D02*
X0109082Y0045494D01*
X0110245Y0046292D02*
X0101721Y0046292D01*
X0102520Y0047091D02*
X0123635Y0047091D01*
X0124173Y0047889D02*
X0103318Y0047889D01*
X0104117Y0048688D02*
X0124596Y0048688D01*
X0125531Y0049486D02*
X0104915Y0049486D01*
X0105714Y0050285D02*
X0177070Y0050285D01*
X0177070Y0051083D02*
X0106512Y0051083D01*
X0107311Y0051882D02*
X0177070Y0051882D01*
X0177351Y0052680D02*
X0108109Y0052680D01*
X0108908Y0053479D02*
X0177681Y0053479D01*
X0178203Y0054277D02*
X0109706Y0054277D01*
X0110505Y0055076D02*
X0179002Y0055076D01*
X0179151Y0056673D02*
X0112102Y0056673D01*
X0112900Y0057471D02*
X0178352Y0057471D01*
X0177743Y0058270D02*
X0113699Y0058270D01*
X0114497Y0059068D02*
X0177412Y0059068D01*
X0180412Y0055874D02*
X0111303Y0055874D01*
X0108184Y0058270D02*
X0052238Y0058270D01*
X0052238Y0059068D02*
X0108982Y0059068D01*
X0109781Y0059867D02*
X0052079Y0059867D01*
X0052238Y0059484D02*
X0051545Y0061158D01*
X0050264Y0062438D01*
X0048591Y0063131D01*
X0046779Y0063131D01*
X0045106Y0062438D01*
X0043825Y0061158D01*
X0043132Y0059484D01*
X0043132Y0051768D01*
X0043825Y0050094D01*
X0045106Y0048814D01*
X0046779Y0048120D01*
X0048591Y0048120D01*
X0050264Y0048814D01*
X0051545Y0050094D01*
X0052238Y0051768D01*
X0052238Y0059484D01*
X0051749Y0060665D02*
X0110579Y0060665D01*
X0111378Y0061464D02*
X0051238Y0061464D01*
X0050440Y0062262D02*
X0112176Y0062262D01*
X0112975Y0063061D02*
X0048761Y0063061D01*
X0046609Y0063061D02*
X0019370Y0063061D01*
X0019370Y0063859D02*
X0113773Y0063859D01*
X0114572Y0064658D02*
X0019370Y0064658D01*
X0019370Y0065457D02*
X0115370Y0065457D01*
X0116169Y0066255D02*
X0019370Y0066255D01*
X0019370Y0067054D02*
X0116820Y0067054D01*
X0116839Y0067852D02*
X0019370Y0067852D01*
X0019370Y0068651D02*
X0117170Y0068651D01*
X0117807Y0069449D02*
X0019370Y0069449D01*
X0019370Y0070248D02*
X0119260Y0070248D01*
X0120480Y0070248D02*
X0159754Y0070248D01*
X0158955Y0071046D02*
X0019370Y0071046D01*
X0019370Y0071845D02*
X0158157Y0071845D01*
X0157358Y0072643D02*
X0019370Y0072643D01*
X0019370Y0073442D02*
X0156560Y0073442D01*
X0155761Y0074240D02*
X0019370Y0074240D01*
X0019370Y0075039D02*
X0154963Y0075039D01*
X0154164Y0075837D02*
X0019370Y0075837D01*
X0019370Y0076636D02*
X0153366Y0076636D01*
X0152567Y0077434D02*
X0019370Y0077434D01*
X0019370Y0078233D02*
X0151769Y0078233D01*
X0150970Y0079031D02*
X0019370Y0079031D01*
X0019370Y0079830D02*
X0150172Y0079830D01*
X0149373Y0080628D02*
X0019370Y0080628D01*
X0019370Y0081427D02*
X0108039Y0081427D01*
X0107266Y0082225D02*
X0019370Y0082225D01*
X0019370Y0083024D02*
X0062462Y0083024D01*
X0061663Y0083822D02*
X0019370Y0083822D01*
X0019370Y0084621D02*
X0061330Y0084621D01*
X0061195Y0085419D02*
X0048082Y0085419D01*
X0049326Y0086218D02*
X0061219Y0086218D01*
X0066028Y0083024D02*
X0106935Y0083024D01*
X0109520Y0087016D02*
X0142985Y0087016D01*
X0143783Y0086218D02*
X0111874Y0086218D01*
X0112546Y0085419D02*
X0144582Y0085419D01*
X0145380Y0084621D02*
X0112877Y0084621D01*
X0112920Y0083822D02*
X0146179Y0083822D01*
X0146977Y0083024D02*
X0112805Y0083024D01*
X0112474Y0082225D02*
X0147776Y0082225D01*
X0148574Y0081427D02*
X0111701Y0081427D01*
X0103712Y0088613D02*
X0141388Y0088613D01*
X0142186Y0087815D02*
X0102914Y0087815D01*
X0104511Y0089412D02*
X0140589Y0089412D01*
X0139791Y0090210D02*
X0105309Y0090210D01*
X0106108Y0091009D02*
X0138992Y0091009D01*
X0138194Y0091807D02*
X0106906Y0091807D01*
X0107705Y0092606D02*
X0137395Y0092606D01*
X0136597Y0093404D02*
X0108503Y0093404D01*
X0109302Y0094203D02*
X0135798Y0094203D01*
X0135000Y0095001D02*
X0110100Y0095001D01*
X0110899Y0095800D02*
X0134201Y0095800D01*
X0133403Y0096598D02*
X0111697Y0096598D01*
X0112496Y0097397D02*
X0132604Y0097397D01*
X0132410Y0098195D02*
X0113294Y0098195D01*
X0114093Y0098994D02*
X0132002Y0098994D01*
X0131538Y0099793D02*
X0114892Y0099793D01*
X0115690Y0100591D02*
X0131310Y0100591D01*
X0131310Y0101390D02*
X0116489Y0101390D01*
X0117287Y0102188D02*
X0131572Y0102188D01*
X0132085Y0102987D02*
X0118086Y0102987D01*
X0118884Y0103785D02*
X0132211Y0103785D01*
X0131624Y0104584D02*
X0119683Y0104584D01*
X0120481Y0105382D02*
X0131310Y0105382D01*
X0131310Y0106181D02*
X0121280Y0106181D01*
X0122078Y0106979D02*
X0131486Y0106979D01*
X0131876Y0107778D02*
X0122877Y0107778D01*
X0123675Y0108576D02*
X0132733Y0108576D01*
X0135987Y0108576D02*
X0177855Y0108576D01*
X0177519Y0109375D02*
X0124474Y0109375D01*
X0125272Y0110173D02*
X0177329Y0110173D01*
X0177337Y0111770D02*
X0165949Y0111770D01*
X0166748Y0112569D02*
X0177534Y0112569D01*
X0177878Y0113367D02*
X0167546Y0113367D01*
X0168345Y0114166D02*
X0178403Y0114166D01*
X0179220Y0114964D02*
X0169143Y0114964D01*
X0169942Y0115763D02*
X0180682Y0115763D01*
X0179262Y0116561D02*
X0170740Y0116561D01*
X0171539Y0117360D02*
X0178464Y0117360D01*
X0177789Y0118158D02*
X0172337Y0118158D01*
X0173136Y0118957D02*
X0177459Y0118957D01*
X0177128Y0119755D02*
X0173934Y0119755D01*
X0174733Y0120554D02*
X0177070Y0120554D01*
X0177070Y0121352D02*
X0175531Y0121352D01*
X0176330Y0122151D02*
X0177131Y0122151D01*
X0177128Y0122949D02*
X0177462Y0122949D01*
X0174807Y0126143D02*
X0146830Y0126143D01*
X0146830Y0125345D02*
X0174008Y0125345D01*
X0173210Y0124546D02*
X0146830Y0124546D01*
X0146830Y0123748D02*
X0172411Y0123748D01*
X0171613Y0122949D02*
X0146830Y0122949D01*
X0146830Y0122151D02*
X0170814Y0122151D01*
X0170016Y0121352D02*
X0146830Y0121352D01*
X0146830Y0120554D02*
X0169217Y0120554D01*
X0168419Y0119755D02*
X0146830Y0119755D01*
X0146830Y0119552D02*
X0146830Y0154095D01*
X0146956Y0154221D01*
X0147420Y0155342D01*
X0147420Y0156555D01*
X0146956Y0157677D01*
X0146098Y0158534D01*
X0144977Y0158999D01*
X0143763Y0158999D01*
X0142642Y0158534D01*
X0141784Y0157677D01*
X0141320Y0156555D01*
X0141320Y0155342D01*
X0141784Y0154221D01*
X0142642Y0153363D01*
X0142930Y0153244D01*
X0142930Y0119572D01*
X0142284Y0118927D01*
X0141820Y0117805D01*
X0141820Y0116592D01*
X0142284Y0115471D01*
X0142357Y0115399D01*
X0124982Y0115399D01*
X0097087Y0087504D01*
X0079473Y0087504D01*
X0079920Y0088582D01*
X0079920Y0089795D01*
X0079470Y0090882D01*
X0079470Y0105196D01*
X0079074Y0106152D01*
X0078343Y0106883D01*
X0078343Y0106883D01*
X0073840Y0111386D01*
X0073840Y0123002D01*
X0106687Y0155849D01*
X0124705Y0155849D01*
X0124705Y0155049D01*
X0122457Y0155049D01*
X0122370Y0154962D01*
X0122283Y0155049D01*
X0118457Y0155049D01*
X0117520Y0154112D01*
X0117520Y0147912D01*
X0117284Y0147677D01*
X0116820Y0146555D01*
X0116820Y0145342D01*
X0117284Y0144221D01*
X0117420Y0144085D01*
X0117420Y0137812D01*
X0117284Y0137677D01*
X0116820Y0136555D01*
X0116820Y0135342D01*
X0117284Y0134221D01*
X0117420Y0134085D01*
X0117420Y0127786D01*
X0117920Y0127286D01*
X0117920Y0125191D01*
X0119062Y0124049D01*
X0136027Y0124049D01*
X0136662Y0123413D01*
X0137783Y0122949D01*
X0138997Y0122949D01*
X0140118Y0123413D01*
X0140976Y0124271D01*
X0141440Y0125392D01*
X0141440Y0126605D01*
X0140976Y0127727D01*
X0140118Y0128584D01*
X0138997Y0129049D01*
X0137783Y0129049D01*
X0136662Y0128584D01*
X0136027Y0127949D01*
X0127320Y0127949D01*
X0127320Y0134112D01*
X0126820Y0134612D01*
X0126820Y0137286D01*
X0127320Y0137786D01*
X0127320Y0144112D01*
X0126960Y0144472D01*
X0126960Y0147526D01*
X0127220Y0147786D01*
X0127220Y0148349D01*
X0127487Y0148349D01*
X0128443Y0148745D01*
X0129509Y0149811D01*
X0129905Y0150767D01*
X0129905Y0158966D01*
X0129509Y0159922D01*
X0128778Y0160653D01*
X0127822Y0161049D01*
X0105093Y0161049D01*
X0104137Y0160653D01*
X0103406Y0159922D01*
X0103406Y0159922D01*
X0069767Y0126283D01*
X0069036Y0125552D01*
X0068640Y0124596D01*
X0068640Y0116476D01*
X0062134Y0122982D01*
X0046614Y0138503D01*
X0045882Y0139234D01*
X0044927Y0139630D01*
X0034404Y0139630D01*
X0033448Y0139234D01*
X0030166Y0135952D01*
X0029792Y0135049D01*
X0026307Y0135049D01*
X0025370Y0134112D01*
X0025370Y0132082D01*
X0025045Y0131757D01*
X0022287Y0128999D01*
X0021763Y0128999D01*
X0020642Y0128534D01*
X0019784Y0127677D01*
X0019370Y0126676D01*
X0019370Y0151205D01*
X0020136Y0149879D01*
X0020136Y0149879D01*
X0022648Y0147771D01*
X0022648Y0147771D01*
X0025730Y0146649D01*
X0029010Y0146649D01*
X0032092Y0147771D01*
X0034604Y0149879D01*
X0036244Y0152719D01*
X0036814Y0155949D01*
X0036244Y0159179D01*
X0034604Y0162019D01*
X0032304Y0163949D01*
X0172436Y0163949D01*
X0170136Y0162019D01*
X0170136Y0162019D01*
X0170136Y0162019D01*
X0168496Y0159179D01*
X0168496Y0159179D01*
X0167927Y0155949D01*
X0167927Y0155949D01*
X0168496Y0152719D01*
X0170136Y0149879D01*
X0170136Y0149879D01*
X0172648Y0147771D01*
X0172648Y0147771D01*
X0175730Y0146649D01*
X0179010Y0146649D01*
X0182092Y0147771D01*
X0184604Y0149879D01*
X0185370Y0151205D01*
X0185370Y0145443D01*
X0183424Y0146249D01*
X0181316Y0146249D01*
X0179368Y0145442D01*
X0177877Y0143951D01*
X0177070Y0142003D01*
X0177070Y0139895D01*
X0177877Y0137947D01*
X0179368Y0136456D01*
X0180592Y0135949D01*
X0179368Y0135442D01*
X0177877Y0133951D01*
X0177070Y0132003D01*
X0177070Y0129895D01*
X0177506Y0128842D01*
X0164062Y0115399D01*
X0147383Y0115399D01*
X0147456Y0115471D01*
X0147920Y0116592D01*
X0147920Y0117805D01*
X0147456Y0118927D01*
X0146830Y0119552D01*
X0147426Y0118957D02*
X0167620Y0118957D01*
X0166822Y0118158D02*
X0147774Y0118158D01*
X0147920Y0117360D02*
X0166023Y0117360D01*
X0165225Y0116561D02*
X0147907Y0116561D01*
X0147577Y0115763D02*
X0164426Y0115763D01*
X0175605Y0126942D02*
X0146830Y0126942D01*
X0146830Y0127740D02*
X0176404Y0127740D01*
X0177203Y0128539D02*
X0146830Y0128539D01*
X0146830Y0129337D02*
X0177301Y0129337D01*
X0177070Y0130136D02*
X0146830Y0130136D01*
X0146830Y0130934D02*
X0177070Y0130934D01*
X0177070Y0131733D02*
X0146830Y0131733D01*
X0146830Y0132531D02*
X0177289Y0132531D01*
X0177620Y0133330D02*
X0146830Y0133330D01*
X0146830Y0134128D02*
X0178054Y0134128D01*
X0178853Y0134927D02*
X0146830Y0134927D01*
X0146830Y0135726D02*
X0180053Y0135726D01*
X0179300Y0136524D02*
X0146830Y0136524D01*
X0146830Y0137323D02*
X0178501Y0137323D01*
X0177805Y0138121D02*
X0146830Y0138121D01*
X0146830Y0138920D02*
X0177474Y0138920D01*
X0177143Y0139718D02*
X0146830Y0139718D01*
X0146830Y0140517D02*
X0177070Y0140517D01*
X0177070Y0141315D02*
X0146830Y0141315D01*
X0146830Y0142114D02*
X0177116Y0142114D01*
X0177447Y0142912D02*
X0146830Y0142912D01*
X0146830Y0143711D02*
X0177777Y0143711D01*
X0178435Y0144509D02*
X0146830Y0144509D01*
X0146830Y0145308D02*
X0179234Y0145308D01*
X0179713Y0146905D02*
X0185370Y0146905D01*
X0185370Y0147703D02*
X0181907Y0147703D01*
X0182092Y0147771D02*
X0182092Y0147771D01*
X0182963Y0148502D02*
X0185370Y0148502D01*
X0185370Y0149300D02*
X0183915Y0149300D01*
X0184604Y0149879D02*
X0184604Y0149879D01*
X0184604Y0149879D01*
X0184731Y0150099D02*
X0185370Y0150099D01*
X0185370Y0150897D02*
X0185192Y0150897D01*
X0185370Y0146106D02*
X0183769Y0146106D01*
X0180972Y0146106D02*
X0146830Y0146106D01*
X0146830Y0146905D02*
X0175027Y0146905D01*
X0172833Y0147703D02*
X0146830Y0147703D01*
X0146830Y0148502D02*
X0171777Y0148502D01*
X0170825Y0149300D02*
X0146830Y0149300D01*
X0146830Y0150099D02*
X0170009Y0150099D01*
X0169548Y0150897D02*
X0146830Y0150897D01*
X0146830Y0151696D02*
X0169087Y0151696D01*
X0168626Y0152494D02*
X0146830Y0152494D01*
X0146830Y0153293D02*
X0168395Y0153293D01*
X0168496Y0152719D02*
X0168496Y0152719D01*
X0168254Y0154091D02*
X0146830Y0154091D01*
X0147233Y0154890D02*
X0168113Y0154890D01*
X0167973Y0155688D02*
X0147420Y0155688D01*
X0147420Y0156487D02*
X0168022Y0156487D01*
X0168162Y0157285D02*
X0147118Y0157285D01*
X0146548Y0158084D02*
X0168303Y0158084D01*
X0168444Y0158882D02*
X0145258Y0158882D01*
X0143482Y0158882D02*
X0129905Y0158882D01*
X0129905Y0158084D02*
X0142192Y0158084D01*
X0141622Y0157285D02*
X0129905Y0157285D01*
X0129905Y0156487D02*
X0141320Y0156487D01*
X0141320Y0155688D02*
X0129905Y0155688D01*
X0129905Y0154890D02*
X0141507Y0154890D01*
X0141914Y0154091D02*
X0129905Y0154091D01*
X0129905Y0153293D02*
X0142812Y0153293D01*
X0142930Y0152494D02*
X0129905Y0152494D01*
X0129905Y0151696D02*
X0142930Y0151696D01*
X0142930Y0150897D02*
X0129905Y0150897D01*
X0129628Y0150099D02*
X0142930Y0150099D01*
X0142930Y0149300D02*
X0128998Y0149300D01*
X0127856Y0148502D02*
X0142930Y0148502D01*
X0142930Y0147703D02*
X0127137Y0147703D01*
X0126960Y0146905D02*
X0142930Y0146905D01*
X0142930Y0146106D02*
X0126960Y0146106D01*
X0126960Y0145308D02*
X0142930Y0145308D01*
X0142930Y0144509D02*
X0126960Y0144509D01*
X0127320Y0143711D02*
X0142930Y0143711D01*
X0142930Y0142912D02*
X0127320Y0142912D01*
X0127320Y0142114D02*
X0142930Y0142114D01*
X0142930Y0141315D02*
X0127320Y0141315D01*
X0127320Y0140517D02*
X0142930Y0140517D01*
X0142930Y0139718D02*
X0127320Y0139718D01*
X0127320Y0138920D02*
X0142930Y0138920D01*
X0142930Y0138121D02*
X0127320Y0138121D01*
X0126857Y0137323D02*
X0142930Y0137323D01*
X0142930Y0136524D02*
X0126820Y0136524D01*
X0126820Y0135726D02*
X0142930Y0135726D01*
X0142930Y0134927D02*
X0126820Y0134927D01*
X0127303Y0134128D02*
X0142930Y0134128D01*
X0142930Y0133330D02*
X0127320Y0133330D01*
X0127320Y0132531D02*
X0142930Y0132531D01*
X0142930Y0131733D02*
X0127320Y0131733D01*
X0127320Y0130934D02*
X0142930Y0130934D01*
X0142930Y0130136D02*
X0127320Y0130136D01*
X0127320Y0129337D02*
X0142930Y0129337D01*
X0142930Y0128539D02*
X0140163Y0128539D01*
X0140962Y0127740D02*
X0142930Y0127740D01*
X0142930Y0126942D02*
X0141301Y0126942D01*
X0141440Y0126143D02*
X0142930Y0126143D01*
X0142930Y0125345D02*
X0141421Y0125345D01*
X0141090Y0124546D02*
X0142930Y0124546D01*
X0142930Y0123748D02*
X0140453Y0123748D01*
X0138998Y0122949D02*
X0142930Y0122949D01*
X0142930Y0122151D02*
X0091499Y0122151D01*
X0091608Y0122413D02*
X0091608Y0130130D01*
X0090915Y0131803D01*
X0089634Y0133084D01*
X0087961Y0133777D01*
X0086150Y0133777D01*
X0084476Y0133084D01*
X0083196Y0131803D01*
X0082502Y0130130D01*
X0082502Y0122413D01*
X0083196Y0120740D01*
X0084476Y0119459D01*
X0086150Y0118766D01*
X0087961Y0118766D01*
X0089634Y0119459D01*
X0090915Y0120740D01*
X0091608Y0122413D01*
X0091608Y0122949D02*
X0137782Y0122949D01*
X0136328Y0123748D02*
X0091608Y0123748D01*
X0091608Y0124546D02*
X0118565Y0124546D01*
X0117920Y0125345D02*
X0091608Y0125345D01*
X0091608Y0126143D02*
X0117920Y0126143D01*
X0117920Y0126942D02*
X0091608Y0126942D01*
X0091608Y0127740D02*
X0117466Y0127740D01*
X0117420Y0128539D02*
X0091608Y0128539D01*
X0091608Y0129337D02*
X0117420Y0129337D01*
X0117420Y0130136D02*
X0091605Y0130136D01*
X0091275Y0130934D02*
X0117420Y0130934D01*
X0117420Y0131733D02*
X0090944Y0131733D01*
X0090187Y0132531D02*
X0117420Y0132531D01*
X0117420Y0133330D02*
X0089040Y0133330D01*
X0086564Y0135726D02*
X0116820Y0135726D01*
X0116820Y0136524D02*
X0087362Y0136524D01*
X0088161Y0137323D02*
X0117138Y0137323D01*
X0117420Y0138121D02*
X0088959Y0138121D01*
X0089758Y0138920D02*
X0117420Y0138920D01*
X0117420Y0139718D02*
X0090556Y0139718D01*
X0091355Y0140517D02*
X0117420Y0140517D01*
X0117420Y0141315D02*
X0092153Y0141315D01*
X0092952Y0142114D02*
X0117420Y0142114D01*
X0117420Y0142912D02*
X0093750Y0142912D01*
X0094549Y0143711D02*
X0117420Y0143711D01*
X0117165Y0144509D02*
X0095347Y0144509D01*
X0096146Y0145308D02*
X0116834Y0145308D01*
X0116820Y0146106D02*
X0096944Y0146106D01*
X0097743Y0146905D02*
X0116965Y0146905D01*
X0117311Y0147703D02*
X0098541Y0147703D01*
X0099340Y0148502D02*
X0117520Y0148502D01*
X0117520Y0149300D02*
X0100138Y0149300D01*
X0100937Y0150099D02*
X0117520Y0150099D01*
X0117520Y0150897D02*
X0101735Y0150897D01*
X0102534Y0151696D02*
X0117520Y0151696D01*
X0117520Y0152494D02*
X0103333Y0152494D01*
X0104131Y0153293D02*
X0117520Y0153293D01*
X0117520Y0154091D02*
X0104930Y0154091D01*
X0105728Y0154890D02*
X0118298Y0154890D01*
X0124705Y0155688D02*
X0106527Y0155688D01*
X0103165Y0159681D02*
X0074614Y0159681D01*
X0074568Y0159968D02*
X0074357Y0160620D01*
X0074046Y0161230D01*
X0073643Y0161784D01*
X0073159Y0162269D01*
X0072604Y0162672D01*
X0071994Y0162983D01*
X0071342Y0163194D01*
X0070665Y0163302D01*
X0067770Y0163302D01*
X0067770Y0159349D01*
X0066970Y0159349D01*
X0066970Y0163302D01*
X0064075Y0163302D01*
X0063398Y0163194D01*
X0062746Y0162983D01*
X0062136Y0162672D01*
X0061582Y0162269D01*
X0061097Y0161784D01*
X0060695Y0161230D01*
X0060384Y0160620D01*
X0060172Y0159968D01*
X0060074Y0159349D01*
X0066970Y0159349D01*
X0066970Y0158549D01*
X0060074Y0158549D01*
X0060172Y0157930D01*
X0060384Y0157278D01*
X0060695Y0156667D01*
X0061097Y0156113D01*
X0061582Y0155629D01*
X0062136Y0155226D01*
X0062746Y0154915D01*
X0063398Y0154703D01*
X0064075Y0154596D01*
X0066970Y0154596D01*
X0066970Y0158549D01*
X0067770Y0158549D01*
X0067770Y0159349D01*
X0074667Y0159349D01*
X0074568Y0159968D01*
X0074402Y0160479D02*
X0103964Y0160479D01*
X0102367Y0158882D02*
X0087258Y0158882D01*
X0086977Y0158999D02*
X0088098Y0158534D01*
X0088956Y0157677D01*
X0089420Y0156555D01*
X0089420Y0155342D01*
X0088956Y0154221D01*
X0088098Y0153363D01*
X0086977Y0152899D01*
X0085763Y0152899D01*
X0084642Y0153363D01*
X0084062Y0153943D01*
X0076521Y0146402D01*
X0076521Y0146402D01*
X0075378Y0145259D01*
X0054206Y0145259D01*
X0054206Y0141311D01*
X0053513Y0139638D01*
X0052233Y0138357D01*
X0050559Y0137664D01*
X0048748Y0137664D01*
X0047075Y0138357D01*
X0045794Y0139638D01*
X0045101Y0141311D01*
X0045101Y0149028D01*
X0045794Y0150701D01*
X0047075Y0151982D01*
X0048748Y0152675D01*
X0050559Y0152675D01*
X0052233Y0151982D01*
X0053513Y0150701D01*
X0054152Y0149159D01*
X0073763Y0149159D01*
X0082502Y0157899D01*
X0084007Y0157899D01*
X0084642Y0158534D01*
X0085763Y0158999D01*
X0086977Y0158999D01*
X0085482Y0158882D02*
X0067770Y0158882D01*
X0067770Y0158549D02*
X0074667Y0158549D01*
X0074568Y0157930D01*
X0074357Y0157278D01*
X0074046Y0156667D01*
X0073643Y0156113D01*
X0073159Y0155629D01*
X0072604Y0155226D01*
X0071994Y0154915D01*
X0071342Y0154703D01*
X0070665Y0154596D01*
X0067770Y0154596D01*
X0067770Y0158549D01*
X0067770Y0158084D02*
X0066970Y0158084D01*
X0066970Y0158882D02*
X0036296Y0158882D01*
X0036244Y0159179D02*
X0036244Y0159179D01*
X0035954Y0159681D02*
X0060126Y0159681D01*
X0060338Y0160479D02*
X0035493Y0160479D01*
X0035032Y0161278D02*
X0060729Y0161278D01*
X0061389Y0162076D02*
X0034536Y0162076D01*
X0034604Y0162019D02*
X0034604Y0162019D01*
X0033584Y0162875D02*
X0062535Y0162875D01*
X0066970Y0162875D02*
X0067770Y0162875D01*
X0067770Y0162076D02*
X0066970Y0162076D01*
X0066970Y0161278D02*
X0067770Y0161278D01*
X0067770Y0160479D02*
X0066970Y0160479D01*
X0066970Y0159681D02*
X0067770Y0159681D01*
X0067770Y0157285D02*
X0066970Y0157285D01*
X0066970Y0156487D02*
X0067770Y0156487D01*
X0067770Y0155688D02*
X0066970Y0155688D01*
X0066970Y0154890D02*
X0067770Y0154890D01*
X0071916Y0154890D02*
X0079493Y0154890D01*
X0078695Y0154091D02*
X0036486Y0154091D01*
X0036345Y0153293D02*
X0077896Y0153293D01*
X0077098Y0152494D02*
X0050995Y0152494D01*
X0052518Y0151696D02*
X0076299Y0151696D01*
X0075501Y0150897D02*
X0053317Y0150897D01*
X0053763Y0150099D02*
X0074702Y0150099D01*
X0073904Y0149300D02*
X0054093Y0149300D01*
X0054206Y0144509D02*
X0087994Y0144509D01*
X0088792Y0145308D02*
X0075427Y0145308D01*
X0076225Y0146106D02*
X0089591Y0146106D01*
X0090389Y0146905D02*
X0077024Y0146905D01*
X0077822Y0147703D02*
X0091188Y0147703D01*
X0091986Y0148502D02*
X0078621Y0148502D01*
X0079419Y0149300D02*
X0092785Y0149300D01*
X0093583Y0150099D02*
X0080218Y0150099D01*
X0081016Y0150897D02*
X0094382Y0150897D01*
X0095180Y0151696D02*
X0081815Y0151696D01*
X0082613Y0152494D02*
X0095979Y0152494D01*
X0096777Y0153293D02*
X0087928Y0153293D01*
X0088826Y0154091D02*
X0097576Y0154091D01*
X0098374Y0154890D02*
X0089233Y0154890D01*
X0089420Y0155688D02*
X0099173Y0155688D01*
X0099971Y0156487D02*
X0089420Y0156487D01*
X0089118Y0157285D02*
X0100770Y0157285D01*
X0101568Y0158084D02*
X0088548Y0158084D01*
X0084192Y0158084D02*
X0074593Y0158084D01*
X0074359Y0157285D02*
X0081889Y0157285D01*
X0081090Y0156487D02*
X0073914Y0156487D01*
X0073218Y0155688D02*
X0080292Y0155688D01*
X0083412Y0153293D02*
X0084812Y0153293D01*
X0087195Y0143711D02*
X0054206Y0143711D01*
X0054206Y0142912D02*
X0086397Y0142912D01*
X0085598Y0142114D02*
X0054206Y0142114D01*
X0054206Y0141315D02*
X0084799Y0141315D01*
X0084001Y0140517D02*
X0053877Y0140517D01*
X0053547Y0139718D02*
X0083202Y0139718D01*
X0082404Y0138920D02*
X0052795Y0138920D01*
X0051663Y0138121D02*
X0081605Y0138121D01*
X0080807Y0137323D02*
X0047794Y0137323D01*
X0047644Y0138121D02*
X0046995Y0138121D01*
X0046614Y0138503D02*
X0046614Y0138503D01*
X0046512Y0138920D02*
X0046197Y0138920D01*
X0045761Y0139718D02*
X0019370Y0139718D01*
X0019370Y0138920D02*
X0033134Y0138920D01*
X0032335Y0138121D02*
X0019370Y0138121D01*
X0019370Y0137323D02*
X0031537Y0137323D01*
X0030738Y0136524D02*
X0019370Y0136524D01*
X0019370Y0135726D02*
X0030072Y0135726D01*
X0026186Y0134927D02*
X0019370Y0134927D01*
X0019370Y0134128D02*
X0025387Y0134128D01*
X0025370Y0133330D02*
X0019370Y0133330D01*
X0019370Y0132531D02*
X0025370Y0132531D01*
X0025022Y0131733D02*
X0019370Y0131733D01*
X0019370Y0130934D02*
X0024223Y0130934D01*
X0023425Y0130136D02*
X0019370Y0130136D01*
X0019370Y0129337D02*
X0022626Y0129337D01*
X0020653Y0128539D02*
X0019370Y0128539D01*
X0019370Y0127740D02*
X0019848Y0127740D01*
X0019480Y0126942D02*
X0019370Y0126942D01*
X0019370Y0124546D02*
X0019650Y0124546D01*
X0019370Y0123748D02*
X0020258Y0123748D01*
X0019370Y0122949D02*
X0021641Y0122949D01*
X0023099Y0122949D02*
X0033483Y0122949D01*
X0033320Y0123748D02*
X0024483Y0123748D01*
X0025090Y0124546D02*
X0033320Y0124546D01*
X0033647Y0125345D02*
X0025420Y0125345D01*
X0025420Y0126143D02*
X0034251Y0126143D01*
X0033855Y0122151D02*
X0019370Y0122151D01*
X0019370Y0121352D02*
X0034669Y0121352D01*
X0038072Y0121352D02*
X0056410Y0121352D01*
X0057208Y0120554D02*
X0019370Y0120554D01*
X0019370Y0119755D02*
X0053574Y0119755D01*
X0052930Y0118957D02*
X0019370Y0118957D01*
X0019370Y0118158D02*
X0052930Y0118158D01*
X0052930Y0117360D02*
X0019370Y0117360D01*
X0019370Y0116561D02*
X0052930Y0116561D01*
X0052930Y0115763D02*
X0019370Y0115763D01*
X0019370Y0114964D02*
X0052930Y0114964D01*
X0052930Y0114166D02*
X0019370Y0114166D01*
X0019370Y0113367D02*
X0052930Y0113367D01*
X0053147Y0112569D02*
X0019370Y0112569D01*
X0019370Y0111770D02*
X0052580Y0111770D01*
X0052280Y0110972D02*
X0019370Y0110972D01*
X0019370Y0110173D02*
X0052280Y0110173D01*
X0052470Y0109375D02*
X0019370Y0109375D01*
X0019370Y0108576D02*
X0052879Y0108576D01*
X0053785Y0107778D02*
X0019370Y0107778D01*
X0019370Y0106979D02*
X0070893Y0106979D01*
X0071691Y0106181D02*
X0019370Y0106181D01*
X0019370Y0105382D02*
X0072490Y0105382D01*
X0073288Y0104584D02*
X0019370Y0104584D01*
X0019370Y0103785D02*
X0074087Y0103785D01*
X0074270Y0102987D02*
X0019370Y0102987D01*
X0019370Y0102188D02*
X0074270Y0102188D01*
X0074270Y0101390D02*
X0019370Y0101390D01*
X0019370Y0100591D02*
X0074270Y0100591D01*
X0074270Y0099793D02*
X0019370Y0099793D01*
X0019370Y0098994D02*
X0074270Y0098994D01*
X0074270Y0098195D02*
X0019370Y0098195D01*
X0019370Y0097397D02*
X0074270Y0097397D01*
X0074270Y0096598D02*
X0019370Y0096598D01*
X0019370Y0095800D02*
X0074270Y0095800D01*
X0074270Y0095001D02*
X0019370Y0095001D01*
X0019370Y0094203D02*
X0074270Y0094203D01*
X0074270Y0093404D02*
X0019370Y0093404D01*
X0019370Y0092606D02*
X0074270Y0092606D01*
X0074270Y0091807D02*
X0019370Y0091807D01*
X0019370Y0091009D02*
X0046763Y0091009D01*
X0043798Y0090210D02*
X0019370Y0090210D01*
X0019370Y0089412D02*
X0043149Y0089412D01*
X0042818Y0088613D02*
X0019370Y0088613D01*
X0019370Y0087815D02*
X0042790Y0087815D01*
X0042921Y0087016D02*
X0019370Y0087016D01*
X0019370Y0086218D02*
X0043252Y0086218D01*
X0044046Y0085419D02*
X0019370Y0085419D01*
X0019370Y0062262D02*
X0044930Y0062262D01*
X0044132Y0061464D02*
X0019370Y0061464D01*
X0019370Y0060665D02*
X0043622Y0060665D01*
X0043291Y0059867D02*
X0019370Y0059867D01*
X0019370Y0059068D02*
X0043132Y0059068D01*
X0043132Y0058270D02*
X0019370Y0058270D01*
X0019370Y0057471D02*
X0043132Y0057471D01*
X0043132Y0056673D02*
X0019370Y0056673D01*
X0019370Y0055874D02*
X0043132Y0055874D01*
X0043132Y0055076D02*
X0019370Y0055076D01*
X0019370Y0054277D02*
X0043132Y0054277D01*
X0043132Y0053479D02*
X0019370Y0053479D01*
X0019370Y0052680D02*
X0043132Y0052680D01*
X0043132Y0051882D02*
X0019370Y0051882D01*
X0019370Y0051083D02*
X0043416Y0051083D01*
X0043747Y0050285D02*
X0019370Y0050285D01*
X0019370Y0049486D02*
X0044433Y0049486D01*
X0045410Y0048688D02*
X0019370Y0048688D01*
X0019370Y0047889D02*
X0097803Y0047889D01*
X0097004Y0047091D02*
X0019370Y0047091D01*
X0019370Y0046292D02*
X0096206Y0046292D01*
X0095407Y0045494D02*
X0019370Y0045494D01*
X0019370Y0044695D02*
X0094609Y0044695D01*
X0098601Y0048688D02*
X0049960Y0048688D01*
X0050937Y0049486D02*
X0099400Y0049486D01*
X0100198Y0050285D02*
X0051624Y0050285D01*
X0051954Y0051083D02*
X0100997Y0051083D01*
X0101795Y0051882D02*
X0052238Y0051882D01*
X0052238Y0052680D02*
X0102594Y0052680D01*
X0103392Y0053479D02*
X0052238Y0053479D01*
X0052238Y0054277D02*
X0104191Y0054277D01*
X0104989Y0055076D02*
X0052238Y0055076D01*
X0052238Y0055874D02*
X0105788Y0055874D01*
X0106587Y0056673D02*
X0052238Y0056673D01*
X0052238Y0057471D02*
X0107385Y0057471D01*
X0115296Y0059867D02*
X0170134Y0059867D01*
X0169336Y0060665D02*
X0116094Y0060665D01*
X0116893Y0061464D02*
X0168537Y0061464D01*
X0167739Y0062262D02*
X0117691Y0062262D01*
X0118490Y0063061D02*
X0166940Y0063061D01*
X0166142Y0063859D02*
X0119289Y0063859D01*
X0121643Y0064658D02*
X0165343Y0064658D01*
X0164545Y0065457D02*
X0122441Y0065457D01*
X0122780Y0066255D02*
X0163746Y0066255D01*
X0162948Y0067054D02*
X0122920Y0067054D01*
X0122901Y0067852D02*
X0162149Y0067852D01*
X0161351Y0068651D02*
X0122570Y0068651D01*
X0121933Y0069449D02*
X0160552Y0069449D01*
X0166229Y0075837D02*
X0180322Y0075837D01*
X0178965Y0075039D02*
X0167028Y0075039D01*
X0167826Y0074240D02*
X0178166Y0074240D01*
X0184418Y0075837D02*
X0185370Y0075837D01*
X0185370Y0076636D02*
X0165431Y0076636D01*
X0164632Y0077434D02*
X0185370Y0077434D01*
X0185370Y0078233D02*
X0163834Y0078233D01*
X0163035Y0079031D02*
X0185370Y0079031D01*
X0185370Y0079830D02*
X0162237Y0079830D01*
X0161438Y0080628D02*
X0185370Y0080628D01*
X0185370Y0081427D02*
X0160640Y0081427D01*
X0159841Y0082225D02*
X0185370Y0082225D01*
X0185370Y0083024D02*
X0159043Y0083024D01*
X0158244Y0083822D02*
X0185370Y0083822D01*
X0185370Y0084621D02*
X0157446Y0084621D01*
X0156647Y0085419D02*
X0185370Y0085419D01*
X0185370Y0086218D02*
X0155849Y0086218D01*
X0155050Y0087016D02*
X0185370Y0087016D01*
X0185370Y0087815D02*
X0154252Y0087815D01*
X0153453Y0088613D02*
X0185370Y0088613D01*
X0185370Y0089412D02*
X0152655Y0089412D01*
X0151856Y0090210D02*
X0185370Y0090210D01*
X0185370Y0091009D02*
X0151058Y0091009D01*
X0150259Y0091807D02*
X0185370Y0091807D01*
X0185370Y0092606D02*
X0149461Y0092606D01*
X0148662Y0093404D02*
X0185370Y0093404D01*
X0185370Y0094203D02*
X0147864Y0094203D01*
X0147065Y0095001D02*
X0185370Y0095001D01*
X0185370Y0095800D02*
X0146267Y0095800D01*
X0145468Y0096598D02*
X0185370Y0096598D01*
X0185370Y0097397D02*
X0144670Y0097397D01*
X0143871Y0098195D02*
X0185370Y0098195D01*
X0185370Y0098994D02*
X0143073Y0098994D01*
X0142274Y0099793D02*
X0185370Y0099793D01*
X0185370Y0100591D02*
X0141476Y0100591D01*
X0140677Y0101390D02*
X0185370Y0101390D01*
X0185370Y0102188D02*
X0139879Y0102188D01*
X0139080Y0102987D02*
X0185370Y0102987D01*
X0185370Y0103785D02*
X0138282Y0103785D01*
X0137483Y0104584D02*
X0185370Y0104584D01*
X0185370Y0105382D02*
X0137410Y0105382D01*
X0137410Y0106181D02*
X0180541Y0106181D01*
X0181970Y0106181D02*
X0182770Y0106181D01*
X0182770Y0106979D02*
X0181970Y0106979D01*
X0181970Y0107778D02*
X0182770Y0107778D01*
X0182770Y0108576D02*
X0181970Y0108576D01*
X0181970Y0109375D02*
X0182770Y0109375D01*
X0182770Y0110173D02*
X0181970Y0110173D01*
X0181970Y0110972D02*
X0126071Y0110972D01*
X0123749Y0114166D02*
X0073840Y0114166D01*
X0073840Y0114964D02*
X0124548Y0114964D01*
X0122951Y0113367D02*
X0073840Y0113367D01*
X0073840Y0112569D02*
X0122152Y0112569D01*
X0121354Y0111770D02*
X0073840Y0111770D01*
X0074254Y0110972D02*
X0120555Y0110972D01*
X0119757Y0110173D02*
X0075053Y0110173D01*
X0075851Y0109375D02*
X0118958Y0109375D01*
X0118160Y0108576D02*
X0076650Y0108576D01*
X0077448Y0107778D02*
X0117361Y0107778D01*
X0116563Y0106979D02*
X0078247Y0106979D01*
X0079045Y0106181D02*
X0115764Y0106181D01*
X0114966Y0105382D02*
X0079393Y0105382D01*
X0079470Y0104584D02*
X0114167Y0104584D01*
X0113369Y0103785D02*
X0079470Y0103785D01*
X0079470Y0102987D02*
X0112570Y0102987D01*
X0111772Y0102188D02*
X0079470Y0102188D01*
X0079470Y0101390D02*
X0110973Y0101390D01*
X0110175Y0100591D02*
X0079470Y0100591D01*
X0079470Y0099793D02*
X0109376Y0099793D01*
X0108578Y0098994D02*
X0079470Y0098994D01*
X0079470Y0098195D02*
X0107779Y0098195D01*
X0106981Y0097397D02*
X0079470Y0097397D01*
X0079470Y0096598D02*
X0106182Y0096598D01*
X0105384Y0095800D02*
X0079470Y0095800D01*
X0079470Y0095001D02*
X0104585Y0095001D01*
X0103787Y0094203D02*
X0079470Y0094203D01*
X0079470Y0093404D02*
X0102988Y0093404D01*
X0102189Y0092606D02*
X0079470Y0092606D01*
X0079470Y0091807D02*
X0101391Y0091807D01*
X0100592Y0091009D02*
X0079470Y0091009D01*
X0079748Y0090210D02*
X0099794Y0090210D01*
X0098995Y0089412D02*
X0079920Y0089412D01*
X0079920Y0088613D02*
X0098197Y0088613D01*
X0097398Y0087815D02*
X0079602Y0087815D01*
X0070094Y0107778D02*
X0056875Y0107778D01*
X0057781Y0108576D02*
X0069186Y0108576D01*
X0068388Y0109375D02*
X0058191Y0109375D01*
X0058380Y0110173D02*
X0067589Y0110173D01*
X0066791Y0110972D02*
X0058380Y0110972D01*
X0058080Y0111770D02*
X0065992Y0111770D01*
X0065194Y0112569D02*
X0062613Y0112569D01*
X0062830Y0113367D02*
X0064395Y0113367D01*
X0063597Y0114166D02*
X0062830Y0114166D01*
X0066958Y0118158D02*
X0068640Y0118158D01*
X0068640Y0117360D02*
X0067756Y0117360D01*
X0068555Y0116561D02*
X0068640Y0116561D01*
X0068640Y0118957D02*
X0066159Y0118957D01*
X0065361Y0119755D02*
X0068640Y0119755D01*
X0068640Y0120554D02*
X0064562Y0120554D01*
X0063764Y0121352D02*
X0068640Y0121352D01*
X0068640Y0122151D02*
X0062965Y0122151D01*
X0062167Y0122949D02*
X0068640Y0122949D01*
X0068640Y0123748D02*
X0061368Y0123748D01*
X0062134Y0122982D02*
X0062134Y0122982D01*
X0060570Y0124546D02*
X0068640Y0124546D01*
X0068950Y0125345D02*
X0059771Y0125345D01*
X0058973Y0126143D02*
X0069628Y0126143D01*
X0069767Y0126283D02*
X0069767Y0126283D01*
X0070426Y0126942D02*
X0058174Y0126942D01*
X0057376Y0127740D02*
X0071225Y0127740D01*
X0072023Y0128539D02*
X0056577Y0128539D01*
X0055779Y0129337D02*
X0072822Y0129337D01*
X0073620Y0130136D02*
X0054980Y0130136D01*
X0054182Y0130934D02*
X0074419Y0130934D01*
X0075217Y0131733D02*
X0053383Y0131733D01*
X0052585Y0132531D02*
X0076016Y0132531D01*
X0076814Y0133330D02*
X0051786Y0133330D01*
X0050988Y0134128D02*
X0077613Y0134128D01*
X0078411Y0134927D02*
X0050189Y0134927D01*
X0049391Y0135726D02*
X0079210Y0135726D01*
X0080008Y0136524D02*
X0048592Y0136524D01*
X0045430Y0140517D02*
X0019370Y0140517D01*
X0019370Y0141315D02*
X0045101Y0141315D01*
X0045101Y0142114D02*
X0019370Y0142114D01*
X0019370Y0142912D02*
X0045101Y0142912D01*
X0045101Y0143711D02*
X0019370Y0143711D01*
X0019370Y0144509D02*
X0045101Y0144509D01*
X0045101Y0145308D02*
X0019370Y0145308D01*
X0019370Y0146106D02*
X0045101Y0146106D01*
X0045101Y0146905D02*
X0029713Y0146905D01*
X0031907Y0147703D02*
X0045101Y0147703D01*
X0045101Y0148502D02*
X0032963Y0148502D01*
X0032092Y0147771D02*
X0032092Y0147771D01*
X0033915Y0149300D02*
X0045214Y0149300D01*
X0045544Y0150099D02*
X0034731Y0150099D01*
X0034604Y0149879D02*
X0034604Y0149879D01*
X0034604Y0149879D01*
X0035192Y0150897D02*
X0045990Y0150897D01*
X0046789Y0151696D02*
X0035653Y0151696D01*
X0036114Y0152494D02*
X0048312Y0152494D01*
X0036627Y0154890D02*
X0062824Y0154890D01*
X0061522Y0155688D02*
X0036768Y0155688D01*
X0036814Y0155949D02*
X0036814Y0155949D01*
X0036719Y0156487D02*
X0060826Y0156487D01*
X0060381Y0157285D02*
X0036578Y0157285D01*
X0036437Y0158084D02*
X0060147Y0158084D01*
X0072205Y0162875D02*
X0171156Y0162875D01*
X0170204Y0162076D02*
X0073351Y0162076D01*
X0074011Y0161278D02*
X0169708Y0161278D01*
X0169247Y0160479D02*
X0128952Y0160479D01*
X0129609Y0159681D02*
X0168786Y0159681D01*
X0172108Y0163673D02*
X0032633Y0163673D01*
X0036244Y0152719D02*
X0036244Y0152719D01*
X0025027Y0146905D02*
X0019370Y0146905D01*
X0019370Y0147703D02*
X0022833Y0147703D01*
X0021777Y0148502D02*
X0019370Y0148502D01*
X0019370Y0149300D02*
X0020825Y0149300D01*
X0020009Y0150099D02*
X0019370Y0150099D01*
X0019370Y0150897D02*
X0019548Y0150897D01*
X0039353Y0134128D02*
X0043634Y0134128D01*
X0044432Y0133330D02*
X0039370Y0133330D01*
X0039370Y0132531D02*
X0045231Y0132531D01*
X0046029Y0131733D02*
X0039370Y0131733D01*
X0039370Y0130934D02*
X0046828Y0130934D01*
X0047626Y0130136D02*
X0039370Y0130136D01*
X0039370Y0129337D02*
X0048425Y0129337D01*
X0049223Y0128539D02*
X0039370Y0128539D01*
X0039324Y0127740D02*
X0050022Y0127740D01*
X0050820Y0126942D02*
X0038526Y0126942D01*
X0038489Y0126143D02*
X0051619Y0126143D01*
X0052417Y0125345D02*
X0039093Y0125345D01*
X0039420Y0124546D02*
X0053216Y0124546D01*
X0054014Y0123748D02*
X0039420Y0123748D01*
X0039257Y0122949D02*
X0054813Y0122949D01*
X0055611Y0122151D02*
X0038885Y0122151D01*
X0026214Y0126942D02*
X0025746Y0126942D01*
X0049574Y0086466D02*
X0049574Y0086466D01*
X0073840Y0115763D02*
X0142164Y0115763D01*
X0141833Y0116561D02*
X0073840Y0116561D01*
X0073840Y0117360D02*
X0141820Y0117360D01*
X0141966Y0118158D02*
X0073840Y0118158D01*
X0073840Y0118957D02*
X0085689Y0118957D01*
X0084180Y0119755D02*
X0073840Y0119755D01*
X0073840Y0120554D02*
X0083382Y0120554D01*
X0082942Y0121352D02*
X0073840Y0121352D01*
X0073840Y0122151D02*
X0082611Y0122151D01*
X0082502Y0122949D02*
X0073840Y0122949D01*
X0074586Y0123748D02*
X0082502Y0123748D01*
X0082502Y0124546D02*
X0075385Y0124546D01*
X0076183Y0125345D02*
X0082502Y0125345D01*
X0082502Y0126143D02*
X0076982Y0126143D01*
X0077780Y0126942D02*
X0082502Y0126942D01*
X0082502Y0127740D02*
X0078579Y0127740D01*
X0079377Y0128539D02*
X0082502Y0128539D01*
X0082502Y0129337D02*
X0080176Y0129337D01*
X0080974Y0130136D02*
X0082505Y0130136D01*
X0082836Y0130934D02*
X0081773Y0130934D01*
X0082571Y0131733D02*
X0083166Y0131733D01*
X0083370Y0132531D02*
X0083924Y0132531D01*
X0084168Y0133330D02*
X0085070Y0133330D01*
X0084967Y0134128D02*
X0117377Y0134128D01*
X0116992Y0134927D02*
X0085765Y0134927D01*
X0091168Y0121352D02*
X0142930Y0121352D01*
X0142930Y0120554D02*
X0090729Y0120554D01*
X0089930Y0119755D02*
X0142930Y0119755D01*
X0142315Y0118957D02*
X0088421Y0118957D01*
X0127320Y0128539D02*
X0136617Y0128539D01*
X0136845Y0107778D02*
X0178370Y0107778D01*
X0179157Y0106979D02*
X0137235Y0106979D01*
X0184199Y0106181D02*
X0185370Y0106181D01*
X0177239Y0049486D02*
X0128519Y0049486D01*
X0129455Y0048688D02*
X0177570Y0048688D01*
X0177934Y0047889D02*
X0129877Y0047889D01*
X0130075Y0047091D02*
X0178733Y0047091D01*
X0179762Y0046292D02*
X0130075Y0046292D01*
X0129784Y0045494D02*
X0180056Y0045494D01*
X0178904Y0044695D02*
X0129230Y0044695D01*
X0127977Y0043897D02*
X0178208Y0043897D01*
X0177741Y0043098D02*
X0126996Y0043098D01*
X0126198Y0042300D02*
X0177447Y0042300D01*
X0177294Y0041501D02*
X0125399Y0041501D01*
X0124601Y0040703D02*
X0181970Y0040703D01*
X0181970Y0039904D02*
X0182770Y0039904D01*
X0182770Y0039106D02*
X0181970Y0039106D01*
X0181970Y0038307D02*
X0182770Y0038307D01*
X0182770Y0037509D02*
X0181970Y0037509D01*
X0181970Y0036710D02*
X0182770Y0036710D01*
X0182770Y0035912D02*
X0181970Y0035912D01*
X0181572Y0035912D02*
X0120956Y0035912D01*
X0121470Y0036710D02*
X0179528Y0036710D01*
X0178598Y0037509D02*
X0121470Y0037509D01*
X0121470Y0038307D02*
X0177992Y0038307D01*
X0177607Y0039106D02*
X0121470Y0039106D01*
X0123264Y0039904D02*
X0177372Y0039904D01*
X0179383Y0035113D02*
X0185370Y0035113D01*
X0185370Y0034315D02*
X0181577Y0034315D01*
X0182092Y0034127D02*
X0182092Y0034127D01*
X0182820Y0033516D02*
X0185370Y0033516D01*
X0185370Y0032718D02*
X0183772Y0032718D01*
X0184604Y0032019D02*
X0184604Y0032019D01*
X0184662Y0031919D02*
X0185370Y0031919D01*
X0185370Y0031121D02*
X0185123Y0031121D01*
X0185370Y0035912D02*
X0183168Y0035912D01*
X0185213Y0036710D02*
X0185370Y0036710D01*
X0175357Y0035113D02*
X0119320Y0035113D01*
X0119320Y0034315D02*
X0173164Y0034315D01*
X0172648Y0034127D02*
X0172648Y0034127D01*
X0171920Y0033516D02*
X0119576Y0033516D01*
X0120188Y0032718D02*
X0170969Y0032718D01*
X0170078Y0031919D02*
X0120519Y0031919D01*
X0120520Y0031121D02*
X0169617Y0031121D01*
X0169156Y0030322D02*
X0120363Y0030322D01*
X0119998Y0029524D02*
X0168695Y0029524D01*
X0168000Y0025531D02*
X0155157Y0025531D01*
X0156082Y0024732D02*
X0168141Y0024732D01*
X0168282Y0023934D02*
X0156870Y0023934D01*
X0157201Y0023135D02*
X0168423Y0023135D01*
X0168496Y0022719D02*
X0168496Y0022719D01*
X0168717Y0022337D02*
X0157532Y0022337D01*
X0157670Y0021538D02*
X0169178Y0021538D01*
X0169639Y0020740D02*
X0157670Y0020740D01*
X0157670Y0019941D02*
X0170100Y0019941D01*
X0171013Y0019143D02*
X0157359Y0019143D01*
X0157028Y0018344D02*
X0171965Y0018344D01*
X0122837Y0046292D02*
X0112455Y0046292D01*
X0116512Y0045494D02*
X0122038Y0045494D01*
X0113270Y0040703D02*
X0112690Y0040703D01*
D11*
X0170870Y0025949D02*
X0170872Y0026110D01*
X0170878Y0026270D01*
X0170888Y0026431D01*
X0170902Y0026591D01*
X0170920Y0026751D01*
X0170941Y0026910D01*
X0170967Y0027069D01*
X0170997Y0027227D01*
X0171030Y0027384D01*
X0171068Y0027541D01*
X0171109Y0027696D01*
X0171154Y0027850D01*
X0171203Y0028003D01*
X0171256Y0028155D01*
X0171312Y0028306D01*
X0171373Y0028455D01*
X0171436Y0028603D01*
X0171504Y0028749D01*
X0171575Y0028893D01*
X0171649Y0029035D01*
X0171727Y0029176D01*
X0171809Y0029314D01*
X0171894Y0029451D01*
X0171982Y0029585D01*
X0172074Y0029717D01*
X0172169Y0029847D01*
X0172267Y0029975D01*
X0172368Y0030100D01*
X0172472Y0030222D01*
X0172579Y0030342D01*
X0172689Y0030459D01*
X0172802Y0030574D01*
X0172918Y0030685D01*
X0173037Y0030794D01*
X0173158Y0030899D01*
X0173282Y0031002D01*
X0173408Y0031102D01*
X0173536Y0031198D01*
X0173667Y0031291D01*
X0173801Y0031381D01*
X0173936Y0031468D01*
X0174074Y0031551D01*
X0174213Y0031631D01*
X0174355Y0031707D01*
X0174498Y0031780D01*
X0174643Y0031849D01*
X0174790Y0031915D01*
X0174938Y0031977D01*
X0175088Y0032035D01*
X0175239Y0032090D01*
X0175392Y0032141D01*
X0175546Y0032188D01*
X0175701Y0032231D01*
X0175857Y0032270D01*
X0176013Y0032306D01*
X0176171Y0032337D01*
X0176329Y0032365D01*
X0176488Y0032389D01*
X0176648Y0032409D01*
X0176808Y0032425D01*
X0176968Y0032437D01*
X0177129Y0032445D01*
X0177290Y0032449D01*
X0177450Y0032449D01*
X0177611Y0032445D01*
X0177772Y0032437D01*
X0177932Y0032425D01*
X0178092Y0032409D01*
X0178252Y0032389D01*
X0178411Y0032365D01*
X0178569Y0032337D01*
X0178727Y0032306D01*
X0178883Y0032270D01*
X0179039Y0032231D01*
X0179194Y0032188D01*
X0179348Y0032141D01*
X0179501Y0032090D01*
X0179652Y0032035D01*
X0179802Y0031977D01*
X0179950Y0031915D01*
X0180097Y0031849D01*
X0180242Y0031780D01*
X0180385Y0031707D01*
X0180527Y0031631D01*
X0180666Y0031551D01*
X0180804Y0031468D01*
X0180939Y0031381D01*
X0181073Y0031291D01*
X0181204Y0031198D01*
X0181332Y0031102D01*
X0181458Y0031002D01*
X0181582Y0030899D01*
X0181703Y0030794D01*
X0181822Y0030685D01*
X0181938Y0030574D01*
X0182051Y0030459D01*
X0182161Y0030342D01*
X0182268Y0030222D01*
X0182372Y0030100D01*
X0182473Y0029975D01*
X0182571Y0029847D01*
X0182666Y0029717D01*
X0182758Y0029585D01*
X0182846Y0029451D01*
X0182931Y0029314D01*
X0183013Y0029176D01*
X0183091Y0029035D01*
X0183165Y0028893D01*
X0183236Y0028749D01*
X0183304Y0028603D01*
X0183367Y0028455D01*
X0183428Y0028306D01*
X0183484Y0028155D01*
X0183537Y0028003D01*
X0183586Y0027850D01*
X0183631Y0027696D01*
X0183672Y0027541D01*
X0183710Y0027384D01*
X0183743Y0027227D01*
X0183773Y0027069D01*
X0183799Y0026910D01*
X0183820Y0026751D01*
X0183838Y0026591D01*
X0183852Y0026431D01*
X0183862Y0026270D01*
X0183868Y0026110D01*
X0183870Y0025949D01*
X0183868Y0025788D01*
X0183862Y0025628D01*
X0183852Y0025467D01*
X0183838Y0025307D01*
X0183820Y0025147D01*
X0183799Y0024988D01*
X0183773Y0024829D01*
X0183743Y0024671D01*
X0183710Y0024514D01*
X0183672Y0024357D01*
X0183631Y0024202D01*
X0183586Y0024048D01*
X0183537Y0023895D01*
X0183484Y0023743D01*
X0183428Y0023592D01*
X0183367Y0023443D01*
X0183304Y0023295D01*
X0183236Y0023149D01*
X0183165Y0023005D01*
X0183091Y0022863D01*
X0183013Y0022722D01*
X0182931Y0022584D01*
X0182846Y0022447D01*
X0182758Y0022313D01*
X0182666Y0022181D01*
X0182571Y0022051D01*
X0182473Y0021923D01*
X0182372Y0021798D01*
X0182268Y0021676D01*
X0182161Y0021556D01*
X0182051Y0021439D01*
X0181938Y0021324D01*
X0181822Y0021213D01*
X0181703Y0021104D01*
X0181582Y0020999D01*
X0181458Y0020896D01*
X0181332Y0020796D01*
X0181204Y0020700D01*
X0181073Y0020607D01*
X0180939Y0020517D01*
X0180804Y0020430D01*
X0180666Y0020347D01*
X0180527Y0020267D01*
X0180385Y0020191D01*
X0180242Y0020118D01*
X0180097Y0020049D01*
X0179950Y0019983D01*
X0179802Y0019921D01*
X0179652Y0019863D01*
X0179501Y0019808D01*
X0179348Y0019757D01*
X0179194Y0019710D01*
X0179039Y0019667D01*
X0178883Y0019628D01*
X0178727Y0019592D01*
X0178569Y0019561D01*
X0178411Y0019533D01*
X0178252Y0019509D01*
X0178092Y0019489D01*
X0177932Y0019473D01*
X0177772Y0019461D01*
X0177611Y0019453D01*
X0177450Y0019449D01*
X0177290Y0019449D01*
X0177129Y0019453D01*
X0176968Y0019461D01*
X0176808Y0019473D01*
X0176648Y0019489D01*
X0176488Y0019509D01*
X0176329Y0019533D01*
X0176171Y0019561D01*
X0176013Y0019592D01*
X0175857Y0019628D01*
X0175701Y0019667D01*
X0175546Y0019710D01*
X0175392Y0019757D01*
X0175239Y0019808D01*
X0175088Y0019863D01*
X0174938Y0019921D01*
X0174790Y0019983D01*
X0174643Y0020049D01*
X0174498Y0020118D01*
X0174355Y0020191D01*
X0174213Y0020267D01*
X0174074Y0020347D01*
X0173936Y0020430D01*
X0173801Y0020517D01*
X0173667Y0020607D01*
X0173536Y0020700D01*
X0173408Y0020796D01*
X0173282Y0020896D01*
X0173158Y0020999D01*
X0173037Y0021104D01*
X0172918Y0021213D01*
X0172802Y0021324D01*
X0172689Y0021439D01*
X0172579Y0021556D01*
X0172472Y0021676D01*
X0172368Y0021798D01*
X0172267Y0021923D01*
X0172169Y0022051D01*
X0172074Y0022181D01*
X0171982Y0022313D01*
X0171894Y0022447D01*
X0171809Y0022584D01*
X0171727Y0022722D01*
X0171649Y0022863D01*
X0171575Y0023005D01*
X0171504Y0023149D01*
X0171436Y0023295D01*
X0171373Y0023443D01*
X0171312Y0023592D01*
X0171256Y0023743D01*
X0171203Y0023895D01*
X0171154Y0024048D01*
X0171109Y0024202D01*
X0171068Y0024357D01*
X0171030Y0024514D01*
X0170997Y0024671D01*
X0170967Y0024829D01*
X0170941Y0024988D01*
X0170920Y0025147D01*
X0170902Y0025307D01*
X0170888Y0025467D01*
X0170878Y0025628D01*
X0170872Y0025788D01*
X0170870Y0025949D01*
X0170870Y0155949D02*
X0170872Y0156110D01*
X0170878Y0156270D01*
X0170888Y0156431D01*
X0170902Y0156591D01*
X0170920Y0156751D01*
X0170941Y0156910D01*
X0170967Y0157069D01*
X0170997Y0157227D01*
X0171030Y0157384D01*
X0171068Y0157541D01*
X0171109Y0157696D01*
X0171154Y0157850D01*
X0171203Y0158003D01*
X0171256Y0158155D01*
X0171312Y0158306D01*
X0171373Y0158455D01*
X0171436Y0158603D01*
X0171504Y0158749D01*
X0171575Y0158893D01*
X0171649Y0159035D01*
X0171727Y0159176D01*
X0171809Y0159314D01*
X0171894Y0159451D01*
X0171982Y0159585D01*
X0172074Y0159717D01*
X0172169Y0159847D01*
X0172267Y0159975D01*
X0172368Y0160100D01*
X0172472Y0160222D01*
X0172579Y0160342D01*
X0172689Y0160459D01*
X0172802Y0160574D01*
X0172918Y0160685D01*
X0173037Y0160794D01*
X0173158Y0160899D01*
X0173282Y0161002D01*
X0173408Y0161102D01*
X0173536Y0161198D01*
X0173667Y0161291D01*
X0173801Y0161381D01*
X0173936Y0161468D01*
X0174074Y0161551D01*
X0174213Y0161631D01*
X0174355Y0161707D01*
X0174498Y0161780D01*
X0174643Y0161849D01*
X0174790Y0161915D01*
X0174938Y0161977D01*
X0175088Y0162035D01*
X0175239Y0162090D01*
X0175392Y0162141D01*
X0175546Y0162188D01*
X0175701Y0162231D01*
X0175857Y0162270D01*
X0176013Y0162306D01*
X0176171Y0162337D01*
X0176329Y0162365D01*
X0176488Y0162389D01*
X0176648Y0162409D01*
X0176808Y0162425D01*
X0176968Y0162437D01*
X0177129Y0162445D01*
X0177290Y0162449D01*
X0177450Y0162449D01*
X0177611Y0162445D01*
X0177772Y0162437D01*
X0177932Y0162425D01*
X0178092Y0162409D01*
X0178252Y0162389D01*
X0178411Y0162365D01*
X0178569Y0162337D01*
X0178727Y0162306D01*
X0178883Y0162270D01*
X0179039Y0162231D01*
X0179194Y0162188D01*
X0179348Y0162141D01*
X0179501Y0162090D01*
X0179652Y0162035D01*
X0179802Y0161977D01*
X0179950Y0161915D01*
X0180097Y0161849D01*
X0180242Y0161780D01*
X0180385Y0161707D01*
X0180527Y0161631D01*
X0180666Y0161551D01*
X0180804Y0161468D01*
X0180939Y0161381D01*
X0181073Y0161291D01*
X0181204Y0161198D01*
X0181332Y0161102D01*
X0181458Y0161002D01*
X0181582Y0160899D01*
X0181703Y0160794D01*
X0181822Y0160685D01*
X0181938Y0160574D01*
X0182051Y0160459D01*
X0182161Y0160342D01*
X0182268Y0160222D01*
X0182372Y0160100D01*
X0182473Y0159975D01*
X0182571Y0159847D01*
X0182666Y0159717D01*
X0182758Y0159585D01*
X0182846Y0159451D01*
X0182931Y0159314D01*
X0183013Y0159176D01*
X0183091Y0159035D01*
X0183165Y0158893D01*
X0183236Y0158749D01*
X0183304Y0158603D01*
X0183367Y0158455D01*
X0183428Y0158306D01*
X0183484Y0158155D01*
X0183537Y0158003D01*
X0183586Y0157850D01*
X0183631Y0157696D01*
X0183672Y0157541D01*
X0183710Y0157384D01*
X0183743Y0157227D01*
X0183773Y0157069D01*
X0183799Y0156910D01*
X0183820Y0156751D01*
X0183838Y0156591D01*
X0183852Y0156431D01*
X0183862Y0156270D01*
X0183868Y0156110D01*
X0183870Y0155949D01*
X0183868Y0155788D01*
X0183862Y0155628D01*
X0183852Y0155467D01*
X0183838Y0155307D01*
X0183820Y0155147D01*
X0183799Y0154988D01*
X0183773Y0154829D01*
X0183743Y0154671D01*
X0183710Y0154514D01*
X0183672Y0154357D01*
X0183631Y0154202D01*
X0183586Y0154048D01*
X0183537Y0153895D01*
X0183484Y0153743D01*
X0183428Y0153592D01*
X0183367Y0153443D01*
X0183304Y0153295D01*
X0183236Y0153149D01*
X0183165Y0153005D01*
X0183091Y0152863D01*
X0183013Y0152722D01*
X0182931Y0152584D01*
X0182846Y0152447D01*
X0182758Y0152313D01*
X0182666Y0152181D01*
X0182571Y0152051D01*
X0182473Y0151923D01*
X0182372Y0151798D01*
X0182268Y0151676D01*
X0182161Y0151556D01*
X0182051Y0151439D01*
X0181938Y0151324D01*
X0181822Y0151213D01*
X0181703Y0151104D01*
X0181582Y0150999D01*
X0181458Y0150896D01*
X0181332Y0150796D01*
X0181204Y0150700D01*
X0181073Y0150607D01*
X0180939Y0150517D01*
X0180804Y0150430D01*
X0180666Y0150347D01*
X0180527Y0150267D01*
X0180385Y0150191D01*
X0180242Y0150118D01*
X0180097Y0150049D01*
X0179950Y0149983D01*
X0179802Y0149921D01*
X0179652Y0149863D01*
X0179501Y0149808D01*
X0179348Y0149757D01*
X0179194Y0149710D01*
X0179039Y0149667D01*
X0178883Y0149628D01*
X0178727Y0149592D01*
X0178569Y0149561D01*
X0178411Y0149533D01*
X0178252Y0149509D01*
X0178092Y0149489D01*
X0177932Y0149473D01*
X0177772Y0149461D01*
X0177611Y0149453D01*
X0177450Y0149449D01*
X0177290Y0149449D01*
X0177129Y0149453D01*
X0176968Y0149461D01*
X0176808Y0149473D01*
X0176648Y0149489D01*
X0176488Y0149509D01*
X0176329Y0149533D01*
X0176171Y0149561D01*
X0176013Y0149592D01*
X0175857Y0149628D01*
X0175701Y0149667D01*
X0175546Y0149710D01*
X0175392Y0149757D01*
X0175239Y0149808D01*
X0175088Y0149863D01*
X0174938Y0149921D01*
X0174790Y0149983D01*
X0174643Y0150049D01*
X0174498Y0150118D01*
X0174355Y0150191D01*
X0174213Y0150267D01*
X0174074Y0150347D01*
X0173936Y0150430D01*
X0173801Y0150517D01*
X0173667Y0150607D01*
X0173536Y0150700D01*
X0173408Y0150796D01*
X0173282Y0150896D01*
X0173158Y0150999D01*
X0173037Y0151104D01*
X0172918Y0151213D01*
X0172802Y0151324D01*
X0172689Y0151439D01*
X0172579Y0151556D01*
X0172472Y0151676D01*
X0172368Y0151798D01*
X0172267Y0151923D01*
X0172169Y0152051D01*
X0172074Y0152181D01*
X0171982Y0152313D01*
X0171894Y0152447D01*
X0171809Y0152584D01*
X0171727Y0152722D01*
X0171649Y0152863D01*
X0171575Y0153005D01*
X0171504Y0153149D01*
X0171436Y0153295D01*
X0171373Y0153443D01*
X0171312Y0153592D01*
X0171256Y0153743D01*
X0171203Y0153895D01*
X0171154Y0154048D01*
X0171109Y0154202D01*
X0171068Y0154357D01*
X0171030Y0154514D01*
X0170997Y0154671D01*
X0170967Y0154829D01*
X0170941Y0154988D01*
X0170920Y0155147D01*
X0170902Y0155307D01*
X0170888Y0155467D01*
X0170878Y0155628D01*
X0170872Y0155788D01*
X0170870Y0155949D01*
X0020870Y0155949D02*
X0020872Y0156110D01*
X0020878Y0156270D01*
X0020888Y0156431D01*
X0020902Y0156591D01*
X0020920Y0156751D01*
X0020941Y0156910D01*
X0020967Y0157069D01*
X0020997Y0157227D01*
X0021030Y0157384D01*
X0021068Y0157541D01*
X0021109Y0157696D01*
X0021154Y0157850D01*
X0021203Y0158003D01*
X0021256Y0158155D01*
X0021312Y0158306D01*
X0021373Y0158455D01*
X0021436Y0158603D01*
X0021504Y0158749D01*
X0021575Y0158893D01*
X0021649Y0159035D01*
X0021727Y0159176D01*
X0021809Y0159314D01*
X0021894Y0159451D01*
X0021982Y0159585D01*
X0022074Y0159717D01*
X0022169Y0159847D01*
X0022267Y0159975D01*
X0022368Y0160100D01*
X0022472Y0160222D01*
X0022579Y0160342D01*
X0022689Y0160459D01*
X0022802Y0160574D01*
X0022918Y0160685D01*
X0023037Y0160794D01*
X0023158Y0160899D01*
X0023282Y0161002D01*
X0023408Y0161102D01*
X0023536Y0161198D01*
X0023667Y0161291D01*
X0023801Y0161381D01*
X0023936Y0161468D01*
X0024074Y0161551D01*
X0024213Y0161631D01*
X0024355Y0161707D01*
X0024498Y0161780D01*
X0024643Y0161849D01*
X0024790Y0161915D01*
X0024938Y0161977D01*
X0025088Y0162035D01*
X0025239Y0162090D01*
X0025392Y0162141D01*
X0025546Y0162188D01*
X0025701Y0162231D01*
X0025857Y0162270D01*
X0026013Y0162306D01*
X0026171Y0162337D01*
X0026329Y0162365D01*
X0026488Y0162389D01*
X0026648Y0162409D01*
X0026808Y0162425D01*
X0026968Y0162437D01*
X0027129Y0162445D01*
X0027290Y0162449D01*
X0027450Y0162449D01*
X0027611Y0162445D01*
X0027772Y0162437D01*
X0027932Y0162425D01*
X0028092Y0162409D01*
X0028252Y0162389D01*
X0028411Y0162365D01*
X0028569Y0162337D01*
X0028727Y0162306D01*
X0028883Y0162270D01*
X0029039Y0162231D01*
X0029194Y0162188D01*
X0029348Y0162141D01*
X0029501Y0162090D01*
X0029652Y0162035D01*
X0029802Y0161977D01*
X0029950Y0161915D01*
X0030097Y0161849D01*
X0030242Y0161780D01*
X0030385Y0161707D01*
X0030527Y0161631D01*
X0030666Y0161551D01*
X0030804Y0161468D01*
X0030939Y0161381D01*
X0031073Y0161291D01*
X0031204Y0161198D01*
X0031332Y0161102D01*
X0031458Y0161002D01*
X0031582Y0160899D01*
X0031703Y0160794D01*
X0031822Y0160685D01*
X0031938Y0160574D01*
X0032051Y0160459D01*
X0032161Y0160342D01*
X0032268Y0160222D01*
X0032372Y0160100D01*
X0032473Y0159975D01*
X0032571Y0159847D01*
X0032666Y0159717D01*
X0032758Y0159585D01*
X0032846Y0159451D01*
X0032931Y0159314D01*
X0033013Y0159176D01*
X0033091Y0159035D01*
X0033165Y0158893D01*
X0033236Y0158749D01*
X0033304Y0158603D01*
X0033367Y0158455D01*
X0033428Y0158306D01*
X0033484Y0158155D01*
X0033537Y0158003D01*
X0033586Y0157850D01*
X0033631Y0157696D01*
X0033672Y0157541D01*
X0033710Y0157384D01*
X0033743Y0157227D01*
X0033773Y0157069D01*
X0033799Y0156910D01*
X0033820Y0156751D01*
X0033838Y0156591D01*
X0033852Y0156431D01*
X0033862Y0156270D01*
X0033868Y0156110D01*
X0033870Y0155949D01*
X0033868Y0155788D01*
X0033862Y0155628D01*
X0033852Y0155467D01*
X0033838Y0155307D01*
X0033820Y0155147D01*
X0033799Y0154988D01*
X0033773Y0154829D01*
X0033743Y0154671D01*
X0033710Y0154514D01*
X0033672Y0154357D01*
X0033631Y0154202D01*
X0033586Y0154048D01*
X0033537Y0153895D01*
X0033484Y0153743D01*
X0033428Y0153592D01*
X0033367Y0153443D01*
X0033304Y0153295D01*
X0033236Y0153149D01*
X0033165Y0153005D01*
X0033091Y0152863D01*
X0033013Y0152722D01*
X0032931Y0152584D01*
X0032846Y0152447D01*
X0032758Y0152313D01*
X0032666Y0152181D01*
X0032571Y0152051D01*
X0032473Y0151923D01*
X0032372Y0151798D01*
X0032268Y0151676D01*
X0032161Y0151556D01*
X0032051Y0151439D01*
X0031938Y0151324D01*
X0031822Y0151213D01*
X0031703Y0151104D01*
X0031582Y0150999D01*
X0031458Y0150896D01*
X0031332Y0150796D01*
X0031204Y0150700D01*
X0031073Y0150607D01*
X0030939Y0150517D01*
X0030804Y0150430D01*
X0030666Y0150347D01*
X0030527Y0150267D01*
X0030385Y0150191D01*
X0030242Y0150118D01*
X0030097Y0150049D01*
X0029950Y0149983D01*
X0029802Y0149921D01*
X0029652Y0149863D01*
X0029501Y0149808D01*
X0029348Y0149757D01*
X0029194Y0149710D01*
X0029039Y0149667D01*
X0028883Y0149628D01*
X0028727Y0149592D01*
X0028569Y0149561D01*
X0028411Y0149533D01*
X0028252Y0149509D01*
X0028092Y0149489D01*
X0027932Y0149473D01*
X0027772Y0149461D01*
X0027611Y0149453D01*
X0027450Y0149449D01*
X0027290Y0149449D01*
X0027129Y0149453D01*
X0026968Y0149461D01*
X0026808Y0149473D01*
X0026648Y0149489D01*
X0026488Y0149509D01*
X0026329Y0149533D01*
X0026171Y0149561D01*
X0026013Y0149592D01*
X0025857Y0149628D01*
X0025701Y0149667D01*
X0025546Y0149710D01*
X0025392Y0149757D01*
X0025239Y0149808D01*
X0025088Y0149863D01*
X0024938Y0149921D01*
X0024790Y0149983D01*
X0024643Y0150049D01*
X0024498Y0150118D01*
X0024355Y0150191D01*
X0024213Y0150267D01*
X0024074Y0150347D01*
X0023936Y0150430D01*
X0023801Y0150517D01*
X0023667Y0150607D01*
X0023536Y0150700D01*
X0023408Y0150796D01*
X0023282Y0150896D01*
X0023158Y0150999D01*
X0023037Y0151104D01*
X0022918Y0151213D01*
X0022802Y0151324D01*
X0022689Y0151439D01*
X0022579Y0151556D01*
X0022472Y0151676D01*
X0022368Y0151798D01*
X0022267Y0151923D01*
X0022169Y0152051D01*
X0022074Y0152181D01*
X0021982Y0152313D01*
X0021894Y0152447D01*
X0021809Y0152584D01*
X0021727Y0152722D01*
X0021649Y0152863D01*
X0021575Y0153005D01*
X0021504Y0153149D01*
X0021436Y0153295D01*
X0021373Y0153443D01*
X0021312Y0153592D01*
X0021256Y0153743D01*
X0021203Y0153895D01*
X0021154Y0154048D01*
X0021109Y0154202D01*
X0021068Y0154357D01*
X0021030Y0154514D01*
X0020997Y0154671D01*
X0020967Y0154829D01*
X0020941Y0154988D01*
X0020920Y0155147D01*
X0020902Y0155307D01*
X0020888Y0155467D01*
X0020878Y0155628D01*
X0020872Y0155788D01*
X0020870Y0155949D01*
X0020870Y0025949D02*
X0020872Y0026110D01*
X0020878Y0026270D01*
X0020888Y0026431D01*
X0020902Y0026591D01*
X0020920Y0026751D01*
X0020941Y0026910D01*
X0020967Y0027069D01*
X0020997Y0027227D01*
X0021030Y0027384D01*
X0021068Y0027541D01*
X0021109Y0027696D01*
X0021154Y0027850D01*
X0021203Y0028003D01*
X0021256Y0028155D01*
X0021312Y0028306D01*
X0021373Y0028455D01*
X0021436Y0028603D01*
X0021504Y0028749D01*
X0021575Y0028893D01*
X0021649Y0029035D01*
X0021727Y0029176D01*
X0021809Y0029314D01*
X0021894Y0029451D01*
X0021982Y0029585D01*
X0022074Y0029717D01*
X0022169Y0029847D01*
X0022267Y0029975D01*
X0022368Y0030100D01*
X0022472Y0030222D01*
X0022579Y0030342D01*
X0022689Y0030459D01*
X0022802Y0030574D01*
X0022918Y0030685D01*
X0023037Y0030794D01*
X0023158Y0030899D01*
X0023282Y0031002D01*
X0023408Y0031102D01*
X0023536Y0031198D01*
X0023667Y0031291D01*
X0023801Y0031381D01*
X0023936Y0031468D01*
X0024074Y0031551D01*
X0024213Y0031631D01*
X0024355Y0031707D01*
X0024498Y0031780D01*
X0024643Y0031849D01*
X0024790Y0031915D01*
X0024938Y0031977D01*
X0025088Y0032035D01*
X0025239Y0032090D01*
X0025392Y0032141D01*
X0025546Y0032188D01*
X0025701Y0032231D01*
X0025857Y0032270D01*
X0026013Y0032306D01*
X0026171Y0032337D01*
X0026329Y0032365D01*
X0026488Y0032389D01*
X0026648Y0032409D01*
X0026808Y0032425D01*
X0026968Y0032437D01*
X0027129Y0032445D01*
X0027290Y0032449D01*
X0027450Y0032449D01*
X0027611Y0032445D01*
X0027772Y0032437D01*
X0027932Y0032425D01*
X0028092Y0032409D01*
X0028252Y0032389D01*
X0028411Y0032365D01*
X0028569Y0032337D01*
X0028727Y0032306D01*
X0028883Y0032270D01*
X0029039Y0032231D01*
X0029194Y0032188D01*
X0029348Y0032141D01*
X0029501Y0032090D01*
X0029652Y0032035D01*
X0029802Y0031977D01*
X0029950Y0031915D01*
X0030097Y0031849D01*
X0030242Y0031780D01*
X0030385Y0031707D01*
X0030527Y0031631D01*
X0030666Y0031551D01*
X0030804Y0031468D01*
X0030939Y0031381D01*
X0031073Y0031291D01*
X0031204Y0031198D01*
X0031332Y0031102D01*
X0031458Y0031002D01*
X0031582Y0030899D01*
X0031703Y0030794D01*
X0031822Y0030685D01*
X0031938Y0030574D01*
X0032051Y0030459D01*
X0032161Y0030342D01*
X0032268Y0030222D01*
X0032372Y0030100D01*
X0032473Y0029975D01*
X0032571Y0029847D01*
X0032666Y0029717D01*
X0032758Y0029585D01*
X0032846Y0029451D01*
X0032931Y0029314D01*
X0033013Y0029176D01*
X0033091Y0029035D01*
X0033165Y0028893D01*
X0033236Y0028749D01*
X0033304Y0028603D01*
X0033367Y0028455D01*
X0033428Y0028306D01*
X0033484Y0028155D01*
X0033537Y0028003D01*
X0033586Y0027850D01*
X0033631Y0027696D01*
X0033672Y0027541D01*
X0033710Y0027384D01*
X0033743Y0027227D01*
X0033773Y0027069D01*
X0033799Y0026910D01*
X0033820Y0026751D01*
X0033838Y0026591D01*
X0033852Y0026431D01*
X0033862Y0026270D01*
X0033868Y0026110D01*
X0033870Y0025949D01*
X0033868Y0025788D01*
X0033862Y0025628D01*
X0033852Y0025467D01*
X0033838Y0025307D01*
X0033820Y0025147D01*
X0033799Y0024988D01*
X0033773Y0024829D01*
X0033743Y0024671D01*
X0033710Y0024514D01*
X0033672Y0024357D01*
X0033631Y0024202D01*
X0033586Y0024048D01*
X0033537Y0023895D01*
X0033484Y0023743D01*
X0033428Y0023592D01*
X0033367Y0023443D01*
X0033304Y0023295D01*
X0033236Y0023149D01*
X0033165Y0023005D01*
X0033091Y0022863D01*
X0033013Y0022722D01*
X0032931Y0022584D01*
X0032846Y0022447D01*
X0032758Y0022313D01*
X0032666Y0022181D01*
X0032571Y0022051D01*
X0032473Y0021923D01*
X0032372Y0021798D01*
X0032268Y0021676D01*
X0032161Y0021556D01*
X0032051Y0021439D01*
X0031938Y0021324D01*
X0031822Y0021213D01*
X0031703Y0021104D01*
X0031582Y0020999D01*
X0031458Y0020896D01*
X0031332Y0020796D01*
X0031204Y0020700D01*
X0031073Y0020607D01*
X0030939Y0020517D01*
X0030804Y0020430D01*
X0030666Y0020347D01*
X0030527Y0020267D01*
X0030385Y0020191D01*
X0030242Y0020118D01*
X0030097Y0020049D01*
X0029950Y0019983D01*
X0029802Y0019921D01*
X0029652Y0019863D01*
X0029501Y0019808D01*
X0029348Y0019757D01*
X0029194Y0019710D01*
X0029039Y0019667D01*
X0028883Y0019628D01*
X0028727Y0019592D01*
X0028569Y0019561D01*
X0028411Y0019533D01*
X0028252Y0019509D01*
X0028092Y0019489D01*
X0027932Y0019473D01*
X0027772Y0019461D01*
X0027611Y0019453D01*
X0027450Y0019449D01*
X0027290Y0019449D01*
X0027129Y0019453D01*
X0026968Y0019461D01*
X0026808Y0019473D01*
X0026648Y0019489D01*
X0026488Y0019509D01*
X0026329Y0019533D01*
X0026171Y0019561D01*
X0026013Y0019592D01*
X0025857Y0019628D01*
X0025701Y0019667D01*
X0025546Y0019710D01*
X0025392Y0019757D01*
X0025239Y0019808D01*
X0025088Y0019863D01*
X0024938Y0019921D01*
X0024790Y0019983D01*
X0024643Y0020049D01*
X0024498Y0020118D01*
X0024355Y0020191D01*
X0024213Y0020267D01*
X0024074Y0020347D01*
X0023936Y0020430D01*
X0023801Y0020517D01*
X0023667Y0020607D01*
X0023536Y0020700D01*
X0023408Y0020796D01*
X0023282Y0020896D01*
X0023158Y0020999D01*
X0023037Y0021104D01*
X0022918Y0021213D01*
X0022802Y0021324D01*
X0022689Y0021439D01*
X0022579Y0021556D01*
X0022472Y0021676D01*
X0022368Y0021798D01*
X0022267Y0021923D01*
X0022169Y0022051D01*
X0022074Y0022181D01*
X0021982Y0022313D01*
X0021894Y0022447D01*
X0021809Y0022584D01*
X0021727Y0022722D01*
X0021649Y0022863D01*
X0021575Y0023005D01*
X0021504Y0023149D01*
X0021436Y0023295D01*
X0021373Y0023443D01*
X0021312Y0023592D01*
X0021256Y0023743D01*
X0021203Y0023895D01*
X0021154Y0024048D01*
X0021109Y0024202D01*
X0021068Y0024357D01*
X0021030Y0024514D01*
X0020997Y0024671D01*
X0020967Y0024829D01*
X0020941Y0024988D01*
X0020920Y0025147D01*
X0020902Y0025307D01*
X0020888Y0025467D01*
X0020878Y0025628D01*
X0020872Y0025788D01*
X0020870Y0025949D01*
D12*
X0055830Y0115949D03*
X0059930Y0115949D03*
X0036470Y0130949D03*
X0032370Y0130949D03*
X0028270Y0130949D03*
X0120320Y0130949D03*
X0124420Y0130949D03*
X0124420Y0140949D03*
X0120320Y0140949D03*
D13*
X0119620Y0140962D02*
X0123095Y0140962D01*
X0123095Y0140914D02*
X0119620Y0140914D01*
X0119620Y0140865D02*
X0123095Y0140865D01*
X0123095Y0140817D02*
X0119620Y0140817D01*
X0119620Y0140768D02*
X0123095Y0140768D01*
X0123095Y0140720D02*
X0119620Y0140720D01*
X0119620Y0140671D02*
X0123095Y0140671D01*
X0123095Y0140623D02*
X0119620Y0140623D01*
X0119620Y0140574D02*
X0123095Y0140574D01*
X0123095Y0140526D02*
X0119620Y0140526D01*
X0119620Y0140477D02*
X0123095Y0140477D01*
X0123095Y0140449D02*
X0123095Y0141449D01*
X0119620Y0141449D01*
X0119620Y0140449D01*
X0123095Y0140449D01*
X0123095Y0141011D02*
X0119620Y0141011D01*
X0119620Y0141060D02*
X0123095Y0141060D01*
X0123095Y0141108D02*
X0119620Y0141108D01*
X0119620Y0141157D02*
X0123095Y0141157D01*
X0123095Y0141205D02*
X0119620Y0141205D01*
X0119620Y0141254D02*
X0123095Y0141254D01*
X0123095Y0141302D02*
X0119620Y0141302D01*
X0119620Y0141351D02*
X0123095Y0141351D01*
X0123095Y0141399D02*
X0119620Y0141399D01*
X0119620Y0141448D02*
X0123095Y0141448D01*
X0123095Y0131449D02*
X0119620Y0131449D01*
X0119620Y0130449D01*
X0123095Y0130449D01*
X0123095Y0131449D01*
X0123095Y0131406D02*
X0119620Y0131406D01*
X0119620Y0131357D02*
X0123095Y0131357D01*
X0123095Y0131309D02*
X0119620Y0131309D01*
X0119620Y0131260D02*
X0123095Y0131260D01*
X0123095Y0131212D02*
X0119620Y0131212D01*
X0119620Y0131163D02*
X0123095Y0131163D01*
X0123095Y0131115D02*
X0119620Y0131115D01*
X0119620Y0131066D02*
X0123095Y0131066D01*
X0123095Y0131018D02*
X0119620Y0131018D01*
X0119620Y0130969D02*
X0123095Y0130969D01*
X0123095Y0130921D02*
X0119620Y0130921D01*
X0119620Y0130872D02*
X0123095Y0130872D01*
X0123095Y0130824D02*
X0119620Y0130824D01*
X0119620Y0130775D02*
X0123095Y0130775D01*
X0123095Y0130727D02*
X0119620Y0130727D01*
X0119620Y0130678D02*
X0123095Y0130678D01*
X0123095Y0130630D02*
X0119620Y0130630D01*
X0119620Y0130581D02*
X0123095Y0130581D01*
X0123095Y0130533D02*
X0119620Y0130533D01*
X0119620Y0130484D02*
X0123095Y0130484D01*
X0058605Y0116449D02*
X0058605Y0115449D01*
X0055130Y0115449D01*
X0055130Y0116449D01*
X0058605Y0116449D01*
X0058605Y0116416D02*
X0055130Y0116416D01*
X0055130Y0116367D02*
X0058605Y0116367D01*
X0058605Y0116319D02*
X0055130Y0116319D01*
X0055130Y0116270D02*
X0058605Y0116270D01*
X0058605Y0116222D02*
X0055130Y0116222D01*
X0055130Y0116173D02*
X0058605Y0116173D01*
X0058605Y0116125D02*
X0055130Y0116125D01*
X0055130Y0116076D02*
X0058605Y0116076D01*
X0058605Y0116028D02*
X0055130Y0116028D01*
X0055130Y0115979D02*
X0058605Y0115979D01*
X0058605Y0115931D02*
X0055130Y0115931D01*
X0055130Y0115882D02*
X0058605Y0115882D01*
X0058605Y0115834D02*
X0055130Y0115834D01*
X0055130Y0115785D02*
X0058605Y0115785D01*
X0058605Y0115737D02*
X0055130Y0115737D01*
X0055130Y0115688D02*
X0058605Y0115688D01*
X0058605Y0115640D02*
X0055130Y0115640D01*
X0055130Y0115591D02*
X0058605Y0115591D01*
X0058605Y0115543D02*
X0055130Y0115543D01*
X0055130Y0115494D02*
X0058605Y0115494D01*
X0035145Y0130449D02*
X0035145Y0131449D01*
X0029595Y0131449D01*
X0029595Y0130449D01*
X0035145Y0130449D01*
X0035145Y0130484D02*
X0029595Y0130484D01*
X0029595Y0130533D02*
X0035145Y0130533D01*
X0035145Y0130581D02*
X0029595Y0130581D01*
X0029595Y0130630D02*
X0035145Y0130630D01*
X0035145Y0130678D02*
X0029595Y0130678D01*
X0029595Y0130727D02*
X0035145Y0130727D01*
X0035145Y0130775D02*
X0029595Y0130775D01*
X0029595Y0130824D02*
X0035145Y0130824D01*
X0035145Y0130872D02*
X0029595Y0130872D01*
X0029595Y0130921D02*
X0035145Y0130921D01*
X0035145Y0130969D02*
X0029595Y0130969D01*
X0029595Y0131018D02*
X0035145Y0131018D01*
X0035145Y0131066D02*
X0029595Y0131066D01*
X0029595Y0131115D02*
X0035145Y0131115D01*
X0035145Y0131163D02*
X0029595Y0131163D01*
X0029595Y0131212D02*
X0035145Y0131212D01*
X0035145Y0131260D02*
X0029595Y0131260D01*
X0029595Y0131309D02*
X0035145Y0131309D01*
X0035145Y0131357D02*
X0029595Y0131357D01*
X0029595Y0131406D02*
X0035145Y0131406D01*
X0116870Y0041164D02*
X0116870Y0037689D01*
X0117870Y0037689D01*
X0117870Y0041164D01*
X0116870Y0041164D01*
X0116870Y0041126D02*
X0117870Y0041126D01*
X0117870Y0041078D02*
X0116870Y0041078D01*
X0116870Y0041029D02*
X0117870Y0041029D01*
X0117870Y0040981D02*
X0116870Y0040981D01*
X0116870Y0040932D02*
X0117870Y0040932D01*
X0117870Y0040884D02*
X0116870Y0040884D01*
X0116870Y0040835D02*
X0117870Y0040835D01*
X0117870Y0040787D02*
X0116870Y0040787D01*
X0116870Y0040738D02*
X0117870Y0040738D01*
X0117870Y0040690D02*
X0116870Y0040690D01*
X0116870Y0040641D02*
X0117870Y0040641D01*
X0117870Y0040593D02*
X0116870Y0040593D01*
X0116870Y0040544D02*
X0117870Y0040544D01*
X0117870Y0040496D02*
X0116870Y0040496D01*
X0116870Y0040447D02*
X0117870Y0040447D01*
X0117870Y0040399D02*
X0116870Y0040399D01*
X0116870Y0040350D02*
X0117870Y0040350D01*
X0117870Y0040302D02*
X0116870Y0040302D01*
X0116870Y0040253D02*
X0117870Y0040253D01*
X0117870Y0040204D02*
X0116870Y0040204D01*
X0116870Y0040156D02*
X0117870Y0040156D01*
X0117870Y0040107D02*
X0116870Y0040107D01*
X0116870Y0040059D02*
X0117870Y0040059D01*
X0117870Y0040010D02*
X0116870Y0040010D01*
X0116870Y0039962D02*
X0117870Y0039962D01*
X0117870Y0039913D02*
X0116870Y0039913D01*
X0116870Y0039865D02*
X0117870Y0039865D01*
X0117870Y0039816D02*
X0116870Y0039816D01*
X0116870Y0039768D02*
X0117870Y0039768D01*
X0117870Y0039719D02*
X0116870Y0039719D01*
X0116870Y0039671D02*
X0117870Y0039671D01*
X0117870Y0039622D02*
X0116870Y0039622D01*
X0116870Y0039574D02*
X0117870Y0039574D01*
X0117870Y0039525D02*
X0116870Y0039525D01*
X0116870Y0039477D02*
X0117870Y0039477D01*
X0117870Y0039428D02*
X0116870Y0039428D01*
X0116870Y0039380D02*
X0117870Y0039380D01*
X0117870Y0039331D02*
X0116870Y0039331D01*
X0116870Y0039283D02*
X0117870Y0039283D01*
X0117870Y0039234D02*
X0116870Y0039234D01*
X0116870Y0039186D02*
X0117870Y0039186D01*
X0117870Y0039137D02*
X0116870Y0039137D01*
X0116870Y0039089D02*
X0117870Y0039089D01*
X0117870Y0039040D02*
X0116870Y0039040D01*
X0116870Y0038992D02*
X0117870Y0038992D01*
X0117870Y0038943D02*
X0116870Y0038943D01*
X0116870Y0038895D02*
X0117870Y0038895D01*
X0117870Y0038846D02*
X0116870Y0038846D01*
X0116870Y0038798D02*
X0117870Y0038798D01*
X0117870Y0038749D02*
X0116870Y0038749D01*
X0116870Y0038701D02*
X0117870Y0038701D01*
X0117870Y0038652D02*
X0116870Y0038652D01*
X0116870Y0038604D02*
X0117870Y0038604D01*
X0117870Y0038555D02*
X0116870Y0038555D01*
X0116870Y0038507D02*
X0117870Y0038507D01*
X0117870Y0038458D02*
X0116870Y0038458D01*
X0116870Y0038410D02*
X0117870Y0038410D01*
X0117870Y0038361D02*
X0116870Y0038361D01*
X0116870Y0038313D02*
X0117870Y0038313D01*
X0117870Y0038264D02*
X0116870Y0038264D01*
X0116870Y0038216D02*
X0117870Y0038216D01*
X0117870Y0038167D02*
X0116870Y0038167D01*
X0116870Y0038118D02*
X0117870Y0038118D01*
X0117870Y0038070D02*
X0116870Y0038070D01*
X0116870Y0038021D02*
X0117870Y0038021D01*
X0117870Y0037973D02*
X0116870Y0037973D01*
X0116870Y0037924D02*
X0117870Y0037924D01*
X0117870Y0037876D02*
X0116870Y0037876D01*
X0116870Y0037827D02*
X0117870Y0037827D01*
X0117870Y0037779D02*
X0116870Y0037779D01*
X0116870Y0037730D02*
X0117870Y0037730D01*
D14*
X0117370Y0038389D03*
X0117370Y0042489D03*
D15*
X0120370Y0150949D03*
X0124370Y0150949D03*
D16*
X0120370Y0150949D01*
D17*
X0182370Y0140949D03*
X0182370Y0130949D03*
X0182370Y0120949D03*
X0182370Y0110949D03*
X0182370Y0070949D03*
X0182370Y0060949D03*
X0182370Y0050949D03*
X0182370Y0040949D03*
X0152370Y0020949D03*
D18*
X0085087Y0033776D02*
X0085087Y0039681D01*
X0070323Y0022949D02*
X0064417Y0022949D01*
X0047685Y0052673D02*
X0047685Y0058579D01*
X0087055Y0123319D02*
X0087055Y0129224D01*
X0070323Y0158949D02*
X0064417Y0158949D01*
X0049654Y0148122D02*
X0049654Y0142217D01*
D19*
X0036370Y0123949D03*
X0022370Y0125949D03*
X0055330Y0110439D03*
X0076870Y0089189D03*
X0086880Y0091584D03*
X0064245Y0085554D03*
X0045840Y0087939D03*
X0109870Y0083909D03*
X0119870Y0067199D03*
X0127025Y0046804D03*
X0111350Y0043449D03*
X0117470Y0031309D03*
X0156800Y0086459D03*
X0134360Y0100949D03*
X0134360Y0105949D03*
X0144870Y0117199D03*
X0138390Y0125999D03*
X0134870Y0129699D03*
X0119870Y0135949D03*
X0119870Y0145949D03*
X0144370Y0155949D03*
X0086370Y0155949D03*
D20*
X0105610Y0158449D02*
X0071240Y0124079D01*
X0071240Y0110309D01*
X0071240Y0110199D01*
X0059930Y0121509D01*
X0044409Y0137030D01*
X0034921Y0137030D01*
X0032370Y0134479D01*
X0032370Y0130949D01*
X0059930Y0121509D02*
X0059930Y0115949D01*
X0071240Y0110309D02*
X0076870Y0104679D01*
X0076870Y0089189D01*
X0076755Y0089074D02*
X0048505Y0089074D01*
X0047370Y0087939D01*
X0045840Y0087939D01*
X0111350Y0043449D02*
X0114880Y0043449D01*
X0115840Y0042489D01*
X0117370Y0042489D01*
X0122710Y0042489D01*
X0127025Y0046804D01*
X0111350Y0043449D02*
X0111350Y0043449D01*
X0124420Y0140949D02*
X0124360Y0141009D01*
X0124360Y0150949D01*
X0124370Y0150949D02*
X0126970Y0150949D01*
X0127305Y0151284D01*
X0127305Y0158449D01*
X0105610Y0158449D01*
D21*
X0120350Y0150949D02*
X0120350Y0146429D01*
X0119870Y0145949D01*
X0120350Y0150949D02*
X0120370Y0150949D01*
X0124360Y0150949D02*
X0124370Y0150949D01*
X0124420Y0140949D02*
X0124870Y0140949D01*
X0124870Y0130949D01*
X0124420Y0130949D01*
X0120320Y0130949D02*
X0119870Y0130949D01*
X0119870Y0125999D01*
X0138390Y0125999D01*
X0144880Y0118209D02*
X0144870Y0118199D01*
X0144870Y0117199D01*
X0144880Y0118209D02*
X0144880Y0155439D01*
X0144370Y0155949D01*
X0120320Y0140949D02*
X0119870Y0140949D01*
X0119870Y0135949D01*
X0125790Y0113449D02*
X0097895Y0085554D01*
X0108225Y0085554D01*
X0109870Y0083909D01*
X0097895Y0085554D02*
X0064245Y0085554D01*
X0076755Y0089074D02*
X0076870Y0089189D01*
X0055330Y0110439D02*
X0055495Y0110604D01*
X0055495Y0115949D01*
X0055830Y0115949D01*
X0036470Y0124049D02*
X0036470Y0130949D01*
X0036470Y0124049D02*
X0036370Y0123949D01*
X0028270Y0130949D02*
X0026995Y0130949D01*
X0022370Y0126324D01*
X0022370Y0125949D01*
X0049654Y0145169D02*
X0051694Y0147209D01*
X0074571Y0147209D01*
X0083310Y0155949D01*
X0086370Y0155949D01*
X0125790Y0113449D02*
X0164870Y0113449D01*
X0182370Y0130949D01*
X0134360Y0105949D02*
X0134360Y0104949D01*
X0167735Y0071574D01*
X0181745Y0071574D01*
X0182370Y0070949D01*
X0181745Y0061574D02*
X0171185Y0061574D01*
X0134360Y0098399D01*
X0134360Y0100949D01*
X0119870Y0067199D02*
X0089400Y0036728D01*
X0085087Y0036728D01*
X0117370Y0038389D02*
X0117370Y0031409D01*
X0117470Y0031309D01*
X0181745Y0061574D02*
X0182370Y0060949D01*
M02*
