G75*
%MOIN*%
%OFA0B0*%
%FSLAX25Y25*%
%IPPOS*%
%LPD*%
%AMOC8*
5,1,8,0,0,1.08239X$1,22.5*
%
%ADD10C,0.00800*%
%ADD11C,0.00000*%
%ADD12R,0.07874X0.04724*%
%ADD13R,0.05315X0.02362*%
%ADD14R,0.03937X0.04331*%
%ADD15R,0.05500X0.02550*%
%ADD16R,0.04331X0.03937*%
%ADD17C,0.01181*%
%ADD18C,0.07400*%
%ADD19C,0.05906*%
%ADD20C,0.02900*%
%ADD21C,0.00700*%
%ADD22C,0.02000*%
D10*
X0017370Y0015949D02*
X0017370Y0165949D01*
X0187370Y0165949D01*
X0187370Y0015949D01*
X0017370Y0015949D01*
D11*
X0020870Y0025949D02*
X0020872Y0026110D01*
X0020878Y0026270D01*
X0020888Y0026431D01*
X0020902Y0026591D01*
X0020920Y0026751D01*
X0020941Y0026910D01*
X0020967Y0027069D01*
X0020997Y0027227D01*
X0021030Y0027384D01*
X0021068Y0027541D01*
X0021109Y0027696D01*
X0021154Y0027850D01*
X0021203Y0028003D01*
X0021256Y0028155D01*
X0021312Y0028306D01*
X0021373Y0028455D01*
X0021436Y0028603D01*
X0021504Y0028749D01*
X0021575Y0028893D01*
X0021649Y0029035D01*
X0021727Y0029176D01*
X0021809Y0029314D01*
X0021894Y0029451D01*
X0021982Y0029585D01*
X0022074Y0029717D01*
X0022169Y0029847D01*
X0022267Y0029975D01*
X0022368Y0030100D01*
X0022472Y0030222D01*
X0022579Y0030342D01*
X0022689Y0030459D01*
X0022802Y0030574D01*
X0022918Y0030685D01*
X0023037Y0030794D01*
X0023158Y0030899D01*
X0023282Y0031002D01*
X0023408Y0031102D01*
X0023536Y0031198D01*
X0023667Y0031291D01*
X0023801Y0031381D01*
X0023936Y0031468D01*
X0024074Y0031551D01*
X0024213Y0031631D01*
X0024355Y0031707D01*
X0024498Y0031780D01*
X0024643Y0031849D01*
X0024790Y0031915D01*
X0024938Y0031977D01*
X0025088Y0032035D01*
X0025239Y0032090D01*
X0025392Y0032141D01*
X0025546Y0032188D01*
X0025701Y0032231D01*
X0025857Y0032270D01*
X0026013Y0032306D01*
X0026171Y0032337D01*
X0026329Y0032365D01*
X0026488Y0032389D01*
X0026648Y0032409D01*
X0026808Y0032425D01*
X0026968Y0032437D01*
X0027129Y0032445D01*
X0027290Y0032449D01*
X0027450Y0032449D01*
X0027611Y0032445D01*
X0027772Y0032437D01*
X0027932Y0032425D01*
X0028092Y0032409D01*
X0028252Y0032389D01*
X0028411Y0032365D01*
X0028569Y0032337D01*
X0028727Y0032306D01*
X0028883Y0032270D01*
X0029039Y0032231D01*
X0029194Y0032188D01*
X0029348Y0032141D01*
X0029501Y0032090D01*
X0029652Y0032035D01*
X0029802Y0031977D01*
X0029950Y0031915D01*
X0030097Y0031849D01*
X0030242Y0031780D01*
X0030385Y0031707D01*
X0030527Y0031631D01*
X0030666Y0031551D01*
X0030804Y0031468D01*
X0030939Y0031381D01*
X0031073Y0031291D01*
X0031204Y0031198D01*
X0031332Y0031102D01*
X0031458Y0031002D01*
X0031582Y0030899D01*
X0031703Y0030794D01*
X0031822Y0030685D01*
X0031938Y0030574D01*
X0032051Y0030459D01*
X0032161Y0030342D01*
X0032268Y0030222D01*
X0032372Y0030100D01*
X0032473Y0029975D01*
X0032571Y0029847D01*
X0032666Y0029717D01*
X0032758Y0029585D01*
X0032846Y0029451D01*
X0032931Y0029314D01*
X0033013Y0029176D01*
X0033091Y0029035D01*
X0033165Y0028893D01*
X0033236Y0028749D01*
X0033304Y0028603D01*
X0033367Y0028455D01*
X0033428Y0028306D01*
X0033484Y0028155D01*
X0033537Y0028003D01*
X0033586Y0027850D01*
X0033631Y0027696D01*
X0033672Y0027541D01*
X0033710Y0027384D01*
X0033743Y0027227D01*
X0033773Y0027069D01*
X0033799Y0026910D01*
X0033820Y0026751D01*
X0033838Y0026591D01*
X0033852Y0026431D01*
X0033862Y0026270D01*
X0033868Y0026110D01*
X0033870Y0025949D01*
X0033868Y0025788D01*
X0033862Y0025628D01*
X0033852Y0025467D01*
X0033838Y0025307D01*
X0033820Y0025147D01*
X0033799Y0024988D01*
X0033773Y0024829D01*
X0033743Y0024671D01*
X0033710Y0024514D01*
X0033672Y0024357D01*
X0033631Y0024202D01*
X0033586Y0024048D01*
X0033537Y0023895D01*
X0033484Y0023743D01*
X0033428Y0023592D01*
X0033367Y0023443D01*
X0033304Y0023295D01*
X0033236Y0023149D01*
X0033165Y0023005D01*
X0033091Y0022863D01*
X0033013Y0022722D01*
X0032931Y0022584D01*
X0032846Y0022447D01*
X0032758Y0022313D01*
X0032666Y0022181D01*
X0032571Y0022051D01*
X0032473Y0021923D01*
X0032372Y0021798D01*
X0032268Y0021676D01*
X0032161Y0021556D01*
X0032051Y0021439D01*
X0031938Y0021324D01*
X0031822Y0021213D01*
X0031703Y0021104D01*
X0031582Y0020999D01*
X0031458Y0020896D01*
X0031332Y0020796D01*
X0031204Y0020700D01*
X0031073Y0020607D01*
X0030939Y0020517D01*
X0030804Y0020430D01*
X0030666Y0020347D01*
X0030527Y0020267D01*
X0030385Y0020191D01*
X0030242Y0020118D01*
X0030097Y0020049D01*
X0029950Y0019983D01*
X0029802Y0019921D01*
X0029652Y0019863D01*
X0029501Y0019808D01*
X0029348Y0019757D01*
X0029194Y0019710D01*
X0029039Y0019667D01*
X0028883Y0019628D01*
X0028727Y0019592D01*
X0028569Y0019561D01*
X0028411Y0019533D01*
X0028252Y0019509D01*
X0028092Y0019489D01*
X0027932Y0019473D01*
X0027772Y0019461D01*
X0027611Y0019453D01*
X0027450Y0019449D01*
X0027290Y0019449D01*
X0027129Y0019453D01*
X0026968Y0019461D01*
X0026808Y0019473D01*
X0026648Y0019489D01*
X0026488Y0019509D01*
X0026329Y0019533D01*
X0026171Y0019561D01*
X0026013Y0019592D01*
X0025857Y0019628D01*
X0025701Y0019667D01*
X0025546Y0019710D01*
X0025392Y0019757D01*
X0025239Y0019808D01*
X0025088Y0019863D01*
X0024938Y0019921D01*
X0024790Y0019983D01*
X0024643Y0020049D01*
X0024498Y0020118D01*
X0024355Y0020191D01*
X0024213Y0020267D01*
X0024074Y0020347D01*
X0023936Y0020430D01*
X0023801Y0020517D01*
X0023667Y0020607D01*
X0023536Y0020700D01*
X0023408Y0020796D01*
X0023282Y0020896D01*
X0023158Y0020999D01*
X0023037Y0021104D01*
X0022918Y0021213D01*
X0022802Y0021324D01*
X0022689Y0021439D01*
X0022579Y0021556D01*
X0022472Y0021676D01*
X0022368Y0021798D01*
X0022267Y0021923D01*
X0022169Y0022051D01*
X0022074Y0022181D01*
X0021982Y0022313D01*
X0021894Y0022447D01*
X0021809Y0022584D01*
X0021727Y0022722D01*
X0021649Y0022863D01*
X0021575Y0023005D01*
X0021504Y0023149D01*
X0021436Y0023295D01*
X0021373Y0023443D01*
X0021312Y0023592D01*
X0021256Y0023743D01*
X0021203Y0023895D01*
X0021154Y0024048D01*
X0021109Y0024202D01*
X0021068Y0024357D01*
X0021030Y0024514D01*
X0020997Y0024671D01*
X0020967Y0024829D01*
X0020941Y0024988D01*
X0020920Y0025147D01*
X0020902Y0025307D01*
X0020888Y0025467D01*
X0020878Y0025628D01*
X0020872Y0025788D01*
X0020870Y0025949D01*
X0020870Y0155949D02*
X0020872Y0156110D01*
X0020878Y0156270D01*
X0020888Y0156431D01*
X0020902Y0156591D01*
X0020920Y0156751D01*
X0020941Y0156910D01*
X0020967Y0157069D01*
X0020997Y0157227D01*
X0021030Y0157384D01*
X0021068Y0157541D01*
X0021109Y0157696D01*
X0021154Y0157850D01*
X0021203Y0158003D01*
X0021256Y0158155D01*
X0021312Y0158306D01*
X0021373Y0158455D01*
X0021436Y0158603D01*
X0021504Y0158749D01*
X0021575Y0158893D01*
X0021649Y0159035D01*
X0021727Y0159176D01*
X0021809Y0159314D01*
X0021894Y0159451D01*
X0021982Y0159585D01*
X0022074Y0159717D01*
X0022169Y0159847D01*
X0022267Y0159975D01*
X0022368Y0160100D01*
X0022472Y0160222D01*
X0022579Y0160342D01*
X0022689Y0160459D01*
X0022802Y0160574D01*
X0022918Y0160685D01*
X0023037Y0160794D01*
X0023158Y0160899D01*
X0023282Y0161002D01*
X0023408Y0161102D01*
X0023536Y0161198D01*
X0023667Y0161291D01*
X0023801Y0161381D01*
X0023936Y0161468D01*
X0024074Y0161551D01*
X0024213Y0161631D01*
X0024355Y0161707D01*
X0024498Y0161780D01*
X0024643Y0161849D01*
X0024790Y0161915D01*
X0024938Y0161977D01*
X0025088Y0162035D01*
X0025239Y0162090D01*
X0025392Y0162141D01*
X0025546Y0162188D01*
X0025701Y0162231D01*
X0025857Y0162270D01*
X0026013Y0162306D01*
X0026171Y0162337D01*
X0026329Y0162365D01*
X0026488Y0162389D01*
X0026648Y0162409D01*
X0026808Y0162425D01*
X0026968Y0162437D01*
X0027129Y0162445D01*
X0027290Y0162449D01*
X0027450Y0162449D01*
X0027611Y0162445D01*
X0027772Y0162437D01*
X0027932Y0162425D01*
X0028092Y0162409D01*
X0028252Y0162389D01*
X0028411Y0162365D01*
X0028569Y0162337D01*
X0028727Y0162306D01*
X0028883Y0162270D01*
X0029039Y0162231D01*
X0029194Y0162188D01*
X0029348Y0162141D01*
X0029501Y0162090D01*
X0029652Y0162035D01*
X0029802Y0161977D01*
X0029950Y0161915D01*
X0030097Y0161849D01*
X0030242Y0161780D01*
X0030385Y0161707D01*
X0030527Y0161631D01*
X0030666Y0161551D01*
X0030804Y0161468D01*
X0030939Y0161381D01*
X0031073Y0161291D01*
X0031204Y0161198D01*
X0031332Y0161102D01*
X0031458Y0161002D01*
X0031582Y0160899D01*
X0031703Y0160794D01*
X0031822Y0160685D01*
X0031938Y0160574D01*
X0032051Y0160459D01*
X0032161Y0160342D01*
X0032268Y0160222D01*
X0032372Y0160100D01*
X0032473Y0159975D01*
X0032571Y0159847D01*
X0032666Y0159717D01*
X0032758Y0159585D01*
X0032846Y0159451D01*
X0032931Y0159314D01*
X0033013Y0159176D01*
X0033091Y0159035D01*
X0033165Y0158893D01*
X0033236Y0158749D01*
X0033304Y0158603D01*
X0033367Y0158455D01*
X0033428Y0158306D01*
X0033484Y0158155D01*
X0033537Y0158003D01*
X0033586Y0157850D01*
X0033631Y0157696D01*
X0033672Y0157541D01*
X0033710Y0157384D01*
X0033743Y0157227D01*
X0033773Y0157069D01*
X0033799Y0156910D01*
X0033820Y0156751D01*
X0033838Y0156591D01*
X0033852Y0156431D01*
X0033862Y0156270D01*
X0033868Y0156110D01*
X0033870Y0155949D01*
X0033868Y0155788D01*
X0033862Y0155628D01*
X0033852Y0155467D01*
X0033838Y0155307D01*
X0033820Y0155147D01*
X0033799Y0154988D01*
X0033773Y0154829D01*
X0033743Y0154671D01*
X0033710Y0154514D01*
X0033672Y0154357D01*
X0033631Y0154202D01*
X0033586Y0154048D01*
X0033537Y0153895D01*
X0033484Y0153743D01*
X0033428Y0153592D01*
X0033367Y0153443D01*
X0033304Y0153295D01*
X0033236Y0153149D01*
X0033165Y0153005D01*
X0033091Y0152863D01*
X0033013Y0152722D01*
X0032931Y0152584D01*
X0032846Y0152447D01*
X0032758Y0152313D01*
X0032666Y0152181D01*
X0032571Y0152051D01*
X0032473Y0151923D01*
X0032372Y0151798D01*
X0032268Y0151676D01*
X0032161Y0151556D01*
X0032051Y0151439D01*
X0031938Y0151324D01*
X0031822Y0151213D01*
X0031703Y0151104D01*
X0031582Y0150999D01*
X0031458Y0150896D01*
X0031332Y0150796D01*
X0031204Y0150700D01*
X0031073Y0150607D01*
X0030939Y0150517D01*
X0030804Y0150430D01*
X0030666Y0150347D01*
X0030527Y0150267D01*
X0030385Y0150191D01*
X0030242Y0150118D01*
X0030097Y0150049D01*
X0029950Y0149983D01*
X0029802Y0149921D01*
X0029652Y0149863D01*
X0029501Y0149808D01*
X0029348Y0149757D01*
X0029194Y0149710D01*
X0029039Y0149667D01*
X0028883Y0149628D01*
X0028727Y0149592D01*
X0028569Y0149561D01*
X0028411Y0149533D01*
X0028252Y0149509D01*
X0028092Y0149489D01*
X0027932Y0149473D01*
X0027772Y0149461D01*
X0027611Y0149453D01*
X0027450Y0149449D01*
X0027290Y0149449D01*
X0027129Y0149453D01*
X0026968Y0149461D01*
X0026808Y0149473D01*
X0026648Y0149489D01*
X0026488Y0149509D01*
X0026329Y0149533D01*
X0026171Y0149561D01*
X0026013Y0149592D01*
X0025857Y0149628D01*
X0025701Y0149667D01*
X0025546Y0149710D01*
X0025392Y0149757D01*
X0025239Y0149808D01*
X0025088Y0149863D01*
X0024938Y0149921D01*
X0024790Y0149983D01*
X0024643Y0150049D01*
X0024498Y0150118D01*
X0024355Y0150191D01*
X0024213Y0150267D01*
X0024074Y0150347D01*
X0023936Y0150430D01*
X0023801Y0150517D01*
X0023667Y0150607D01*
X0023536Y0150700D01*
X0023408Y0150796D01*
X0023282Y0150896D01*
X0023158Y0150999D01*
X0023037Y0151104D01*
X0022918Y0151213D01*
X0022802Y0151324D01*
X0022689Y0151439D01*
X0022579Y0151556D01*
X0022472Y0151676D01*
X0022368Y0151798D01*
X0022267Y0151923D01*
X0022169Y0152051D01*
X0022074Y0152181D01*
X0021982Y0152313D01*
X0021894Y0152447D01*
X0021809Y0152584D01*
X0021727Y0152722D01*
X0021649Y0152863D01*
X0021575Y0153005D01*
X0021504Y0153149D01*
X0021436Y0153295D01*
X0021373Y0153443D01*
X0021312Y0153592D01*
X0021256Y0153743D01*
X0021203Y0153895D01*
X0021154Y0154048D01*
X0021109Y0154202D01*
X0021068Y0154357D01*
X0021030Y0154514D01*
X0020997Y0154671D01*
X0020967Y0154829D01*
X0020941Y0154988D01*
X0020920Y0155147D01*
X0020902Y0155307D01*
X0020888Y0155467D01*
X0020878Y0155628D01*
X0020872Y0155788D01*
X0020870Y0155949D01*
X0170870Y0155949D02*
X0170872Y0156110D01*
X0170878Y0156270D01*
X0170888Y0156431D01*
X0170902Y0156591D01*
X0170920Y0156751D01*
X0170941Y0156910D01*
X0170967Y0157069D01*
X0170997Y0157227D01*
X0171030Y0157384D01*
X0171068Y0157541D01*
X0171109Y0157696D01*
X0171154Y0157850D01*
X0171203Y0158003D01*
X0171256Y0158155D01*
X0171312Y0158306D01*
X0171373Y0158455D01*
X0171436Y0158603D01*
X0171504Y0158749D01*
X0171575Y0158893D01*
X0171649Y0159035D01*
X0171727Y0159176D01*
X0171809Y0159314D01*
X0171894Y0159451D01*
X0171982Y0159585D01*
X0172074Y0159717D01*
X0172169Y0159847D01*
X0172267Y0159975D01*
X0172368Y0160100D01*
X0172472Y0160222D01*
X0172579Y0160342D01*
X0172689Y0160459D01*
X0172802Y0160574D01*
X0172918Y0160685D01*
X0173037Y0160794D01*
X0173158Y0160899D01*
X0173282Y0161002D01*
X0173408Y0161102D01*
X0173536Y0161198D01*
X0173667Y0161291D01*
X0173801Y0161381D01*
X0173936Y0161468D01*
X0174074Y0161551D01*
X0174213Y0161631D01*
X0174355Y0161707D01*
X0174498Y0161780D01*
X0174643Y0161849D01*
X0174790Y0161915D01*
X0174938Y0161977D01*
X0175088Y0162035D01*
X0175239Y0162090D01*
X0175392Y0162141D01*
X0175546Y0162188D01*
X0175701Y0162231D01*
X0175857Y0162270D01*
X0176013Y0162306D01*
X0176171Y0162337D01*
X0176329Y0162365D01*
X0176488Y0162389D01*
X0176648Y0162409D01*
X0176808Y0162425D01*
X0176968Y0162437D01*
X0177129Y0162445D01*
X0177290Y0162449D01*
X0177450Y0162449D01*
X0177611Y0162445D01*
X0177772Y0162437D01*
X0177932Y0162425D01*
X0178092Y0162409D01*
X0178252Y0162389D01*
X0178411Y0162365D01*
X0178569Y0162337D01*
X0178727Y0162306D01*
X0178883Y0162270D01*
X0179039Y0162231D01*
X0179194Y0162188D01*
X0179348Y0162141D01*
X0179501Y0162090D01*
X0179652Y0162035D01*
X0179802Y0161977D01*
X0179950Y0161915D01*
X0180097Y0161849D01*
X0180242Y0161780D01*
X0180385Y0161707D01*
X0180527Y0161631D01*
X0180666Y0161551D01*
X0180804Y0161468D01*
X0180939Y0161381D01*
X0181073Y0161291D01*
X0181204Y0161198D01*
X0181332Y0161102D01*
X0181458Y0161002D01*
X0181582Y0160899D01*
X0181703Y0160794D01*
X0181822Y0160685D01*
X0181938Y0160574D01*
X0182051Y0160459D01*
X0182161Y0160342D01*
X0182268Y0160222D01*
X0182372Y0160100D01*
X0182473Y0159975D01*
X0182571Y0159847D01*
X0182666Y0159717D01*
X0182758Y0159585D01*
X0182846Y0159451D01*
X0182931Y0159314D01*
X0183013Y0159176D01*
X0183091Y0159035D01*
X0183165Y0158893D01*
X0183236Y0158749D01*
X0183304Y0158603D01*
X0183367Y0158455D01*
X0183428Y0158306D01*
X0183484Y0158155D01*
X0183537Y0158003D01*
X0183586Y0157850D01*
X0183631Y0157696D01*
X0183672Y0157541D01*
X0183710Y0157384D01*
X0183743Y0157227D01*
X0183773Y0157069D01*
X0183799Y0156910D01*
X0183820Y0156751D01*
X0183838Y0156591D01*
X0183852Y0156431D01*
X0183862Y0156270D01*
X0183868Y0156110D01*
X0183870Y0155949D01*
X0183868Y0155788D01*
X0183862Y0155628D01*
X0183852Y0155467D01*
X0183838Y0155307D01*
X0183820Y0155147D01*
X0183799Y0154988D01*
X0183773Y0154829D01*
X0183743Y0154671D01*
X0183710Y0154514D01*
X0183672Y0154357D01*
X0183631Y0154202D01*
X0183586Y0154048D01*
X0183537Y0153895D01*
X0183484Y0153743D01*
X0183428Y0153592D01*
X0183367Y0153443D01*
X0183304Y0153295D01*
X0183236Y0153149D01*
X0183165Y0153005D01*
X0183091Y0152863D01*
X0183013Y0152722D01*
X0182931Y0152584D01*
X0182846Y0152447D01*
X0182758Y0152313D01*
X0182666Y0152181D01*
X0182571Y0152051D01*
X0182473Y0151923D01*
X0182372Y0151798D01*
X0182268Y0151676D01*
X0182161Y0151556D01*
X0182051Y0151439D01*
X0181938Y0151324D01*
X0181822Y0151213D01*
X0181703Y0151104D01*
X0181582Y0150999D01*
X0181458Y0150896D01*
X0181332Y0150796D01*
X0181204Y0150700D01*
X0181073Y0150607D01*
X0180939Y0150517D01*
X0180804Y0150430D01*
X0180666Y0150347D01*
X0180527Y0150267D01*
X0180385Y0150191D01*
X0180242Y0150118D01*
X0180097Y0150049D01*
X0179950Y0149983D01*
X0179802Y0149921D01*
X0179652Y0149863D01*
X0179501Y0149808D01*
X0179348Y0149757D01*
X0179194Y0149710D01*
X0179039Y0149667D01*
X0178883Y0149628D01*
X0178727Y0149592D01*
X0178569Y0149561D01*
X0178411Y0149533D01*
X0178252Y0149509D01*
X0178092Y0149489D01*
X0177932Y0149473D01*
X0177772Y0149461D01*
X0177611Y0149453D01*
X0177450Y0149449D01*
X0177290Y0149449D01*
X0177129Y0149453D01*
X0176968Y0149461D01*
X0176808Y0149473D01*
X0176648Y0149489D01*
X0176488Y0149509D01*
X0176329Y0149533D01*
X0176171Y0149561D01*
X0176013Y0149592D01*
X0175857Y0149628D01*
X0175701Y0149667D01*
X0175546Y0149710D01*
X0175392Y0149757D01*
X0175239Y0149808D01*
X0175088Y0149863D01*
X0174938Y0149921D01*
X0174790Y0149983D01*
X0174643Y0150049D01*
X0174498Y0150118D01*
X0174355Y0150191D01*
X0174213Y0150267D01*
X0174074Y0150347D01*
X0173936Y0150430D01*
X0173801Y0150517D01*
X0173667Y0150607D01*
X0173536Y0150700D01*
X0173408Y0150796D01*
X0173282Y0150896D01*
X0173158Y0150999D01*
X0173037Y0151104D01*
X0172918Y0151213D01*
X0172802Y0151324D01*
X0172689Y0151439D01*
X0172579Y0151556D01*
X0172472Y0151676D01*
X0172368Y0151798D01*
X0172267Y0151923D01*
X0172169Y0152051D01*
X0172074Y0152181D01*
X0171982Y0152313D01*
X0171894Y0152447D01*
X0171809Y0152584D01*
X0171727Y0152722D01*
X0171649Y0152863D01*
X0171575Y0153005D01*
X0171504Y0153149D01*
X0171436Y0153295D01*
X0171373Y0153443D01*
X0171312Y0153592D01*
X0171256Y0153743D01*
X0171203Y0153895D01*
X0171154Y0154048D01*
X0171109Y0154202D01*
X0171068Y0154357D01*
X0171030Y0154514D01*
X0170997Y0154671D01*
X0170967Y0154829D01*
X0170941Y0154988D01*
X0170920Y0155147D01*
X0170902Y0155307D01*
X0170888Y0155467D01*
X0170878Y0155628D01*
X0170872Y0155788D01*
X0170870Y0155949D01*
X0170870Y0025949D02*
X0170872Y0026110D01*
X0170878Y0026270D01*
X0170888Y0026431D01*
X0170902Y0026591D01*
X0170920Y0026751D01*
X0170941Y0026910D01*
X0170967Y0027069D01*
X0170997Y0027227D01*
X0171030Y0027384D01*
X0171068Y0027541D01*
X0171109Y0027696D01*
X0171154Y0027850D01*
X0171203Y0028003D01*
X0171256Y0028155D01*
X0171312Y0028306D01*
X0171373Y0028455D01*
X0171436Y0028603D01*
X0171504Y0028749D01*
X0171575Y0028893D01*
X0171649Y0029035D01*
X0171727Y0029176D01*
X0171809Y0029314D01*
X0171894Y0029451D01*
X0171982Y0029585D01*
X0172074Y0029717D01*
X0172169Y0029847D01*
X0172267Y0029975D01*
X0172368Y0030100D01*
X0172472Y0030222D01*
X0172579Y0030342D01*
X0172689Y0030459D01*
X0172802Y0030574D01*
X0172918Y0030685D01*
X0173037Y0030794D01*
X0173158Y0030899D01*
X0173282Y0031002D01*
X0173408Y0031102D01*
X0173536Y0031198D01*
X0173667Y0031291D01*
X0173801Y0031381D01*
X0173936Y0031468D01*
X0174074Y0031551D01*
X0174213Y0031631D01*
X0174355Y0031707D01*
X0174498Y0031780D01*
X0174643Y0031849D01*
X0174790Y0031915D01*
X0174938Y0031977D01*
X0175088Y0032035D01*
X0175239Y0032090D01*
X0175392Y0032141D01*
X0175546Y0032188D01*
X0175701Y0032231D01*
X0175857Y0032270D01*
X0176013Y0032306D01*
X0176171Y0032337D01*
X0176329Y0032365D01*
X0176488Y0032389D01*
X0176648Y0032409D01*
X0176808Y0032425D01*
X0176968Y0032437D01*
X0177129Y0032445D01*
X0177290Y0032449D01*
X0177450Y0032449D01*
X0177611Y0032445D01*
X0177772Y0032437D01*
X0177932Y0032425D01*
X0178092Y0032409D01*
X0178252Y0032389D01*
X0178411Y0032365D01*
X0178569Y0032337D01*
X0178727Y0032306D01*
X0178883Y0032270D01*
X0179039Y0032231D01*
X0179194Y0032188D01*
X0179348Y0032141D01*
X0179501Y0032090D01*
X0179652Y0032035D01*
X0179802Y0031977D01*
X0179950Y0031915D01*
X0180097Y0031849D01*
X0180242Y0031780D01*
X0180385Y0031707D01*
X0180527Y0031631D01*
X0180666Y0031551D01*
X0180804Y0031468D01*
X0180939Y0031381D01*
X0181073Y0031291D01*
X0181204Y0031198D01*
X0181332Y0031102D01*
X0181458Y0031002D01*
X0181582Y0030899D01*
X0181703Y0030794D01*
X0181822Y0030685D01*
X0181938Y0030574D01*
X0182051Y0030459D01*
X0182161Y0030342D01*
X0182268Y0030222D01*
X0182372Y0030100D01*
X0182473Y0029975D01*
X0182571Y0029847D01*
X0182666Y0029717D01*
X0182758Y0029585D01*
X0182846Y0029451D01*
X0182931Y0029314D01*
X0183013Y0029176D01*
X0183091Y0029035D01*
X0183165Y0028893D01*
X0183236Y0028749D01*
X0183304Y0028603D01*
X0183367Y0028455D01*
X0183428Y0028306D01*
X0183484Y0028155D01*
X0183537Y0028003D01*
X0183586Y0027850D01*
X0183631Y0027696D01*
X0183672Y0027541D01*
X0183710Y0027384D01*
X0183743Y0027227D01*
X0183773Y0027069D01*
X0183799Y0026910D01*
X0183820Y0026751D01*
X0183838Y0026591D01*
X0183852Y0026431D01*
X0183862Y0026270D01*
X0183868Y0026110D01*
X0183870Y0025949D01*
X0183868Y0025788D01*
X0183862Y0025628D01*
X0183852Y0025467D01*
X0183838Y0025307D01*
X0183820Y0025147D01*
X0183799Y0024988D01*
X0183773Y0024829D01*
X0183743Y0024671D01*
X0183710Y0024514D01*
X0183672Y0024357D01*
X0183631Y0024202D01*
X0183586Y0024048D01*
X0183537Y0023895D01*
X0183484Y0023743D01*
X0183428Y0023592D01*
X0183367Y0023443D01*
X0183304Y0023295D01*
X0183236Y0023149D01*
X0183165Y0023005D01*
X0183091Y0022863D01*
X0183013Y0022722D01*
X0182931Y0022584D01*
X0182846Y0022447D01*
X0182758Y0022313D01*
X0182666Y0022181D01*
X0182571Y0022051D01*
X0182473Y0021923D01*
X0182372Y0021798D01*
X0182268Y0021676D01*
X0182161Y0021556D01*
X0182051Y0021439D01*
X0181938Y0021324D01*
X0181822Y0021213D01*
X0181703Y0021104D01*
X0181582Y0020999D01*
X0181458Y0020896D01*
X0181332Y0020796D01*
X0181204Y0020700D01*
X0181073Y0020607D01*
X0180939Y0020517D01*
X0180804Y0020430D01*
X0180666Y0020347D01*
X0180527Y0020267D01*
X0180385Y0020191D01*
X0180242Y0020118D01*
X0180097Y0020049D01*
X0179950Y0019983D01*
X0179802Y0019921D01*
X0179652Y0019863D01*
X0179501Y0019808D01*
X0179348Y0019757D01*
X0179194Y0019710D01*
X0179039Y0019667D01*
X0178883Y0019628D01*
X0178727Y0019592D01*
X0178569Y0019561D01*
X0178411Y0019533D01*
X0178252Y0019509D01*
X0178092Y0019489D01*
X0177932Y0019473D01*
X0177772Y0019461D01*
X0177611Y0019453D01*
X0177450Y0019449D01*
X0177290Y0019449D01*
X0177129Y0019453D01*
X0176968Y0019461D01*
X0176808Y0019473D01*
X0176648Y0019489D01*
X0176488Y0019509D01*
X0176329Y0019533D01*
X0176171Y0019561D01*
X0176013Y0019592D01*
X0175857Y0019628D01*
X0175701Y0019667D01*
X0175546Y0019710D01*
X0175392Y0019757D01*
X0175239Y0019808D01*
X0175088Y0019863D01*
X0174938Y0019921D01*
X0174790Y0019983D01*
X0174643Y0020049D01*
X0174498Y0020118D01*
X0174355Y0020191D01*
X0174213Y0020267D01*
X0174074Y0020347D01*
X0173936Y0020430D01*
X0173801Y0020517D01*
X0173667Y0020607D01*
X0173536Y0020700D01*
X0173408Y0020796D01*
X0173282Y0020896D01*
X0173158Y0020999D01*
X0173037Y0021104D01*
X0172918Y0021213D01*
X0172802Y0021324D01*
X0172689Y0021439D01*
X0172579Y0021556D01*
X0172472Y0021676D01*
X0172368Y0021798D01*
X0172267Y0021923D01*
X0172169Y0022051D01*
X0172074Y0022181D01*
X0171982Y0022313D01*
X0171894Y0022447D01*
X0171809Y0022584D01*
X0171727Y0022722D01*
X0171649Y0022863D01*
X0171575Y0023005D01*
X0171504Y0023149D01*
X0171436Y0023295D01*
X0171373Y0023443D01*
X0171312Y0023592D01*
X0171256Y0023743D01*
X0171203Y0023895D01*
X0171154Y0024048D01*
X0171109Y0024202D01*
X0171068Y0024357D01*
X0171030Y0024514D01*
X0170997Y0024671D01*
X0170967Y0024829D01*
X0170941Y0024988D01*
X0170920Y0025147D01*
X0170902Y0025307D01*
X0170888Y0025467D01*
X0170878Y0025628D01*
X0170872Y0025788D01*
X0170870Y0025949D01*
D12*
X0181839Y0079925D03*
X0181839Y0101972D03*
X0022902Y0096972D03*
X0022902Y0074925D03*
D13*
X0037370Y0080043D03*
X0037370Y0083980D03*
X0037370Y0087917D03*
X0037370Y0091854D03*
X0167370Y0092917D03*
X0167370Y0096854D03*
X0167370Y0088980D03*
X0167370Y0085043D03*
D14*
X0143900Y0122602D03*
X0143900Y0129295D03*
X0086870Y0084295D03*
X0086870Y0077602D03*
X0117370Y0051795D03*
X0117370Y0045102D03*
X0030370Y0112602D03*
X0030370Y0119295D03*
X0022370Y0119295D03*
X0022370Y0112602D03*
D15*
X0104063Y0110949D03*
X0104063Y0105949D03*
X0104063Y0100949D03*
X0104063Y0095949D03*
X0104063Y0090949D03*
X0104063Y0085949D03*
X0104063Y0080949D03*
X0104063Y0075949D03*
X0140677Y0075949D03*
X0140677Y0080949D03*
X0140677Y0085949D03*
X0140677Y0090949D03*
X0140677Y0095949D03*
X0140677Y0100949D03*
X0140677Y0105949D03*
X0140677Y0110949D03*
D16*
X0125717Y0130949D03*
X0119024Y0130949D03*
X0119024Y0140949D03*
X0125717Y0140949D03*
X0070717Y0095949D03*
X0064024Y0095949D03*
D17*
X0062539Y0104571D02*
X0062539Y0107327D01*
X0065295Y0107327D01*
X0065295Y0104571D01*
X0062539Y0104571D01*
X0062539Y0105693D02*
X0065295Y0105693D01*
X0065295Y0106815D02*
X0062539Y0106815D01*
X0069445Y0107327D02*
X0069445Y0104571D01*
X0069445Y0107327D02*
X0072201Y0107327D01*
X0072201Y0104571D01*
X0069445Y0104571D01*
X0069445Y0105693D02*
X0072201Y0105693D01*
X0072201Y0106815D02*
X0069445Y0106815D01*
D18*
X0152370Y0020949D03*
X0182370Y0040949D03*
X0182370Y0050949D03*
X0182370Y0060949D03*
X0182370Y0070949D03*
X0182370Y0110949D03*
X0182370Y0120949D03*
X0182370Y0130949D03*
X0182370Y0140949D03*
D19*
X0087055Y0129224D02*
X0087055Y0123319D01*
X0049654Y0142217D02*
X0049654Y0148122D01*
X0064417Y0158949D02*
X0070323Y0158949D01*
X0047685Y0058579D02*
X0047685Y0052673D01*
X0064417Y0022949D02*
X0070323Y0022949D01*
X0085087Y0033776D02*
X0085087Y0039681D01*
D20*
X0111350Y0043449D03*
X0117470Y0031309D03*
X0127025Y0046804D03*
X0119870Y0067199D03*
X0109870Y0083909D03*
X0086880Y0091584D03*
X0076870Y0089189D03*
X0064245Y0085554D03*
X0045840Y0087939D03*
X0055330Y0110439D03*
X0036370Y0123949D03*
X0022370Y0125949D03*
X0086370Y0155949D03*
X0119870Y0145949D03*
X0119870Y0135949D03*
X0134870Y0129699D03*
X0138390Y0125999D03*
X0144870Y0117199D03*
X0134360Y0105949D03*
X0134360Y0100949D03*
X0156800Y0086459D03*
X0144370Y0155949D03*
D21*
X0086370Y0155949D01*
X0077995Y0148449D02*
X0077995Y0122019D01*
X0077995Y0094534D01*
X0063275Y0079814D01*
X0037600Y0079814D01*
X0037370Y0080043D01*
X0037090Y0080324D01*
X0033965Y0080324D01*
X0031745Y0082544D01*
X0031745Y0100824D01*
X0022370Y0110199D01*
X0022370Y0112602D01*
X0022370Y0119295D02*
X0022370Y0125949D01*
X0030370Y0122324D02*
X0030370Y0119295D01*
X0030370Y0122324D02*
X0031995Y0123949D01*
X0036370Y0123949D01*
X0030370Y0112602D02*
X0030370Y0109324D01*
X0033620Y0106074D01*
X0033620Y0085949D01*
X0035495Y0084074D01*
X0037370Y0084074D01*
X0037370Y0083980D01*
X0037370Y0084074D02*
X0050825Y0084074D01*
X0052305Y0085554D01*
X0064245Y0085554D01*
X0062120Y0091824D02*
X0070495Y0091824D01*
X0070495Y0095727D01*
X0070717Y0095949D01*
X0064245Y0095949D02*
X0064024Y0095949D01*
X0064245Y0095949D02*
X0064245Y0105949D01*
X0063917Y0105949D01*
X0070495Y0105949D02*
X0070823Y0105949D01*
X0055395Y0110374D02*
X0055395Y0098549D01*
X0062120Y0091824D01*
X0055395Y0110374D02*
X0055330Y0110439D01*
X0077995Y0122019D02*
X0094575Y0105439D01*
X0094575Y0085949D01*
X0104063Y0085949D01*
X0104063Y0090949D02*
X0117370Y0090949D01*
X0117370Y0051795D01*
X0117880Y0051285D01*
X0117880Y0051064D01*
X0147995Y0020949D01*
X0152370Y0020949D01*
X0117470Y0031309D02*
X0117370Y0031409D01*
X0117370Y0045102D01*
X0119870Y0067199D02*
X0119870Y0078449D01*
X0144870Y0078449D01*
X0144870Y0090949D01*
X0140677Y0090949D01*
X0140677Y0095949D02*
X0144870Y0095949D01*
X0144870Y0117199D01*
X0147420Y0121122D02*
X0147420Y0075949D01*
X0140677Y0075949D01*
X0140677Y0080949D02*
X0119245Y0080949D01*
X0119245Y0130949D01*
X0119024Y0130949D01*
X0119245Y0130949D02*
X0119245Y0135324D01*
X0119870Y0135949D01*
X0122370Y0137824D02*
X0119245Y0140949D01*
X0119024Y0140949D01*
X0119245Y0140949D02*
X0119245Y0145324D01*
X0119870Y0145949D01*
X0125495Y0140949D02*
X0125717Y0140949D01*
X0122370Y0137824D02*
X0122370Y0085949D01*
X0140677Y0085949D01*
X0140677Y0100949D02*
X0134360Y0100949D01*
X0134360Y0105949D02*
X0140677Y0105949D01*
X0140677Y0110949D02*
X0140495Y0110949D01*
X0147420Y0121122D02*
X0145940Y0122602D01*
X0143900Y0122602D01*
X0143317Y0122602D01*
X0139920Y0125999D01*
X0138390Y0125999D01*
X0143900Y0129295D02*
X0143900Y0129699D01*
X0126120Y0130949D02*
X0125717Y0130949D01*
X0125495Y0130949D01*
X0160710Y0148449D02*
X0077995Y0148449D01*
X0037370Y0087939D02*
X0037370Y0087917D01*
X0104063Y0080949D02*
X0108440Y0080949D01*
X0109870Y0082379D01*
X0109870Y0083909D01*
X0167370Y0088980D02*
X0167370Y0089074D01*
X0167370Y0092917D02*
X0167370Y0092939D01*
X0172830Y0092939D01*
X0172830Y0121409D01*
X0182370Y0130949D01*
X0182370Y0140949D02*
X0181860Y0141459D01*
X0167700Y0141459D01*
X0167385Y0141774D01*
X0167385Y0097214D01*
X0167370Y0097199D01*
X0167370Y0096854D01*
X0175215Y0089074D02*
X0175215Y0089074D01*
X0167385Y0141774D02*
X0160710Y0148449D01*
D22*
X0147759Y0129295D02*
X0143900Y0129295D01*
X0143900Y0129699D02*
X0134870Y0129699D01*
X0134870Y0116574D01*
X0140495Y0110949D01*
X0151335Y0125719D02*
X0147759Y0129295D01*
X0151335Y0125719D02*
X0151335Y0091924D01*
X0156800Y0086459D01*
X0158216Y0085043D01*
X0167370Y0085043D01*
X0167370Y0089074D02*
X0175215Y0089074D01*
X0175215Y0060444D01*
X0175365Y0060594D01*
X0175365Y0050949D01*
X0182370Y0050949D01*
X0131170Y0050949D01*
X0129895Y0049674D01*
X0129010Y0048789D01*
X0127025Y0046804D01*
X0111350Y0043449D02*
X0109310Y0043449D01*
X0107305Y0045454D01*
X0107305Y0074747D01*
X0106103Y0075949D01*
X0104063Y0075949D01*
X0099770Y0075949D01*
X0098117Y0077602D01*
X0086870Y0077602D01*
X0080717Y0077602D01*
X0076870Y0081449D01*
X0076870Y0089189D01*
X0086870Y0091574D02*
X0086870Y0084295D01*
X0086870Y0077602D02*
X0086870Y0077602D01*
X0086870Y0091574D02*
X0086880Y0091584D01*
X0070495Y0105949D02*
X0067370Y0109074D01*
X0067370Y0132859D01*
X0037370Y0102859D01*
X0037370Y0091854D01*
X0037370Y0087939D02*
X0045840Y0087939D01*
X0067370Y0132859D02*
X0067370Y0158949D01*
X0125495Y0140949D02*
X0125495Y0130949D01*
X0126120Y0130949D02*
X0126120Y0129699D01*
X0134870Y0129699D01*
X0175215Y0113794D02*
X0182370Y0120949D01*
X0175215Y0113794D02*
X0175215Y0089074D01*
M02*
