G75*
%MOIN*%
%OFA0B0*%
%FSLAX25Y25*%
%IPPOS*%
%LPD*%
%AMOC8*
5,1,8,0,0,1.08239X$1,22.5*
%
%ADD10C,0.00800*%
%ADD11R,0.00130X0.00390*%
%ADD12R,0.00130X0.00260*%
%ADD13R,0.00130X0.00780*%
%ADD14R,0.00130X0.00650*%
%ADD15R,0.00130X0.00910*%
%ADD16R,0.00130X0.01040*%
%ADD17R,0.00130X0.01040*%
%ADD18R,0.00130X0.01170*%
%ADD19R,0.00130X0.01430*%
%ADD20R,0.00130X0.01560*%
%ADD21R,0.00130X0.02210*%
%ADD22R,0.00130X0.00130*%
%ADD23R,0.00130X0.01170*%
%ADD24R,0.00130X0.01300*%
%ADD25R,0.00130X0.03900*%
%ADD26R,0.00130X0.04030*%
%ADD27R,0.00130X0.04290*%
%ADD28R,0.00130X0.01950*%
%ADD29R,0.00130X0.02340*%
%ADD30R,0.00130X0.04420*%
%ADD31R,0.00130X0.04550*%
%ADD32R,0.00130X0.02600*%
%ADD33R,0.00130X0.00520*%
%ADD34R,0.00130X0.02990*%
%ADD35R,0.00130X0.03120*%
%ADD36R,0.00130X0.01690*%
%ADD37R,0.00130X0.03510*%
%ADD38R,0.00130X0.04680*%
%ADD39R,0.00130X0.03640*%
%ADD40R,0.00130X0.04290*%
%ADD41R,0.00130X0.01690*%
%ADD42R,0.00130X0.04940*%
%ADD43R,0.00130X0.05200*%
%ADD44R,0.00130X0.01820*%
%ADD45R,0.00130X0.02860*%
%ADD46R,0.00130X0.02080*%
%ADD47R,0.00130X0.02470*%
%ADD48R,0.00130X0.04940*%
%ADD49R,0.00130X0.01820*%
%ADD50R,0.00130X0.00390*%
%ADD51R,0.00130X0.05070*%
%ADD52R,0.00130X0.04810*%
%ADD53R,0.00130X0.03250*%
%ADD54R,0.00130X0.02730*%
%ADD55R,0.00130X0.02340*%
%ADD56R,0.00130X0.05070*%
%ADD57R,0.00130X0.03120*%
%ADD58R,0.00130X0.05460*%
%ADD59R,0.00130X0.02470*%
%ADD60R,0.00130X0.03770*%
%ADD61R,0.00130X0.05330*%
%ADD62R,0.00130X0.04160*%
%ADD63R,0.00130X0.03380*%
%ADD64R,0.00130X0.03770*%
%ADD65R,0.00130X0.00520*%
%ADD66C,0.00000*%
%ADD67C,0.00591*%
%ADD68R,0.00157X0.13386*%
%ADD69R,0.00118X0.13386*%
%ADD70R,0.00118X0.02913*%
%ADD71R,0.00118X0.09646*%
%ADD72R,0.00157X0.02638*%
%ADD73R,0.00157X0.01102*%
%ADD74R,0.00157X0.01654*%
%ADD75R,0.00157X0.00551*%
%ADD76R,0.00118X0.02362*%
%ADD77R,0.00118X0.00709*%
%ADD78R,0.00118X0.01378*%
%ADD79R,0.00118X0.00433*%
%ADD80R,0.00157X0.02205*%
%ADD81R,0.00157X0.01220*%
%ADD82R,0.00157X0.00433*%
%ADD83R,0.00118X0.01929*%
%ADD84R,0.00118X0.00551*%
%ADD85R,0.00118X0.01220*%
%ADD86R,0.00118X0.02087*%
%ADD87R,0.00157X0.01929*%
%ADD88R,0.00118X0.01811*%
%ADD89R,0.00118X0.00945*%
%ADD90R,0.00157X0.00945*%
%ADD91R,0.00157X0.00709*%
%ADD92R,0.00157X0.00827*%
%ADD93R,0.00118X0.01654*%
%ADD94R,0.00118X0.02480*%
%ADD95R,0.00118X0.00827*%
%ADD96R,0.00118X0.00984*%
%ADD97R,0.00157X0.00669*%
%ADD98R,0.00157X0.01535*%
%ADD99R,0.00118X0.01535*%
%ADD100R,0.00118X0.02638*%
%ADD101R,0.00118X0.01260*%
%ADD102R,0.00157X0.00394*%
%ADD103R,0.00157X0.01378*%
%ADD104R,0.00118X0.00394*%
%ADD105R,0.00157X0.00157*%
%ADD106R,0.00157X0.00276*%
%ADD107R,0.00118X0.00276*%
%ADD108R,0.00118X0.00118*%
%ADD109R,0.00157X0.01260*%
%ADD110R,0.00118X0.01102*%
%ADD111R,0.00157X0.00984*%
%ADD112R,0.00157X0.01811*%
%ADD113R,0.00157X0.02087*%
%ADD114R,0.00118X0.02205*%
%ADD115R,0.00157X0.02480*%
%ADD116R,0.00157X0.01496*%
%ADD117R,0.00118X0.02756*%
%ADD118R,0.00118X0.00669*%
%ADD119R,0.00118X0.10394*%
%ADD120R,0.00118X0.10748*%
%ADD121R,0.00079X0.10984*%
%ADD122R,0.00157X0.11220*%
%ADD123R,0.00118X0.11339*%
%ADD124R,0.00118X0.11457*%
%ADD125R,0.00079X0.11575*%
%ADD126R,0.00118X0.02126*%
%ADD127R,0.00118X0.08976*%
%ADD128R,0.00157X0.01890*%
%ADD129R,0.00157X0.02362*%
%ADD130R,0.00157X0.03425*%
%ADD131R,0.00118X0.00591*%
%ADD132R,0.00118X0.02008*%
%ADD133R,0.00118X0.03307*%
%ADD134R,0.00118X0.00472*%
%ADD135R,0.00118X0.03425*%
%ADD136R,0.00157X0.01417*%
%ADD137R,0.00157X0.00472*%
%ADD138R,0.00157X0.01299*%
%ADD139R,0.00118X0.01417*%
%ADD140R,0.00118X0.01181*%
%ADD141R,0.00118X0.01772*%
%ADD142R,0.00157X0.01063*%
%ADD143R,0.00157X0.03307*%
%ADD144R,0.00118X0.03189*%
%ADD145R,0.00118X0.01299*%
%ADD146R,0.00118X0.00236*%
%ADD147R,0.00157X0.00591*%
%ADD148R,0.00157X0.00236*%
%ADD149R,0.00157X0.03071*%
%ADD150R,0.00118X0.00354*%
%ADD151R,0.00118X0.03071*%
%ADD152R,0.00118X0.02953*%
%ADD153R,0.00157X0.02835*%
%ADD154R,0.00157X0.00354*%
%ADD155R,0.00157X0.01181*%
%ADD156R,0.00118X0.01063*%
%ADD157R,0.00118X0.02835*%
%ADD158R,0.00118X0.02598*%
%ADD159R,0.00118X0.02244*%
%ADD160R,0.00157X0.01772*%
%ADD161R,0.00157X0.02126*%
%ADD162R,0.00118X0.11575*%
%ADD163R,0.00118X0.11220*%
%ADD164R,0.00118X0.10984*%
%ADD165R,0.00118X0.09921*%
%ADD166R,0.00118X0.10276*%
%ADD167R,0.00079X0.10512*%
%ADD168R,0.00157X0.10748*%
%ADD169R,0.00118X0.10866*%
%ADD170R,0.00079X0.11102*%
%ADD171R,0.00118X0.02717*%
%ADD172R,0.00157X0.02008*%
%ADD173R,0.00157X0.00118*%
%ADD174R,0.00157X0.03543*%
%ADD175R,0.00118X0.03543*%
%ADD176R,0.00157X0.02717*%
%ADD177R,0.00157X0.03189*%
%ADD178R,0.00157X0.02598*%
%ADD179R,0.00157X0.02244*%
%ADD180R,0.00118X0.01890*%
%ADD181R,0.00118X0.11102*%
%ADD182R,0.00118X0.10512*%
%ADD183R,0.00157X0.12520*%
%ADD184R,0.00118X0.12520*%
%ADD185R,0.00118X0.06220*%
%ADD186R,0.00157X0.02047*%
%ADD187R,0.00118X0.02047*%
%ADD188R,0.00118X0.01496*%
%ADD189R,0.00118X0.03031*%
%ADD190R,0.00118X0.00157*%
D10*
X0012250Y0015449D02*
X0029750Y0015449D01*
X0029992Y0015452D01*
X0030233Y0015461D01*
X0030474Y0015475D01*
X0030715Y0015496D01*
X0030955Y0015522D01*
X0031195Y0015554D01*
X0031434Y0015592D01*
X0031671Y0015635D01*
X0031908Y0015685D01*
X0032143Y0015740D01*
X0032377Y0015800D01*
X0032609Y0015867D01*
X0032840Y0015938D01*
X0033069Y0016016D01*
X0033296Y0016099D01*
X0033521Y0016187D01*
X0033744Y0016281D01*
X0033964Y0016380D01*
X0034182Y0016485D01*
X0034397Y0016594D01*
X0034610Y0016709D01*
X0034820Y0016829D01*
X0035026Y0016954D01*
X0035230Y0017084D01*
X0035431Y0017219D01*
X0035628Y0017359D01*
X0035822Y0017503D01*
X0036012Y0017652D01*
X0036198Y0017806D01*
X0036381Y0017964D01*
X0036560Y0018126D01*
X0036735Y0018293D01*
X0036906Y0018464D01*
X0037073Y0018639D01*
X0037235Y0018818D01*
X0037393Y0019001D01*
X0037547Y0019187D01*
X0037696Y0019377D01*
X0037840Y0019571D01*
X0037980Y0019768D01*
X0038115Y0019969D01*
X0038245Y0020173D01*
X0038370Y0020379D01*
X0038490Y0020589D01*
X0038605Y0020802D01*
X0038714Y0021017D01*
X0038819Y0021235D01*
X0038918Y0021455D01*
X0039012Y0021678D01*
X0039100Y0021903D01*
X0039183Y0022130D01*
X0039261Y0022359D01*
X0039332Y0022590D01*
X0039399Y0022822D01*
X0039459Y0023056D01*
X0039514Y0023291D01*
X0039564Y0023528D01*
X0039607Y0023765D01*
X0039645Y0024004D01*
X0039677Y0024244D01*
X0039703Y0024484D01*
X0039724Y0024725D01*
X0039738Y0024966D01*
X0039747Y0025207D01*
X0039750Y0025449D01*
X0039750Y0035449D01*
X0039753Y0035691D01*
X0039762Y0035932D01*
X0039776Y0036173D01*
X0039797Y0036414D01*
X0039823Y0036654D01*
X0039855Y0036894D01*
X0039893Y0037133D01*
X0039936Y0037370D01*
X0039986Y0037607D01*
X0040041Y0037842D01*
X0040101Y0038076D01*
X0040168Y0038308D01*
X0040239Y0038539D01*
X0040317Y0038768D01*
X0040400Y0038995D01*
X0040488Y0039220D01*
X0040582Y0039443D01*
X0040681Y0039663D01*
X0040786Y0039881D01*
X0040895Y0040096D01*
X0041010Y0040309D01*
X0041130Y0040519D01*
X0041255Y0040725D01*
X0041385Y0040929D01*
X0041520Y0041130D01*
X0041660Y0041327D01*
X0041804Y0041521D01*
X0041953Y0041711D01*
X0042107Y0041897D01*
X0042265Y0042080D01*
X0042427Y0042259D01*
X0042594Y0042434D01*
X0042765Y0042605D01*
X0042940Y0042772D01*
X0043119Y0042934D01*
X0043302Y0043092D01*
X0043488Y0043246D01*
X0043678Y0043395D01*
X0043872Y0043539D01*
X0044069Y0043679D01*
X0044270Y0043814D01*
X0044474Y0043944D01*
X0044680Y0044069D01*
X0044890Y0044189D01*
X0045103Y0044304D01*
X0045318Y0044413D01*
X0045536Y0044518D01*
X0045756Y0044617D01*
X0045979Y0044711D01*
X0046204Y0044799D01*
X0046431Y0044882D01*
X0046660Y0044960D01*
X0046891Y0045031D01*
X0047123Y0045098D01*
X0047357Y0045158D01*
X0047592Y0045213D01*
X0047829Y0045263D01*
X0048066Y0045306D01*
X0048305Y0045344D01*
X0048545Y0045376D01*
X0048785Y0045402D01*
X0049026Y0045423D01*
X0049267Y0045437D01*
X0049508Y0045446D01*
X0049750Y0045449D01*
X0079750Y0045449D01*
X0079992Y0045446D01*
X0080233Y0045437D01*
X0080474Y0045423D01*
X0080715Y0045402D01*
X0080955Y0045376D01*
X0081195Y0045344D01*
X0081434Y0045306D01*
X0081671Y0045263D01*
X0081908Y0045213D01*
X0082143Y0045158D01*
X0082377Y0045098D01*
X0082609Y0045031D01*
X0082840Y0044960D01*
X0083069Y0044882D01*
X0083296Y0044799D01*
X0083521Y0044711D01*
X0083744Y0044617D01*
X0083964Y0044518D01*
X0084182Y0044413D01*
X0084397Y0044304D01*
X0084610Y0044189D01*
X0084820Y0044069D01*
X0085026Y0043944D01*
X0085230Y0043814D01*
X0085431Y0043679D01*
X0085628Y0043539D01*
X0085822Y0043395D01*
X0086012Y0043246D01*
X0086198Y0043092D01*
X0086381Y0042934D01*
X0086560Y0042772D01*
X0086735Y0042605D01*
X0086906Y0042434D01*
X0087073Y0042259D01*
X0087235Y0042080D01*
X0087393Y0041897D01*
X0087547Y0041711D01*
X0087696Y0041521D01*
X0087840Y0041327D01*
X0087980Y0041130D01*
X0088115Y0040929D01*
X0088245Y0040725D01*
X0088370Y0040519D01*
X0088490Y0040309D01*
X0088605Y0040096D01*
X0088714Y0039881D01*
X0088819Y0039663D01*
X0088918Y0039443D01*
X0089012Y0039220D01*
X0089100Y0038995D01*
X0089183Y0038768D01*
X0089261Y0038539D01*
X0089332Y0038308D01*
X0089399Y0038076D01*
X0089459Y0037842D01*
X0089514Y0037607D01*
X0089564Y0037370D01*
X0089607Y0037133D01*
X0089645Y0036894D01*
X0089677Y0036654D01*
X0089703Y0036414D01*
X0089724Y0036173D01*
X0089738Y0035932D01*
X0089747Y0035691D01*
X0089750Y0035449D01*
X0089750Y0025449D01*
X0089753Y0025207D01*
X0089762Y0024966D01*
X0089776Y0024725D01*
X0089797Y0024484D01*
X0089823Y0024244D01*
X0089855Y0024004D01*
X0089893Y0023765D01*
X0089936Y0023528D01*
X0089986Y0023291D01*
X0090041Y0023056D01*
X0090101Y0022822D01*
X0090168Y0022590D01*
X0090239Y0022359D01*
X0090317Y0022130D01*
X0090400Y0021903D01*
X0090488Y0021678D01*
X0090582Y0021455D01*
X0090681Y0021235D01*
X0090786Y0021017D01*
X0090895Y0020802D01*
X0091010Y0020589D01*
X0091130Y0020379D01*
X0091255Y0020173D01*
X0091385Y0019969D01*
X0091520Y0019768D01*
X0091660Y0019571D01*
X0091804Y0019377D01*
X0091953Y0019187D01*
X0092107Y0019001D01*
X0092265Y0018818D01*
X0092427Y0018639D01*
X0092594Y0018464D01*
X0092765Y0018293D01*
X0092940Y0018126D01*
X0093119Y0017964D01*
X0093302Y0017806D01*
X0093488Y0017652D01*
X0093678Y0017503D01*
X0093872Y0017359D01*
X0094069Y0017219D01*
X0094270Y0017084D01*
X0094474Y0016954D01*
X0094680Y0016829D01*
X0094890Y0016709D01*
X0095103Y0016594D01*
X0095318Y0016485D01*
X0095536Y0016380D01*
X0095756Y0016281D01*
X0095979Y0016187D01*
X0096204Y0016099D01*
X0096431Y0016016D01*
X0096660Y0015938D01*
X0096891Y0015867D01*
X0097123Y0015800D01*
X0097357Y0015740D01*
X0097592Y0015685D01*
X0097829Y0015635D01*
X0098066Y0015592D01*
X0098305Y0015554D01*
X0098545Y0015522D01*
X0098785Y0015496D01*
X0099026Y0015475D01*
X0099267Y0015461D01*
X0099508Y0015452D01*
X0099750Y0015449D01*
X0157250Y0015449D01*
X0157492Y0015452D01*
X0157733Y0015461D01*
X0157974Y0015475D01*
X0158215Y0015496D01*
X0158455Y0015522D01*
X0158695Y0015554D01*
X0158934Y0015592D01*
X0159171Y0015635D01*
X0159408Y0015685D01*
X0159643Y0015740D01*
X0159877Y0015800D01*
X0160109Y0015867D01*
X0160340Y0015938D01*
X0160569Y0016016D01*
X0160796Y0016099D01*
X0161021Y0016187D01*
X0161244Y0016281D01*
X0161464Y0016380D01*
X0161682Y0016485D01*
X0161897Y0016594D01*
X0162110Y0016709D01*
X0162320Y0016829D01*
X0162526Y0016954D01*
X0162730Y0017084D01*
X0162931Y0017219D01*
X0163128Y0017359D01*
X0163322Y0017503D01*
X0163512Y0017652D01*
X0163698Y0017806D01*
X0163881Y0017964D01*
X0164060Y0018126D01*
X0164235Y0018293D01*
X0164406Y0018464D01*
X0164573Y0018639D01*
X0164735Y0018818D01*
X0164893Y0019001D01*
X0165047Y0019187D01*
X0165196Y0019377D01*
X0165340Y0019571D01*
X0165480Y0019768D01*
X0165615Y0019969D01*
X0165745Y0020173D01*
X0165870Y0020379D01*
X0165990Y0020589D01*
X0166105Y0020802D01*
X0166214Y0021017D01*
X0166319Y0021235D01*
X0166418Y0021455D01*
X0166512Y0021678D01*
X0166600Y0021903D01*
X0166683Y0022130D01*
X0166761Y0022359D01*
X0166832Y0022590D01*
X0166899Y0022822D01*
X0166959Y0023056D01*
X0167014Y0023291D01*
X0167064Y0023528D01*
X0167107Y0023765D01*
X0167145Y0024004D01*
X0167177Y0024244D01*
X0167203Y0024484D01*
X0167224Y0024725D01*
X0167238Y0024966D01*
X0167247Y0025207D01*
X0167250Y0025449D01*
X0167250Y0125449D01*
X0167247Y0125691D01*
X0167238Y0125932D01*
X0167224Y0126173D01*
X0167203Y0126414D01*
X0167177Y0126654D01*
X0167145Y0126894D01*
X0167107Y0127133D01*
X0167064Y0127370D01*
X0167014Y0127607D01*
X0166959Y0127842D01*
X0166899Y0128076D01*
X0166832Y0128308D01*
X0166761Y0128539D01*
X0166683Y0128768D01*
X0166600Y0128995D01*
X0166512Y0129220D01*
X0166418Y0129443D01*
X0166319Y0129663D01*
X0166214Y0129881D01*
X0166105Y0130096D01*
X0165990Y0130309D01*
X0165870Y0130519D01*
X0165745Y0130725D01*
X0165615Y0130929D01*
X0165480Y0131130D01*
X0165340Y0131327D01*
X0165196Y0131521D01*
X0165047Y0131711D01*
X0164893Y0131897D01*
X0164735Y0132080D01*
X0164573Y0132259D01*
X0164406Y0132434D01*
X0164235Y0132605D01*
X0164060Y0132772D01*
X0163881Y0132934D01*
X0163698Y0133092D01*
X0163512Y0133246D01*
X0163322Y0133395D01*
X0163128Y0133539D01*
X0162931Y0133679D01*
X0162730Y0133814D01*
X0162526Y0133944D01*
X0162320Y0134069D01*
X0162110Y0134189D01*
X0161897Y0134304D01*
X0161682Y0134413D01*
X0161464Y0134518D01*
X0161244Y0134617D01*
X0161021Y0134711D01*
X0160796Y0134799D01*
X0160569Y0134882D01*
X0160340Y0134960D01*
X0160109Y0135031D01*
X0159877Y0135098D01*
X0159643Y0135158D01*
X0159408Y0135213D01*
X0159171Y0135263D01*
X0158934Y0135306D01*
X0158695Y0135344D01*
X0158455Y0135376D01*
X0158215Y0135402D01*
X0157974Y0135423D01*
X0157733Y0135437D01*
X0157492Y0135446D01*
X0157250Y0135449D01*
X0099750Y0135449D01*
X0099508Y0135446D01*
X0099267Y0135437D01*
X0099026Y0135423D01*
X0098785Y0135402D01*
X0098545Y0135376D01*
X0098305Y0135344D01*
X0098066Y0135306D01*
X0097829Y0135263D01*
X0097592Y0135213D01*
X0097357Y0135158D01*
X0097123Y0135098D01*
X0096891Y0135031D01*
X0096660Y0134960D01*
X0096431Y0134882D01*
X0096204Y0134799D01*
X0095979Y0134711D01*
X0095756Y0134617D01*
X0095536Y0134518D01*
X0095318Y0134413D01*
X0095103Y0134304D01*
X0094890Y0134189D01*
X0094680Y0134069D01*
X0094474Y0133944D01*
X0094270Y0133814D01*
X0094069Y0133679D01*
X0093872Y0133539D01*
X0093678Y0133395D01*
X0093488Y0133246D01*
X0093302Y0133092D01*
X0093119Y0132934D01*
X0092940Y0132772D01*
X0092765Y0132605D01*
X0092594Y0132434D01*
X0092427Y0132259D01*
X0092265Y0132080D01*
X0092107Y0131897D01*
X0091953Y0131711D01*
X0091804Y0131521D01*
X0091660Y0131327D01*
X0091520Y0131130D01*
X0091385Y0130929D01*
X0091255Y0130725D01*
X0091130Y0130519D01*
X0091010Y0130309D01*
X0090895Y0130096D01*
X0090786Y0129881D01*
X0090681Y0129663D01*
X0090582Y0129443D01*
X0090488Y0129220D01*
X0090400Y0128995D01*
X0090317Y0128768D01*
X0090239Y0128539D01*
X0090168Y0128308D01*
X0090101Y0128076D01*
X0090041Y0127842D01*
X0089986Y0127607D01*
X0089936Y0127370D01*
X0089893Y0127133D01*
X0089855Y0126894D01*
X0089823Y0126654D01*
X0089797Y0126414D01*
X0089776Y0126173D01*
X0089762Y0125932D01*
X0089753Y0125691D01*
X0089750Y0125449D01*
X0089750Y0115449D01*
X0089747Y0115207D01*
X0089738Y0114966D01*
X0089724Y0114725D01*
X0089703Y0114484D01*
X0089677Y0114244D01*
X0089645Y0114004D01*
X0089607Y0113765D01*
X0089564Y0113528D01*
X0089514Y0113291D01*
X0089459Y0113056D01*
X0089399Y0112822D01*
X0089332Y0112590D01*
X0089261Y0112359D01*
X0089183Y0112130D01*
X0089100Y0111903D01*
X0089012Y0111678D01*
X0088918Y0111455D01*
X0088819Y0111235D01*
X0088714Y0111017D01*
X0088605Y0110802D01*
X0088490Y0110589D01*
X0088370Y0110379D01*
X0088245Y0110173D01*
X0088115Y0109969D01*
X0087980Y0109768D01*
X0087840Y0109571D01*
X0087696Y0109377D01*
X0087547Y0109187D01*
X0087393Y0109001D01*
X0087235Y0108818D01*
X0087073Y0108639D01*
X0086906Y0108464D01*
X0086735Y0108293D01*
X0086560Y0108126D01*
X0086381Y0107964D01*
X0086198Y0107806D01*
X0086012Y0107652D01*
X0085822Y0107503D01*
X0085628Y0107359D01*
X0085431Y0107219D01*
X0085230Y0107084D01*
X0085026Y0106954D01*
X0084820Y0106829D01*
X0084610Y0106709D01*
X0084397Y0106594D01*
X0084182Y0106485D01*
X0083964Y0106380D01*
X0083744Y0106281D01*
X0083521Y0106187D01*
X0083296Y0106099D01*
X0083069Y0106016D01*
X0082840Y0105938D01*
X0082609Y0105867D01*
X0082377Y0105800D01*
X0082143Y0105740D01*
X0081908Y0105685D01*
X0081671Y0105635D01*
X0081434Y0105592D01*
X0081195Y0105554D01*
X0080955Y0105522D01*
X0080715Y0105496D01*
X0080474Y0105475D01*
X0080233Y0105461D01*
X0079992Y0105452D01*
X0079750Y0105449D01*
X0049750Y0105449D01*
X0049508Y0105452D01*
X0049267Y0105461D01*
X0049026Y0105475D01*
X0048785Y0105496D01*
X0048545Y0105522D01*
X0048305Y0105554D01*
X0048066Y0105592D01*
X0047829Y0105635D01*
X0047592Y0105685D01*
X0047357Y0105740D01*
X0047123Y0105800D01*
X0046891Y0105867D01*
X0046660Y0105938D01*
X0046431Y0106016D01*
X0046204Y0106099D01*
X0045979Y0106187D01*
X0045756Y0106281D01*
X0045536Y0106380D01*
X0045318Y0106485D01*
X0045103Y0106594D01*
X0044890Y0106709D01*
X0044680Y0106829D01*
X0044474Y0106954D01*
X0044270Y0107084D01*
X0044069Y0107219D01*
X0043872Y0107359D01*
X0043678Y0107503D01*
X0043488Y0107652D01*
X0043302Y0107806D01*
X0043119Y0107964D01*
X0042940Y0108126D01*
X0042765Y0108293D01*
X0042594Y0108464D01*
X0042427Y0108639D01*
X0042265Y0108818D01*
X0042107Y0109001D01*
X0041953Y0109187D01*
X0041804Y0109377D01*
X0041660Y0109571D01*
X0041520Y0109768D01*
X0041385Y0109969D01*
X0041255Y0110173D01*
X0041130Y0110379D01*
X0041010Y0110589D01*
X0040895Y0110802D01*
X0040786Y0111017D01*
X0040681Y0111235D01*
X0040582Y0111455D01*
X0040488Y0111678D01*
X0040400Y0111903D01*
X0040317Y0112130D01*
X0040239Y0112359D01*
X0040168Y0112590D01*
X0040101Y0112822D01*
X0040041Y0113056D01*
X0039986Y0113291D01*
X0039936Y0113528D01*
X0039893Y0113765D01*
X0039855Y0114004D01*
X0039823Y0114244D01*
X0039797Y0114484D01*
X0039776Y0114725D01*
X0039762Y0114966D01*
X0039753Y0115207D01*
X0039750Y0115449D01*
X0039750Y0125449D01*
X0039747Y0125691D01*
X0039738Y0125932D01*
X0039724Y0126173D01*
X0039703Y0126414D01*
X0039677Y0126654D01*
X0039645Y0126894D01*
X0039607Y0127133D01*
X0039564Y0127370D01*
X0039514Y0127607D01*
X0039459Y0127842D01*
X0039399Y0128076D01*
X0039332Y0128308D01*
X0039261Y0128539D01*
X0039183Y0128768D01*
X0039100Y0128995D01*
X0039012Y0129220D01*
X0038918Y0129443D01*
X0038819Y0129663D01*
X0038714Y0129881D01*
X0038605Y0130096D01*
X0038490Y0130309D01*
X0038370Y0130519D01*
X0038245Y0130725D01*
X0038115Y0130929D01*
X0037980Y0131130D01*
X0037840Y0131327D01*
X0037696Y0131521D01*
X0037547Y0131711D01*
X0037393Y0131897D01*
X0037235Y0132080D01*
X0037073Y0132259D01*
X0036906Y0132434D01*
X0036735Y0132605D01*
X0036560Y0132772D01*
X0036381Y0132934D01*
X0036198Y0133092D01*
X0036012Y0133246D01*
X0035822Y0133395D01*
X0035628Y0133539D01*
X0035431Y0133679D01*
X0035230Y0133814D01*
X0035026Y0133944D01*
X0034820Y0134069D01*
X0034610Y0134189D01*
X0034397Y0134304D01*
X0034182Y0134413D01*
X0033964Y0134518D01*
X0033744Y0134617D01*
X0033521Y0134711D01*
X0033296Y0134799D01*
X0033069Y0134882D01*
X0032840Y0134960D01*
X0032609Y0135031D01*
X0032377Y0135098D01*
X0032143Y0135158D01*
X0031908Y0135213D01*
X0031671Y0135263D01*
X0031434Y0135306D01*
X0031195Y0135344D01*
X0030955Y0135376D01*
X0030715Y0135402D01*
X0030474Y0135423D01*
X0030233Y0135437D01*
X0029992Y0135446D01*
X0029750Y0135449D01*
X0012250Y0135449D01*
X0012008Y0135446D01*
X0011767Y0135437D01*
X0011526Y0135423D01*
X0011285Y0135402D01*
X0011045Y0135376D01*
X0010805Y0135344D01*
X0010566Y0135306D01*
X0010329Y0135263D01*
X0010092Y0135213D01*
X0009857Y0135158D01*
X0009623Y0135098D01*
X0009391Y0135031D01*
X0009160Y0134960D01*
X0008931Y0134882D01*
X0008704Y0134799D01*
X0008479Y0134711D01*
X0008256Y0134617D01*
X0008036Y0134518D01*
X0007818Y0134413D01*
X0007603Y0134304D01*
X0007390Y0134189D01*
X0007180Y0134069D01*
X0006974Y0133944D01*
X0006770Y0133814D01*
X0006569Y0133679D01*
X0006372Y0133539D01*
X0006178Y0133395D01*
X0005988Y0133246D01*
X0005802Y0133092D01*
X0005619Y0132934D01*
X0005440Y0132772D01*
X0005265Y0132605D01*
X0005094Y0132434D01*
X0004927Y0132259D01*
X0004765Y0132080D01*
X0004607Y0131897D01*
X0004453Y0131711D01*
X0004304Y0131521D01*
X0004160Y0131327D01*
X0004020Y0131130D01*
X0003885Y0130929D01*
X0003755Y0130725D01*
X0003630Y0130519D01*
X0003510Y0130309D01*
X0003395Y0130096D01*
X0003286Y0129881D01*
X0003181Y0129663D01*
X0003082Y0129443D01*
X0002988Y0129220D01*
X0002900Y0128995D01*
X0002817Y0128768D01*
X0002739Y0128539D01*
X0002668Y0128308D01*
X0002601Y0128076D01*
X0002541Y0127842D01*
X0002486Y0127607D01*
X0002436Y0127370D01*
X0002393Y0127133D01*
X0002355Y0126894D01*
X0002323Y0126654D01*
X0002297Y0126414D01*
X0002276Y0126173D01*
X0002262Y0125932D01*
X0002253Y0125691D01*
X0002250Y0125449D01*
X0002250Y0025449D01*
X0002253Y0025207D01*
X0002262Y0024966D01*
X0002276Y0024725D01*
X0002297Y0024484D01*
X0002323Y0024244D01*
X0002355Y0024004D01*
X0002393Y0023765D01*
X0002436Y0023528D01*
X0002486Y0023291D01*
X0002541Y0023056D01*
X0002601Y0022822D01*
X0002668Y0022590D01*
X0002739Y0022359D01*
X0002817Y0022130D01*
X0002900Y0021903D01*
X0002988Y0021678D01*
X0003082Y0021455D01*
X0003181Y0021235D01*
X0003286Y0021017D01*
X0003395Y0020802D01*
X0003510Y0020589D01*
X0003630Y0020379D01*
X0003755Y0020173D01*
X0003885Y0019969D01*
X0004020Y0019768D01*
X0004160Y0019571D01*
X0004304Y0019377D01*
X0004453Y0019187D01*
X0004607Y0019001D01*
X0004765Y0018818D01*
X0004927Y0018639D01*
X0005094Y0018464D01*
X0005265Y0018293D01*
X0005440Y0018126D01*
X0005619Y0017964D01*
X0005802Y0017806D01*
X0005988Y0017652D01*
X0006178Y0017503D01*
X0006372Y0017359D01*
X0006569Y0017219D01*
X0006770Y0017084D01*
X0006974Y0016954D01*
X0007180Y0016829D01*
X0007390Y0016709D01*
X0007603Y0016594D01*
X0007818Y0016485D01*
X0008036Y0016380D01*
X0008256Y0016281D01*
X0008479Y0016187D01*
X0008704Y0016099D01*
X0008931Y0016016D01*
X0009160Y0015938D01*
X0009391Y0015867D01*
X0009623Y0015800D01*
X0009857Y0015740D01*
X0010092Y0015685D01*
X0010329Y0015635D01*
X0010566Y0015592D01*
X0010805Y0015554D01*
X0011045Y0015522D01*
X0011285Y0015496D01*
X0011526Y0015475D01*
X0011767Y0015461D01*
X0012008Y0015452D01*
X0012250Y0015449D01*
D11*
X0017600Y0059589D03*
X0027350Y0059459D03*
X0024490Y0102229D03*
D12*
X0024360Y0099304D03*
X0018900Y0090984D03*
X0025920Y0072134D03*
X0024490Y0062774D03*
X0017730Y0045614D03*
D13*
X0017860Y0045614D03*
X0018120Y0052374D03*
X0017730Y0059654D03*
X0028260Y0056014D03*
X0018900Y0085264D03*
X0021110Y0099564D03*
X0024490Y0099304D03*
D14*
X0017730Y0105219D03*
X0025660Y0084679D03*
X0018380Y0074279D03*
X0017730Y0065829D03*
X0025790Y0055949D03*
X0018640Y0055559D03*
X0017990Y0052309D03*
X0018250Y0049319D03*
D15*
X0018380Y0049319D03*
X0018510Y0049319D03*
X0017990Y0045679D03*
X0026440Y0046199D03*
X0018770Y0055559D03*
X0017860Y0059589D03*
X0017860Y0065829D03*
X0024620Y0062839D03*
X0027090Y0059459D03*
X0027220Y0059459D03*
X0025660Y0055949D03*
X0028000Y0074539D03*
X0018510Y0074279D03*
X0025530Y0084679D03*
X0024100Y0088449D03*
X0018510Y0096509D03*
X0024620Y0099369D03*
X0024620Y0102229D03*
X0017860Y0105219D03*
D16*
X0017990Y0059524D03*
X0018120Y0059524D03*
X0018250Y0059524D03*
X0018380Y0059524D03*
X0018380Y0052374D03*
X0018250Y0052374D03*
D17*
X0018770Y0052504D03*
X0019030Y0049254D03*
X0019160Y0049254D03*
X0022410Y0049254D03*
X0022540Y0049254D03*
X0022670Y0049254D03*
X0022800Y0049254D03*
X0022930Y0049254D03*
X0023710Y0052764D03*
X0025530Y0056014D03*
X0026830Y0056014D03*
X0021500Y0055884D03*
X0018250Y0065894D03*
X0018120Y0065894D03*
X0017990Y0065894D03*
X0023060Y0066414D03*
X0023190Y0066414D03*
X0018640Y0074214D03*
X0027870Y0074604D03*
X0025400Y0084744D03*
X0019030Y0085264D03*
X0019030Y0090984D03*
X0020590Y0091114D03*
X0020980Y0099564D03*
X0024750Y0099304D03*
X0024880Y0099304D03*
X0018120Y0105284D03*
X0017990Y0105284D03*
X0020590Y0105804D03*
X0023190Y0105804D03*
X0023320Y0105804D03*
X0026180Y0046134D03*
X0026310Y0046134D03*
D18*
X0026050Y0046069D03*
X0025920Y0046069D03*
X0025790Y0046069D03*
X0023060Y0045679D03*
X0023060Y0049319D03*
X0023190Y0049319D03*
X0023320Y0049319D03*
X0023450Y0049319D03*
X0023580Y0049319D03*
X0023710Y0049319D03*
X0024360Y0052569D03*
X0023580Y0052829D03*
X0023450Y0052829D03*
X0023320Y0052829D03*
X0023190Y0052829D03*
X0023060Y0052829D03*
X0022930Y0052829D03*
X0022800Y0052829D03*
X0022670Y0052829D03*
X0022540Y0052829D03*
X0022410Y0052829D03*
X0022280Y0052829D03*
X0022150Y0052829D03*
X0022020Y0052829D03*
X0021890Y0052829D03*
X0021760Y0052829D03*
X0021630Y0052829D03*
X0021500Y0052829D03*
X0021370Y0052829D03*
X0021240Y0052829D03*
X0021110Y0052829D03*
X0020980Y0052829D03*
X0020850Y0052829D03*
X0020720Y0052829D03*
X0019420Y0052569D03*
X0019290Y0052569D03*
X0019160Y0052569D03*
X0019030Y0052569D03*
X0018900Y0052569D03*
X0018900Y0049319D03*
X0018770Y0049319D03*
X0018640Y0049319D03*
X0018250Y0045679D03*
X0018120Y0045679D03*
X0020200Y0055819D03*
X0020330Y0055819D03*
X0020460Y0055819D03*
X0020590Y0055819D03*
X0020720Y0055819D03*
X0020850Y0055819D03*
X0020980Y0055819D03*
X0021110Y0055819D03*
X0021240Y0055819D03*
X0021370Y0055819D03*
X0021370Y0059329D03*
X0021500Y0059329D03*
X0021630Y0059329D03*
X0021760Y0059329D03*
X0021890Y0059329D03*
X0022020Y0059329D03*
X0022150Y0059329D03*
X0022280Y0059329D03*
X0022410Y0059329D03*
X0022540Y0059329D03*
X0022670Y0059329D03*
X0022800Y0059329D03*
X0022930Y0059329D03*
X0023060Y0059329D03*
X0023190Y0059329D03*
X0023320Y0059329D03*
X0023450Y0059329D03*
X0023580Y0059329D03*
X0023710Y0059329D03*
X0023840Y0059329D03*
X0023970Y0059329D03*
X0024100Y0059329D03*
X0024230Y0059329D03*
X0024360Y0059329D03*
X0024490Y0059329D03*
X0024620Y0059329D03*
X0024750Y0059329D03*
X0024880Y0059329D03*
X0025010Y0059329D03*
X0025140Y0059329D03*
X0024750Y0062969D03*
X0023970Y0066219D03*
X0023840Y0066219D03*
X0022930Y0066479D03*
X0022800Y0066479D03*
X0022670Y0066479D03*
X0023060Y0069079D03*
X0019810Y0066219D03*
X0019680Y0066219D03*
X0021370Y0062319D03*
X0021240Y0059329D03*
X0021110Y0059329D03*
X0020980Y0059329D03*
X0028130Y0056079D03*
X0024360Y0074279D03*
X0024230Y0074279D03*
X0024100Y0074279D03*
X0023970Y0074279D03*
X0023840Y0074279D03*
X0023710Y0074279D03*
X0023580Y0074279D03*
X0023450Y0074279D03*
X0023320Y0074279D03*
X0023190Y0074279D03*
X0023060Y0074279D03*
X0022930Y0074279D03*
X0022800Y0074279D03*
X0022670Y0074279D03*
X0022540Y0074279D03*
X0022410Y0074279D03*
X0022280Y0074279D03*
X0022150Y0074279D03*
X0022020Y0074279D03*
X0021890Y0074279D03*
X0021760Y0074279D03*
X0021630Y0074279D03*
X0021500Y0074279D03*
X0021370Y0074279D03*
X0021240Y0074279D03*
X0021110Y0074279D03*
X0019550Y0074279D03*
X0019420Y0074279D03*
X0019290Y0074279D03*
X0019160Y0074279D03*
X0019030Y0074279D03*
X0018900Y0074279D03*
X0018770Y0074279D03*
X0024360Y0077269D03*
X0023970Y0082469D03*
X0021500Y0082469D03*
X0021500Y0085719D03*
X0021630Y0085719D03*
X0021760Y0085719D03*
X0021890Y0085719D03*
X0022020Y0085719D03*
X0022150Y0085719D03*
X0021370Y0085719D03*
X0021240Y0085719D03*
X0021110Y0085719D03*
X0020980Y0085719D03*
X0019420Y0085329D03*
X0019290Y0085329D03*
X0019160Y0085329D03*
X0024230Y0088319D03*
X0023970Y0094169D03*
X0020980Y0101579D03*
X0020850Y0101579D03*
X0020720Y0101579D03*
X0020590Y0101579D03*
X0020460Y0101579D03*
X0020330Y0101579D03*
X0020200Y0101579D03*
X0022670Y0105869D03*
X0022800Y0105869D03*
X0022930Y0105869D03*
X0023060Y0105869D03*
D19*
X0024490Y0105349D03*
X0024620Y0105219D03*
X0021500Y0105739D03*
X0021370Y0105739D03*
X0019420Y0105479D03*
X0019290Y0101969D03*
X0019420Y0101839D03*
X0020460Y0099369D03*
X0020330Y0099239D03*
X0020200Y0094429D03*
X0020460Y0091049D03*
X0019160Y0091049D03*
X0024620Y0094429D03*
X0024880Y0094559D03*
X0025010Y0094689D03*
X0025400Y0099109D03*
X0023190Y0085589D03*
X0024750Y0084939D03*
X0025010Y0084809D03*
X0024620Y0082209D03*
X0024750Y0082079D03*
X0020850Y0082209D03*
X0020720Y0082079D03*
X0020590Y0077399D03*
X0020460Y0077399D03*
X0020980Y0074149D03*
X0024490Y0074279D03*
X0024750Y0077529D03*
X0024230Y0069729D03*
X0024100Y0069599D03*
X0023970Y0069469D03*
X0023710Y0069339D03*
X0020460Y0069079D03*
X0020200Y0069209D03*
X0021370Y0066349D03*
X0021500Y0066349D03*
X0019420Y0066089D03*
X0018120Y0064009D03*
X0019290Y0062579D03*
X0019420Y0062449D03*
X0024490Y0065959D03*
X0024620Y0065829D03*
X0027090Y0055949D03*
X0024750Y0052309D03*
X0023970Y0049319D03*
X0023840Y0049319D03*
X0023580Y0045809D03*
X0023450Y0045809D03*
D20*
X0023710Y0045874D03*
X0024100Y0049254D03*
X0027220Y0056014D03*
X0027350Y0056014D03*
X0027480Y0056014D03*
X0027610Y0056014D03*
X0027740Y0056014D03*
X0027870Y0056014D03*
X0021890Y0062644D03*
X0023060Y0064204D03*
X0021630Y0066284D03*
X0019290Y0066024D03*
X0020070Y0069274D03*
X0019940Y0069404D03*
X0024360Y0069794D03*
X0020850Y0074084D03*
X0020330Y0077594D03*
X0020330Y0081754D03*
X0020460Y0081884D03*
X0020590Y0082014D03*
X0024880Y0082014D03*
X0023450Y0085654D03*
X0023320Y0085654D03*
X0019290Y0090984D03*
X0020070Y0094494D03*
X0019940Y0094624D03*
X0020070Y0099044D03*
X0020200Y0099174D03*
X0021890Y0102034D03*
X0023060Y0103594D03*
X0021760Y0105674D03*
X0021630Y0105674D03*
X0019290Y0105414D03*
X0018120Y0103464D03*
X0025920Y0103594D03*
X0025270Y0094884D03*
X0025140Y0094754D03*
X0025010Y0077724D03*
X0024880Y0077594D03*
D21*
X0019940Y0073759D03*
X0018250Y0064009D03*
X0022930Y0064139D03*
X0025010Y0047889D03*
X0024230Y0046329D03*
X0023970Y0085719D03*
X0025660Y0098589D03*
X0022930Y0103529D03*
X0018250Y0103399D03*
D22*
X0018250Y0074279D03*
X0018510Y0071029D03*
X0026700Y0055949D03*
D23*
X0025400Y0055949D03*
X0025270Y0055949D03*
X0025140Y0055949D03*
X0025010Y0055949D03*
X0024880Y0055949D03*
X0024750Y0055949D03*
X0024620Y0055949D03*
X0024490Y0055949D03*
X0024360Y0055949D03*
X0024230Y0055949D03*
X0024100Y0055949D03*
X0023970Y0055949D03*
X0023840Y0055949D03*
X0023710Y0055949D03*
X0023580Y0055949D03*
X0023450Y0055949D03*
X0023320Y0055949D03*
X0023190Y0055949D03*
X0023060Y0055949D03*
X0022930Y0055949D03*
X0022800Y0055949D03*
X0022670Y0055949D03*
X0022540Y0055949D03*
X0022410Y0055949D03*
X0022280Y0055949D03*
X0022150Y0055949D03*
X0022020Y0055949D03*
X0021890Y0055949D03*
X0021760Y0055949D03*
X0021630Y0055949D03*
X0020070Y0055689D03*
X0019940Y0055689D03*
X0019810Y0055689D03*
X0019680Y0055689D03*
X0019550Y0055689D03*
X0019290Y0055559D03*
X0019160Y0055559D03*
X0019030Y0055559D03*
X0018900Y0055559D03*
X0019680Y0052699D03*
X0019810Y0052699D03*
X0019940Y0052699D03*
X0020070Y0052699D03*
X0020200Y0052699D03*
X0020330Y0052699D03*
X0020460Y0052699D03*
X0018640Y0052439D03*
X0018510Y0052439D03*
X0019290Y0049189D03*
X0019420Y0049189D03*
X0019550Y0049189D03*
X0019680Y0049189D03*
X0019810Y0049189D03*
X0019940Y0049189D03*
X0020070Y0049189D03*
X0020200Y0049189D03*
X0020330Y0049189D03*
X0020460Y0049189D03*
X0020590Y0049189D03*
X0020720Y0049189D03*
X0020850Y0049189D03*
X0020980Y0049189D03*
X0021110Y0049189D03*
X0021240Y0049189D03*
X0021370Y0049189D03*
X0021500Y0049189D03*
X0021630Y0049189D03*
X0021760Y0049189D03*
X0021890Y0049189D03*
X0022020Y0049189D03*
X0022150Y0049189D03*
X0022280Y0049189D03*
X0025270Y0047889D03*
X0025270Y0045939D03*
X0025140Y0045939D03*
X0025010Y0045939D03*
X0022410Y0045549D03*
X0022280Y0045549D03*
X0022150Y0045549D03*
X0022020Y0045549D03*
X0021890Y0045549D03*
X0021760Y0045549D03*
X0021630Y0045549D03*
X0021500Y0045549D03*
X0021370Y0045549D03*
X0021240Y0045549D03*
X0021110Y0045549D03*
X0020980Y0045549D03*
X0020850Y0045549D03*
X0020720Y0045549D03*
X0020590Y0045549D03*
X0020460Y0045549D03*
X0020330Y0045549D03*
X0020200Y0045549D03*
X0020070Y0045549D03*
X0019940Y0045549D03*
X0019810Y0045549D03*
X0019680Y0045549D03*
X0019550Y0045549D03*
X0019420Y0045549D03*
X0019290Y0045549D03*
X0019160Y0045549D03*
X0019030Y0045549D03*
X0018900Y0045549D03*
X0018770Y0045549D03*
X0018640Y0045549D03*
X0023840Y0052699D03*
X0023970Y0052699D03*
X0024100Y0052699D03*
X0026570Y0059459D03*
X0026700Y0059459D03*
X0026830Y0059459D03*
X0026960Y0059459D03*
X0021110Y0062189D03*
X0020980Y0062189D03*
X0020850Y0062189D03*
X0020720Y0062189D03*
X0020590Y0062189D03*
X0020460Y0062189D03*
X0020330Y0062189D03*
X0020200Y0062189D03*
X0020070Y0062189D03*
X0019940Y0059459D03*
X0019810Y0059459D03*
X0019680Y0059459D03*
X0019550Y0059459D03*
X0019420Y0059459D03*
X0019290Y0059459D03*
X0019160Y0059459D03*
X0019030Y0059459D03*
X0018900Y0059459D03*
X0018770Y0059459D03*
X0018640Y0059459D03*
X0018510Y0059459D03*
X0020070Y0066349D03*
X0020200Y0066349D03*
X0020330Y0066349D03*
X0020460Y0066349D03*
X0020590Y0066349D03*
X0020720Y0066349D03*
X0020850Y0066349D03*
X0023320Y0066349D03*
X0023450Y0066349D03*
X0023580Y0066349D03*
X0023710Y0066349D03*
X0024230Y0066089D03*
X0023450Y0069209D03*
X0022670Y0068949D03*
X0022540Y0068949D03*
X0022410Y0068949D03*
X0022280Y0068949D03*
X0020850Y0068949D03*
X0025660Y0074409D03*
X0025790Y0074409D03*
X0025920Y0074409D03*
X0026050Y0074409D03*
X0026180Y0074409D03*
X0026310Y0074409D03*
X0026440Y0074409D03*
X0026570Y0074409D03*
X0027220Y0074539D03*
X0027350Y0074539D03*
X0027480Y0074539D03*
X0027610Y0074539D03*
X0027740Y0074539D03*
X0024100Y0077139D03*
X0023970Y0077139D03*
X0023710Y0077009D03*
X0023580Y0077009D03*
X0023450Y0077009D03*
X0023320Y0077009D03*
X0021760Y0077009D03*
X0021630Y0077009D03*
X0021500Y0077009D03*
X0021110Y0077139D03*
X0022020Y0082599D03*
X0022150Y0082599D03*
X0022280Y0082599D03*
X0022410Y0082599D03*
X0022540Y0082599D03*
X0022670Y0082599D03*
X0022800Y0082599D03*
X0022930Y0082599D03*
X0023060Y0082599D03*
X0023190Y0082599D03*
X0023320Y0082599D03*
X0023450Y0082599D03*
X0020720Y0085589D03*
X0020590Y0085589D03*
X0020460Y0085589D03*
X0020330Y0085589D03*
X0020200Y0085589D03*
X0019810Y0085459D03*
X0019680Y0085459D03*
X0021110Y0094039D03*
X0021760Y0093909D03*
X0021890Y0093909D03*
X0022020Y0093909D03*
X0022150Y0093909D03*
X0022280Y0093909D03*
X0022410Y0093909D03*
X0022540Y0093909D03*
X0022670Y0093909D03*
X0023320Y0094039D03*
X0023450Y0094039D03*
X0023580Y0094039D03*
X0024360Y0094299D03*
X0025010Y0099239D03*
X0025140Y0099239D03*
X0024750Y0102359D03*
X0023970Y0105609D03*
X0023840Y0105609D03*
X0023710Y0105739D03*
X0023580Y0105739D03*
X0023450Y0105739D03*
X0020720Y0105739D03*
X0020460Y0105739D03*
X0020330Y0105739D03*
X0020200Y0105739D03*
X0020070Y0105739D03*
X0019940Y0105739D03*
X0019810Y0105609D03*
X0019680Y0105609D03*
X0018250Y0105349D03*
X0019810Y0101709D03*
X0021370Y0101709D03*
X0020850Y0099499D03*
X0020720Y0099499D03*
D24*
X0020590Y0099434D03*
X0021110Y0101644D03*
X0021240Y0101644D03*
X0021500Y0101774D03*
X0021630Y0101774D03*
X0021760Y0101904D03*
X0020070Y0101644D03*
X0019940Y0101644D03*
X0019680Y0101774D03*
X0019550Y0101774D03*
X0019550Y0105544D03*
X0020850Y0105804D03*
X0020980Y0105804D03*
X0021110Y0105804D03*
X0021240Y0105804D03*
X0024100Y0105544D03*
X0024230Y0105544D03*
X0024360Y0105414D03*
X0025270Y0099174D03*
X0024750Y0094494D03*
X0024490Y0094364D03*
X0024230Y0094234D03*
X0024100Y0094234D03*
X0023840Y0094104D03*
X0023710Y0094104D03*
X0023190Y0093974D03*
X0023060Y0093974D03*
X0022930Y0093974D03*
X0022800Y0093974D03*
X0021630Y0093974D03*
X0021500Y0093974D03*
X0021370Y0093974D03*
X0021240Y0093974D03*
X0020980Y0094104D03*
X0020850Y0094104D03*
X0020720Y0094104D03*
X0020590Y0094234D03*
X0020460Y0094234D03*
X0020330Y0094364D03*
X0025270Y0087604D03*
X0024360Y0085134D03*
X0024490Y0085004D03*
X0024620Y0085004D03*
X0024880Y0084874D03*
X0025140Y0084744D03*
X0025270Y0084744D03*
X0023060Y0085654D03*
X0022930Y0085654D03*
X0022800Y0085654D03*
X0022670Y0085654D03*
X0022540Y0085654D03*
X0022410Y0085654D03*
X0022280Y0085654D03*
X0020850Y0085654D03*
X0020070Y0085524D03*
X0019940Y0085524D03*
X0019550Y0085394D03*
X0020980Y0082274D03*
X0021110Y0082274D03*
X0021240Y0082404D03*
X0021370Y0082404D03*
X0021630Y0082534D03*
X0021760Y0082534D03*
X0021890Y0082534D03*
X0023580Y0082534D03*
X0023710Y0082534D03*
X0023840Y0082534D03*
X0024100Y0082404D03*
X0024230Y0082404D03*
X0024360Y0082274D03*
X0024490Y0082274D03*
X0024620Y0077464D03*
X0024490Y0077334D03*
X0024230Y0077204D03*
X0023840Y0077074D03*
X0023190Y0076944D03*
X0023060Y0076944D03*
X0022930Y0076944D03*
X0022800Y0076944D03*
X0022670Y0076944D03*
X0022540Y0076944D03*
X0022410Y0076944D03*
X0022280Y0076944D03*
X0022150Y0076944D03*
X0022020Y0076944D03*
X0021890Y0076944D03*
X0021370Y0077074D03*
X0021240Y0077074D03*
X0020980Y0077204D03*
X0020850Y0077204D03*
X0020720Y0077334D03*
X0026700Y0074474D03*
X0026830Y0074474D03*
X0026960Y0074474D03*
X0027090Y0074474D03*
X0023840Y0069404D03*
X0023580Y0069274D03*
X0023320Y0069144D03*
X0023190Y0069144D03*
X0022930Y0069014D03*
X0022800Y0069014D03*
X0022150Y0068884D03*
X0022020Y0068884D03*
X0021890Y0068884D03*
X0021760Y0068884D03*
X0021630Y0068884D03*
X0021500Y0068884D03*
X0021370Y0068884D03*
X0021240Y0068884D03*
X0021110Y0068884D03*
X0020980Y0068884D03*
X0020720Y0069014D03*
X0020590Y0069014D03*
X0020330Y0069144D03*
X0020980Y0066414D03*
X0021110Y0066414D03*
X0021240Y0066414D03*
X0019940Y0066284D03*
X0019550Y0066154D03*
X0019550Y0062384D03*
X0019680Y0062384D03*
X0019810Y0062254D03*
X0019940Y0062254D03*
X0021240Y0062254D03*
X0021500Y0062384D03*
X0021630Y0062384D03*
X0021760Y0062514D03*
X0020850Y0059394D03*
X0020720Y0059394D03*
X0020590Y0059394D03*
X0020460Y0059394D03*
X0020330Y0059394D03*
X0020200Y0059394D03*
X0020070Y0059394D03*
X0019420Y0055624D03*
X0019550Y0052634D03*
X0020590Y0052764D03*
X0024230Y0052634D03*
X0024490Y0052504D03*
X0024620Y0052504D03*
X0025920Y0051334D03*
X0026960Y0056014D03*
X0028000Y0056014D03*
X0026440Y0059394D03*
X0026310Y0059394D03*
X0026180Y0059394D03*
X0026050Y0059394D03*
X0025920Y0059394D03*
X0025790Y0059394D03*
X0025660Y0059394D03*
X0025530Y0059394D03*
X0025400Y0059394D03*
X0025270Y0059394D03*
X0024360Y0066024D03*
X0024100Y0066154D03*
X0025400Y0046004D03*
X0025530Y0046004D03*
X0025660Y0046004D03*
X0024880Y0045874D03*
X0023320Y0045744D03*
X0023190Y0045744D03*
X0022930Y0045614D03*
X0022800Y0045614D03*
X0022670Y0045614D03*
X0022540Y0045614D03*
X0018510Y0045614D03*
X0018380Y0045614D03*
D25*
X0018380Y0064594D03*
X0019160Y0071094D03*
X0025920Y0079804D03*
X0026310Y0097094D03*
X0018380Y0103984D03*
D26*
X0018510Y0103919D03*
X0025140Y0103659D03*
X0019030Y0096639D03*
X0019420Y0079609D03*
X0018510Y0064529D03*
X0025010Y0064269D03*
X0025140Y0064269D03*
D27*
X0018640Y0064399D03*
D28*
X0024880Y0063229D03*
X0024750Y0070379D03*
X0020330Y0073889D03*
X0020200Y0073889D03*
X0018640Y0071029D03*
X0025270Y0078179D03*
X0023840Y0085719D03*
X0019940Y0091049D03*
X0019810Y0091049D03*
X0019680Y0091049D03*
X0025530Y0095209D03*
X0026700Y0097029D03*
X0025790Y0051269D03*
X0024230Y0049189D03*
X0024100Y0046069D03*
D29*
X0018640Y0096574D03*
D30*
X0018640Y0103854D03*
X0018770Y0103854D03*
D31*
X0018900Y0103789D03*
X0026050Y0097029D03*
X0025660Y0079869D03*
X0025530Y0072719D03*
X0019420Y0071159D03*
X0018900Y0064399D03*
X0018770Y0064399D03*
D32*
X0018770Y0071094D03*
X0019030Y0079544D03*
X0024230Y0085914D03*
D33*
X0023970Y0088514D03*
X0018770Y0085264D03*
X0021240Y0099564D03*
X0026570Y0046134D03*
D34*
X0025400Y0051269D03*
X0026180Y0079869D03*
X0018770Y0096639D03*
D35*
X0019160Y0079544D03*
X0018900Y0071094D03*
X0025270Y0051204D03*
D36*
X0025140Y0047889D03*
X0023840Y0045939D03*
X0022020Y0062839D03*
X0019160Y0062709D03*
X0019160Y0065829D03*
X0021760Y0066219D03*
X0019810Y0069469D03*
X0020590Y0074019D03*
X0020720Y0074019D03*
X0020200Y0077659D03*
X0018900Y0079479D03*
X0025140Y0077919D03*
X0025140Y0081689D03*
X0025010Y0081819D03*
X0023580Y0085719D03*
X0019810Y0094819D03*
X0025400Y0095079D03*
X0022020Y0102229D03*
X0024750Y0105089D03*
X0019160Y0105219D03*
X0024620Y0070119D03*
X0024490Y0069989D03*
X0025920Y0064139D03*
D37*
X0026050Y0079869D03*
X0018900Y0096639D03*
D38*
X0019290Y0096704D03*
X0019030Y0103724D03*
X0022540Y0104114D03*
X0019680Y0079674D03*
X0019550Y0071224D03*
X0019030Y0064334D03*
X0022540Y0064724D03*
D39*
X0025400Y0064204D03*
X0019030Y0071094D03*
X0019290Y0079544D03*
X0025400Y0103594D03*
X0025010Y0051204D03*
D40*
X0019290Y0071159D03*
X0019550Y0079609D03*
X0025790Y0079869D03*
X0026180Y0097029D03*
X0019160Y0096639D03*
D41*
X0019940Y0098849D03*
X0019160Y0102099D03*
X0025530Y0098849D03*
X0020330Y0091049D03*
X0020200Y0091049D03*
X0020070Y0091049D03*
X0019550Y0091049D03*
X0019420Y0091049D03*
X0024620Y0074149D03*
X0024750Y0065699D03*
D42*
X0022280Y0064594D03*
X0019420Y0096704D03*
X0022280Y0103984D03*
D43*
X0019550Y0096704D03*
X0019940Y0079674D03*
X0025140Y0072394D03*
X0024620Y0047824D03*
D44*
X0019680Y0069664D03*
X0020200Y0081624D03*
D45*
X0024620Y0087474D03*
X0026570Y0097094D03*
X0025660Y0103594D03*
X0019680Y0073434D03*
X0025660Y0072134D03*
X0025660Y0064204D03*
D46*
X0024880Y0065374D03*
X0022020Y0066024D03*
X0025790Y0072134D03*
X0024750Y0073954D03*
X0020070Y0073824D03*
X0026310Y0079934D03*
X0025270Y0081494D03*
X0020070Y0081364D03*
X0019680Y0095014D03*
X0019680Y0098394D03*
X0022020Y0105414D03*
X0024880Y0104764D03*
D47*
X0019810Y0073629D03*
D48*
X0019810Y0079674D03*
D49*
X0020070Y0077854D03*
X0020460Y0073954D03*
X0021890Y0066154D03*
X0023710Y0085654D03*
X0025140Y0087604D03*
X0019810Y0098654D03*
X0024880Y0102554D03*
X0021890Y0105544D03*
X0023970Y0046004D03*
D50*
X0026440Y0079999D03*
X0020720Y0091049D03*
D51*
X0025790Y0097029D03*
X0022150Y0103919D03*
X0025400Y0079869D03*
X0022150Y0064529D03*
D52*
X0022410Y0064659D03*
X0025400Y0072589D03*
X0025530Y0079869D03*
X0025920Y0097029D03*
X0022410Y0104049D03*
D53*
X0022670Y0103529D03*
X0025530Y0103529D03*
X0025530Y0064139D03*
X0022670Y0064139D03*
D54*
X0022800Y0064139D03*
X0025530Y0051269D03*
X0024750Y0087539D03*
X0022800Y0103529D03*
D55*
X0025790Y0103594D03*
X0025660Y0095534D03*
X0025010Y0087604D03*
X0024100Y0085784D03*
X0025790Y0064204D03*
X0025660Y0051204D03*
D56*
X0024490Y0047759D03*
X0024360Y0047759D03*
X0025270Y0072459D03*
D57*
X0024490Y0087474D03*
X0024360Y0087474D03*
D58*
X0024880Y0072264D03*
X0024750Y0047954D03*
D59*
X0024880Y0047889D03*
X0024880Y0087539D03*
D60*
X0025270Y0103659D03*
X0024880Y0051139D03*
D61*
X0025010Y0072329D03*
D62*
X0025010Y0103724D03*
D63*
X0026440Y0097094D03*
X0025140Y0051204D03*
D64*
X0025270Y0064269D03*
D65*
X0028130Y0074604D03*
D66*
X0005750Y0025449D02*
X0005752Y0025610D01*
X0005758Y0025770D01*
X0005768Y0025931D01*
X0005782Y0026091D01*
X0005800Y0026251D01*
X0005821Y0026410D01*
X0005847Y0026569D01*
X0005877Y0026727D01*
X0005910Y0026884D01*
X0005948Y0027041D01*
X0005989Y0027196D01*
X0006034Y0027350D01*
X0006083Y0027503D01*
X0006136Y0027655D01*
X0006192Y0027806D01*
X0006253Y0027955D01*
X0006316Y0028103D01*
X0006384Y0028249D01*
X0006455Y0028393D01*
X0006529Y0028535D01*
X0006607Y0028676D01*
X0006689Y0028814D01*
X0006774Y0028951D01*
X0006862Y0029085D01*
X0006954Y0029217D01*
X0007049Y0029347D01*
X0007147Y0029475D01*
X0007248Y0029600D01*
X0007352Y0029722D01*
X0007459Y0029842D01*
X0007569Y0029959D01*
X0007682Y0030074D01*
X0007798Y0030185D01*
X0007917Y0030294D01*
X0008038Y0030399D01*
X0008162Y0030502D01*
X0008288Y0030602D01*
X0008416Y0030698D01*
X0008547Y0030791D01*
X0008681Y0030881D01*
X0008816Y0030968D01*
X0008954Y0031051D01*
X0009093Y0031131D01*
X0009235Y0031207D01*
X0009378Y0031280D01*
X0009523Y0031349D01*
X0009670Y0031415D01*
X0009818Y0031477D01*
X0009968Y0031535D01*
X0010119Y0031590D01*
X0010272Y0031641D01*
X0010426Y0031688D01*
X0010581Y0031731D01*
X0010737Y0031770D01*
X0010893Y0031806D01*
X0011051Y0031837D01*
X0011209Y0031865D01*
X0011368Y0031889D01*
X0011528Y0031909D01*
X0011688Y0031925D01*
X0011848Y0031937D01*
X0012009Y0031945D01*
X0012170Y0031949D01*
X0012330Y0031949D01*
X0012491Y0031945D01*
X0012652Y0031937D01*
X0012812Y0031925D01*
X0012972Y0031909D01*
X0013132Y0031889D01*
X0013291Y0031865D01*
X0013449Y0031837D01*
X0013607Y0031806D01*
X0013763Y0031770D01*
X0013919Y0031731D01*
X0014074Y0031688D01*
X0014228Y0031641D01*
X0014381Y0031590D01*
X0014532Y0031535D01*
X0014682Y0031477D01*
X0014830Y0031415D01*
X0014977Y0031349D01*
X0015122Y0031280D01*
X0015265Y0031207D01*
X0015407Y0031131D01*
X0015546Y0031051D01*
X0015684Y0030968D01*
X0015819Y0030881D01*
X0015953Y0030791D01*
X0016084Y0030698D01*
X0016212Y0030602D01*
X0016338Y0030502D01*
X0016462Y0030399D01*
X0016583Y0030294D01*
X0016702Y0030185D01*
X0016818Y0030074D01*
X0016931Y0029959D01*
X0017041Y0029842D01*
X0017148Y0029722D01*
X0017252Y0029600D01*
X0017353Y0029475D01*
X0017451Y0029347D01*
X0017546Y0029217D01*
X0017638Y0029085D01*
X0017726Y0028951D01*
X0017811Y0028814D01*
X0017893Y0028676D01*
X0017971Y0028535D01*
X0018045Y0028393D01*
X0018116Y0028249D01*
X0018184Y0028103D01*
X0018247Y0027955D01*
X0018308Y0027806D01*
X0018364Y0027655D01*
X0018417Y0027503D01*
X0018466Y0027350D01*
X0018511Y0027196D01*
X0018552Y0027041D01*
X0018590Y0026884D01*
X0018623Y0026727D01*
X0018653Y0026569D01*
X0018679Y0026410D01*
X0018700Y0026251D01*
X0018718Y0026091D01*
X0018732Y0025931D01*
X0018742Y0025770D01*
X0018748Y0025610D01*
X0018750Y0025449D01*
X0018748Y0025288D01*
X0018742Y0025128D01*
X0018732Y0024967D01*
X0018718Y0024807D01*
X0018700Y0024647D01*
X0018679Y0024488D01*
X0018653Y0024329D01*
X0018623Y0024171D01*
X0018590Y0024014D01*
X0018552Y0023857D01*
X0018511Y0023702D01*
X0018466Y0023548D01*
X0018417Y0023395D01*
X0018364Y0023243D01*
X0018308Y0023092D01*
X0018247Y0022943D01*
X0018184Y0022795D01*
X0018116Y0022649D01*
X0018045Y0022505D01*
X0017971Y0022363D01*
X0017893Y0022222D01*
X0017811Y0022084D01*
X0017726Y0021947D01*
X0017638Y0021813D01*
X0017546Y0021681D01*
X0017451Y0021551D01*
X0017353Y0021423D01*
X0017252Y0021298D01*
X0017148Y0021176D01*
X0017041Y0021056D01*
X0016931Y0020939D01*
X0016818Y0020824D01*
X0016702Y0020713D01*
X0016583Y0020604D01*
X0016462Y0020499D01*
X0016338Y0020396D01*
X0016212Y0020296D01*
X0016084Y0020200D01*
X0015953Y0020107D01*
X0015819Y0020017D01*
X0015684Y0019930D01*
X0015546Y0019847D01*
X0015407Y0019767D01*
X0015265Y0019691D01*
X0015122Y0019618D01*
X0014977Y0019549D01*
X0014830Y0019483D01*
X0014682Y0019421D01*
X0014532Y0019363D01*
X0014381Y0019308D01*
X0014228Y0019257D01*
X0014074Y0019210D01*
X0013919Y0019167D01*
X0013763Y0019128D01*
X0013607Y0019092D01*
X0013449Y0019061D01*
X0013291Y0019033D01*
X0013132Y0019009D01*
X0012972Y0018989D01*
X0012812Y0018973D01*
X0012652Y0018961D01*
X0012491Y0018953D01*
X0012330Y0018949D01*
X0012170Y0018949D01*
X0012009Y0018953D01*
X0011848Y0018961D01*
X0011688Y0018973D01*
X0011528Y0018989D01*
X0011368Y0019009D01*
X0011209Y0019033D01*
X0011051Y0019061D01*
X0010893Y0019092D01*
X0010737Y0019128D01*
X0010581Y0019167D01*
X0010426Y0019210D01*
X0010272Y0019257D01*
X0010119Y0019308D01*
X0009968Y0019363D01*
X0009818Y0019421D01*
X0009670Y0019483D01*
X0009523Y0019549D01*
X0009378Y0019618D01*
X0009235Y0019691D01*
X0009093Y0019767D01*
X0008954Y0019847D01*
X0008816Y0019930D01*
X0008681Y0020017D01*
X0008547Y0020107D01*
X0008416Y0020200D01*
X0008288Y0020296D01*
X0008162Y0020396D01*
X0008038Y0020499D01*
X0007917Y0020604D01*
X0007798Y0020713D01*
X0007682Y0020824D01*
X0007569Y0020939D01*
X0007459Y0021056D01*
X0007352Y0021176D01*
X0007248Y0021298D01*
X0007147Y0021423D01*
X0007049Y0021551D01*
X0006954Y0021681D01*
X0006862Y0021813D01*
X0006774Y0021947D01*
X0006689Y0022084D01*
X0006607Y0022222D01*
X0006529Y0022363D01*
X0006455Y0022505D01*
X0006384Y0022649D01*
X0006316Y0022795D01*
X0006253Y0022943D01*
X0006192Y0023092D01*
X0006136Y0023243D01*
X0006083Y0023395D01*
X0006034Y0023548D01*
X0005989Y0023702D01*
X0005948Y0023857D01*
X0005910Y0024014D01*
X0005877Y0024171D01*
X0005847Y0024329D01*
X0005821Y0024488D01*
X0005800Y0024647D01*
X0005782Y0024807D01*
X0005768Y0024967D01*
X0005758Y0025128D01*
X0005752Y0025288D01*
X0005750Y0025449D01*
X0005750Y0125449D02*
X0005752Y0125610D01*
X0005758Y0125770D01*
X0005768Y0125931D01*
X0005782Y0126091D01*
X0005800Y0126251D01*
X0005821Y0126410D01*
X0005847Y0126569D01*
X0005877Y0126727D01*
X0005910Y0126884D01*
X0005948Y0127041D01*
X0005989Y0127196D01*
X0006034Y0127350D01*
X0006083Y0127503D01*
X0006136Y0127655D01*
X0006192Y0127806D01*
X0006253Y0127955D01*
X0006316Y0128103D01*
X0006384Y0128249D01*
X0006455Y0128393D01*
X0006529Y0128535D01*
X0006607Y0128676D01*
X0006689Y0128814D01*
X0006774Y0128951D01*
X0006862Y0129085D01*
X0006954Y0129217D01*
X0007049Y0129347D01*
X0007147Y0129475D01*
X0007248Y0129600D01*
X0007352Y0129722D01*
X0007459Y0129842D01*
X0007569Y0129959D01*
X0007682Y0130074D01*
X0007798Y0130185D01*
X0007917Y0130294D01*
X0008038Y0130399D01*
X0008162Y0130502D01*
X0008288Y0130602D01*
X0008416Y0130698D01*
X0008547Y0130791D01*
X0008681Y0130881D01*
X0008816Y0130968D01*
X0008954Y0131051D01*
X0009093Y0131131D01*
X0009235Y0131207D01*
X0009378Y0131280D01*
X0009523Y0131349D01*
X0009670Y0131415D01*
X0009818Y0131477D01*
X0009968Y0131535D01*
X0010119Y0131590D01*
X0010272Y0131641D01*
X0010426Y0131688D01*
X0010581Y0131731D01*
X0010737Y0131770D01*
X0010893Y0131806D01*
X0011051Y0131837D01*
X0011209Y0131865D01*
X0011368Y0131889D01*
X0011528Y0131909D01*
X0011688Y0131925D01*
X0011848Y0131937D01*
X0012009Y0131945D01*
X0012170Y0131949D01*
X0012330Y0131949D01*
X0012491Y0131945D01*
X0012652Y0131937D01*
X0012812Y0131925D01*
X0012972Y0131909D01*
X0013132Y0131889D01*
X0013291Y0131865D01*
X0013449Y0131837D01*
X0013607Y0131806D01*
X0013763Y0131770D01*
X0013919Y0131731D01*
X0014074Y0131688D01*
X0014228Y0131641D01*
X0014381Y0131590D01*
X0014532Y0131535D01*
X0014682Y0131477D01*
X0014830Y0131415D01*
X0014977Y0131349D01*
X0015122Y0131280D01*
X0015265Y0131207D01*
X0015407Y0131131D01*
X0015546Y0131051D01*
X0015684Y0130968D01*
X0015819Y0130881D01*
X0015953Y0130791D01*
X0016084Y0130698D01*
X0016212Y0130602D01*
X0016338Y0130502D01*
X0016462Y0130399D01*
X0016583Y0130294D01*
X0016702Y0130185D01*
X0016818Y0130074D01*
X0016931Y0129959D01*
X0017041Y0129842D01*
X0017148Y0129722D01*
X0017252Y0129600D01*
X0017353Y0129475D01*
X0017451Y0129347D01*
X0017546Y0129217D01*
X0017638Y0129085D01*
X0017726Y0128951D01*
X0017811Y0128814D01*
X0017893Y0128676D01*
X0017971Y0128535D01*
X0018045Y0128393D01*
X0018116Y0128249D01*
X0018184Y0128103D01*
X0018247Y0127955D01*
X0018308Y0127806D01*
X0018364Y0127655D01*
X0018417Y0127503D01*
X0018466Y0127350D01*
X0018511Y0127196D01*
X0018552Y0127041D01*
X0018590Y0126884D01*
X0018623Y0126727D01*
X0018653Y0126569D01*
X0018679Y0126410D01*
X0018700Y0126251D01*
X0018718Y0126091D01*
X0018732Y0125931D01*
X0018742Y0125770D01*
X0018748Y0125610D01*
X0018750Y0125449D01*
X0018748Y0125288D01*
X0018742Y0125128D01*
X0018732Y0124967D01*
X0018718Y0124807D01*
X0018700Y0124647D01*
X0018679Y0124488D01*
X0018653Y0124329D01*
X0018623Y0124171D01*
X0018590Y0124014D01*
X0018552Y0123857D01*
X0018511Y0123702D01*
X0018466Y0123548D01*
X0018417Y0123395D01*
X0018364Y0123243D01*
X0018308Y0123092D01*
X0018247Y0122943D01*
X0018184Y0122795D01*
X0018116Y0122649D01*
X0018045Y0122505D01*
X0017971Y0122363D01*
X0017893Y0122222D01*
X0017811Y0122084D01*
X0017726Y0121947D01*
X0017638Y0121813D01*
X0017546Y0121681D01*
X0017451Y0121551D01*
X0017353Y0121423D01*
X0017252Y0121298D01*
X0017148Y0121176D01*
X0017041Y0121056D01*
X0016931Y0120939D01*
X0016818Y0120824D01*
X0016702Y0120713D01*
X0016583Y0120604D01*
X0016462Y0120499D01*
X0016338Y0120396D01*
X0016212Y0120296D01*
X0016084Y0120200D01*
X0015953Y0120107D01*
X0015819Y0120017D01*
X0015684Y0119930D01*
X0015546Y0119847D01*
X0015407Y0119767D01*
X0015265Y0119691D01*
X0015122Y0119618D01*
X0014977Y0119549D01*
X0014830Y0119483D01*
X0014682Y0119421D01*
X0014532Y0119363D01*
X0014381Y0119308D01*
X0014228Y0119257D01*
X0014074Y0119210D01*
X0013919Y0119167D01*
X0013763Y0119128D01*
X0013607Y0119092D01*
X0013449Y0119061D01*
X0013291Y0119033D01*
X0013132Y0119009D01*
X0012972Y0118989D01*
X0012812Y0118973D01*
X0012652Y0118961D01*
X0012491Y0118953D01*
X0012330Y0118949D01*
X0012170Y0118949D01*
X0012009Y0118953D01*
X0011848Y0118961D01*
X0011688Y0118973D01*
X0011528Y0118989D01*
X0011368Y0119009D01*
X0011209Y0119033D01*
X0011051Y0119061D01*
X0010893Y0119092D01*
X0010737Y0119128D01*
X0010581Y0119167D01*
X0010426Y0119210D01*
X0010272Y0119257D01*
X0010119Y0119308D01*
X0009968Y0119363D01*
X0009818Y0119421D01*
X0009670Y0119483D01*
X0009523Y0119549D01*
X0009378Y0119618D01*
X0009235Y0119691D01*
X0009093Y0119767D01*
X0008954Y0119847D01*
X0008816Y0119930D01*
X0008681Y0120017D01*
X0008547Y0120107D01*
X0008416Y0120200D01*
X0008288Y0120296D01*
X0008162Y0120396D01*
X0008038Y0120499D01*
X0007917Y0120604D01*
X0007798Y0120713D01*
X0007682Y0120824D01*
X0007569Y0120939D01*
X0007459Y0121056D01*
X0007352Y0121176D01*
X0007248Y0121298D01*
X0007147Y0121423D01*
X0007049Y0121551D01*
X0006954Y0121681D01*
X0006862Y0121813D01*
X0006774Y0121947D01*
X0006689Y0122084D01*
X0006607Y0122222D01*
X0006529Y0122363D01*
X0006455Y0122505D01*
X0006384Y0122649D01*
X0006316Y0122795D01*
X0006253Y0122943D01*
X0006192Y0123092D01*
X0006136Y0123243D01*
X0006083Y0123395D01*
X0006034Y0123548D01*
X0005989Y0123702D01*
X0005948Y0123857D01*
X0005910Y0124014D01*
X0005877Y0124171D01*
X0005847Y0124329D01*
X0005821Y0124488D01*
X0005800Y0124647D01*
X0005782Y0124807D01*
X0005768Y0124967D01*
X0005758Y0125128D01*
X0005752Y0125288D01*
X0005750Y0125449D01*
X0150750Y0125449D02*
X0150752Y0125610D01*
X0150758Y0125770D01*
X0150768Y0125931D01*
X0150782Y0126091D01*
X0150800Y0126251D01*
X0150821Y0126410D01*
X0150847Y0126569D01*
X0150877Y0126727D01*
X0150910Y0126884D01*
X0150948Y0127041D01*
X0150989Y0127196D01*
X0151034Y0127350D01*
X0151083Y0127503D01*
X0151136Y0127655D01*
X0151192Y0127806D01*
X0151253Y0127955D01*
X0151316Y0128103D01*
X0151384Y0128249D01*
X0151455Y0128393D01*
X0151529Y0128535D01*
X0151607Y0128676D01*
X0151689Y0128814D01*
X0151774Y0128951D01*
X0151862Y0129085D01*
X0151954Y0129217D01*
X0152049Y0129347D01*
X0152147Y0129475D01*
X0152248Y0129600D01*
X0152352Y0129722D01*
X0152459Y0129842D01*
X0152569Y0129959D01*
X0152682Y0130074D01*
X0152798Y0130185D01*
X0152917Y0130294D01*
X0153038Y0130399D01*
X0153162Y0130502D01*
X0153288Y0130602D01*
X0153416Y0130698D01*
X0153547Y0130791D01*
X0153681Y0130881D01*
X0153816Y0130968D01*
X0153954Y0131051D01*
X0154093Y0131131D01*
X0154235Y0131207D01*
X0154378Y0131280D01*
X0154523Y0131349D01*
X0154670Y0131415D01*
X0154818Y0131477D01*
X0154968Y0131535D01*
X0155119Y0131590D01*
X0155272Y0131641D01*
X0155426Y0131688D01*
X0155581Y0131731D01*
X0155737Y0131770D01*
X0155893Y0131806D01*
X0156051Y0131837D01*
X0156209Y0131865D01*
X0156368Y0131889D01*
X0156528Y0131909D01*
X0156688Y0131925D01*
X0156848Y0131937D01*
X0157009Y0131945D01*
X0157170Y0131949D01*
X0157330Y0131949D01*
X0157491Y0131945D01*
X0157652Y0131937D01*
X0157812Y0131925D01*
X0157972Y0131909D01*
X0158132Y0131889D01*
X0158291Y0131865D01*
X0158449Y0131837D01*
X0158607Y0131806D01*
X0158763Y0131770D01*
X0158919Y0131731D01*
X0159074Y0131688D01*
X0159228Y0131641D01*
X0159381Y0131590D01*
X0159532Y0131535D01*
X0159682Y0131477D01*
X0159830Y0131415D01*
X0159977Y0131349D01*
X0160122Y0131280D01*
X0160265Y0131207D01*
X0160407Y0131131D01*
X0160546Y0131051D01*
X0160684Y0130968D01*
X0160819Y0130881D01*
X0160953Y0130791D01*
X0161084Y0130698D01*
X0161212Y0130602D01*
X0161338Y0130502D01*
X0161462Y0130399D01*
X0161583Y0130294D01*
X0161702Y0130185D01*
X0161818Y0130074D01*
X0161931Y0129959D01*
X0162041Y0129842D01*
X0162148Y0129722D01*
X0162252Y0129600D01*
X0162353Y0129475D01*
X0162451Y0129347D01*
X0162546Y0129217D01*
X0162638Y0129085D01*
X0162726Y0128951D01*
X0162811Y0128814D01*
X0162893Y0128676D01*
X0162971Y0128535D01*
X0163045Y0128393D01*
X0163116Y0128249D01*
X0163184Y0128103D01*
X0163247Y0127955D01*
X0163308Y0127806D01*
X0163364Y0127655D01*
X0163417Y0127503D01*
X0163466Y0127350D01*
X0163511Y0127196D01*
X0163552Y0127041D01*
X0163590Y0126884D01*
X0163623Y0126727D01*
X0163653Y0126569D01*
X0163679Y0126410D01*
X0163700Y0126251D01*
X0163718Y0126091D01*
X0163732Y0125931D01*
X0163742Y0125770D01*
X0163748Y0125610D01*
X0163750Y0125449D01*
X0163748Y0125288D01*
X0163742Y0125128D01*
X0163732Y0124967D01*
X0163718Y0124807D01*
X0163700Y0124647D01*
X0163679Y0124488D01*
X0163653Y0124329D01*
X0163623Y0124171D01*
X0163590Y0124014D01*
X0163552Y0123857D01*
X0163511Y0123702D01*
X0163466Y0123548D01*
X0163417Y0123395D01*
X0163364Y0123243D01*
X0163308Y0123092D01*
X0163247Y0122943D01*
X0163184Y0122795D01*
X0163116Y0122649D01*
X0163045Y0122505D01*
X0162971Y0122363D01*
X0162893Y0122222D01*
X0162811Y0122084D01*
X0162726Y0121947D01*
X0162638Y0121813D01*
X0162546Y0121681D01*
X0162451Y0121551D01*
X0162353Y0121423D01*
X0162252Y0121298D01*
X0162148Y0121176D01*
X0162041Y0121056D01*
X0161931Y0120939D01*
X0161818Y0120824D01*
X0161702Y0120713D01*
X0161583Y0120604D01*
X0161462Y0120499D01*
X0161338Y0120396D01*
X0161212Y0120296D01*
X0161084Y0120200D01*
X0160953Y0120107D01*
X0160819Y0120017D01*
X0160684Y0119930D01*
X0160546Y0119847D01*
X0160407Y0119767D01*
X0160265Y0119691D01*
X0160122Y0119618D01*
X0159977Y0119549D01*
X0159830Y0119483D01*
X0159682Y0119421D01*
X0159532Y0119363D01*
X0159381Y0119308D01*
X0159228Y0119257D01*
X0159074Y0119210D01*
X0158919Y0119167D01*
X0158763Y0119128D01*
X0158607Y0119092D01*
X0158449Y0119061D01*
X0158291Y0119033D01*
X0158132Y0119009D01*
X0157972Y0118989D01*
X0157812Y0118973D01*
X0157652Y0118961D01*
X0157491Y0118953D01*
X0157330Y0118949D01*
X0157170Y0118949D01*
X0157009Y0118953D01*
X0156848Y0118961D01*
X0156688Y0118973D01*
X0156528Y0118989D01*
X0156368Y0119009D01*
X0156209Y0119033D01*
X0156051Y0119061D01*
X0155893Y0119092D01*
X0155737Y0119128D01*
X0155581Y0119167D01*
X0155426Y0119210D01*
X0155272Y0119257D01*
X0155119Y0119308D01*
X0154968Y0119363D01*
X0154818Y0119421D01*
X0154670Y0119483D01*
X0154523Y0119549D01*
X0154378Y0119618D01*
X0154235Y0119691D01*
X0154093Y0119767D01*
X0153954Y0119847D01*
X0153816Y0119930D01*
X0153681Y0120017D01*
X0153547Y0120107D01*
X0153416Y0120200D01*
X0153288Y0120296D01*
X0153162Y0120396D01*
X0153038Y0120499D01*
X0152917Y0120604D01*
X0152798Y0120713D01*
X0152682Y0120824D01*
X0152569Y0120939D01*
X0152459Y0121056D01*
X0152352Y0121176D01*
X0152248Y0121298D01*
X0152147Y0121423D01*
X0152049Y0121551D01*
X0151954Y0121681D01*
X0151862Y0121813D01*
X0151774Y0121947D01*
X0151689Y0122084D01*
X0151607Y0122222D01*
X0151529Y0122363D01*
X0151455Y0122505D01*
X0151384Y0122649D01*
X0151316Y0122795D01*
X0151253Y0122943D01*
X0151192Y0123092D01*
X0151136Y0123243D01*
X0151083Y0123395D01*
X0151034Y0123548D01*
X0150989Y0123702D01*
X0150948Y0123857D01*
X0150910Y0124014D01*
X0150877Y0124171D01*
X0150847Y0124329D01*
X0150821Y0124488D01*
X0150800Y0124647D01*
X0150782Y0124807D01*
X0150768Y0124967D01*
X0150758Y0125128D01*
X0150752Y0125288D01*
X0150750Y0125449D01*
X0150750Y0025449D02*
X0150752Y0025610D01*
X0150758Y0025770D01*
X0150768Y0025931D01*
X0150782Y0026091D01*
X0150800Y0026251D01*
X0150821Y0026410D01*
X0150847Y0026569D01*
X0150877Y0026727D01*
X0150910Y0026884D01*
X0150948Y0027041D01*
X0150989Y0027196D01*
X0151034Y0027350D01*
X0151083Y0027503D01*
X0151136Y0027655D01*
X0151192Y0027806D01*
X0151253Y0027955D01*
X0151316Y0028103D01*
X0151384Y0028249D01*
X0151455Y0028393D01*
X0151529Y0028535D01*
X0151607Y0028676D01*
X0151689Y0028814D01*
X0151774Y0028951D01*
X0151862Y0029085D01*
X0151954Y0029217D01*
X0152049Y0029347D01*
X0152147Y0029475D01*
X0152248Y0029600D01*
X0152352Y0029722D01*
X0152459Y0029842D01*
X0152569Y0029959D01*
X0152682Y0030074D01*
X0152798Y0030185D01*
X0152917Y0030294D01*
X0153038Y0030399D01*
X0153162Y0030502D01*
X0153288Y0030602D01*
X0153416Y0030698D01*
X0153547Y0030791D01*
X0153681Y0030881D01*
X0153816Y0030968D01*
X0153954Y0031051D01*
X0154093Y0031131D01*
X0154235Y0031207D01*
X0154378Y0031280D01*
X0154523Y0031349D01*
X0154670Y0031415D01*
X0154818Y0031477D01*
X0154968Y0031535D01*
X0155119Y0031590D01*
X0155272Y0031641D01*
X0155426Y0031688D01*
X0155581Y0031731D01*
X0155737Y0031770D01*
X0155893Y0031806D01*
X0156051Y0031837D01*
X0156209Y0031865D01*
X0156368Y0031889D01*
X0156528Y0031909D01*
X0156688Y0031925D01*
X0156848Y0031937D01*
X0157009Y0031945D01*
X0157170Y0031949D01*
X0157330Y0031949D01*
X0157491Y0031945D01*
X0157652Y0031937D01*
X0157812Y0031925D01*
X0157972Y0031909D01*
X0158132Y0031889D01*
X0158291Y0031865D01*
X0158449Y0031837D01*
X0158607Y0031806D01*
X0158763Y0031770D01*
X0158919Y0031731D01*
X0159074Y0031688D01*
X0159228Y0031641D01*
X0159381Y0031590D01*
X0159532Y0031535D01*
X0159682Y0031477D01*
X0159830Y0031415D01*
X0159977Y0031349D01*
X0160122Y0031280D01*
X0160265Y0031207D01*
X0160407Y0031131D01*
X0160546Y0031051D01*
X0160684Y0030968D01*
X0160819Y0030881D01*
X0160953Y0030791D01*
X0161084Y0030698D01*
X0161212Y0030602D01*
X0161338Y0030502D01*
X0161462Y0030399D01*
X0161583Y0030294D01*
X0161702Y0030185D01*
X0161818Y0030074D01*
X0161931Y0029959D01*
X0162041Y0029842D01*
X0162148Y0029722D01*
X0162252Y0029600D01*
X0162353Y0029475D01*
X0162451Y0029347D01*
X0162546Y0029217D01*
X0162638Y0029085D01*
X0162726Y0028951D01*
X0162811Y0028814D01*
X0162893Y0028676D01*
X0162971Y0028535D01*
X0163045Y0028393D01*
X0163116Y0028249D01*
X0163184Y0028103D01*
X0163247Y0027955D01*
X0163308Y0027806D01*
X0163364Y0027655D01*
X0163417Y0027503D01*
X0163466Y0027350D01*
X0163511Y0027196D01*
X0163552Y0027041D01*
X0163590Y0026884D01*
X0163623Y0026727D01*
X0163653Y0026569D01*
X0163679Y0026410D01*
X0163700Y0026251D01*
X0163718Y0026091D01*
X0163732Y0025931D01*
X0163742Y0025770D01*
X0163748Y0025610D01*
X0163750Y0025449D01*
X0163748Y0025288D01*
X0163742Y0025128D01*
X0163732Y0024967D01*
X0163718Y0024807D01*
X0163700Y0024647D01*
X0163679Y0024488D01*
X0163653Y0024329D01*
X0163623Y0024171D01*
X0163590Y0024014D01*
X0163552Y0023857D01*
X0163511Y0023702D01*
X0163466Y0023548D01*
X0163417Y0023395D01*
X0163364Y0023243D01*
X0163308Y0023092D01*
X0163247Y0022943D01*
X0163184Y0022795D01*
X0163116Y0022649D01*
X0163045Y0022505D01*
X0162971Y0022363D01*
X0162893Y0022222D01*
X0162811Y0022084D01*
X0162726Y0021947D01*
X0162638Y0021813D01*
X0162546Y0021681D01*
X0162451Y0021551D01*
X0162353Y0021423D01*
X0162252Y0021298D01*
X0162148Y0021176D01*
X0162041Y0021056D01*
X0161931Y0020939D01*
X0161818Y0020824D01*
X0161702Y0020713D01*
X0161583Y0020604D01*
X0161462Y0020499D01*
X0161338Y0020396D01*
X0161212Y0020296D01*
X0161084Y0020200D01*
X0160953Y0020107D01*
X0160819Y0020017D01*
X0160684Y0019930D01*
X0160546Y0019847D01*
X0160407Y0019767D01*
X0160265Y0019691D01*
X0160122Y0019618D01*
X0159977Y0019549D01*
X0159830Y0019483D01*
X0159682Y0019421D01*
X0159532Y0019363D01*
X0159381Y0019308D01*
X0159228Y0019257D01*
X0159074Y0019210D01*
X0158919Y0019167D01*
X0158763Y0019128D01*
X0158607Y0019092D01*
X0158449Y0019061D01*
X0158291Y0019033D01*
X0158132Y0019009D01*
X0157972Y0018989D01*
X0157812Y0018973D01*
X0157652Y0018961D01*
X0157491Y0018953D01*
X0157330Y0018949D01*
X0157170Y0018949D01*
X0157009Y0018953D01*
X0156848Y0018961D01*
X0156688Y0018973D01*
X0156528Y0018989D01*
X0156368Y0019009D01*
X0156209Y0019033D01*
X0156051Y0019061D01*
X0155893Y0019092D01*
X0155737Y0019128D01*
X0155581Y0019167D01*
X0155426Y0019210D01*
X0155272Y0019257D01*
X0155119Y0019308D01*
X0154968Y0019363D01*
X0154818Y0019421D01*
X0154670Y0019483D01*
X0154523Y0019549D01*
X0154378Y0019618D01*
X0154235Y0019691D01*
X0154093Y0019767D01*
X0153954Y0019847D01*
X0153816Y0019930D01*
X0153681Y0020017D01*
X0153547Y0020107D01*
X0153416Y0020200D01*
X0153288Y0020296D01*
X0153162Y0020396D01*
X0153038Y0020499D01*
X0152917Y0020604D01*
X0152798Y0020713D01*
X0152682Y0020824D01*
X0152569Y0020939D01*
X0152459Y0021056D01*
X0152352Y0021176D01*
X0152248Y0021298D01*
X0152147Y0021423D01*
X0152049Y0021551D01*
X0151954Y0021681D01*
X0151862Y0021813D01*
X0151774Y0021947D01*
X0151689Y0022084D01*
X0151607Y0022222D01*
X0151529Y0022363D01*
X0151455Y0022505D01*
X0151384Y0022649D01*
X0151316Y0022795D01*
X0151253Y0022943D01*
X0151192Y0023092D01*
X0151136Y0023243D01*
X0151083Y0023395D01*
X0151034Y0023548D01*
X0150989Y0023702D01*
X0150948Y0023857D01*
X0150910Y0024014D01*
X0150877Y0024171D01*
X0150847Y0024329D01*
X0150821Y0024488D01*
X0150800Y0024647D01*
X0150782Y0024807D01*
X0150768Y0024967D01*
X0150758Y0025128D01*
X0150752Y0025288D01*
X0150750Y0025449D01*
D67*
X0033904Y0111813D02*
X0032886Y0110795D01*
X0031402Y0112006D01*
X0030804Y0111698D01*
X0030163Y0111493D01*
X0029970Y0109587D01*
X0028530Y0109587D01*
X0028337Y0111493D01*
X0027696Y0111698D01*
X0027098Y0112006D01*
X0025614Y0110795D01*
X0024596Y0111813D01*
X0025807Y0113297D01*
X0025499Y0113895D01*
X0027545Y0114743D01*
X0027757Y0114364D01*
X0028051Y0114045D01*
X0028412Y0113804D01*
X0028819Y0113654D01*
X0029250Y0113603D01*
X0029689Y0113656D01*
X0030102Y0113812D01*
X0030467Y0114061D01*
X0030761Y0114390D01*
X0030970Y0114780D01*
X0031079Y0115208D01*
X0031084Y0115649D01*
X0030984Y0116080D01*
X0030784Y0116474D01*
X0030496Y0116809D01*
X0030137Y0117066D01*
X0029727Y0117231D01*
X0029290Y0117293D01*
X0028850Y0117250D01*
X0028434Y0117104D01*
X0028064Y0116862D01*
X0027762Y0116540D01*
X0027545Y0116155D01*
X0025499Y0117003D01*
X0025807Y0117600D01*
X0024596Y0119085D01*
X0025614Y0120102D01*
X0027098Y0118892D01*
X0027696Y0119200D01*
X0028337Y0119405D01*
X0028530Y0121310D01*
X0029970Y0121310D01*
X0030163Y0119405D01*
X0030804Y0119200D01*
X0031402Y0118892D01*
X0032886Y0120102D01*
X0033904Y0119085D01*
X0032693Y0117600D01*
X0033001Y0117003D01*
X0033206Y0116362D01*
X0035111Y0116169D01*
X0035111Y0114729D01*
X0033206Y0114535D01*
X0033001Y0113895D01*
X0032693Y0113297D01*
X0033904Y0111813D01*
X0033775Y0111971D02*
X0031444Y0111971D01*
X0031334Y0111971D02*
X0027166Y0111971D01*
X0027056Y0111971D02*
X0024725Y0111971D01*
X0025028Y0111382D02*
X0026333Y0111382D01*
X0025205Y0112560D02*
X0033295Y0112560D01*
X0032814Y0113149D02*
X0025686Y0113149D01*
X0025580Y0113738D02*
X0028592Y0113738D01*
X0027791Y0114327D02*
X0026542Y0114327D01*
X0026270Y0116683D02*
X0027896Y0116683D01*
X0029075Y0117272D02*
X0025638Y0117272D01*
X0025594Y0117861D02*
X0032906Y0117861D01*
X0032862Y0117272D02*
X0029438Y0117272D01*
X0030604Y0116683D02*
X0033104Y0116683D01*
X0033386Y0118450D02*
X0025114Y0118450D01*
X0024633Y0119039D02*
X0026918Y0119039D01*
X0027384Y0119039D02*
X0031116Y0119039D01*
X0031582Y0119039D02*
X0033867Y0119039D01*
X0033360Y0119629D02*
X0032305Y0119629D01*
X0030141Y0119629D02*
X0028359Y0119629D01*
X0028419Y0120218D02*
X0030081Y0120218D01*
X0030021Y0120807D02*
X0028479Y0120807D01*
X0026195Y0119629D02*
X0025140Y0119629D01*
X0030976Y0116094D02*
X0035111Y0116094D01*
X0035111Y0115505D02*
X0031082Y0115505D01*
X0031004Y0114916D02*
X0035111Y0114916D01*
X0033140Y0114327D02*
X0030705Y0114327D01*
X0029906Y0113738D02*
X0032920Y0113738D01*
X0033472Y0111382D02*
X0032167Y0111382D01*
X0030152Y0111382D02*
X0028348Y0111382D01*
X0028408Y0110793D02*
X0030092Y0110793D01*
X0030032Y0110204D02*
X0028468Y0110204D01*
X0028528Y0109614D02*
X0029972Y0109614D01*
D68*
X0076994Y0061795D03*
X0077270Y0061795D03*
X0077545Y0061795D03*
X0077821Y0061795D03*
X0081679Y0061795D03*
X0081955Y0061795D03*
X0082230Y0061795D03*
X0082506Y0061795D03*
D69*
X0082368Y0061795D03*
X0082093Y0061795D03*
X0081817Y0061795D03*
X0077683Y0061795D03*
X0077407Y0061795D03*
X0077132Y0061795D03*
D70*
X0081541Y0056559D03*
X0077959Y0067031D03*
D71*
X0081541Y0063665D03*
D72*
X0081404Y0067169D03*
X0080301Y0058902D03*
X0081404Y0056421D03*
D73*
X0078923Y0058409D03*
X0081404Y0059787D03*
X0080852Y0061992D03*
X0078372Y0061717D03*
X0080301Y0065299D03*
X0070301Y0063528D03*
X0069199Y0064906D03*
X0070301Y0061598D03*
X0069199Y0058016D03*
D74*
X0069199Y0056087D03*
X0068372Y0056087D03*
X0070577Y0056087D03*
X0070852Y0056087D03*
X0070852Y0061598D03*
X0070852Y0066953D03*
X0070026Y0066953D03*
X0069474Y0066953D03*
X0068372Y0066953D03*
X0078923Y0067661D03*
X0080577Y0067661D03*
X0081404Y0061874D03*
X0080577Y0055929D03*
X0080301Y0055929D03*
X0079199Y0055929D03*
X0078923Y0055929D03*
X0060222Y0057937D03*
X0059750Y0055693D03*
X0058333Y0063016D03*
X0050222Y0057937D03*
X0049750Y0055693D03*
D75*
X0070577Y0059669D03*
X0070852Y0059512D03*
X0071128Y0059394D03*
X0070852Y0063528D03*
X0071128Y0063646D03*
X0078096Y0063646D03*
X0079199Y0061441D03*
X0080026Y0059945D03*
X0080852Y0059945D03*
X0081128Y0059945D03*
X0081404Y0063646D03*
D76*
X0081266Y0067307D03*
X0081266Y0056283D03*
X0058667Y0065614D03*
X0051305Y0064906D03*
X0050951Y0065142D03*
X0050833Y0065142D03*
X0048667Y0065142D03*
X0048589Y0065142D03*
D77*
X0048589Y0062780D03*
X0048470Y0062780D03*
X0050951Y0062780D03*
X0050557Y0058528D03*
X0050478Y0057346D03*
X0048943Y0057346D03*
X0058943Y0057346D03*
X0060478Y0057346D03*
X0060478Y0058409D03*
X0060478Y0059827D03*
X0060085Y0061835D03*
X0059967Y0061835D03*
X0058470Y0061126D03*
X0069888Y0061520D03*
X0071266Y0059315D03*
X0070439Y0063449D03*
X0071266Y0063724D03*
X0079061Y0061520D03*
X0081266Y0059866D03*
X0078785Y0058488D03*
D78*
X0079337Y0058272D03*
X0081266Y0061854D03*
X0079888Y0065437D03*
X0079612Y0065437D03*
X0068785Y0062957D03*
X0068785Y0060083D03*
D79*
X0070990Y0059453D03*
X0070990Y0063587D03*
X0078234Y0063587D03*
X0078510Y0063587D03*
X0078785Y0063587D03*
X0079061Y0063587D03*
X0079337Y0063587D03*
X0079612Y0063587D03*
X0079888Y0063587D03*
X0080163Y0063587D03*
X0080439Y0063587D03*
X0080715Y0063587D03*
X0080990Y0063587D03*
X0081266Y0063587D03*
X0079337Y0061382D03*
X0079337Y0060004D03*
X0079612Y0060004D03*
X0079888Y0060004D03*
X0079061Y0060004D03*
X0078785Y0060004D03*
X0078510Y0060004D03*
D80*
X0081128Y0056205D03*
X0081128Y0067386D03*
X0068096Y0062976D03*
X0068096Y0060063D03*
D81*
X0069199Y0060004D03*
X0081128Y0061933D03*
D82*
X0081128Y0063587D03*
X0080852Y0063587D03*
X0080577Y0063587D03*
X0080301Y0063587D03*
X0080026Y0063587D03*
X0079750Y0063587D03*
X0079474Y0063587D03*
X0079199Y0063587D03*
X0078923Y0063587D03*
X0078648Y0063587D03*
X0078372Y0063587D03*
X0078372Y0060004D03*
X0078648Y0060004D03*
X0078923Y0060004D03*
X0079199Y0060004D03*
X0079474Y0060004D03*
X0079750Y0060004D03*
D83*
X0078510Y0056067D03*
X0080990Y0056067D03*
X0071266Y0056224D03*
X0068234Y0060083D03*
X0068234Y0062957D03*
X0069612Y0063665D03*
X0071266Y0066815D03*
X0078510Y0067524D03*
D84*
X0078785Y0065024D03*
X0080163Y0062268D03*
X0080715Y0059945D03*
X0080990Y0059945D03*
X0078234Y0059945D03*
X0070439Y0059669D03*
X0070715Y0063528D03*
D85*
X0069061Y0063035D03*
X0069061Y0060004D03*
X0079061Y0058350D03*
X0080990Y0061933D03*
D86*
X0080990Y0067445D03*
D87*
X0080852Y0067524D03*
X0069750Y0066815D03*
X0068096Y0066815D03*
X0069750Y0063665D03*
X0070301Y0056224D03*
X0068096Y0056224D03*
X0080852Y0056067D03*
D88*
X0080715Y0056008D03*
X0078785Y0056008D03*
X0070990Y0061520D03*
X0069888Y0063724D03*
X0078785Y0067583D03*
X0080715Y0067583D03*
D89*
X0080715Y0062071D03*
X0070163Y0061520D03*
X0060360Y0061835D03*
X0060360Y0059945D03*
X0059022Y0059945D03*
X0059967Y0058291D03*
X0059140Y0057228D03*
X0050951Y0058764D03*
X0049140Y0057228D03*
X0048195Y0061244D03*
X0051030Y0062780D03*
D90*
X0048333Y0062780D03*
X0060222Y0061835D03*
X0070026Y0061520D03*
X0071404Y0059315D03*
X0070301Y0057937D03*
X0071404Y0063724D03*
X0070301Y0064827D03*
X0080026Y0057937D03*
X0080577Y0058488D03*
D91*
X0080577Y0059866D03*
X0078923Y0061520D03*
X0070577Y0063449D03*
X0069750Y0061520D03*
X0058333Y0058409D03*
X0048333Y0061362D03*
D92*
X0051167Y0061303D03*
X0050695Y0058587D03*
X0058333Y0061067D03*
X0061167Y0058350D03*
X0078096Y0059925D03*
X0079474Y0057878D03*
X0079750Y0057878D03*
X0080577Y0062130D03*
X0080577Y0065161D03*
D93*
X0080439Y0067661D03*
X0079061Y0067661D03*
X0077959Y0061874D03*
X0079061Y0055929D03*
X0080439Y0055929D03*
X0070990Y0056087D03*
X0070715Y0056087D03*
X0070439Y0056087D03*
X0070163Y0063803D03*
X0070163Y0066953D03*
X0069612Y0066953D03*
X0070990Y0066953D03*
X0060951Y0061717D03*
X0061030Y0055693D03*
X0051030Y0055693D03*
D94*
X0049415Y0056106D03*
X0051305Y0058823D03*
X0059415Y0056106D03*
X0069612Y0056500D03*
X0069888Y0056500D03*
X0070163Y0056500D03*
X0071541Y0056500D03*
X0080439Y0058980D03*
X0071541Y0066539D03*
D95*
X0078785Y0061579D03*
X0080439Y0062130D03*
X0079888Y0057878D03*
X0079612Y0057878D03*
X0070163Y0059650D03*
X0059022Y0057287D03*
X0050833Y0058705D03*
X0050478Y0058469D03*
X0049967Y0058232D03*
X0049022Y0057287D03*
X0048589Y0058705D03*
X0050478Y0060240D03*
D96*
X0069061Y0058075D03*
X0070439Y0058075D03*
X0070439Y0064965D03*
X0069061Y0064965D03*
X0080439Y0065240D03*
D97*
X0080301Y0062209D03*
X0070577Y0064965D03*
X0070301Y0059728D03*
X0070577Y0058075D03*
D98*
X0079474Y0055870D03*
X0079750Y0055870D03*
X0080026Y0055870D03*
X0080026Y0067720D03*
X0080301Y0067720D03*
X0079750Y0067720D03*
X0079474Y0067720D03*
X0079199Y0067720D03*
D99*
X0079337Y0067720D03*
X0079612Y0067720D03*
X0079888Y0067720D03*
X0080163Y0067720D03*
X0080163Y0055870D03*
X0079888Y0055870D03*
X0079612Y0055870D03*
X0079337Y0055870D03*
X0060951Y0055634D03*
X0060833Y0055634D03*
X0059967Y0055634D03*
X0059888Y0055634D03*
X0059140Y0055634D03*
X0058589Y0055634D03*
X0058470Y0055634D03*
X0060833Y0061776D03*
X0058470Y0062957D03*
X0050951Y0055634D03*
X0050833Y0055634D03*
X0049888Y0055634D03*
X0049140Y0055634D03*
X0048470Y0055634D03*
D100*
X0067959Y0060004D03*
X0067959Y0063035D03*
X0069337Y0063862D03*
X0080163Y0058902D03*
D101*
X0078234Y0061795D03*
X0079337Y0065378D03*
X0080163Y0065378D03*
X0070439Y0061520D03*
D102*
X0069474Y0061520D03*
X0080026Y0062346D03*
D103*
X0080026Y0065437D03*
X0079750Y0065437D03*
X0079474Y0065437D03*
X0079199Y0058272D03*
X0070577Y0061579D03*
X0069199Y0063114D03*
X0068923Y0062957D03*
X0068923Y0060083D03*
X0069750Y0059650D03*
D104*
X0070715Y0059591D03*
X0069612Y0061520D03*
X0079888Y0062346D03*
D105*
X0079750Y0061244D03*
X0069199Y0061520D03*
D106*
X0079474Y0061303D03*
X0079750Y0062406D03*
D107*
X0079612Y0061303D03*
X0070715Y0058154D03*
X0070715Y0065043D03*
D108*
X0079612Y0062484D03*
X0049140Y0062484D03*
D109*
X0069474Y0059866D03*
X0079199Y0065378D03*
D110*
X0079061Y0065299D03*
X0078510Y0061717D03*
X0077959Y0059787D03*
X0069888Y0059669D03*
X0069612Y0059787D03*
X0069337Y0059945D03*
D111*
X0070026Y0059728D03*
X0068923Y0058075D03*
X0068923Y0064965D03*
X0078923Y0065240D03*
X0078648Y0061657D03*
D112*
X0078648Y0056008D03*
X0071128Y0061520D03*
X0068372Y0062898D03*
X0070026Y0063724D03*
X0068372Y0060142D03*
X0078648Y0067583D03*
D113*
X0078372Y0067445D03*
X0069474Y0063587D03*
X0078372Y0056146D03*
D114*
X0078234Y0056205D03*
X0067959Y0056362D03*
X0067959Y0066677D03*
X0078234Y0067386D03*
D115*
X0078096Y0067248D03*
X0078096Y0056343D03*
X0070026Y0056500D03*
X0069750Y0056500D03*
X0069474Y0056500D03*
X0058805Y0065673D03*
X0050695Y0065201D03*
D116*
X0068648Y0067031D03*
X0068923Y0067031D03*
X0069199Y0067031D03*
X0070301Y0067031D03*
X0070577Y0067031D03*
X0068648Y0062898D03*
X0068648Y0060142D03*
X0068648Y0056008D03*
X0068923Y0056008D03*
X0078096Y0061795D03*
D117*
X0077959Y0056480D03*
D118*
X0077959Y0063587D03*
X0068785Y0064965D03*
X0068785Y0058075D03*
D119*
X0062093Y0060063D03*
X0057407Y0060063D03*
D120*
X0057526Y0060240D03*
X0061974Y0060240D03*
X0047762Y0060240D03*
D121*
X0061876Y0060358D03*
D122*
X0061758Y0060476D03*
D123*
X0061620Y0060535D03*
X0057841Y0060535D03*
D124*
X0057959Y0060594D03*
X0061502Y0060594D03*
D125*
X0061404Y0060654D03*
D126*
X0061305Y0055929D03*
X0059533Y0055929D03*
X0051305Y0055929D03*
X0050085Y0060535D03*
X0049967Y0060535D03*
X0049888Y0060535D03*
X0049612Y0060535D03*
X0049533Y0060535D03*
X0049415Y0060535D03*
X0058470Y0065614D03*
D127*
X0061305Y0062071D03*
D128*
X0061167Y0055811D03*
D129*
X0061167Y0061598D03*
X0051167Y0065024D03*
D130*
X0060695Y0065201D03*
X0061167Y0064965D03*
D131*
X0059888Y0061776D03*
X0059888Y0058469D03*
X0060557Y0058469D03*
X0061030Y0058469D03*
X0058470Y0058469D03*
X0049888Y0058350D03*
X0048667Y0058705D03*
X0048943Y0060240D03*
X0050360Y0061303D03*
X0050833Y0062720D03*
X0048667Y0062720D03*
D132*
X0049140Y0060594D03*
X0049533Y0055870D03*
X0058195Y0055870D03*
X0061030Y0061657D03*
D133*
X0061030Y0065024D03*
X0060833Y0065142D03*
X0060557Y0065260D03*
X0060478Y0065260D03*
X0060085Y0065378D03*
X0049967Y0064906D03*
X0049415Y0064906D03*
D134*
X0049022Y0061362D03*
X0050478Y0061362D03*
X0051030Y0061362D03*
X0049022Y0058646D03*
X0048943Y0058646D03*
X0050557Y0057346D03*
X0058589Y0058528D03*
X0058943Y0059827D03*
X0058667Y0061244D03*
X0058589Y0061244D03*
X0059533Y0061717D03*
X0059612Y0061717D03*
X0059533Y0063016D03*
X0060833Y0058528D03*
X0060951Y0058528D03*
X0060557Y0057346D03*
D135*
X0060951Y0065083D03*
X0060360Y0065319D03*
X0049888Y0064846D03*
X0049533Y0064846D03*
D136*
X0048333Y0058764D03*
X0050222Y0055575D03*
X0050695Y0055575D03*
X0058805Y0055575D03*
X0060222Y0055575D03*
X0060695Y0055575D03*
D137*
X0060695Y0058528D03*
X0059750Y0058528D03*
X0058805Y0061362D03*
X0059278Y0061598D03*
X0050695Y0062661D03*
X0048805Y0062661D03*
D138*
X0048805Y0055516D03*
X0059750Y0060122D03*
X0060695Y0061776D03*
D139*
X0058589Y0063016D03*
X0060085Y0058055D03*
X0060085Y0055575D03*
X0060360Y0055575D03*
X0060478Y0055575D03*
X0060557Y0055575D03*
X0059022Y0055575D03*
X0058943Y0055575D03*
X0058667Y0055575D03*
X0050557Y0055575D03*
X0050478Y0055575D03*
X0050360Y0055575D03*
X0050085Y0055575D03*
X0049967Y0055575D03*
X0049022Y0055575D03*
X0048943Y0055575D03*
X0048667Y0055575D03*
X0048589Y0055575D03*
X0050085Y0058055D03*
D140*
X0048470Y0058764D03*
X0050360Y0060299D03*
X0059415Y0060063D03*
X0059533Y0060063D03*
X0059967Y0060063D03*
X0060085Y0060063D03*
X0060478Y0061835D03*
X0060557Y0061835D03*
D141*
X0058195Y0062957D03*
X0060360Y0057878D03*
X0059612Y0055752D03*
X0068234Y0056146D03*
X0068234Y0066894D03*
X0069888Y0066894D03*
X0050360Y0057878D03*
X0049612Y0055752D03*
D142*
X0051167Y0062839D03*
X0060222Y0060004D03*
D143*
X0060222Y0065378D03*
D144*
X0059967Y0065437D03*
X0059888Y0065437D03*
X0050085Y0064965D03*
D145*
X0051030Y0058823D03*
X0058195Y0060949D03*
X0059612Y0060122D03*
X0059888Y0060122D03*
X0058667Y0062957D03*
D146*
X0059888Y0063016D03*
X0059140Y0058646D03*
X0050833Y0061480D03*
X0050360Y0062543D03*
X0049022Y0062543D03*
X0048667Y0061480D03*
X0048589Y0061480D03*
X0049533Y0058528D03*
D147*
X0048805Y0058705D03*
X0059750Y0061776D03*
D148*
X0059750Y0063016D03*
X0050695Y0061480D03*
D149*
X0050222Y0065024D03*
X0059750Y0065496D03*
D150*
X0059612Y0062957D03*
X0059415Y0061657D03*
X0059140Y0061539D03*
X0059022Y0061539D03*
X0058943Y0061421D03*
X0058943Y0058587D03*
X0059022Y0058587D03*
X0058667Y0058587D03*
X0059415Y0058587D03*
X0059533Y0058587D03*
X0059612Y0058587D03*
X0050951Y0061421D03*
X0050557Y0061421D03*
X0050557Y0062602D03*
X0050478Y0062602D03*
X0048943Y0062602D03*
X0048943Y0061421D03*
X0048470Y0061421D03*
X0049140Y0058587D03*
X0049415Y0058587D03*
X0049612Y0058469D03*
D151*
X0049140Y0065024D03*
X0059612Y0065496D03*
D152*
X0059533Y0065555D03*
X0059415Y0065555D03*
X0051305Y0062012D03*
X0050360Y0065083D03*
D153*
X0059278Y0065614D03*
X0059278Y0056283D03*
D154*
X0059278Y0058587D03*
X0058805Y0058587D03*
X0049750Y0058469D03*
X0049278Y0058587D03*
X0048805Y0061421D03*
D155*
X0058805Y0063016D03*
X0059278Y0060063D03*
D156*
X0059140Y0060004D03*
X0058195Y0058350D03*
X0049022Y0060240D03*
X0048195Y0062839D03*
D157*
X0049022Y0065024D03*
X0059140Y0065614D03*
D158*
X0059022Y0065614D03*
X0058943Y0065614D03*
X0050557Y0065142D03*
D159*
X0051030Y0065083D03*
X0048470Y0065083D03*
X0048195Y0064965D03*
X0058195Y0065437D03*
X0058589Y0065673D03*
D160*
X0051167Y0058823D03*
X0051167Y0055752D03*
X0048333Y0055752D03*
X0058333Y0055752D03*
X0071128Y0056146D03*
X0071128Y0066894D03*
D161*
X0058333Y0065614D03*
X0049750Y0060535D03*
X0049278Y0060535D03*
D162*
X0058077Y0060654D03*
D163*
X0057762Y0060476D03*
D164*
X0057644Y0060358D03*
X0051502Y0060358D03*
X0047959Y0060358D03*
D165*
X0047407Y0059827D03*
X0052093Y0059827D03*
D166*
X0051974Y0060004D03*
X0047526Y0060004D03*
D167*
X0051876Y0060122D03*
D168*
X0051758Y0060240D03*
D169*
X0051620Y0060299D03*
X0047841Y0060299D03*
D170*
X0051404Y0060417D03*
D171*
X0050478Y0065083D03*
X0048943Y0065083D03*
D172*
X0050222Y0060594D03*
D173*
X0050222Y0062484D03*
D174*
X0049750Y0064787D03*
D175*
X0049612Y0064787D03*
D176*
X0049278Y0056224D03*
D177*
X0049278Y0064965D03*
D178*
X0048805Y0065142D03*
D179*
X0048333Y0065083D03*
D180*
X0048195Y0058764D03*
X0048195Y0055811D03*
D181*
X0048077Y0060417D03*
D182*
X0047644Y0060122D03*
D183*
X0066994Y0061520D03*
X0067270Y0061520D03*
X0067545Y0061520D03*
X0067821Y0061520D03*
X0071679Y0061520D03*
X0071955Y0061520D03*
X0072230Y0061520D03*
X0072506Y0061520D03*
D184*
X0072368Y0061520D03*
X0072093Y0061520D03*
X0071817Y0061520D03*
X0067683Y0061520D03*
X0067407Y0061520D03*
X0067132Y0061520D03*
D185*
X0071541Y0061520D03*
D186*
X0071404Y0061520D03*
X0071404Y0056283D03*
X0071404Y0066756D03*
D187*
X0071266Y0061520D03*
D188*
X0070715Y0061520D03*
X0068510Y0062898D03*
X0068510Y0060142D03*
X0068510Y0056008D03*
X0068785Y0056008D03*
X0069061Y0056008D03*
X0069061Y0067031D03*
X0068785Y0067031D03*
X0068510Y0067031D03*
X0069337Y0067031D03*
X0070439Y0067031D03*
X0070715Y0067031D03*
D189*
X0069337Y0056776D03*
D190*
X0069337Y0061520D03*
M02*
