%
M48
M72
T01C0.03200
T02C0.03937
T03C0.04000
T04C0.13000
%
T01
X39750Y65449
X39750Y85449
X69750Y85449
X69750Y65449
T02
X99565Y55626
X119250Y22949
X136967Y36728
X138935Y95272
X119250Y127949
X101533Y114169
T03
X79750Y100449
X69750Y100449
X59750Y100449
X49750Y100449
X49750Y50449
X59750Y50449
X69750Y50449
X79750Y50449
T04
X12250Y25449
X12250Y125449
X157250Y125449
X157250Y25449
M30
