M48
;GenerationSoftware,Autodesk,EAGLE,9.6.2*%
;CreationDate,2021-01-08T22:38:24Z*%
FMAT,2
ICI,OFF
METRIC,TZ,000.000
T4C0.813
T3C1.000
T2C1.016
T1C3.302
%
G90
M71
T1
X-11430Y12700
X25400Y12700
X25400Y-12700
X-11430Y-12700
T2
X-1905Y-6350
X635Y-6350
X3175Y-6350
X5715Y-6350
X-1905Y6350
X635Y6350
X3175Y6350
X5715Y6350
T3
X15748Y13335
X11248Y9835
X20748Y5035
X15748Y-13335
X20248Y-9835
X10748Y-5035
T4
X-4445Y2540
X3175Y2540
X-4445Y-2540
X3175Y-2540
M30